<?xml version="1.0" encoding="utf-8" standalone="no"?>
<!DOCTYPE svg PUBLIC "-//W3C//DTD SVG 1.1//EN"
  "http://www.w3.org/Graphics/SVG/1.1/DTD/svg11.dtd">
<svg xmlns:xlink="http://www.w3.org/1999/xlink" width="720pt" height="576pt" viewBox="0 0 720 576" xmlns="http://www.w3.org/2000/svg" version="1.1">
 <metadata>
  <rdf:RDF xmlns:dc="http://purl.org/dc/elements/1.1/" xmlns:cc="http://creativecommons.org/ns#" xmlns:rdf="http://www.w3.org/1999/02/22-rdf-syntax-ns#">
   <cc:Work>
    <dc:type rdf:resource="http://purl.org/dc/dcmitype/StillImage"/>
    <dc:date>2025-11-03T13:17:23.291585</dc:date>
    <dc:format>image/svg+xml</dc:format>
    <dc:creator>
     <cc:Agent>
      <dc:title>Matplotlib v3.10.0, https://matplotlib.org/</dc:title>
     </cc:Agent>
    </dc:creator>
   </cc:Work>
  </rdf:RDF>
 </metadata>
 <defs>
  <style type="text/css">*{stroke-linejoin: round; stroke-linecap: butt}</style>
 </defs>
 <g id="figure_1">
  <g id="patch_1">
   <path d="M 0 576 
L 720 576 
L 720 0 
L 0 0 
z
" style="fill: #ffffff"/>
  </g>
  <g id="axes_1">
   <g id="patch_2">
    <path d="M 90 512.64 
L 648 512.64 
L 648 69.12 
L 90 69.12 
z
" style="fill: #ffffff"/>
   </g>
   <g id="patch_3">
    <path d="M 466.383338 192.519641 
C 451.29904 191.601778 436.623587 193.834726 425.589075 198.726704 
C 414.554564 203.618681 408.061913 210.77028 407.541055 218.606444 
C 407.020196 226.442608 412.513655 234.323549 422.811561 240.51358 
C 433.109468 246.703612 447.371043 250.697346 462.45534 251.615209 
C 477.539637 252.533071 492.215091 250.300124 503.249602 245.408146 
C 514.284114 240.516168 520.776764 233.364569 521.297623 225.528406 
C 521.818481 217.692242 516.325022 209.811301 506.027116 203.62127 
C 495.72921 197.431238 481.467635 193.437504 466.383338 192.519641 
L 466.383338 192.519641 
z
" clip-path="url(#p3b0163ca4b)" style="fill: none; stroke: #000000; stroke-linejoin: miter"/>
   </g>
   <g id="patch_4">
    <path d="M 120.251633 492.48 
C 121.547945 492.48 122.791338 491.987223 123.707969 491.110196 
C 124.6246 490.23317 125.13963 489.043499 125.13963 487.803197 
C 125.13963 486.562894 124.6246 485.373224 123.707969 484.496197 
C 122.791338 483.619171 121.547945 483.126394 120.251633 483.126394 
C 118.955321 483.126394 117.711928 483.619171 116.795298 484.496197 
C 115.878667 485.373224 115.363636 486.562894 115.363636 487.803197 
C 115.363636 489.043499 115.878667 490.23317 116.795298 491.110196 
C 117.711928 491.987223 118.955321 492.48 120.251633 492.48 
L 120.251633 492.48 
z
" clip-path="url(#p3b0163ca4b)" style="fill: none; stroke: #000000; stroke-linejoin: miter"/>
   </g>
   <g id="patch_5">
    <path d="M 572.535617 308.59347 
C 559.457696 308.94547 546.996671 312.1067 537.896936 317.380933 
C 528.797202 322.655167 523.801712 329.611787 524.010665 336.718678 
C 524.219618 343.82557 529.615954 350.502487 539.011192 355.278916 
C 548.40643 360.055345 561.033491 362.541312 574.111412 362.189311 
C 587.189332 361.83731 599.650358 358.676081 608.750092 353.401848 
C 617.849826 348.127614 622.845317 341.170994 622.636364 334.064103 
C 622.427411 326.957211 617.031075 320.280294 607.635837 315.503865 
C 598.240598 310.727436 585.613537 308.241469 572.535617 308.59347 
L 572.535617 308.59347 
z
" clip-path="url(#p3b0163ca4b)" style="fill: none; stroke: #000000; stroke-linejoin: miter"/>
   </g>
   <g id="patch_6">
    <path d="M 428.583625 106.131916 
C 408.921527 95.535747 387.647751 89.473386 369.4476 89.28 
C 351.247448 89.086614 337.606883 94.77799 331.53008 105.10067 
C 325.453277 115.42335 327.43638 129.534532 337.042634 144.326393 
C 346.648888 159.118253 363.093985 173.383102 382.756083 183.979272 
C 402.418182 194.575441 423.691957 200.637802 441.892109 200.831188 
C 460.09226 201.024574 473.732826 195.333198 479.809629 185.010518 
C 485.886432 174.687838 483.903329 160.576656 474.297074 145.784795 
C 464.69082 130.992935 448.245723 116.728086 428.583625 106.131916 
L 428.583625 106.131916 
z
" clip-path="url(#p3b0163ca4b)" style="fill: none; stroke: #000000; stroke-linejoin: miter"/>
   </g>
   <g id="patch_7">
    <path d="M 564.169647 282.173066 
C 561.120708 275.707876 556.907108 270.063159 552.456841 266.482096 
C 548.006575 262.901034 543.682987 261.676004 540.438298 263.076806 
C 537.193609 264.477609 535.292733 268.389873 535.154316 273.951969 
C 535.015899 279.514065 536.651242 286.271872 539.70018 292.737061 
C 542.749119 299.202251 546.962719 304.846968 551.412986 308.428031 
C 555.863252 312.009093 560.18684 313.234123 563.431529 311.833321 
C 566.676218 310.432518 568.577094 306.520254 568.715511 300.958158 
C 568.853928 295.396062 567.218585 288.638255 564.169647 282.173066 
L 564.169647 282.173066 
z
" clip-path="url(#p3b0163ca4b)" style="fill: none; stroke: #000000; stroke-linejoin: miter"/>
   </g>
   <g id="PathCollection_1">
    <defs>
     <path id="C0_0_fedffaa439" d="M 0 3.162278 
C 0.838646 3.162278 1.643056 2.82908 2.236068 2.236068 
C 2.82908 1.643056 3.162278 0.838646 3.162278 -0 
C 3.162278 -0.838646 2.82908 -1.643056 2.236068 -2.236068 
C 1.643056 -2.82908 0.838646 -3.162278 0 -3.162278 
C -0.838646 -3.162278 -1.643056 -2.82908 -2.236068 -2.236068 
C -2.82908 -1.643056 -3.162278 -0.838646 -3.162278 0 
C -3.162278 0.838646 -2.82908 1.643056 -2.236068 2.236068 
C -1.643056 2.82908 -0.838646 3.162278 0 3.162278 
z
"/>
    </defs>
    <g clip-path="url(#p3b0163ca4b)">
     <use xlink:href="#C0_0_fedffaa439" x="570.835991" y="351.711891" style="fill: #4169e1; stroke: #4169e1"/>
    </g>
    <g clip-path="url(#p3b0163ca4b)">
     <use xlink:href="#C0_0_fedffaa439" x="476.556556" y="246.046444" style="fill: #ff4500; stroke: #ff4500"/>
    </g>
    <g clip-path="url(#p3b0163ca4b)">
     <use xlink:href="#C0_0_fedffaa439" x="597.828767" y="343.254079" style="fill: #ffd700; stroke: #ffd700"/>
    </g>
    <g clip-path="url(#p3b0163ca4b)">
     <use xlink:href="#C0_0_fedffaa439" x="576.34593" y="333.242045" style="fill: #32cd32; stroke: #32cd32"/>
    </g>
    <g clip-path="url(#p3b0163ca4b)">
     <use xlink:href="#C0_0_fedffaa439" x="393.83293" y="176.764459" style="fill: #00008b; stroke: #00008b"/>
    </g>
    <g clip-path="url(#p3b0163ca4b)">
     <use xlink:href="#C0_0_fedffaa439" x="447.896256" y="155.154803" style="fill: #1e90ff; stroke: #1e90ff"/>
    </g>
    <g clip-path="url(#p3b0163ca4b)">
     <use xlink:href="#C0_0_fedffaa439" x="533.389546" y="332.86993" style="fill: #ffff00; stroke: #ffff00"/>
    </g>
    <g clip-path="url(#p3b0163ca4b)">
     <use xlink:href="#C0_0_fedffaa439" x="475.909518" y="219.628975" style="fill: #808080; stroke: #808080"/>
    </g>
    <g clip-path="url(#p3b0163ca4b)">
     <use xlink:href="#C0_0_fedffaa439" x="423.119931" y="137.421509" style="fill: #4169e1; stroke: #4169e1"/>
    </g>
    <g clip-path="url(#p3b0163ca4b)">
     <use xlink:href="#C0_0_fedffaa439" x="543.469905" y="270.145411" style="fill: #ff4500; stroke: #ff4500"/>
    </g>
    <g clip-path="url(#p3b0163ca4b)">
     <use xlink:href="#C0_0_fedffaa439" x="357.830296" y="110.881612" style="fill: #00008b; stroke: #00008b"/>
    </g>
    <g clip-path="url(#p3b0163ca4b)">
     <use xlink:href="#C0_0_fedffaa439" x="458.619418" y="205.79646" style="fill: #4169e1; stroke: #4169e1"/>
    </g>
    <g clip-path="url(#p3b0163ca4b)">
     <use xlink:href="#C0_0_fedffaa439" x="588.217335" y="315.879031" style="fill: #ff4500; stroke: #ff4500"/>
    </g>
    <g clip-path="url(#p3b0163ca4b)">
     <use xlink:href="#C0_0_fedffaa439" x="418.309419" y="223.002077" style="fill: #00008b; stroke: #00008b"/>
    </g>
    <g clip-path="url(#p3b0163ca4b)">
     <use xlink:href="#C0_0_fedffaa439" x="549.427294" y="289.853995" style="fill: #ff4500; stroke: #ff4500"/>
    </g>
    <g clip-path="url(#p3b0163ca4b)">
     <use xlink:href="#C0_0_fedffaa439" x="551.369306" y="299.915694" style="fill: #ff4500; stroke: #ff4500"/>
    </g>
    <g clip-path="url(#p3b0163ca4b)">
     <use xlink:href="#C0_0_fedffaa439" x="492.701779" y="215.863183" style="fill: #00008b; stroke: #00008b"/>
    </g>
    <g clip-path="url(#p3b0163ca4b)">
     <use xlink:href="#C0_0_fedffaa439" x="563.473163" y="289.905156" style="fill: #1e90ff; stroke: #1e90ff"/>
    </g>
    <g clip-path="url(#p3b0163ca4b)">
     <use xlink:href="#C0_0_fedffaa439" x="120.251633" y="487.803197" style="fill: #00008b; stroke: #00008b"/>
    </g>
   </g>
   <g id="matplotlib.axis_1">
    <g id="xtick_1">
     <g id="line2d_1">
      <defs>
       <path id="ma33e825bbc" d="M 0 0 
L 0 3.5 
" style="stroke: #000000; stroke-width: 0.8"/>
      </defs>
      <g>
       <use xlink:href="#ma33e825bbc" x="187.740446" y="512.64" style="stroke: #000000; stroke-width: 0.8"/>
      </g>
     </g>
     <g id="text_1">
      <!-- −0.6 -->
      <g transform="translate(175.599039 527.238438) scale(0.1 -0.1)">
       <defs>
        <path id="DejaVuSans-2212" d="M 678 2272 
L 4684 2272 
L 4684 1741 
L 678 1741 
L 678 2272 
z
" transform="scale(0.015625)"/>
        <path id="DejaVuSans-30" d="M 2034 4250 
Q 1547 4250 1301 3770 
Q 1056 3291 1056 2328 
Q 1056 1369 1301 889 
Q 1547 409 2034 409 
Q 2525 409 2770 889 
Q 3016 1369 3016 2328 
Q 3016 3291 2770 3770 
Q 2525 4250 2034 4250 
z
M 2034 4750 
Q 2819 4750 3233 4129 
Q 3647 3509 3647 2328 
Q 3647 1150 3233 529 
Q 2819 -91 2034 -91 
Q 1250 -91 836 529 
Q 422 1150 422 2328 
Q 422 3509 836 4129 
Q 1250 4750 2034 4750 
z
" transform="scale(0.015625)"/>
        <path id="DejaVuSans-2e" d="M 684 794 
L 1344 794 
L 1344 0 
L 684 0 
L 684 794 
z
" transform="scale(0.015625)"/>
        <path id="DejaVuSans-36" d="M 2113 2584 
Q 1688 2584 1439 2293 
Q 1191 2003 1191 1497 
Q 1191 994 1439 701 
Q 1688 409 2113 409 
Q 2538 409 2786 701 
Q 3034 994 3034 1497 
Q 3034 2003 2786 2293 
Q 2538 2584 2113 2584 
z
M 3366 4563 
L 3366 3988 
Q 3128 4100 2886 4159 
Q 2644 4219 2406 4219 
Q 1781 4219 1451 3797 
Q 1122 3375 1075 2522 
Q 1259 2794 1537 2939 
Q 1816 3084 2150 3084 
Q 2853 3084 3261 2657 
Q 3669 2231 3669 1497 
Q 3669 778 3244 343 
Q 2819 -91 2113 -91 
Q 1303 -91 875 529 
Q 447 1150 447 2328 
Q 447 3434 972 4092 
Q 1497 4750 2381 4750 
Q 2619 4750 2861 4703 
Q 3103 4656 3366 4563 
z
" transform="scale(0.015625)"/>
       </defs>
       <use xlink:href="#DejaVuSans-2212"/>
       <use xlink:href="#DejaVuSans-30" transform="translate(83.789062 0)"/>
       <use xlink:href="#DejaVuSans-2e" transform="translate(147.412109 0)"/>
       <use xlink:href="#DejaVuSans-36" transform="translate(179.199219 0)"/>
      </g>
     </g>
    </g>
    <g id="xtick_2">
     <g id="line2d_2">
      <g>
       <use xlink:href="#ma33e825bbc" x="285.500384" y="512.64" style="stroke: #000000; stroke-width: 0.8"/>
      </g>
     </g>
     <g id="text_2">
      <!-- −0.4 -->
      <g transform="translate(273.358978 527.238438) scale(0.1 -0.1)">
       <defs>
        <path id="DejaVuSans-34" d="M 2419 4116 
L 825 1625 
L 2419 1625 
L 2419 4116 
z
M 2253 4666 
L 3047 4666 
L 3047 1625 
L 3713 1625 
L 3713 1100 
L 3047 1100 
L 3047 0 
L 2419 0 
L 2419 1100 
L 313 1100 
L 313 1709 
L 2253 4666 
z
" transform="scale(0.015625)"/>
       </defs>
       <use xlink:href="#DejaVuSans-2212"/>
       <use xlink:href="#DejaVuSans-30" transform="translate(83.789062 0)"/>
       <use xlink:href="#DejaVuSans-2e" transform="translate(147.412109 0)"/>
       <use xlink:href="#DejaVuSans-34" transform="translate(179.199219 0)"/>
      </g>
     </g>
    </g>
    <g id="xtick_3">
     <g id="line2d_3">
      <g>
       <use xlink:href="#ma33e825bbc" x="383.260323" y="512.64" style="stroke: #000000; stroke-width: 0.8"/>
      </g>
     </g>
     <g id="text_3">
      <!-- −0.2 -->
      <g transform="translate(371.118917 527.238438) scale(0.1 -0.1)">
       <defs>
        <path id="DejaVuSans-32" d="M 1228 531 
L 3431 531 
L 3431 0 
L 469 0 
L 469 531 
Q 828 903 1448 1529 
Q 2069 2156 2228 2338 
Q 2531 2678 2651 2914 
Q 2772 3150 2772 3378 
Q 2772 3750 2511 3984 
Q 2250 4219 1831 4219 
Q 1534 4219 1204 4116 
Q 875 4013 500 3803 
L 500 4441 
Q 881 4594 1212 4672 
Q 1544 4750 1819 4750 
Q 2544 4750 2975 4387 
Q 3406 4025 3406 3419 
Q 3406 3131 3298 2873 
Q 3191 2616 2906 2266 
Q 2828 2175 2409 1742 
Q 1991 1309 1228 531 
z
" transform="scale(0.015625)"/>
       </defs>
       <use xlink:href="#DejaVuSans-2212"/>
       <use xlink:href="#DejaVuSans-30" transform="translate(83.789062 0)"/>
       <use xlink:href="#DejaVuSans-2e" transform="translate(147.412109 0)"/>
       <use xlink:href="#DejaVuSans-32" transform="translate(179.199219 0)"/>
      </g>
     </g>
    </g>
    <g id="xtick_4">
     <g id="line2d_4">
      <g>
       <use xlink:href="#ma33e825bbc" x="481.020262" y="512.64" style="stroke: #000000; stroke-width: 0.8"/>
      </g>
     </g>
     <g id="text_4">
      <!-- 0.0 -->
      <g transform="translate(473.068699 527.238438) scale(0.1 -0.1)">
       <use xlink:href="#DejaVuSans-30"/>
       <use xlink:href="#DejaVuSans-2e" transform="translate(63.623047 0)"/>
       <use xlink:href="#DejaVuSans-30" transform="translate(95.410156 0)"/>
      </g>
     </g>
    </g>
    <g id="xtick_5">
     <g id="line2d_5">
      <g>
       <use xlink:href="#ma33e825bbc" x="578.7802" y="512.64" style="stroke: #000000; stroke-width: 0.8"/>
      </g>
     </g>
     <g id="text_5">
      <!-- 0.2 -->
      <g transform="translate(570.828638 527.238438) scale(0.1 -0.1)">
       <use xlink:href="#DejaVuSans-30"/>
       <use xlink:href="#DejaVuSans-2e" transform="translate(63.623047 0)"/>
       <use xlink:href="#DejaVuSans-32" transform="translate(95.410156 0)"/>
      </g>
     </g>
    </g>
   </g>
   <g id="matplotlib.axis_2">
    <g id="ytick_1">
     <g id="line2d_6">
      <defs>
       <path id="m41dc7f50e6" d="M 0 0 
L -3.5 0 
" style="stroke: #000000; stroke-width: 0.8"/>
      </defs>
      <g>
       <use xlink:href="#m41dc7f50e6" x="90" y="450.500544" style="stroke: #000000; stroke-width: 0.8"/>
      </g>
     </g>
     <g id="text_6">
      <!-- −0.4 -->
      <g transform="translate(58.717187 454.299763) scale(0.1 -0.1)">
       <use xlink:href="#DejaVuSans-2212"/>
       <use xlink:href="#DejaVuSans-30" transform="translate(83.789062 0)"/>
       <use xlink:href="#DejaVuSans-2e" transform="translate(147.412109 0)"/>
       <use xlink:href="#DejaVuSans-34" transform="translate(179.199219 0)"/>
      </g>
     </g>
    </g>
    <g id="ytick_2">
     <g id="line2d_7">
      <g>
       <use xlink:href="#m41dc7f50e6" x="90" y="356.964479" style="stroke: #000000; stroke-width: 0.8"/>
      </g>
     </g>
     <g id="text_7">
      <!-- −0.2 -->
      <g transform="translate(58.717187 360.763698) scale(0.1 -0.1)">
       <use xlink:href="#DejaVuSans-2212"/>
       <use xlink:href="#DejaVuSans-30" transform="translate(83.789062 0)"/>
       <use xlink:href="#DejaVuSans-2e" transform="translate(147.412109 0)"/>
       <use xlink:href="#DejaVuSans-32" transform="translate(179.199219 0)"/>
      </g>
     </g>
    </g>
    <g id="ytick_3">
     <g id="line2d_8">
      <g>
       <use xlink:href="#m41dc7f50e6" x="90" y="263.428415" style="stroke: #000000; stroke-width: 0.8"/>
      </g>
     </g>
     <g id="text_8">
      <!-- 0.0 -->
      <g transform="translate(67.096875 267.227633) scale(0.1 -0.1)">
       <use xlink:href="#DejaVuSans-30"/>
       <use xlink:href="#DejaVuSans-2e" transform="translate(63.623047 0)"/>
       <use xlink:href="#DejaVuSans-30" transform="translate(95.410156 0)"/>
      </g>
     </g>
    </g>
    <g id="ytick_4">
     <g id="line2d_9">
      <g>
       <use xlink:href="#m41dc7f50e6" x="90" y="169.89235" style="stroke: #000000; stroke-width: 0.8"/>
      </g>
     </g>
     <g id="text_9">
      <!-- 0.2 -->
      <g transform="translate(67.096875 173.691569) scale(0.1 -0.1)">
       <use xlink:href="#DejaVuSans-30"/>
       <use xlink:href="#DejaVuSans-2e" transform="translate(63.623047 0)"/>
       <use xlink:href="#DejaVuSans-32" transform="translate(95.410156 0)"/>
      </g>
     </g>
    </g>
    <g id="ytick_5">
     <g id="line2d_10">
      <g>
       <use xlink:href="#m41dc7f50e6" x="90" y="76.356285" style="stroke: #000000; stroke-width: 0.8"/>
      </g>
     </g>
     <g id="text_10">
      <!-- 0.4 -->
      <g transform="translate(67.096875 80.155504) scale(0.1 -0.1)">
       <use xlink:href="#DejaVuSans-30"/>
       <use xlink:href="#DejaVuSans-2e" transform="translate(63.623047 0)"/>
       <use xlink:href="#DejaVuSans-34" transform="translate(95.410156 0)"/>
      </g>
     </g>
    </g>
   </g>
   <g id="patch_8">
    <path d="M 90 512.64 
L 90 69.12 
" style="fill: none; stroke: #000000; stroke-width: 0.8; stroke-linejoin: miter; stroke-linecap: square"/>
   </g>
   <g id="patch_9">
    <path d="M 648 512.64 
L 648 69.12 
" style="fill: none; stroke: #000000; stroke-width: 0.8; stroke-linejoin: miter; stroke-linecap: square"/>
   </g>
   <g id="patch_10">
    <path d="M 90 512.64 
L 648 512.64 
" style="fill: none; stroke: #000000; stroke-width: 0.8; stroke-linejoin: miter; stroke-linecap: square"/>
   </g>
   <g id="patch_11">
    <path d="M 90 69.12 
L 648 69.12 
" style="fill: none; stroke: #000000; stroke-width: 0.8; stroke-linejoin: miter; stroke-linecap: square"/>
   </g>
   <g id="text_11">
    <!-- 0.68 -->
    <g transform="translate(418.824786 196.301756) scale(0.1 -0.1)">
     <defs>
      <path id="DejaVuSans-38" d="M 2034 2216 
Q 1584 2216 1326 1975 
Q 1069 1734 1069 1313 
Q 1069 891 1326 650 
Q 1584 409 2034 409 
Q 2484 409 2743 651 
Q 3003 894 3003 1313 
Q 3003 1734 2745 1975 
Q 2488 2216 2034 2216 
z
M 1403 2484 
Q 997 2584 770 2862 
Q 544 3141 544 3541 
Q 544 4100 942 4425 
Q 1341 4750 2034 4750 
Q 2731 4750 3128 4425 
Q 3525 4100 3525 3541 
Q 3525 3141 3298 2862 
Q 3072 2584 2669 2484 
Q 3125 2378 3379 2068 
Q 3634 1759 3634 1313 
Q 3634 634 3220 271 
Q 2806 -91 2034 -91 
Q 1263 -91 848 271 
Q 434 634 434 1313 
Q 434 1759 690 2068 
Q 947 2378 1403 2484 
z
M 1172 3481 
Q 1172 3119 1398 2916 
Q 1625 2713 2034 2713 
Q 2441 2713 2670 2916 
Q 2900 3119 2900 3481 
Q 2900 3844 2670 4047 
Q 2441 4250 2034 4250 
Q 1625 4250 1398 4047 
Q 1172 3844 1172 3481 
z
" transform="scale(0.015625)"/>
     </defs>
     <use xlink:href="#DejaVuSans-30"/>
     <use xlink:href="#DejaVuSans-2e" transform="translate(63.623047 0)"/>
     <use xlink:href="#DejaVuSans-36" transform="translate(95.410156 0)"/>
     <use xlink:href="#DejaVuSans-38" transform="translate(159.033203 0)"/>
    </g>
   </g>
   <g id="text_12">
    <!-- -0.00 -->
    <g transform="translate(74.65708 462.037528) scale(0.1 -0.1)">
     <defs>
      <path id="DejaVuSans-2d" d="M 313 2009 
L 1997 2009 
L 1997 1497 
L 313 1497 
L 313 2009 
z
" transform="scale(0.015625)"/>
     </defs>
     <use xlink:href="#DejaVuSans-2d"/>
     <use xlink:href="#DejaVuSans-30" transform="translate(36.083984 0)"/>
     <use xlink:href="#DejaVuSans-2e" transform="translate(99.707031 0)"/>
     <use xlink:href="#DejaVuSans-30" transform="translate(131.494141 0)"/>
     <use xlink:href="#DejaVuSans-30" transform="translate(195.117188 0)"/>
    </g>
   </g>
   <g id="text_13">
    <!-- 0.83 -->
    <g transform="translate(533.857628 311.864885) scale(0.1 -0.1)">
     <defs>
      <path id="DejaVuSans-33" d="M 2597 2516 
Q 3050 2419 3304 2112 
Q 3559 1806 3559 1356 
Q 3559 666 3084 287 
Q 2609 -91 1734 -91 
Q 1441 -91 1130 -33 
Q 819 25 488 141 
L 488 750 
Q 750 597 1062 519 
Q 1375 441 1716 441 
Q 2309 441 2620 675 
Q 2931 909 2931 1356 
Q 2931 1769 2642 2001 
Q 2353 2234 1838 2234 
L 1294 2234 
L 1294 2753 
L 1863 2753 
Q 2328 2753 2575 2939 
Q 2822 3125 2822 3475 
Q 2822 3834 2567 4026 
Q 2313 4219 1838 4219 
Q 1578 4219 1281 4162 
Q 984 4106 628 3988 
L 628 4550 
Q 988 4650 1302 4700 
Q 1616 4750 1894 4750 
Q 2613 4750 3031 4423 
Q 3450 4097 3450 3541 
Q 3450 3153 3228 2886 
Q 3006 2619 2597 2516 
z
" transform="scale(0.015625)"/>
     </defs>
     <use xlink:href="#DejaVuSans-30"/>
     <use xlink:href="#DejaVuSans-2e" transform="translate(63.623047 0)"/>
     <use xlink:href="#DejaVuSans-38" transform="translate(95.410156 0)"/>
     <use xlink:href="#DejaVuSans-33" transform="translate(159.033203 0)"/>
    </g>
   </g>
   <g id="text_14">
    <!-- 0.33 -->
    <g transform="translate(337.59678 107.237271) scale(0.1 -0.1)">
     <use xlink:href="#DejaVuSans-30"/>
     <use xlink:href="#DejaVuSans-2e" transform="translate(63.623047 0)"/>
     <use xlink:href="#DejaVuSans-33" transform="translate(95.410156 0)"/>
     <use xlink:href="#DejaVuSans-33" transform="translate(159.033203 0)"/>
    </g>
   </g>
   <g id="text_15">
    <!-- -0.00 -->
    <g transform="translate(529.57269 275.10129) scale(0.1 -0.1)">
     <use xlink:href="#DejaVuSans-2d"/>
     <use xlink:href="#DejaVuSans-30" transform="translate(36.083984 0)"/>
     <use xlink:href="#DejaVuSans-2e" transform="translate(99.707031 0)"/>
     <use xlink:href="#DejaVuSans-30" transform="translate(131.494141 0)"/>
     <use xlink:href="#DejaVuSans-30" transform="translate(195.117188 0)"/>
    </g>
   </g>
   <g id="text_16">
    <!-- CRE-9-2021-11-23-ITM-010_EN -->
    <g transform="translate(276.160313 63.12) scale(0.12 -0.12)">
     <defs>
      <path id="DejaVuSans-43" d="M 4122 4306 
L 4122 3641 
Q 3803 3938 3442 4084 
Q 3081 4231 2675 4231 
Q 1875 4231 1450 3742 
Q 1025 3253 1025 2328 
Q 1025 1406 1450 917 
Q 1875 428 2675 428 
Q 3081 428 3442 575 
Q 3803 722 4122 1019 
L 4122 359 
Q 3791 134 3420 21 
Q 3050 -91 2638 -91 
Q 1578 -91 968 557 
Q 359 1206 359 2328 
Q 359 3453 968 4101 
Q 1578 4750 2638 4750 
Q 3056 4750 3426 4639 
Q 3797 4528 4122 4306 
z
" transform="scale(0.015625)"/>
      <path id="DejaVuSans-52" d="M 2841 2188 
Q 3044 2119 3236 1894 
Q 3428 1669 3622 1275 
L 4263 0 
L 3584 0 
L 2988 1197 
Q 2756 1666 2539 1819 
Q 2322 1972 1947 1972 
L 1259 1972 
L 1259 0 
L 628 0 
L 628 4666 
L 2053 4666 
Q 2853 4666 3247 4331 
Q 3641 3997 3641 3322 
Q 3641 2881 3436 2590 
Q 3231 2300 2841 2188 
z
M 1259 4147 
L 1259 2491 
L 2053 2491 
Q 2509 2491 2742 2702 
Q 2975 2913 2975 3322 
Q 2975 3731 2742 3939 
Q 2509 4147 2053 4147 
L 1259 4147 
z
" transform="scale(0.015625)"/>
      <path id="DejaVuSans-45" d="M 628 4666 
L 3578 4666 
L 3578 4134 
L 1259 4134 
L 1259 2753 
L 3481 2753 
L 3481 2222 
L 1259 2222 
L 1259 531 
L 3634 531 
L 3634 0 
L 628 0 
L 628 4666 
z
" transform="scale(0.015625)"/>
      <path id="DejaVuSans-39" d="M 703 97 
L 703 672 
Q 941 559 1184 500 
Q 1428 441 1663 441 
Q 2288 441 2617 861 
Q 2947 1281 2994 2138 
Q 2813 1869 2534 1725 
Q 2256 1581 1919 1581 
Q 1219 1581 811 2004 
Q 403 2428 403 3163 
Q 403 3881 828 4315 
Q 1253 4750 1959 4750 
Q 2769 4750 3195 4129 
Q 3622 3509 3622 2328 
Q 3622 1225 3098 567 
Q 2575 -91 1691 -91 
Q 1453 -91 1209 -44 
Q 966 3 703 97 
z
M 1959 2075 
Q 2384 2075 2632 2365 
Q 2881 2656 2881 3163 
Q 2881 3666 2632 3958 
Q 2384 4250 1959 4250 
Q 1534 4250 1286 3958 
Q 1038 3666 1038 3163 
Q 1038 2656 1286 2365 
Q 1534 2075 1959 2075 
z
" transform="scale(0.015625)"/>
      <path id="DejaVuSans-31" d="M 794 531 
L 1825 531 
L 1825 4091 
L 703 3866 
L 703 4441 
L 1819 4666 
L 2450 4666 
L 2450 531 
L 3481 531 
L 3481 0 
L 794 0 
L 794 531 
z
" transform="scale(0.015625)"/>
      <path id="DejaVuSans-49" d="M 628 4666 
L 1259 4666 
L 1259 0 
L 628 0 
L 628 4666 
z
" transform="scale(0.015625)"/>
      <path id="DejaVuSans-54" d="M -19 4666 
L 3928 4666 
L 3928 4134 
L 2272 4134 
L 2272 0 
L 1638 0 
L 1638 4134 
L -19 4134 
L -19 4666 
z
" transform="scale(0.015625)"/>
      <path id="DejaVuSans-4d" d="M 628 4666 
L 1569 4666 
L 2759 1491 
L 3956 4666 
L 4897 4666 
L 4897 0 
L 4281 0 
L 4281 4097 
L 3078 897 
L 2444 897 
L 1241 4097 
L 1241 0 
L 628 0 
L 628 4666 
z
" transform="scale(0.015625)"/>
      <path id="DejaVuSans-5f" d="M 3263 -1063 
L 3263 -1509 
L -63 -1509 
L -63 -1063 
L 3263 -1063 
z
" transform="scale(0.015625)"/>
      <path id="DejaVuSans-4e" d="M 628 4666 
L 1478 4666 
L 3547 763 
L 3547 4666 
L 4159 4666 
L 4159 0 
L 3309 0 
L 1241 3903 
L 1241 0 
L 628 0 
L 628 4666 
z
" transform="scale(0.015625)"/>
     </defs>
     <use xlink:href="#DejaVuSans-43"/>
     <use xlink:href="#DejaVuSans-52" transform="translate(69.824219 0)"/>
     <use xlink:href="#DejaVuSans-45" transform="translate(139.306641 0)"/>
     <use xlink:href="#DejaVuSans-2d" transform="translate(202.490234 0)"/>
     <use xlink:href="#DejaVuSans-39" transform="translate(238.574219 0)"/>
     <use xlink:href="#DejaVuSans-2d" transform="translate(302.197266 0)"/>
     <use xlink:href="#DejaVuSans-32" transform="translate(338.28125 0)"/>
     <use xlink:href="#DejaVuSans-30" transform="translate(401.904297 0)"/>
     <use xlink:href="#DejaVuSans-32" transform="translate(465.527344 0)"/>
     <use xlink:href="#DejaVuSans-31" transform="translate(529.150391 0)"/>
     <use xlink:href="#DejaVuSans-2d" transform="translate(592.773438 0)"/>
     <use xlink:href="#DejaVuSans-31" transform="translate(628.857422 0)"/>
     <use xlink:href="#DejaVuSans-31" transform="translate(692.480469 0)"/>
     <use xlink:href="#DejaVuSans-2d" transform="translate(756.103516 0)"/>
     <use xlink:href="#DejaVuSans-32" transform="translate(792.1875 0)"/>
     <use xlink:href="#DejaVuSans-33" transform="translate(855.810547 0)"/>
     <use xlink:href="#DejaVuSans-2d" transform="translate(919.433594 0)"/>
     <use xlink:href="#DejaVuSans-49" transform="translate(955.517578 0)"/>
     <use xlink:href="#DejaVuSans-54" transform="translate(985.009766 0)"/>
     <use xlink:href="#DejaVuSans-4d" transform="translate(1046.09375 0)"/>
     <use xlink:href="#DejaVuSans-2d" transform="translate(1132.373047 0)"/>
     <use xlink:href="#DejaVuSans-30" transform="translate(1168.457031 0)"/>
     <use xlink:href="#DejaVuSans-31" transform="translate(1232.080078 0)"/>
     <use xlink:href="#DejaVuSans-30" transform="translate(1295.703125 0)"/>
     <use xlink:href="#DejaVuSans-5f" transform="translate(1359.326172 0)"/>
     <use xlink:href="#DejaVuSans-45" transform="translate(1409.326172 0)"/>
     <use xlink:href="#DejaVuSans-4e" transform="translate(1472.509766 0)"/>
    </g>
   </g>
  </g>
 </g>
 <defs>
  <clipPath id="p3b0163ca4b">
   <rect x="90" y="69.12" width="558" height="443.52"/>
  </clipPath>
 </defs>
</svg>
