<?xml version="1.0" encoding="utf-8" standalone="no"?>
<!DOCTYPE svg PUBLIC "-//W3C//DTD SVG 1.1//EN"
  "http://www.w3.org/Graphics/SVG/1.1/DTD/svg11.dtd">
<svg xmlns:xlink="http://www.w3.org/1999/xlink" width="720pt" height="576pt" viewBox="0 0 720 576" xmlns="http://www.w3.org/2000/svg" version="1.1">
 <metadata>
  <rdf:RDF xmlns:dc="http://purl.org/dc/elements/1.1/" xmlns:cc="http://creativecommons.org/ns#" xmlns:rdf="http://www.w3.org/1999/02/22-rdf-syntax-ns#">
   <cc:Work>
    <dc:type rdf:resource="http://purl.org/dc/dcmitype/StillImage"/>
    <dc:date>2025-11-03T14:28:38.845639</dc:date>
    <dc:format>image/svg+xml</dc:format>
    <dc:creator>
     <cc:Agent>
      <dc:title>Matplotlib v3.10.0, https://matplotlib.org/</dc:title>
     </cc:Agent>
    </dc:creator>
   </cc:Work>
  </rdf:RDF>
 </metadata>
 <defs>
  <style type="text/css">*{stroke-linejoin: round; stroke-linecap: butt}</style>
 </defs>
 <g id="figure_1">
  <g id="patch_1">
   <path d="M 0 576 
L 720 576 
L 720 0 
L 0 0 
z
" style="fill: #ffffff"/>
  </g>
  <g id="axes_1">
   <g id="patch_2">
    <path d="M 90 512.64 
L 648 512.64 
L 648 69.12 
L 90 69.12 
z
" style="fill: #ffffff"/>
   </g>
   <g id="patch_3">
    <path d="M 292.040205 285.143352 
C 279.782138 291.78144 268.370637 298.723063 260.318953 304.439411 
C 252.267268 310.155759 248.232785 314.180117 249.104051 315.626166 
C 249.975316 317.072215 255.681196 315.821893 264.965036 312.150567 
C 274.248876 308.479242 286.352692 302.686661 298.610759 296.048574 
C 310.868826 289.410486 322.280327 282.468863 330.332011 276.752515 
C 338.383695 271.036167 342.418179 267.01181 341.546913 265.56576 
C 340.675647 264.119711 334.969768 265.370034 325.685927 269.041359 
C 316.402087 272.712684 304.298271 278.505265 292.040205 285.143352 
L 292.040205 285.143352 
z
" clip-path="url(#p88befc6bc5)" style="fill: none; stroke: #000000; stroke-linejoin: miter"/>
   </g>
   <g id="patch_4">
    <path d="M 402.959192 267.106149 
C 396.173708 252.368702 386.978577 239.344669 377.398919 230.902443 
C 367.819261 222.460217 358.637212 219.289067 351.875013 222.087404 
C 345.112814 224.88574 341.322567 233.42509 341.339032 245.824762 
C 341.355496 258.224434 345.177327 273.472048 351.962811 288.209495 
C 358.748294 302.946943 367.943425 315.970975 377.523083 324.413202 
C 387.102742 332.855428 396.28479 336.026577 403.046989 333.228241 
C 409.809189 330.429904 413.599435 321.890554 413.58297 309.490882 
C 413.566506 297.091211 409.744675 281.843596 402.959192 267.106149 
L 402.959192 267.106149 
z
" clip-path="url(#p88befc6bc5)" style="fill: none; stroke: #000000; stroke-linejoin: miter"/>
   </g>
   <g id="patch_5">
    <path d="M 322.192041 416.52292 
C 304.806167 424.137222 289.803922 434.875845 280.489377 446.373732 
C 271.174832 457.871619 268.308478 469.190018 272.521597 477.836185 
C 276.734716 486.482351 287.683324 491.750362 302.956119 492.48 
C 318.228913 493.209638 336.578937 489.341331 353.964812 481.72703 
C 371.350686 474.112728 386.352931 463.374105 395.667476 451.876218 
C 404.982021 440.378331 407.848374 429.059931 403.635256 420.413765 
C 399.422137 411.767599 388.473528 406.499588 373.200734 405.769949 
C 357.92794 405.040311 339.577915 408.908618 322.192041 416.52292 
L 322.192041 416.52292 
z
" clip-path="url(#p88befc6bc5)" style="fill: none; stroke: #000000; stroke-linejoin: miter"/>
   </g>
   <g id="patch_6">
    <path d="M 604.844352 300.31939 
C 593.358471 275.644476 577.725034 253.908249 561.387123 239.89786 
C 545.049213 225.88747 529.340747 220.746806 517.721333 225.608037 
C 506.101919 230.469269 499.520231 244.935499 499.425809 265.820708 
C 499.331387 286.705916 505.73194 312.304919 517.217821 336.979833 
C 528.703702 361.654747 544.337139 383.390974 560.67505 397.401364 
C 577.01296 411.411753 592.721426 416.552417 604.34084 411.691186 
C 615.960253 406.829954 622.541942 392.363724 622.636364 371.478515 
C 622.730786 350.593307 616.330233 324.994304 604.844352 300.31939 
L 604.844352 300.31939 
z
" clip-path="url(#p88befc6bc5)" style="fill: none; stroke: #000000; stroke-linejoin: miter"/>
   </g>
   <g id="patch_7">
    <path d="M 374.792574 114.835095 
C 353.717814 99.968629 329.527048 90.775361 307.548011 89.28 
C 285.568975 87.784639 267.596158 94.109276 257.587867 106.860982 
C 247.579575 119.612688 246.352941 137.750344 254.178116 157.27934 
C 262.00329 176.808337 278.241384 196.134219 299.316144 211.000684 
C 320.390904 225.86715 344.58167 235.060418 366.560707 236.555779 
C 388.539743 238.05114 406.51256 231.726503 416.520851 218.974797 
C 426.529143 206.223091 427.755777 188.085435 419.930603 168.556439 
C 412.105428 149.027442 395.867335 129.70156 374.792574 114.835095 
L 374.792574 114.835095 
z
" clip-path="url(#p88befc6bc5)" style="fill: none; stroke: #000000; stroke-linejoin: miter"/>
   </g>
   <g id="patch_8">
    <path d="M 246.81041 327.491595 
C 241.400291 304.955608 229.285997 284.833792 213.135562 271.557741 
C 196.985126 258.281691 178.11716 252.935339 160.687114 256.696156 
C 143.257069 260.456973 128.688029 273.017905 120.188657 291.612554 
C 111.689285 310.207202 109.953517 333.317396 115.363636 355.853383 
C 120.773755 378.38937 132.888049 398.511187 149.038485 411.787237 
C 165.18892 425.063287 184.056886 430.40964 201.486932 426.648823 
C 218.916978 422.888006 233.486018 410.327073 241.98539 391.732425 
C 250.484761 373.137776 252.220529 350.027583 246.81041 327.491595 
L 246.81041 327.491595 
z
" clip-path="url(#p88befc6bc5)" style="fill: none; stroke: #000000; stroke-linejoin: miter"/>
   </g>
   <g id="patch_9">
    <path d="M 519.469766 319.704677 
C 497.608414 306.220995 473.973131 297.173217 453.769314 294.554011 
C 433.565497 291.934805 418.442697 295.958017 411.731537 305.737583 
C 405.020376 315.517149 407.268791 330.254609 417.981594 346.704209 
C 428.694397 363.15381 446.996935 379.972513 468.858287 393.456195 
C 490.719639 406.939878 514.354922 415.987656 534.55874 418.606862 
C 554.762557 421.226068 569.885356 417.202855 576.596517 407.42329 
C 583.307677 397.643724 581.059262 382.906264 570.346459 366.456664 
C 559.633656 350.007063 541.331118 333.18836 519.469766 319.704677 
L 519.469766 319.704677 
z
" clip-path="url(#p88befc6bc5)" style="fill: none; stroke: #000000; stroke-linejoin: miter"/>
   </g>
   <g id="patch_10">
    <path d="M 461.804558 203.661613 
C 452.207171 193.363248 439.031069 186.810998 425.178137 185.447921 
C 411.325204 184.084844 397.926471 188.022229 387.932853 196.392912 
C 377.939235 204.763595 372.166667 216.884147 371.88649 230.085158 
C 371.606312 243.286169 376.841401 256.489834 386.438788 266.788199 
C 396.036175 277.086564 409.212277 283.638814 423.065209 285.001891 
C 436.918142 286.364968 450.316875 282.427584 460.310493 274.056901 
C 470.304111 265.686217 476.076679 253.565665 476.356857 240.364654 
C 476.637034 227.163644 471.401945 213.959979 461.804558 203.661613 
L 461.804558 203.661613 
z
" clip-path="url(#p88befc6bc5)" style="fill: none; stroke: #000000; stroke-linejoin: miter"/>
   </g>
   <g id="patch_11">
    <path d="M 358.063398 335.973747 
C 352.078668 324.220083 343.194872 314.384775 333.368563 308.633936 
C 323.542253 302.883096 313.575704 301.686256 305.663934 305.307005 
C 297.752163 308.927754 292.541131 317.070474 291.178508 327.941825 
C 289.815884 338.813176 292.41292 351.525562 298.39765 363.279226 
C 304.38238 375.032889 313.266176 384.868197 323.092485 390.619037 
C 332.918795 396.369876 342.885343 397.566716 350.797114 393.945967 
C 358.708885 390.325219 363.919917 382.182499 365.28254 371.311147 
C 366.645164 360.439796 364.048128 347.727411 358.063398 335.973747 
L 358.063398 335.973747 
z
" clip-path="url(#p88befc6bc5)" style="fill: none; stroke: #000000; stroke-linejoin: miter"/>
   </g>
   <g id="PathCollection_1">
    <defs>
     <path id="C0_0_d57f4ff31d" d="M 0 3.162278 
C 0.838646 3.162278 1.643056 2.82908 2.236068 2.236068 
C 2.82908 1.643056 3.162278 0.838646 3.162278 -0 
C 3.162278 -0.838646 2.82908 -1.643056 2.236068 -2.236068 
C 1.643056 -2.82908 0.838646 -3.162278 0 -3.162278 
C -0.838646 -3.162278 -1.643056 -2.82908 -2.236068 -2.236068 
C -2.82908 -1.643056 -3.162278 -0.838646 -3.162278 0 
C -3.162278 0.838646 -2.82908 1.643056 -2.236068 2.236068 
C -1.643056 2.82908 -0.838646 3.162278 0 3.162278 
z
"/>
    </defs>
    <g clip-path="url(#p88befc6bc5)">
     <use xlink:href="#C0_0_d57f4ff31d" x="528.607899" y="315.165607" style="fill: #0047ab; stroke: #0047ab"/>
    </g>
    <g clip-path="url(#p88befc6bc5)">
     <use xlink:href="#C0_0_d57f4ff31d" x="345.740994" y="384.715893" style="fill: #dd0000; stroke: #dd0000"/>
    </g>
    <g clip-path="url(#p88befc6bc5)">
     <use xlink:href="#C0_0_d57f4ff31d" x="372.69002" y="240.72281" style="fill: #002e5d; stroke: #002e5d"/>
    </g>
    <g clip-path="url(#p88befc6bc5)">
     <use xlink:href="#C0_0_d57f4ff31d" x="276.042152" y="125.361762" style="fill: #001a70; stroke: #001a70"/>
    </g>
    <g clip-path="url(#p88befc6bc5)">
     <use xlink:href="#C0_0_d57f4ff31d" x="352.326979" y="426.17314" style="fill: #ff9000; stroke: #ff9000"/>
    </g>
    <g clip-path="url(#p88befc6bc5)">
     <use xlink:href="#C0_0_d57f4ff31d" x="173.597884" y="400.044884" style="fill: #00a651; stroke: #00a651"/>
    </g>
    <g clip-path="url(#p88befc6bc5)">
     <use xlink:href="#C0_0_d57f4ff31d" x="129.016942" y="318.416364" style="fill: #8b1c62; stroke: #8b1c62"/>
    </g>
    <g clip-path="url(#p88befc6bc5)">
     <use xlink:href="#C0_0_d57f4ff31d" x="334.316812" y="210.230017" style="fill: #4c4c4c; stroke: #4c4c4c"/>
    </g>
    <g clip-path="url(#p88befc6bc5)">
     <use xlink:href="#C0_0_d57f4ff31d" x="595.410524" y="386.710115" style="fill: #0047ab; stroke: #0047ab"/>
    </g>
    <g clip-path="url(#p88befc6bc5)">
     <use xlink:href="#C0_0_d57f4ff31d" x="303.61052" y="335.388823" style="fill: #dd0000; stroke: #dd0000"/>
    </g>
    <g clip-path="url(#p88befc6bc5)">
     <use xlink:href="#C0_0_d57f4ff31d" x="310.064066" y="369.029683" style="fill: #a0a0a0; stroke: #a0a0a0"/>
    </g>
    <g clip-path="url(#p88befc6bc5)">
     <use xlink:href="#C0_0_d57f4ff31d" x="436.966647" y="258.151731" style="fill: #dd0000; stroke: #dd0000"/>
    </g>
    <g clip-path="url(#p88befc6bc5)">
     <use xlink:href="#C0_0_d57f4ff31d" x="491.880519" y="347.911974" style="fill: #002e5d; stroke: #002e5d"/>
    </g>
    <g clip-path="url(#p88befc6bc5)">
     <use xlink:href="#C0_0_d57f4ff31d" x="577.536946" y="283.612175" style="fill: #001a70; stroke: #001a70"/>
    </g>
    <g clip-path="url(#p88befc6bc5)">
     <use xlink:href="#C0_0_d57f4ff31d" x="192.55441" y="285.058075" style="fill: #ff9000; stroke: #ff9000"/>
    </g>
    <g clip-path="url(#p88befc6bc5)">
     <use xlink:href="#C0_0_d57f4ff31d" x="186.688136" y="348.084855" style="fill: #00a651; stroke: #00a651"/>
    </g>
    <g clip-path="url(#p88befc6bc5)">
     <use xlink:href="#C0_0_d57f4ff31d" x="391.175829" y="242.116365" style="fill: #8b1c62; stroke: #8b1c62"/>
    </g>
    <g clip-path="url(#p88befc6bc5)">
     <use xlink:href="#C0_0_d57f4ff31d" x="369.922579" y="278.210781" style="fill: #a0a0a0; stroke: #a0a0a0"/>
    </g>
    <g clip-path="url(#p88befc6bc5)">
     <use xlink:href="#C0_0_d57f4ff31d" x="287.979502" y="462.549359" style="fill: #0047ab; stroke: #0047ab"/>
    </g>
    <g clip-path="url(#p88befc6bc5)">
     <use xlink:href="#C0_0_d57f4ff31d" x="285.209629" y="292.106545" style="fill: #dd0000; stroke: #dd0000"/>
    </g>
    <g clip-path="url(#p88befc6bc5)">
     <use xlink:href="#C0_0_d57f4ff31d" x="404.127932" y="251.535907" style="fill: #002e5d; stroke: #002e5d"/>
    </g>
    <g clip-path="url(#p88befc6bc5)">
     <use xlink:href="#C0_0_d57f4ff31d" x="486.235711" y="342.8783" style="fill: #001a70; stroke: #001a70"/>
    </g>
    <g clip-path="url(#p88befc6bc5)">
     <use xlink:href="#C0_0_d57f4ff31d" x="351.174806" y="363.483848" style="fill: #ff9000; stroke: #ff9000"/>
    </g>
    <g clip-path="url(#p88befc6bc5)">
     <use xlink:href="#C0_0_d57f4ff31d" x="359.024788" y="258.068894" style="fill: #00a651; stroke: #00a651"/>
    </g>
    <g clip-path="url(#p88befc6bc5)">
     <use xlink:href="#C0_0_d57f4ff31d" x="278.934505" y="302.582302" style="fill: #8b1c62; stroke: #8b1c62"/>
    </g>
    <g clip-path="url(#p88befc6bc5)">
     <use xlink:href="#C0_0_d57f4ff31d" x="508.534275" y="393.777083" style="fill: #0047ab; stroke: #0047ab"/>
    </g>
    <g clip-path="url(#p88befc6bc5)">
     <use xlink:href="#C0_0_d57f4ff31d" x="441.044988" y="183.799493" style="fill: #001a70; stroke: #001a70"/>
    </g>
    <g clip-path="url(#p88befc6bc5)">
     <use xlink:href="#C0_0_d57f4ff31d" x="478.417812" y="341.243807" style="fill: #0047ab; stroke: #0047ab"/>
    </g>
    <g clip-path="url(#p88befc6bc5)">
     <use xlink:href="#C0_0_d57f4ff31d" x="333.750957" y="343.765256" style="fill: #dd0000; stroke: #dd0000"/>
    </g>
    <g clip-path="url(#p88befc6bc5)">
     <use xlink:href="#C0_0_d57f4ff31d" x="364.329109" y="143.999598" style="fill: #002e5d; stroke: #002e5d"/>
    </g>
    <g clip-path="url(#p88befc6bc5)">
     <use xlink:href="#C0_0_d57f4ff31d" x="448.62648" y="222.588128" style="fill: #001a70; stroke: #001a70"/>
    </g>
    <g clip-path="url(#p88befc6bc5)">
     <use xlink:href="#C0_0_d57f4ff31d" x="358.521937" y="242.512694" style="fill: #00a651; stroke: #00a651"/>
    </g>
    <g clip-path="url(#p88befc6bc5)">
     <use xlink:href="#C0_0_d57f4ff31d" x="564.571305" y="407.291189" style="fill: #0047ab; stroke: #0047ab"/>
    </g>
    <g clip-path="url(#p88befc6bc5)">
     <use xlink:href="#C0_0_d57f4ff31d" x="338.762498" y="321.965749" style="fill: #dd0000; stroke: #dd0000"/>
    </g>
    <g clip-path="url(#p88befc6bc5)">
     <use xlink:href="#C0_0_d57f4ff31d" x="321.832316" y="277.099044" style="fill: #001a70; stroke: #001a70"/>
    </g>
    <g clip-path="url(#p88befc6bc5)">
     <use xlink:href="#C0_0_d57f4ff31d" x="371.780742" y="319.589756" style="fill: #dd0000; stroke: #dd0000"/>
    </g>
    <g clip-path="url(#p88befc6bc5)">
     <use xlink:href="#C0_0_d57f4ff31d" x="409.839234" y="299.282907" style="fill: #002e5d; stroke: #002e5d"/>
    </g>
    <g clip-path="url(#p88befc6bc5)">
     <use xlink:href="#C0_0_d57f4ff31d" x="403.59475" y="226.197692" style="fill: #001a70; stroke: #001a70"/>
    </g>
    <g clip-path="url(#p88befc6bc5)">
     <use xlink:href="#C0_0_d57f4ff31d" x="416.648121" y="361.136053" style="fill: #0047ab; stroke: #0047ab"/>
    </g>
    <g clip-path="url(#p88befc6bc5)">
     <use xlink:href="#C0_0_d57f4ff31d" x="361.342549" y="435.681086" style="fill: #dd0000; stroke: #dd0000"/>
    </g>
    <g clip-path="url(#p88befc6bc5)">
     <use xlink:href="#C0_0_d57f4ff31d" x="379.998375" y="289.215168" style="fill: #002e5d; stroke: #002e5d"/>
    </g>
    <g clip-path="url(#p88befc6bc5)">
     <use xlink:href="#C0_0_d57f4ff31d" x="503.021005" y="349.650247" style="fill: #0047ab; stroke: #0047ab"/>
    </g>
    <g clip-path="url(#p88befc6bc5)">
     <use xlink:href="#C0_0_d57f4ff31d" x="453.085383" y="252.586284" style="fill: #002e5d; stroke: #002e5d"/>
    </g>
    <g clip-path="url(#p88befc6bc5)">
     <use xlink:href="#C0_0_d57f4ff31d" x="373.529373" y="172.080157" style="fill: #0047ab; stroke: #0047ab"/>
    </g>
    <g clip-path="url(#p88befc6bc5)">
     <use xlink:href="#C0_0_d57f4ff31d" x="314.509809" y="329.036146" style="fill: #002e5d; stroke: #002e5d"/>
    </g>
    <g clip-path="url(#p88befc6bc5)">
     <use xlink:href="#C0_0_d57f4ff31d" x="350.664667" y="472.096298" style="fill: #0047ab; stroke: #0047ab"/>
    </g>
    <g clip-path="url(#p88befc6bc5)">
     <use xlink:href="#C0_0_d57f4ff31d" x="397.910333" y="293.659556" style="fill: #002e5d; stroke: #002e5d"/>
    </g>
    <g clip-path="url(#p88befc6bc5)">
     <use xlink:href="#C0_0_d57f4ff31d" x="539.430515" y="366.013814" style="fill: #0047ab; stroke: #0047ab"/>
    </g>
    <g clip-path="url(#p88befc6bc5)">
     <use xlink:href="#C0_0_d57f4ff31d" x="542.56895" y="289.110547" style="fill: #0047ab; stroke: #0047ab"/>
    </g>
    <g clip-path="url(#p88befc6bc5)">
     <use xlink:href="#C0_0_d57f4ff31d" x="223.577797" y="356.758274" style="fill: #dd0000; stroke: #dd0000"/>
    </g>
    <g clip-path="url(#p88befc6bc5)">
     <use xlink:href="#C0_0_d57f4ff31d" x="390.826803" y="218.391984" style="fill: #002e5d; stroke: #002e5d"/>
    </g>
    <g clip-path="url(#p88befc6bc5)">
     <use xlink:href="#C0_0_d57f4ff31d" x="447.646252" y="261.656584" style="fill: #001a70; stroke: #001a70"/>
    </g>
    <g clip-path="url(#p88befc6bc5)">
     <use xlink:href="#C0_0_d57f4ff31d" x="458.737053" y="299.321454" style="fill: #a0a0a0; stroke: #a0a0a0"/>
    </g>
   </g>
   <g id="matplotlib.axis_1">
    <g id="xtick_1">
     <g id="line2d_1">
      <defs>
       <path id="m0fdee8e350" d="M 0 0 
L 0 3.5 
" style="stroke: #000000; stroke-width: 0.8"/>
      </defs>
      <g>
       <use xlink:href="#m0fdee8e350" x="150.03087" y="512.64" style="stroke: #000000; stroke-width: 0.8"/>
      </g>
     </g>
     <g id="text_1">
      <!-- −0.4 -->
      <g transform="translate(137.889464 527.238438) scale(0.1 -0.1)">
       <defs>
        <path id="DejaVuSans-2212" d="M 678 2272 
L 4684 2272 
L 4684 1741 
L 678 1741 
L 678 2272 
z
" transform="scale(0.015625)"/>
        <path id="DejaVuSans-30" d="M 2034 4250 
Q 1547 4250 1301 3770 
Q 1056 3291 1056 2328 
Q 1056 1369 1301 889 
Q 1547 409 2034 409 
Q 2525 409 2770 889 
Q 3016 1369 3016 2328 
Q 3016 3291 2770 3770 
Q 2525 4250 2034 4250 
z
M 2034 4750 
Q 2819 4750 3233 4129 
Q 3647 3509 3647 2328 
Q 3647 1150 3233 529 
Q 2819 -91 2034 -91 
Q 1250 -91 836 529 
Q 422 1150 422 2328 
Q 422 3509 836 4129 
Q 1250 4750 2034 4750 
z
" transform="scale(0.015625)"/>
        <path id="DejaVuSans-2e" d="M 684 794 
L 1344 794 
L 1344 0 
L 684 0 
L 684 794 
z
" transform="scale(0.015625)"/>
        <path id="DejaVuSans-34" d="M 2419 4116 
L 825 1625 
L 2419 1625 
L 2419 4116 
z
M 2253 4666 
L 3047 4666 
L 3047 1625 
L 3713 1625 
L 3713 1100 
L 3047 1100 
L 3047 0 
L 2419 0 
L 2419 1100 
L 313 1100 
L 313 1709 
L 2253 4666 
z
" transform="scale(0.015625)"/>
       </defs>
       <use xlink:href="#DejaVuSans-2212"/>
       <use xlink:href="#DejaVuSans-30" transform="translate(83.789062 0)"/>
       <use xlink:href="#DejaVuSans-2e" transform="translate(147.412109 0)"/>
       <use xlink:href="#DejaVuSans-34" transform="translate(179.199219 0)"/>
      </g>
     </g>
    </g>
    <g id="xtick_2">
     <g id="line2d_2">
      <g>
       <use xlink:href="#m0fdee8e350" x="266.694116" y="512.64" style="stroke: #000000; stroke-width: 0.8"/>
      </g>
     </g>
     <g id="text_2">
      <!-- −0.2 -->
      <g transform="translate(254.55271 527.238438) scale(0.1 -0.1)">
       <defs>
        <path id="DejaVuSans-32" d="M 1228 531 
L 3431 531 
L 3431 0 
L 469 0 
L 469 531 
Q 828 903 1448 1529 
Q 2069 2156 2228 2338 
Q 2531 2678 2651 2914 
Q 2772 3150 2772 3378 
Q 2772 3750 2511 3984 
Q 2250 4219 1831 4219 
Q 1534 4219 1204 4116 
Q 875 4013 500 3803 
L 500 4441 
Q 881 4594 1212 4672 
Q 1544 4750 1819 4750 
Q 2544 4750 2975 4387 
Q 3406 4025 3406 3419 
Q 3406 3131 3298 2873 
Q 3191 2616 2906 2266 
Q 2828 2175 2409 1742 
Q 1991 1309 1228 531 
z
" transform="scale(0.015625)"/>
       </defs>
       <use xlink:href="#DejaVuSans-2212"/>
       <use xlink:href="#DejaVuSans-30" transform="translate(83.789062 0)"/>
       <use xlink:href="#DejaVuSans-2e" transform="translate(147.412109 0)"/>
       <use xlink:href="#DejaVuSans-32" transform="translate(179.199219 0)"/>
      </g>
     </g>
    </g>
    <g id="xtick_3">
     <g id="line2d_3">
      <g>
       <use xlink:href="#m0fdee8e350" x="383.357361" y="512.64" style="stroke: #000000; stroke-width: 0.8"/>
      </g>
     </g>
     <g id="text_3">
      <!-- 0.0 -->
      <g transform="translate(375.405799 527.238438) scale(0.1 -0.1)">
       <use xlink:href="#DejaVuSans-30"/>
       <use xlink:href="#DejaVuSans-2e" transform="translate(63.623047 0)"/>
       <use xlink:href="#DejaVuSans-30" transform="translate(95.410156 0)"/>
      </g>
     </g>
    </g>
    <g id="xtick_4">
     <g id="line2d_4">
      <g>
       <use xlink:href="#m0fdee8e350" x="500.020607" y="512.64" style="stroke: #000000; stroke-width: 0.8"/>
      </g>
     </g>
     <g id="text_4">
      <!-- 0.2 -->
      <g transform="translate(492.069044 527.238438) scale(0.1 -0.1)">
       <use xlink:href="#DejaVuSans-30"/>
       <use xlink:href="#DejaVuSans-2e" transform="translate(63.623047 0)"/>
       <use xlink:href="#DejaVuSans-32" transform="translate(95.410156 0)"/>
      </g>
     </g>
    </g>
    <g id="xtick_5">
     <g id="line2d_5">
      <g>
       <use xlink:href="#m0fdee8e350" x="616.683852" y="512.64" style="stroke: #000000; stroke-width: 0.8"/>
      </g>
     </g>
     <g id="text_5">
      <!-- 0.4 -->
      <g transform="translate(608.73229 527.238438) scale(0.1 -0.1)">
       <use xlink:href="#DejaVuSans-30"/>
       <use xlink:href="#DejaVuSans-2e" transform="translate(63.623047 0)"/>
       <use xlink:href="#DejaVuSans-34" transform="translate(95.410156 0)"/>
      </g>
     </g>
    </g>
   </g>
   <g id="matplotlib.axis_2">
    <g id="ytick_1">
     <g id="line2d_6">
      <defs>
       <path id="m0966873782" d="M 0 0 
L -3.5 0 
" style="stroke: #000000; stroke-width: 0.8"/>
      </defs>
      <g>
       <use xlink:href="#m0966873782" x="90" y="473.408122" style="stroke: #000000; stroke-width: 0.8"/>
      </g>
     </g>
     <g id="text_6">
      <!-- −0.3 -->
      <g transform="translate(58.717187 477.20734) scale(0.1 -0.1)">
       <defs>
        <path id="DejaVuSans-33" d="M 2597 2516 
Q 3050 2419 3304 2112 
Q 3559 1806 3559 1356 
Q 3559 666 3084 287 
Q 2609 -91 1734 -91 
Q 1441 -91 1130 -33 
Q 819 25 488 141 
L 488 750 
Q 750 597 1062 519 
Q 1375 441 1716 441 
Q 2309 441 2620 675 
Q 2931 909 2931 1356 
Q 2931 1769 2642 2001 
Q 2353 2234 1838 2234 
L 1294 2234 
L 1294 2753 
L 1863 2753 
Q 2328 2753 2575 2939 
Q 2822 3125 2822 3475 
Q 2822 3834 2567 4026 
Q 2313 4219 1838 4219 
Q 1578 4219 1281 4162 
Q 984 4106 628 3988 
L 628 4550 
Q 988 4650 1302 4700 
Q 1616 4750 1894 4750 
Q 2613 4750 3031 4423 
Q 3450 4097 3450 3541 
Q 3450 3153 3228 2886 
Q 3006 2619 2597 2516 
z
" transform="scale(0.015625)"/>
       </defs>
       <use xlink:href="#DejaVuSans-2212"/>
       <use xlink:href="#DejaVuSans-30" transform="translate(83.789062 0)"/>
       <use xlink:href="#DejaVuSans-2e" transform="translate(147.412109 0)"/>
       <use xlink:href="#DejaVuSans-33" transform="translate(179.199219 0)"/>
      </g>
     </g>
    </g>
    <g id="ytick_2">
     <g id="line2d_7">
      <g>
       <use xlink:href="#m0966873782" x="90" y="418.107403" style="stroke: #000000; stroke-width: 0.8"/>
      </g>
     </g>
     <g id="text_7">
      <!-- −0.2 -->
      <g transform="translate(58.717187 421.906622) scale(0.1 -0.1)">
       <use xlink:href="#DejaVuSans-2212"/>
       <use xlink:href="#DejaVuSans-30" transform="translate(83.789062 0)"/>
       <use xlink:href="#DejaVuSans-2e" transform="translate(147.412109 0)"/>
       <use xlink:href="#DejaVuSans-32" transform="translate(179.199219 0)"/>
      </g>
     </g>
    </g>
    <g id="ytick_3">
     <g id="line2d_8">
      <g>
       <use xlink:href="#m0966873782" x="90" y="362.806684" style="stroke: #000000; stroke-width: 0.8"/>
      </g>
     </g>
     <g id="text_8">
      <!-- −0.1 -->
      <g transform="translate(58.717187 366.605903) scale(0.1 -0.1)">
       <defs>
        <path id="DejaVuSans-31" d="M 794 531 
L 1825 531 
L 1825 4091 
L 703 3866 
L 703 4441 
L 1819 4666 
L 2450 4666 
L 2450 531 
L 3481 531 
L 3481 0 
L 794 0 
L 794 531 
z
" transform="scale(0.015625)"/>
       </defs>
       <use xlink:href="#DejaVuSans-2212"/>
       <use xlink:href="#DejaVuSans-30" transform="translate(83.789062 0)"/>
       <use xlink:href="#DejaVuSans-2e" transform="translate(147.412109 0)"/>
       <use xlink:href="#DejaVuSans-31" transform="translate(179.199219 0)"/>
      </g>
     </g>
    </g>
    <g id="ytick_4">
     <g id="line2d_9">
      <g>
       <use xlink:href="#m0966873782" x="90" y="307.505965" style="stroke: #000000; stroke-width: 0.8"/>
      </g>
     </g>
     <g id="text_9">
      <!-- 0.0 -->
      <g transform="translate(67.096875 311.305184) scale(0.1 -0.1)">
       <use xlink:href="#DejaVuSans-30"/>
       <use xlink:href="#DejaVuSans-2e" transform="translate(63.623047 0)"/>
       <use xlink:href="#DejaVuSans-30" transform="translate(95.410156 0)"/>
      </g>
     </g>
    </g>
    <g id="ytick_5">
     <g id="line2d_10">
      <g>
       <use xlink:href="#m0966873782" x="90" y="252.205247" style="stroke: #000000; stroke-width: 0.8"/>
      </g>
     </g>
     <g id="text_10">
      <!-- 0.1 -->
      <g transform="translate(67.096875 256.004465) scale(0.1 -0.1)">
       <use xlink:href="#DejaVuSans-30"/>
       <use xlink:href="#DejaVuSans-2e" transform="translate(63.623047 0)"/>
       <use xlink:href="#DejaVuSans-31" transform="translate(95.410156 0)"/>
      </g>
     </g>
    </g>
    <g id="ytick_6">
     <g id="line2d_11">
      <g>
       <use xlink:href="#m0966873782" x="90" y="196.904528" style="stroke: #000000; stroke-width: 0.8"/>
      </g>
     </g>
     <g id="text_11">
      <!-- 0.2 -->
      <g transform="translate(67.096875 200.703747) scale(0.1 -0.1)">
       <use xlink:href="#DejaVuSans-30"/>
       <use xlink:href="#DejaVuSans-2e" transform="translate(63.623047 0)"/>
       <use xlink:href="#DejaVuSans-32" transform="translate(95.410156 0)"/>
      </g>
     </g>
    </g>
    <g id="ytick_7">
     <g id="line2d_12">
      <g>
       <use xlink:href="#m0966873782" x="90" y="141.603809" style="stroke: #000000; stroke-width: 0.8"/>
      </g>
     </g>
     <g id="text_12">
      <!-- 0.3 -->
      <g transform="translate(67.096875 145.403028) scale(0.1 -0.1)">
       <use xlink:href="#DejaVuSans-30"/>
       <use xlink:href="#DejaVuSans-2e" transform="translate(63.623047 0)"/>
       <use xlink:href="#DejaVuSans-33" transform="translate(95.410156 0)"/>
      </g>
     </g>
    </g>
    <g id="ytick_8">
     <g id="line2d_13">
      <g>
       <use xlink:href="#m0966873782" x="90" y="86.303091" style="stroke: #000000; stroke-width: 0.8"/>
      </g>
     </g>
     <g id="text_13">
      <!-- 0.4 -->
      <g transform="translate(67.096875 90.102309) scale(0.1 -0.1)">
       <use xlink:href="#DejaVuSans-30"/>
       <use xlink:href="#DejaVuSans-2e" transform="translate(63.623047 0)"/>
       <use xlink:href="#DejaVuSans-34" transform="translate(95.410156 0)"/>
      </g>
     </g>
    </g>
   </g>
   <g id="patch_12">
    <path d="M 90 512.64 
L 90 69.12 
" style="fill: none; stroke: #000000; stroke-width: 0.8; stroke-linejoin: miter; stroke-linecap: square"/>
   </g>
   <g id="patch_13">
    <path d="M 648 512.64 
L 648 69.12 
" style="fill: none; stroke: #000000; stroke-width: 0.8; stroke-linejoin: miter; stroke-linecap: square"/>
   </g>
   <g id="patch_14">
    <path d="M 90 512.64 
L 648 512.64 
" style="fill: none; stroke: #000000; stroke-width: 0.8; stroke-linejoin: miter; stroke-linecap: square"/>
   </g>
   <g id="patch_15">
    <path d="M 90 69.12 
L 648 69.12 
" style="fill: none; stroke: #000000; stroke-width: 0.8; stroke-linejoin: miter; stroke-linecap: square"/>
   </g>
   <g id="text_14">
    <!-- 0.58 -->
    <g transform="translate(252.741061 283.492713) scale(0.1 -0.1)">
     <defs>
      <path id="DejaVuSans-35" d="M 691 4666 
L 3169 4666 
L 3169 4134 
L 1269 4134 
L 1269 2991 
Q 1406 3038 1543 3061 
Q 1681 3084 1819 3084 
Q 2600 3084 3056 2656 
Q 3513 2228 3513 1497 
Q 3513 744 3044 326 
Q 2575 -91 1722 -91 
Q 1428 -91 1123 -41 
Q 819 9 494 109 
L 494 744 
Q 775 591 1075 516 
Q 1375 441 1709 441 
Q 2250 441 2565 725 
Q 2881 1009 2881 1497 
Q 2881 1984 2565 2268 
Q 2250 2553 1709 2553 
Q 1456 2553 1204 2497 
Q 953 2441 691 2322 
L 691 4666 
z
" transform="scale(0.015625)"/>
      <path id="DejaVuSans-38" d="M 2034 2216 
Q 1584 2216 1326 1975 
Q 1069 1734 1069 1313 
Q 1069 891 1326 650 
Q 1584 409 2034 409 
Q 2484 409 2743 651 
Q 3003 894 3003 1313 
Q 3003 1734 2745 1975 
Q 2488 2216 2034 2216 
z
M 1403 2484 
Q 997 2584 770 2862 
Q 544 3141 544 3541 
Q 544 4100 942 4425 
Q 1341 4750 2034 4750 
Q 2731 4750 3128 4425 
Q 3525 4100 3525 3541 
Q 3525 3141 3298 2862 
Q 3072 2584 2669 2484 
Q 3125 2378 3379 2068 
Q 3634 1759 3634 1313 
Q 3634 634 3220 271 
Q 2806 -91 2034 -91 
Q 1263 -91 848 271 
Q 434 634 434 1313 
Q 434 1759 690 2068 
Q 947 2378 1403 2484 
z
M 1172 3481 
Q 1172 3119 1398 2916 
Q 1625 2713 2034 2713 
Q 2441 2713 2670 2916 
Q 2900 3119 2900 3481 
Q 2900 3844 2670 4047 
Q 2441 4250 2034 4250 
Q 1625 4250 1398 4047 
Q 1172 3844 1172 3481 
z
" transform="scale(0.015625)"/>
     </defs>
     <use xlink:href="#DejaVuSans-30"/>
     <use xlink:href="#DejaVuSans-2e" transform="translate(63.623047 0)"/>
     <use xlink:href="#DejaVuSans-35" transform="translate(95.410156 0)"/>
     <use xlink:href="#DejaVuSans-38" transform="translate(159.033203 0)"/>
    </g>
   </g>
   <g id="text_15">
    <!-- 0.89 -->
    <g transform="translate(326.295447 254.477437) scale(0.1 -0.1)">
     <defs>
      <path id="DejaVuSans-39" d="M 703 97 
L 703 672 
Q 941 559 1184 500 
Q 1428 441 1663 441 
Q 2288 441 2617 861 
Q 2947 1281 2994 2138 
Q 2813 1869 2534 1725 
Q 2256 1581 1919 1581 
Q 1219 1581 811 2004 
Q 403 2428 403 3163 
Q 403 3881 828 4315 
Q 1253 4750 1959 4750 
Q 2769 4750 3195 4129 
Q 3622 3509 3622 2328 
Q 3622 1225 3098 567 
Q 2575 -91 1691 -91 
Q 1453 -91 1209 -44 
Q 966 3 703 97 
z
M 1959 2075 
Q 2384 2075 2632 2365 
Q 2881 2656 2881 3163 
Q 2881 3666 2632 3958 
Q 2384 4250 1959 4250 
Q 1534 4250 1286 3958 
Q 1038 3666 1038 3163 
Q 1038 2656 1286 2365 
Q 1534 2075 1959 2075 
z
" transform="scale(0.015625)"/>
     </defs>
     <use xlink:href="#DejaVuSans-30"/>
     <use xlink:href="#DejaVuSans-2e" transform="translate(63.623047 0)"/>
     <use xlink:href="#DejaVuSans-38" transform="translate(95.410156 0)"/>
     <use xlink:href="#DejaVuSans-39" transform="translate(159.033203 0)"/>
    </g>
   </g>
   <g id="text_16">
    <!-- 0.63 -->
    <g transform="translate(280.307196 418.315087) scale(0.1 -0.1)">
     <defs>
      <path id="DejaVuSans-36" d="M 2113 2584 
Q 1688 2584 1439 2293 
Q 1191 2003 1191 1497 
Q 1191 994 1439 701 
Q 1688 409 2113 409 
Q 2538 409 2786 701 
Q 3034 994 3034 1497 
Q 3034 2003 2786 2293 
Q 2538 2584 2113 2584 
z
M 3366 4563 
L 3366 3988 
Q 3128 4100 2886 4159 
Q 2644 4219 2406 4219 
Q 1781 4219 1451 3797 
Q 1122 3375 1075 2522 
Q 1259 2794 1537 2939 
Q 1816 3084 2150 3084 
Q 2853 3084 3261 2657 
Q 3669 2231 3669 1497 
Q 3669 778 3244 343 
Q 2819 -91 2113 -91 
Q 1303 -91 875 529 
Q 447 1150 447 2328 
Q 447 3434 972 4092 
Q 1497 4750 2381 4750 
Q 2619 4750 2861 4703 
Q 3103 4656 3366 4563 
z
" transform="scale(0.015625)"/>
     </defs>
     <use xlink:href="#DejaVuSans-30"/>
     <use xlink:href="#DejaVuSans-2e" transform="translate(63.623047 0)"/>
     <use xlink:href="#DejaVuSans-36" transform="translate(95.410156 0)"/>
     <use xlink:href="#DejaVuSans-33" transform="translate(159.033203 0)"/>
    </g>
   </g>
   <g id="text_17">
    <!-- -0.00 -->
    <g transform="translate(475.213106 280.248715) scale(0.1 -0.1)">
     <defs>
      <path id="DejaVuSans-2d" d="M 313 2009 
L 1997 2009 
L 1997 1497 
L 313 1497 
L 313 2009 
z
" transform="scale(0.015625)"/>
     </defs>
     <use xlink:href="#DejaVuSans-2d"/>
     <use xlink:href="#DejaVuSans-30" transform="translate(36.083984 0)"/>
     <use xlink:href="#DejaVuSans-2e" transform="translate(99.707031 0)"/>
     <use xlink:href="#DejaVuSans-30" transform="translate(131.494141 0)"/>
     <use xlink:href="#DejaVuSans-30" transform="translate(195.117188 0)"/>
    </g>
   </g>
   <g id="text_18">
    <!-- -0.00 -->
    <g transform="translate(257.813189 112.891743) scale(0.1 -0.1)">
     <use xlink:href="#DejaVuSans-2d"/>
     <use xlink:href="#DejaVuSans-30" transform="translate(36.083984 0)"/>
     <use xlink:href="#DejaVuSans-2e" transform="translate(99.707031 0)"/>
     <use xlink:href="#DejaVuSans-30" transform="translate(131.494141 0)"/>
     <use xlink:href="#DejaVuSans-30" transform="translate(195.117188 0)"/>
    </g>
   </g>
   <g id="text_19">
    <!-- -0.00 -->
    <g transform="translate(107.546375 288.471391) scale(0.1 -0.1)">
     <use xlink:href="#DejaVuSans-2d"/>
     <use xlink:href="#DejaVuSans-30" transform="translate(36.083984 0)"/>
     <use xlink:href="#DejaVuSans-2e" transform="translate(99.707031 0)"/>
     <use xlink:href="#DejaVuSans-30" transform="translate(131.494141 0)"/>
     <use xlink:href="#DejaVuSans-30" transform="translate(195.117188 0)"/>
    </g>
   </g>
   <g id="text_20">
    <!-- 0.32 -->
    <g transform="translate(415.490091 319.30636) scale(0.1 -0.1)">
     <use xlink:href="#DejaVuSans-30"/>
     <use xlink:href="#DejaVuSans-2e" transform="translate(63.623047 0)"/>
     <use xlink:href="#DejaVuSans-33" transform="translate(95.410156 0)"/>
     <use xlink:href="#DejaVuSans-32" transform="translate(159.033203 0)"/>
    </g>
   </g>
   <g id="text_21">
    <!-- 0.48 -->
    <g transform="translate(380.396161 195.008546) scale(0.1 -0.1)">
     <use xlink:href="#DejaVuSans-30"/>
     <use xlink:href="#DejaVuSans-2e" transform="translate(63.623047 0)"/>
     <use xlink:href="#DejaVuSans-34" transform="translate(95.410156 0)"/>
     <use xlink:href="#DejaVuSans-38" transform="translate(159.033203 0)"/>
    </g>
   </g>
   <g id="text_22">
    <!-- 0.72 -->
    <g transform="translate(286.702309 322.422316) scale(0.1 -0.1)">
     <defs>
      <path id="DejaVuSans-37" d="M 525 4666 
L 3525 4666 
L 3525 4397 
L 1831 0 
L 1172 0 
L 2766 4134 
L 525 4134 
L 525 4666 
z
" transform="scale(0.015625)"/>
     </defs>
     <use xlink:href="#DejaVuSans-30"/>
     <use xlink:href="#DejaVuSans-2e" transform="translate(63.623047 0)"/>
     <use xlink:href="#DejaVuSans-37" transform="translate(95.410156 0)"/>
     <use xlink:href="#DejaVuSans-32" transform="translate(159.033203 0)"/>
    </g>
   </g>
   <g id="text_23">
    <!-- CRE-10-2024-09-16-ITM-015_EN -->
    <g transform="translate(272.342813 63.12) scale(0.12 -0.12)">
     <defs>
      <path id="DejaVuSans-43" d="M 4122 4306 
L 4122 3641 
Q 3803 3938 3442 4084 
Q 3081 4231 2675 4231 
Q 1875 4231 1450 3742 
Q 1025 3253 1025 2328 
Q 1025 1406 1450 917 
Q 1875 428 2675 428 
Q 3081 428 3442 575 
Q 3803 722 4122 1019 
L 4122 359 
Q 3791 134 3420 21 
Q 3050 -91 2638 -91 
Q 1578 -91 968 557 
Q 359 1206 359 2328 
Q 359 3453 968 4101 
Q 1578 4750 2638 4750 
Q 3056 4750 3426 4639 
Q 3797 4528 4122 4306 
z
" transform="scale(0.015625)"/>
      <path id="DejaVuSans-52" d="M 2841 2188 
Q 3044 2119 3236 1894 
Q 3428 1669 3622 1275 
L 4263 0 
L 3584 0 
L 2988 1197 
Q 2756 1666 2539 1819 
Q 2322 1972 1947 1972 
L 1259 1972 
L 1259 0 
L 628 0 
L 628 4666 
L 2053 4666 
Q 2853 4666 3247 4331 
Q 3641 3997 3641 3322 
Q 3641 2881 3436 2590 
Q 3231 2300 2841 2188 
z
M 1259 4147 
L 1259 2491 
L 2053 2491 
Q 2509 2491 2742 2702 
Q 2975 2913 2975 3322 
Q 2975 3731 2742 3939 
Q 2509 4147 2053 4147 
L 1259 4147 
z
" transform="scale(0.015625)"/>
      <path id="DejaVuSans-45" d="M 628 4666 
L 3578 4666 
L 3578 4134 
L 1259 4134 
L 1259 2753 
L 3481 2753 
L 3481 2222 
L 1259 2222 
L 1259 531 
L 3634 531 
L 3634 0 
L 628 0 
L 628 4666 
z
" transform="scale(0.015625)"/>
      <path id="DejaVuSans-49" d="M 628 4666 
L 1259 4666 
L 1259 0 
L 628 0 
L 628 4666 
z
" transform="scale(0.015625)"/>
      <path id="DejaVuSans-54" d="M -19 4666 
L 3928 4666 
L 3928 4134 
L 2272 4134 
L 2272 0 
L 1638 0 
L 1638 4134 
L -19 4134 
L -19 4666 
z
" transform="scale(0.015625)"/>
      <path id="DejaVuSans-4d" d="M 628 4666 
L 1569 4666 
L 2759 1491 
L 3956 4666 
L 4897 4666 
L 4897 0 
L 4281 0 
L 4281 4097 
L 3078 897 
L 2444 897 
L 1241 4097 
L 1241 0 
L 628 0 
L 628 4666 
z
" transform="scale(0.015625)"/>
      <path id="DejaVuSans-5f" d="M 3263 -1063 
L 3263 -1509 
L -63 -1509 
L -63 -1063 
L 3263 -1063 
z
" transform="scale(0.015625)"/>
      <path id="DejaVuSans-4e" d="M 628 4666 
L 1478 4666 
L 3547 763 
L 3547 4666 
L 4159 4666 
L 4159 0 
L 3309 0 
L 1241 3903 
L 1241 0 
L 628 0 
L 628 4666 
z
" transform="scale(0.015625)"/>
     </defs>
     <use xlink:href="#DejaVuSans-43"/>
     <use xlink:href="#DejaVuSans-52" transform="translate(69.824219 0)"/>
     <use xlink:href="#DejaVuSans-45" transform="translate(139.306641 0)"/>
     <use xlink:href="#DejaVuSans-2d" transform="translate(202.490234 0)"/>
     <use xlink:href="#DejaVuSans-31" transform="translate(238.574219 0)"/>
     <use xlink:href="#DejaVuSans-30" transform="translate(302.197266 0)"/>
     <use xlink:href="#DejaVuSans-2d" transform="translate(365.820312 0)"/>
     <use xlink:href="#DejaVuSans-32" transform="translate(401.904297 0)"/>
     <use xlink:href="#DejaVuSans-30" transform="translate(465.527344 0)"/>
     <use xlink:href="#DejaVuSans-32" transform="translate(529.150391 0)"/>
     <use xlink:href="#DejaVuSans-34" transform="translate(592.773438 0)"/>
     <use xlink:href="#DejaVuSans-2d" transform="translate(656.396484 0)"/>
     <use xlink:href="#DejaVuSans-30" transform="translate(692.480469 0)"/>
     <use xlink:href="#DejaVuSans-39" transform="translate(756.103516 0)"/>
     <use xlink:href="#DejaVuSans-2d" transform="translate(819.726562 0)"/>
     <use xlink:href="#DejaVuSans-31" transform="translate(855.810547 0)"/>
     <use xlink:href="#DejaVuSans-36" transform="translate(919.433594 0)"/>
     <use xlink:href="#DejaVuSans-2d" transform="translate(983.056641 0)"/>
     <use xlink:href="#DejaVuSans-49" transform="translate(1019.140625 0)"/>
     <use xlink:href="#DejaVuSans-54" transform="translate(1048.632812 0)"/>
     <use xlink:href="#DejaVuSans-4d" transform="translate(1109.716797 0)"/>
     <use xlink:href="#DejaVuSans-2d" transform="translate(1195.996094 0)"/>
     <use xlink:href="#DejaVuSans-30" transform="translate(1232.080078 0)"/>
     <use xlink:href="#DejaVuSans-31" transform="translate(1295.703125 0)"/>
     <use xlink:href="#DejaVuSans-35" transform="translate(1359.326172 0)"/>
     <use xlink:href="#DejaVuSans-5f" transform="translate(1422.949219 0)"/>
     <use xlink:href="#DejaVuSans-45" transform="translate(1472.949219 0)"/>
     <use xlink:href="#DejaVuSans-4e" transform="translate(1536.132812 0)"/>
    </g>
   </g>
  </g>
 </g>
 <defs>
  <clipPath id="p88befc6bc5">
   <rect x="90" y="69.12" width="558" height="443.52"/>
  </clipPath>
 </defs>
</svg>
