<?xml version="1.0" encoding="utf-8" standalone="no"?>
<!DOCTYPE svg PUBLIC "-//W3C//DTD SVG 1.1//EN"
  "http://www.w3.org/Graphics/SVG/1.1/DTD/svg11.dtd">
<svg xmlns:xlink="http://www.w3.org/1999/xlink" width="720pt" height="576pt" viewBox="0 0 720 576" xmlns="http://www.w3.org/2000/svg" version="1.1">
 <metadata>
  <rdf:RDF xmlns:dc="http://purl.org/dc/elements/1.1/" xmlns:cc="http://creativecommons.org/ns#" xmlns:rdf="http://www.w3.org/1999/02/22-rdf-syntax-ns#">
   <cc:Work>
    <dc:type rdf:resource="http://purl.org/dc/dcmitype/StillImage"/>
    <dc:date>2025-11-03T14:28:39.061271</dc:date>
    <dc:format>image/svg+xml</dc:format>
    <dc:creator>
     <cc:Agent>
      <dc:title>Matplotlib v3.10.0, https://matplotlib.org/</dc:title>
     </cc:Agent>
    </dc:creator>
   </cc:Work>
  </rdf:RDF>
 </metadata>
 <defs>
  <style type="text/css">*{stroke-linejoin: round; stroke-linecap: butt}</style>
 </defs>
 <g id="figure_1">
  <g id="patch_1">
   <path d="M 0 576 
L 720 576 
L 720 0 
L 0 0 
z
" style="fill: #ffffff"/>
  </g>
  <g id="axes_1">
   <g id="patch_2">
    <path d="M 90 512.64 
L 648 512.64 
L 648 69.12 
L 90 69.12 
z
" style="fill: #ffffff"/>
   </g>
   <g id="patch_3">
    <path d="M 493.370089 142.650847 
C 481.724738 128.350652 468.147824 116.747712 455.629507 110.397439 
C 443.111189 104.047167 432.673532 103.468034 426.615309 108.787587 
C 420.557086 114.107141 419.372923 124.891063 423.323619 138.764321 
C 427.274316 152.637578 436.037314 168.46748 447.682665 182.767675 
C 459.328017 197.06787 472.90493 208.67081 485.423248 215.021083 
C 497.941566 221.371355 508.379223 221.950488 514.437446 216.630934 
C 520.495669 211.311381 521.679832 200.527458 517.729135 186.654201 
C 513.778439 172.780944 505.015441 156.951042 493.370089 142.650847 
L 493.370089 142.650847 
z
" clip-path="url(#p3a92131374)" style="fill: none; stroke: #000000; stroke-linejoin: miter"/>
   </g>
   <g id="patch_4">
    <path d="M 348.730604 149.125781 
C 341.97754 129.616606 331.627656 112.349198 319.960394 101.126504 
C 308.293132 89.903809 296.261071 85.642112 286.514134 89.28 
C 276.767197 92.917888 270.101178 104.158345 267.98419 120.525791 
C 265.867202 136.893236 268.472088 157.051341 275.225151 176.560516 
C 281.978215 196.069691 292.328099 213.337098 303.995361 224.559793 
C 315.662623 235.782487 327.694684 240.044185 337.441621 236.406296 
C 347.188558 232.768408 353.854577 221.527951 355.971565 205.160505 
C 358.088553 188.79306 355.483667 168.634955 348.730604 149.125781 
L 348.730604 149.125781 
z
" clip-path="url(#p3a92131374)" style="fill: none; stroke: #000000; stroke-linejoin: miter"/>
   </g>
   <g id="patch_5">
    <path d="M 379.080758 249.861817 
C 363.623253 234.322531 345.142087 223.33752 327.707522 219.326105 
C 310.272957 215.314689 295.308449 218.604383 286.109757 228.47067 
C 276.911064 238.336957 274.229219 253.974298 278.654868 271.93875 
C 283.080517 289.903203 294.252324 308.728049 309.709829 324.267334 
C 325.167334 339.806619 343.6485 350.79163 361.083065 354.803046 
C 378.517629 358.814462 393.482138 355.524768 402.68083 345.658481 
C 411.879523 335.792194 414.561367 320.154853 410.135719 302.1904 
C 405.71007 284.225948 394.538263 265.401102 379.080758 249.861817 
L 379.080758 249.861817 
z
" clip-path="url(#p3a92131374)" style="fill: none; stroke: #000000; stroke-linejoin: miter"/>
   </g>
   <g id="patch_6">
    <path d="M 525.447198 179.418016 
C 502.831933 183.570561 482.395211 194.925197 468.637981 210.981197 
C 454.880751 227.037197 448.92623 246.48366 452.085834 265.037727 
C 455.245437 283.591794 467.261197 299.738609 485.486781 309.922022 
C 503.712365 320.105436 526.659735 323.494018 549.275 319.341473 
C 571.890264 315.188927 592.326987 303.834291 606.084217 287.778291 
C 619.841447 271.722291 625.795967 252.275829 622.636364 233.721762 
C 619.47676 215.167694 607.461001 199.02088 589.235417 188.837466 
C 571.009833 178.654052 548.062463 175.26547 525.447198 179.418016 
L 525.447198 179.418016 
z
" clip-path="url(#p3a92131374)" style="fill: none; stroke: #000000; stroke-linejoin: miter"/>
   </g>
   <g id="patch_7">
    <path d="M 314.618633 308.448422 
C 309.663788 288.722535 300.245542 271.065564 288.438155 259.366252 
C 276.630768 247.66694 263.398261 242.880484 251.65494 246.061046 
C 239.911618 249.241607 230.616273 260.129507 225.816096 276.326812 
C 221.015918 292.524117 221.102822 312.708389 226.057667 332.434276 
C 231.012513 352.160163 240.430759 369.817134 252.238145 381.516446 
C 264.045532 393.215758 277.27804 398.002214 289.021361 394.821652 
C 300.764682 391.641091 310.060027 380.753191 314.860205 364.555886 
C 319.660382 348.358581 319.573478 328.174309 314.618633 308.448422 
L 314.618633 308.448422 
z
" clip-path="url(#p3a92131374)" style="fill: none; stroke: #000000; stroke-linejoin: miter"/>
   </g>
   <g id="patch_8">
    <path d="M 410.488488 185.585885 
C 413.074062 166.619114 414.228467 148.231768 413.697456 134.473447 
C 413.166446 120.715126 410.993376 112.709137 407.656839 112.218705 
C 404.320303 111.728273 400.092713 118.79344 395.905148 131.858185 
C 391.717583 144.92293 387.911938 162.920574 385.326363 181.887346 
C 382.740789 200.854118 381.586385 219.241464 382.117395 232.999785 
C 382.648405 246.758105 384.821475 254.764095 388.158012 255.254527 
C 391.494549 255.744959 395.722138 248.679792 399.909704 235.615047 
C 404.097269 222.550302 407.902913 204.552657 410.488488 185.585885 
L 410.488488 185.585885 
z
" clip-path="url(#p3a92131374)" style="fill: none; stroke: #000000; stroke-linejoin: miter"/>
   </g>
   <g id="patch_9">
    <path d="M 386.768001 403.658618 
C 367.08831 418.260265 350.330907 435.345104 340.186417 451.150397 
C 330.041927 466.955691 327.338601 480.191006 332.671817 487.941418 
C 338.005032 495.691831 350.939355 497.324554 368.626151 492.48 
C 386.312947 487.635446 407.308167 476.70915 426.987858 462.107502 
C 446.667549 447.505855 463.424952 430.421016 473.569442 414.615723 
C 483.713932 398.81043 486.417258 385.575115 481.084042 377.824702 
C 475.750827 370.074289 462.816504 368.441566 445.129708 373.28612 
C 427.442912 378.130675 406.447692 389.056971 386.768001 403.658618 
L 386.768001 403.658618 
z
" clip-path="url(#p3a92131374)" style="fill: none; stroke: #000000; stroke-linejoin: miter"/>
   </g>
   <g id="patch_10">
    <path d="M 196.211782 273.251739 
C 204.461871 250.676167 208.742754 227.590879 208.111616 209.080144 
C 207.480478 190.569408 201.988849 178.144543 192.846196 174.541982 
C 183.703543 170.939421 171.656323 176.453296 159.357798 189.86924 
C 147.059272 203.285185 135.51356 223.507846 127.263471 246.083418 
C 119.013381 268.658991 114.732498 291.744278 115.363636 310.255013 
C 115.994774 328.765749 121.486403 341.190614 130.629056 344.793175 
C 139.771709 348.395736 151.818929 342.881861 164.117455 329.465917 
C 176.41598 316.049972 187.961692 295.827311 196.211782 273.251739 
L 196.211782 273.251739 
z
" clip-path="url(#p3a92131374)" style="fill: none; stroke: #000000; stroke-linejoin: miter"/>
   </g>
   <g id="patch_11">
    <path d="M 470.365605 253.252976 
C 455.53831 244.111629 438.444457 240.366102 422.848771 242.841304 
C 407.253085 245.316506 394.428883 253.810348 387.200548 266.45216 
C 379.972212 279.093971 378.929905 294.851605 384.303181 310.254624 
C 389.676457 325.657644 401.026613 339.448461 415.853909 348.589808 
C 430.681205 357.731155 447.775057 361.476682 463.370743 359.00148 
C 478.96643 356.526278 491.790631 348.032436 499.018967 335.390625 
C 506.247302 322.748813 507.28961 306.99118 501.916334 291.58816 
C 496.543057 276.185141 485.192901 262.394324 470.365605 253.252976 
L 470.365605 253.252976 
z
" clip-path="url(#p3a92131374)" style="fill: none; stroke: #000000; stroke-linejoin: miter"/>
   </g>
   <g id="PathCollection_1">
    <defs>
     <path id="C0_0_3a71867b86" d="M 0 3.162278 
C 0.838646 3.162278 1.643056 2.82908 2.236068 2.236068 
C 2.82908 1.643056 3.162278 0.838646 3.162278 -0 
C 3.162278 -0.838646 2.82908 -1.643056 2.236068 -2.236068 
C 1.643056 -2.82908 0.838646 -3.162278 0 -3.162278 
C -0.838646 -3.162278 -1.643056 -2.82908 -2.236068 -2.236068 
C -2.82908 -1.643056 -3.162278 -0.838646 -3.162278 0 
C -3.162278 0.838646 -2.82908 1.643056 -2.236068 2.236068 
C -1.643056 2.82908 -0.838646 3.162278 0 3.162278 
z
"/>
    </defs>
    <g clip-path="url(#p3a92131374)">
     <use xlink:href="#C0_0_3a71867b86" x="326.683195" y="158.248031" style="fill: #0047ab; stroke: #0047ab"/>
    </g>
    <g clip-path="url(#p3a92131374)">
     <use xlink:href="#C0_0_3a71867b86" x="405.178212" y="269.005741" style="fill: #dd0000; stroke: #dd0000"/>
    </g>
    <g clip-path="url(#p3a92131374)">
     <use xlink:href="#C0_0_3a71867b86" x="515.089758" y="241.241866" style="fill: #002e5d; stroke: #002e5d"/>
    </g>
    <g clip-path="url(#p3a92131374)">
     <use xlink:href="#C0_0_3a71867b86" x="301.283869" y="257.793231" style="fill: #001a70; stroke: #001a70"/>
    </g>
    <g clip-path="url(#p3a92131374)">
     <use xlink:href="#C0_0_3a71867b86" x="404.631032" y="153.187693" style="fill: #ff9000; stroke: #ff9000"/>
    </g>
    <g clip-path="url(#p3a92131374)">
     <use xlink:href="#C0_0_3a71867b86" x="284.996988" y="140.624025" style="fill: #00a651; stroke: #00a651"/>
    </g>
    <g clip-path="url(#p3a92131374)">
     <use xlink:href="#C0_0_3a71867b86" x="481.06946" y="293.747101" style="fill: #8b1c62; stroke: #8b1c62"/>
    </g>
    <g clip-path="url(#p3a92131374)">
     <use xlink:href="#C0_0_3a71867b86" x="604.567544" y="224.082127" style="fill: #4c4c4c; stroke: #4c4c4c"/>
    </g>
    <g clip-path="url(#p3a92131374)">
     <use xlink:href="#C0_0_3a71867b86" x="253.368899" y="315.174371" style="fill: #0047ab; stroke: #0047ab"/>
    </g>
    <g clip-path="url(#p3a92131374)">
     <use xlink:href="#C0_0_3a71867b86" x="417.779643" y="304.018225" style="fill: #dd0000; stroke: #dd0000"/>
    </g>
    <g clip-path="url(#p3a92131374)">
     <use xlink:href="#C0_0_3a71867b86" x="544.493631" y="320.030915" style="fill: #002e5d; stroke: #002e5d"/>
    </g>
    <g clip-path="url(#p3a92131374)">
     <use xlink:href="#C0_0_3a71867b86" x="186.914324" y="190.649646" style="fill: #001a70; stroke: #001a70"/>
    </g>
    <g clip-path="url(#p3a92131374)">
     <use xlink:href="#C0_0_3a71867b86" x="229.315545" y="322.260058" style="fill: #ff9000; stroke: #ff9000"/>
    </g>
    <g clip-path="url(#p3a92131374)">
     <use xlink:href="#C0_0_3a71867b86" x="159.424359" y="309.805147" style="fill: #00a651; stroke: #00a651"/>
    </g>
    <g clip-path="url(#p3a92131374)">
     <use xlink:href="#C0_0_3a71867b86" x="401.842442" y="182.37009" style="fill: #8b1c62; stroke: #8b1c62"/>
    </g>
    <g clip-path="url(#p3a92131374)">
     <use xlink:href="#C0_0_3a71867b86" x="455.703722" y="366.207572" style="fill: #4c4c4c; stroke: #4c4c4c"/>
    </g>
    <g clip-path="url(#p3a92131374)">
     <use xlink:href="#C0_0_3a71867b86" x="395.000564" y="237.937696" style="fill: #0047ab; stroke: #0047ab"/>
    </g>
    <g clip-path="url(#p3a92131374)">
     <use xlink:href="#C0_0_3a71867b86" x="385.252361" y="194.921444" style="fill: #dd0000; stroke: #dd0000"/>
    </g>
    <g clip-path="url(#p3a92131374)">
     <use xlink:href="#C0_0_3a71867b86" x="380.755066" y="472.057238" style="fill: #002e5d; stroke: #002e5d"/>
    </g>
    <g clip-path="url(#p3a92131374)">
     <use xlink:href="#C0_0_3a71867b86" x="291.225721" y="167.88657" style="fill: #001a70; stroke: #001a70"/>
    </g>
    <g clip-path="url(#p3a92131374)">
     <use xlink:href="#C0_0_3a71867b86" x="284.144022" y="310.561243" style="fill: #ff9000; stroke: #ff9000"/>
    </g>
    <g clip-path="url(#p3a92131374)">
     <use xlink:href="#C0_0_3a71867b86" x="488.140325" y="308.890333" style="fill: #00a651; stroke: #00a651"/>
    </g>
    <g clip-path="url(#p3a92131374)">
     <use xlink:href="#C0_0_3a71867b86" x="489.830883" y="178.990435" style="fill: #8b1c62; stroke: #8b1c62"/>
    </g>
    <g clip-path="url(#p3a92131374)">
     <use xlink:href="#C0_0_3a71867b86" x="308.373523" y="155.625585" style="fill: #4c4c4c; stroke: #4c4c4c"/>
    </g>
    <g clip-path="url(#p3a92131374)">
     <use xlink:href="#C0_0_3a71867b86" x="275.580648" y="271.678984" style="fill: #0047ab; stroke: #0047ab"/>
    </g>
    <g clip-path="url(#p3a92131374)">
     <use xlink:href="#C0_0_3a71867b86" x="129.349747" y="267.870322" style="fill: #dd0000; stroke: #dd0000"/>
    </g>
    <g clip-path="url(#p3a92131374)">
     <use xlink:href="#C0_0_3a71867b86" x="324.92189" y="204.797101" style="fill: #002e5d; stroke: #002e5d"/>
    </g>
    <g clip-path="url(#p3a92131374)">
     <use xlink:href="#C0_0_3a71867b86" x="412.216307" y="444.290694" style="fill: #001a70; stroke: #001a70"/>
    </g>
    <g clip-path="url(#p3a92131374)">
     <use xlink:href="#C0_0_3a71867b86" x="298.32058" y="90.533749" style="fill: #ff9000; stroke: #ff9000"/>
    </g>
    <g clip-path="url(#p3a92131374)">
     <use xlink:href="#C0_0_3a71867b86" x="151.962652" y="268.837517" style="fill: #8b1c62; stroke: #8b1c62"/>
    </g>
    <g clip-path="url(#p3a92131374)">
     <use xlink:href="#C0_0_3a71867b86" x="402.810736" y="150.266183" style="fill: #0047ab; stroke: #0047ab"/>
    </g>
    <g clip-path="url(#p3a92131374)">
     <use xlink:href="#C0_0_3a71867b86" x="181.037065" y="261.175263" style="fill: #dd0000; stroke: #dd0000"/>
    </g>
    <g clip-path="url(#p3a92131374)">
     <use xlink:href="#C0_0_3a71867b86" x="273.583551" y="375.517472" style="fill: #002e5d; stroke: #002e5d"/>
    </g>
    <g clip-path="url(#p3a92131374)">
     <use xlink:href="#C0_0_3a71867b86" x="313.423444" y="290.517412" style="fill: #001a70; stroke: #001a70"/>
    </g>
    <g clip-path="url(#p3a92131374)">
     <use xlink:href="#C0_0_3a71867b86" x="442.506236" y="303.28492" style="fill: #ff9000; stroke: #ff9000"/>
    </g>
    <g clip-path="url(#p3a92131374)">
     <use xlink:href="#C0_0_3a71867b86" x="447.641399" y="292.48495" style="fill: #8b1c62; stroke: #8b1c62"/>
    </g>
    <g clip-path="url(#p3a92131374)">
     <use xlink:href="#C0_0_3a71867b86" x="373.094848" y="345.734953" style="fill: #0047ab; stroke: #0047ab"/>
    </g>
    <g clip-path="url(#p3a92131374)">
     <use xlink:href="#C0_0_3a71867b86" x="416.041438" y="426.056986" style="fill: #dd0000; stroke: #dd0000"/>
    </g>
    <g clip-path="url(#p3a92131374)">
     <use xlink:href="#C0_0_3a71867b86" x="403.211318" y="326.393924" style="fill: #002e5d; stroke: #002e5d"/>
    </g>
    <g clip-path="url(#p3a92131374)">
     <use xlink:href="#C0_0_3a71867b86" x="270.465281" y="285.543085" style="fill: #001a70; stroke: #001a70"/>
    </g>
    <g clip-path="url(#p3a92131374)">
     <use xlink:href="#C0_0_3a71867b86" x="389.003053" y="259.167793" style="fill: #ff9000; stroke: #ff9000"/>
    </g>
    <g clip-path="url(#p3a92131374)">
     <use xlink:href="#C0_0_3a71867b86" x="497.714932" y="182.503062" style="fill: #0047ab; stroke: #0047ab"/>
    </g>
    <g clip-path="url(#p3a92131374)">
     <use xlink:href="#C0_0_3a71867b86" x="453.878243" y="256.484868" style="fill: #002e5d; stroke: #002e5d"/>
    </g>
    <g clip-path="url(#p3a92131374)">
     <use xlink:href="#C0_0_3a71867b86" x="440.856766" y="426.268555" style="fill: #001a70; stroke: #001a70"/>
    </g>
    <g clip-path="url(#p3a92131374)">
     <use xlink:href="#C0_0_3a71867b86" x="472.790834" y="310.148583" style="fill: #ff9000; stroke: #ff9000"/>
    </g>
    <g clip-path="url(#p3a92131374)">
     <use xlink:href="#C0_0_3a71867b86" x="373.004179" y="323.07521" style="fill: #0047ab; stroke: #0047ab"/>
    </g>
    <g clip-path="url(#p3a92131374)">
     <use xlink:href="#C0_0_3a71867b86" x="336.10273" y="265.911535" style="fill: #002e5d; stroke: #002e5d"/>
    </g>
    <g clip-path="url(#p3a92131374)">
     <use xlink:href="#C0_0_3a71867b86" x="344.761168" y="449.040134" style="fill: #a0a0a0; stroke: #a0a0a0"/>
    </g>
    <g clip-path="url(#p3a92131374)">
     <use xlink:href="#C0_0_3a71867b86" x="353.664398" y="177.390253" style="fill: #ff9000; stroke: #ff9000"/>
    </g>
    <g clip-path="url(#p3a92131374)">
     <use xlink:href="#C0_0_3a71867b86" x="491.928721" y="228.929654" style="fill: #0047ab; stroke: #0047ab"/>
    </g>
    <g clip-path="url(#p3a92131374)">
     <use xlink:href="#C0_0_3a71867b86" x="566.582296" y="231.82529" style="fill: #002e5d; stroke: #002e5d"/>
    </g>
    <g clip-path="url(#p3a92131374)">
     <use xlink:href="#C0_0_3a71867b86" x="446.636828" y="379.5847" style="fill: #001a70; stroke: #001a70"/>
    </g>
    <g clip-path="url(#p3a92131374)">
     <use xlink:href="#C0_0_3a71867b86" x="434.765963" y="132.501188" style="fill: #ff9000; stroke: #ff9000"/>
    </g>
    <g clip-path="url(#p3a92131374)">
     <use xlink:href="#C0_0_3a71867b86" x="466.090967" y="130.422112" style="fill: #a0a0a0; stroke: #a0a0a0"/>
    </g>
    <g clip-path="url(#p3a92131374)">
     <use xlink:href="#C0_0_3a71867b86" x="406.307929" y="279.469111" style="fill: #002e5d; stroke: #002e5d"/>
    </g>
    <g clip-path="url(#p3a92131374)">
     <use xlink:href="#C0_0_3a71867b86" x="464.229112" y="189.129481" style="fill: #002e5d; stroke: #002e5d"/>
    </g>
    <g clip-path="url(#p3a92131374)">
     <use xlink:href="#C0_0_3a71867b86" x="307.636728" y="207.639852" style="fill: #002e5d; stroke: #002e5d"/>
    </g>
    <g clip-path="url(#p3a92131374)">
     <use xlink:href="#C0_0_3a71867b86" x="305.90908" y="362.354212" style="fill: #002e5d; stroke: #002e5d"/>
    </g>
    <g clip-path="url(#p3a92131374)">
     <use xlink:href="#C0_0_3a71867b86" x="501.50453" y="250.168615" style="fill: #002e5d; stroke: #002e5d"/>
    </g>
    <g clip-path="url(#p3a92131374)">
     <use xlink:href="#C0_0_3a71867b86" x="324.854927" y="267.251899" style="fill: #001a70; stroke: #001a70"/>
    </g>
   </g>
   <g id="matplotlib.axis_1">
    <g id="xtick_1">
     <g id="line2d_1">
      <defs>
       <path id="m519e2d92c9" d="M 0 0 
L 0 3.5 
" style="stroke: #000000; stroke-width: 0.8"/>
      </defs>
      <g>
       <use xlink:href="#m519e2d92c9" x="142.719861" y="512.64" style="stroke: #000000; stroke-width: 0.8"/>
      </g>
     </g>
     <g id="text_1">
      <!-- −0.4 -->
      <g transform="translate(130.578455 527.238438) scale(0.1 -0.1)">
       <defs>
        <path id="DejaVuSans-2212" d="M 678 2272 
L 4684 2272 
L 4684 1741 
L 678 1741 
L 678 2272 
z
" transform="scale(0.015625)"/>
        <path id="DejaVuSans-30" d="M 2034 4250 
Q 1547 4250 1301 3770 
Q 1056 3291 1056 2328 
Q 1056 1369 1301 889 
Q 1547 409 2034 409 
Q 2525 409 2770 889 
Q 3016 1369 3016 2328 
Q 3016 3291 2770 3770 
Q 2525 4250 2034 4250 
z
M 2034 4750 
Q 2819 4750 3233 4129 
Q 3647 3509 3647 2328 
Q 3647 1150 3233 529 
Q 2819 -91 2034 -91 
Q 1250 -91 836 529 
Q 422 1150 422 2328 
Q 422 3509 836 4129 
Q 1250 4750 2034 4750 
z
" transform="scale(0.015625)"/>
        <path id="DejaVuSans-2e" d="M 684 794 
L 1344 794 
L 1344 0 
L 684 0 
L 684 794 
z
" transform="scale(0.015625)"/>
        <path id="DejaVuSans-34" d="M 2419 4116 
L 825 1625 
L 2419 1625 
L 2419 4116 
z
M 2253 4666 
L 3047 4666 
L 3047 1625 
L 3713 1625 
L 3713 1100 
L 3047 1100 
L 3047 0 
L 2419 0 
L 2419 1100 
L 313 1100 
L 313 1709 
L 2253 4666 
z
" transform="scale(0.015625)"/>
       </defs>
       <use xlink:href="#DejaVuSans-2212"/>
       <use xlink:href="#DejaVuSans-30" transform="translate(83.789062 0)"/>
       <use xlink:href="#DejaVuSans-2e" transform="translate(147.412109 0)"/>
       <use xlink:href="#DejaVuSans-34" transform="translate(179.199219 0)"/>
      </g>
     </g>
    </g>
    <g id="xtick_2">
     <g id="line2d_2">
      <g>
       <use xlink:href="#m519e2d92c9" x="258.77206" y="512.64" style="stroke: #000000; stroke-width: 0.8"/>
      </g>
     </g>
     <g id="text_2">
      <!-- −0.2 -->
      <g transform="translate(246.630654 527.238438) scale(0.1 -0.1)">
       <defs>
        <path id="DejaVuSans-32" d="M 1228 531 
L 3431 531 
L 3431 0 
L 469 0 
L 469 531 
Q 828 903 1448 1529 
Q 2069 2156 2228 2338 
Q 2531 2678 2651 2914 
Q 2772 3150 2772 3378 
Q 2772 3750 2511 3984 
Q 2250 4219 1831 4219 
Q 1534 4219 1204 4116 
Q 875 4013 500 3803 
L 500 4441 
Q 881 4594 1212 4672 
Q 1544 4750 1819 4750 
Q 2544 4750 2975 4387 
Q 3406 4025 3406 3419 
Q 3406 3131 3298 2873 
Q 3191 2616 2906 2266 
Q 2828 2175 2409 1742 
Q 1991 1309 1228 531 
z
" transform="scale(0.015625)"/>
       </defs>
       <use xlink:href="#DejaVuSans-2212"/>
       <use xlink:href="#DejaVuSans-30" transform="translate(83.789062 0)"/>
       <use xlink:href="#DejaVuSans-2e" transform="translate(147.412109 0)"/>
       <use xlink:href="#DejaVuSans-32" transform="translate(179.199219 0)"/>
      </g>
     </g>
    </g>
    <g id="xtick_3">
     <g id="line2d_3">
      <g>
       <use xlink:href="#m519e2d92c9" x="374.824259" y="512.64" style="stroke: #000000; stroke-width: 0.8"/>
      </g>
     </g>
     <g id="text_3">
      <!-- 0.0 -->
      <g transform="translate(366.872697 527.238438) scale(0.1 -0.1)">
       <use xlink:href="#DejaVuSans-30"/>
       <use xlink:href="#DejaVuSans-2e" transform="translate(63.623047 0)"/>
       <use xlink:href="#DejaVuSans-30" transform="translate(95.410156 0)"/>
      </g>
     </g>
    </g>
    <g id="xtick_4">
     <g id="line2d_4">
      <g>
       <use xlink:href="#m519e2d92c9" x="490.876459" y="512.64" style="stroke: #000000; stroke-width: 0.8"/>
      </g>
     </g>
     <g id="text_4">
      <!-- 0.2 -->
      <g transform="translate(482.924896 527.238438) scale(0.1 -0.1)">
       <use xlink:href="#DejaVuSans-30"/>
       <use xlink:href="#DejaVuSans-2e" transform="translate(63.623047 0)"/>
       <use xlink:href="#DejaVuSans-32" transform="translate(95.410156 0)"/>
      </g>
     </g>
    </g>
    <g id="xtick_5">
     <g id="line2d_5">
      <g>
       <use xlink:href="#m519e2d92c9" x="606.928658" y="512.64" style="stroke: #000000; stroke-width: 0.8"/>
      </g>
     </g>
     <g id="text_5">
      <!-- 0.4 -->
      <g transform="translate(598.977095 527.238438) scale(0.1 -0.1)">
       <use xlink:href="#DejaVuSans-30"/>
       <use xlink:href="#DejaVuSans-2e" transform="translate(63.623047 0)"/>
       <use xlink:href="#DejaVuSans-34" transform="translate(95.410156 0)"/>
      </g>
     </g>
    </g>
   </g>
   <g id="matplotlib.axis_2">
    <g id="ytick_1">
     <g id="line2d_6">
      <defs>
       <path id="m7c75138b66" d="M 0 0 
L -3.5 0 
" style="stroke: #000000; stroke-width: 0.8"/>
      </defs>
      <g>
       <use xlink:href="#m7c75138b66" x="90" y="507.507172" style="stroke: #000000; stroke-width: 0.8"/>
      </g>
     </g>
     <g id="text_6">
      <!-- −0.4 -->
      <g transform="translate(58.717187 511.306391) scale(0.1 -0.1)">
       <use xlink:href="#DejaVuSans-2212"/>
       <use xlink:href="#DejaVuSans-30" transform="translate(83.789062 0)"/>
       <use xlink:href="#DejaVuSans-2e" transform="translate(147.412109 0)"/>
       <use xlink:href="#DejaVuSans-34" transform="translate(179.199219 0)"/>
      </g>
     </g>
    </g>
    <g id="ytick_2">
     <g id="line2d_7">
      <g>
       <use xlink:href="#m7c75138b66" x="90" y="447.25357" style="stroke: #000000; stroke-width: 0.8"/>
      </g>
     </g>
     <g id="text_7">
      <!-- −0.3 -->
      <g transform="translate(58.717187 451.052788) scale(0.1 -0.1)">
       <defs>
        <path id="DejaVuSans-33" d="M 2597 2516 
Q 3050 2419 3304 2112 
Q 3559 1806 3559 1356 
Q 3559 666 3084 287 
Q 2609 -91 1734 -91 
Q 1441 -91 1130 -33 
Q 819 25 488 141 
L 488 750 
Q 750 597 1062 519 
Q 1375 441 1716 441 
Q 2309 441 2620 675 
Q 2931 909 2931 1356 
Q 2931 1769 2642 2001 
Q 2353 2234 1838 2234 
L 1294 2234 
L 1294 2753 
L 1863 2753 
Q 2328 2753 2575 2939 
Q 2822 3125 2822 3475 
Q 2822 3834 2567 4026 
Q 2313 4219 1838 4219 
Q 1578 4219 1281 4162 
Q 984 4106 628 3988 
L 628 4550 
Q 988 4650 1302 4700 
Q 1616 4750 1894 4750 
Q 2613 4750 3031 4423 
Q 3450 4097 3450 3541 
Q 3450 3153 3228 2886 
Q 3006 2619 2597 2516 
z
" transform="scale(0.015625)"/>
       </defs>
       <use xlink:href="#DejaVuSans-2212"/>
       <use xlink:href="#DejaVuSans-30" transform="translate(83.789062 0)"/>
       <use xlink:href="#DejaVuSans-2e" transform="translate(147.412109 0)"/>
       <use xlink:href="#DejaVuSans-33" transform="translate(179.199219 0)"/>
      </g>
     </g>
    </g>
    <g id="ytick_3">
     <g id="line2d_8">
      <g>
       <use xlink:href="#m7c75138b66" x="90" y="386.999967" style="stroke: #000000; stroke-width: 0.8"/>
      </g>
     </g>
     <g id="text_8">
      <!-- −0.2 -->
      <g transform="translate(58.717187 390.799186) scale(0.1 -0.1)">
       <use xlink:href="#DejaVuSans-2212"/>
       <use xlink:href="#DejaVuSans-30" transform="translate(83.789062 0)"/>
       <use xlink:href="#DejaVuSans-2e" transform="translate(147.412109 0)"/>
       <use xlink:href="#DejaVuSans-32" transform="translate(179.199219 0)"/>
      </g>
     </g>
    </g>
    <g id="ytick_4">
     <g id="line2d_9">
      <g>
       <use xlink:href="#m7c75138b66" x="90" y="326.746364" style="stroke: #000000; stroke-width: 0.8"/>
      </g>
     </g>
     <g id="text_9">
      <!-- −0.1 -->
      <g transform="translate(58.717187 330.545583) scale(0.1 -0.1)">
       <defs>
        <path id="DejaVuSans-31" d="M 794 531 
L 1825 531 
L 1825 4091 
L 703 3866 
L 703 4441 
L 1819 4666 
L 2450 4666 
L 2450 531 
L 3481 531 
L 3481 0 
L 794 0 
L 794 531 
z
" transform="scale(0.015625)"/>
       </defs>
       <use xlink:href="#DejaVuSans-2212"/>
       <use xlink:href="#DejaVuSans-30" transform="translate(83.789062 0)"/>
       <use xlink:href="#DejaVuSans-2e" transform="translate(147.412109 0)"/>
       <use xlink:href="#DejaVuSans-31" transform="translate(179.199219 0)"/>
      </g>
     </g>
    </g>
    <g id="ytick_5">
     <g id="line2d_10">
      <g>
       <use xlink:href="#m7c75138b66" x="90" y="266.492762" style="stroke: #000000; stroke-width: 0.8"/>
      </g>
     </g>
     <g id="text_10">
      <!-- 0.0 -->
      <g transform="translate(67.096875 270.291981) scale(0.1 -0.1)">
       <use xlink:href="#DejaVuSans-30"/>
       <use xlink:href="#DejaVuSans-2e" transform="translate(63.623047 0)"/>
       <use xlink:href="#DejaVuSans-30" transform="translate(95.410156 0)"/>
      </g>
     </g>
    </g>
    <g id="ytick_6">
     <g id="line2d_11">
      <g>
       <use xlink:href="#m7c75138b66" x="90" y="206.239159" style="stroke: #000000; stroke-width: 0.8"/>
      </g>
     </g>
     <g id="text_11">
      <!-- 0.1 -->
      <g transform="translate(67.096875 210.038378) scale(0.1 -0.1)">
       <use xlink:href="#DejaVuSans-30"/>
       <use xlink:href="#DejaVuSans-2e" transform="translate(63.623047 0)"/>
       <use xlink:href="#DejaVuSans-31" transform="translate(95.410156 0)"/>
      </g>
     </g>
    </g>
    <g id="ytick_7">
     <g id="line2d_12">
      <g>
       <use xlink:href="#m7c75138b66" x="90" y="145.985557" style="stroke: #000000; stroke-width: 0.8"/>
      </g>
     </g>
     <g id="text_12">
      <!-- 0.2 -->
      <g transform="translate(67.096875 149.784776) scale(0.1 -0.1)">
       <use xlink:href="#DejaVuSans-30"/>
       <use xlink:href="#DejaVuSans-2e" transform="translate(63.623047 0)"/>
       <use xlink:href="#DejaVuSans-32" transform="translate(95.410156 0)"/>
      </g>
     </g>
    </g>
    <g id="ytick_8">
     <g id="line2d_13">
      <g>
       <use xlink:href="#m7c75138b66" x="90" y="85.731954" style="stroke: #000000; stroke-width: 0.8"/>
      </g>
     </g>
     <g id="text_13">
      <!-- 0.3 -->
      <g transform="translate(67.096875 89.531173) scale(0.1 -0.1)">
       <use xlink:href="#DejaVuSans-30"/>
       <use xlink:href="#DejaVuSans-2e" transform="translate(63.623047 0)"/>
       <use xlink:href="#DejaVuSans-33" transform="translate(95.410156 0)"/>
      </g>
     </g>
    </g>
   </g>
   <g id="patch_12">
    <path d="M 90 512.64 
L 90 69.12 
" style="fill: none; stroke: #000000; stroke-width: 0.8; stroke-linejoin: miter; stroke-linecap: square"/>
   </g>
   <g id="patch_13">
    <path d="M 648 512.64 
L 648 69.12 
" style="fill: none; stroke: #000000; stroke-width: 0.8; stroke-linejoin: miter; stroke-linecap: square"/>
   </g>
   <g id="patch_14">
    <path d="M 90 512.64 
L 648 512.64 
" style="fill: none; stroke: #000000; stroke-width: 0.8; stroke-linejoin: miter; stroke-linecap: square"/>
   </g>
   <g id="patch_15">
    <path d="M 90 69.12 
L 648 69.12 
" style="fill: none; stroke: #000000; stroke-width: 0.8; stroke-linejoin: miter; stroke-linecap: square"/>
   </g>
   <g id="text_14">
    <!-- 0.96 -->
    <g transform="translate(416.12211 135.777904) scale(0.1 -0.1)">
     <defs>
      <path id="DejaVuSans-39" d="M 703 97 
L 703 672 
Q 941 559 1184 500 
Q 1428 441 1663 441 
Q 2288 441 2617 861 
Q 2947 1281 2994 2138 
Q 2813 1869 2534 1725 
Q 2256 1581 1919 1581 
Q 1219 1581 811 2004 
Q 403 2428 403 3163 
Q 403 3881 828 4315 
Q 1253 4750 1959 4750 
Q 2769 4750 3195 4129 
Q 3622 3509 3622 2328 
Q 3622 1225 3098 567 
Q 2575 -91 1691 -91 
Q 1453 -91 1209 -44 
Q 966 3 703 97 
z
M 1959 2075 
Q 2384 2075 2632 2365 
Q 2881 2656 2881 3163 
Q 2881 3666 2632 3958 
Q 2384 4250 1959 4250 
Q 1534 4250 1286 3958 
Q 1038 3666 1038 3163 
Q 1038 2656 1286 2365 
Q 1534 2075 1959 2075 
z
" transform="scale(0.015625)"/>
      <path id="DejaVuSans-36" d="M 2113 2584 
Q 1688 2584 1439 2293 
Q 1191 2003 1191 1497 
Q 1191 994 1439 701 
Q 1688 409 2113 409 
Q 2538 409 2786 701 
Q 3034 994 3034 1497 
Q 3034 2003 2786 2293 
Q 2538 2584 2113 2584 
z
M 3366 4563 
L 3366 3988 
Q 3128 4100 2886 4159 
Q 2644 4219 2406 4219 
Q 1781 4219 1451 3797 
Q 1122 3375 1075 2522 
Q 1259 2794 1537 2939 
Q 1816 3084 2150 3084 
Q 2853 3084 3261 2657 
Q 3669 2231 3669 1497 
Q 3669 778 3244 343 
Q 2819 -91 2113 -91 
Q 1303 -91 875 529 
Q 447 1150 447 2328 
Q 447 3434 972 4092 
Q 1497 4750 2381 4750 
Q 2619 4750 2861 4703 
Q 3103 4656 3366 4563 
z
" transform="scale(0.015625)"/>
     </defs>
     <use xlink:href="#DejaVuSans-30"/>
     <use xlink:href="#DejaVuSans-2e" transform="translate(63.623047 0)"/>
     <use xlink:href="#DejaVuSans-39" transform="translate(95.410156 0)"/>
     <use xlink:href="#DejaVuSans-36" transform="translate(159.033203 0)"/>
    </g>
   </g>
   <g id="text_15">
    <!-- 0.60 -->
    <g transform="translate(251.753131 128.320273) scale(0.1 -0.1)">
     <use xlink:href="#DejaVuSans-30"/>
     <use xlink:href="#DejaVuSans-2e" transform="translate(63.623047 0)"/>
     <use xlink:href="#DejaVuSans-36" transform="translate(95.410156 0)"/>
     <use xlink:href="#DejaVuSans-30" transform="translate(159.033203 0)"/>
    </g>
   </g>
   <g id="text_16">
    <!-- 0.37 -->
    <g transform="translate(279.495144 243.560124) scale(0.1 -0.1)">
     <defs>
      <path id="DejaVuSans-37" d="M 525 4666 
L 3525 4666 
L 3525 4397 
L 1831 0 
L 1172 0 
L 2766 4134 
L 525 4134 
L 525 4666 
z
" transform="scale(0.015625)"/>
     </defs>
     <use xlink:href="#DejaVuSans-30"/>
     <use xlink:href="#DejaVuSans-2e" transform="translate(63.623047 0)"/>
     <use xlink:href="#DejaVuSans-33" transform="translate(95.410156 0)"/>
     <use xlink:href="#DejaVuSans-37" transform="translate(159.033203 0)"/>
    </g>
   </g>
   <g id="text_17">
    <!-- -0.00 -->
    <g transform="translate(468.082527 190.462372) scale(0.1 -0.1)">
     <defs>
      <path id="DejaVuSans-2d" d="M 313 2009 
L 1997 2009 
L 1997 1497 
L 313 1497 
L 313 2009 
z
" transform="scale(0.015625)"/>
     </defs>
     <use xlink:href="#DejaVuSans-2d"/>
     <use xlink:href="#DejaVuSans-30" transform="translate(36.083984 0)"/>
     <use xlink:href="#DejaVuSans-2e" transform="translate(99.707031 0)"/>
     <use xlink:href="#DejaVuSans-30" transform="translate(131.494141 0)"/>
     <use xlink:href="#DejaVuSans-30" transform="translate(195.117188 0)"/>
    </g>
   </g>
   <g id="text_18">
    <!-- 0.54 -->
    <g transform="translate(211.116541 280.346758) scale(0.1 -0.1)">
     <defs>
      <path id="DejaVuSans-35" d="M 691 4666 
L 3169 4666 
L 3169 4134 
L 1269 4134 
L 1269 2991 
Q 1406 3038 1543 3061 
Q 1681 3084 1819 3084 
Q 2600 3084 3056 2656 
Q 3513 2228 3513 1497 
Q 3513 744 3044 326 
Q 2575 -91 1722 -91 
Q 1428 -91 1123 -41 
Q 819 9 494 109 
L 494 744 
Q 775 591 1075 516 
Q 1375 441 1709 441 
Q 2250 441 2565 725 
Q 2881 1009 2881 1497 
Q 2881 1984 2565 2268 
Q 2250 2553 1709 2553 
Q 1456 2553 1204 2497 
Q 953 2441 691 2322 
L 691 4666 
z
" transform="scale(0.015625)"/>
     </defs>
     <use xlink:href="#DejaVuSans-30"/>
     <use xlink:href="#DejaVuSans-2e" transform="translate(63.623047 0)"/>
     <use xlink:href="#DejaVuSans-35" transform="translate(95.410156 0)"/>
     <use xlink:href="#DejaVuSans-34" transform="translate(159.033203 0)"/>
    </g>
   </g>
   <g id="text_19">
    <!-- 0.61 -->
    <g transform="translate(342.25895 171.10152) scale(0.1 -0.1)">
     <use xlink:href="#DejaVuSans-30"/>
     <use xlink:href="#DejaVuSans-2e" transform="translate(63.623047 0)"/>
     <use xlink:href="#DejaVuSans-36" transform="translate(95.410156 0)"/>
     <use xlink:href="#DejaVuSans-31" transform="translate(159.033203 0)"/>
    </g>
   </g>
   <g id="text_20">
    <!-- 0.79 -->
    <g transform="translate(333.915575 402.068757) scale(0.1 -0.1)">
     <use xlink:href="#DejaVuSans-30"/>
     <use xlink:href="#DejaVuSans-2e" transform="translate(63.623047 0)"/>
     <use xlink:href="#DejaVuSans-37" transform="translate(95.410156 0)"/>
     <use xlink:href="#DejaVuSans-39" transform="translate(159.033203 0)"/>
    </g>
   </g>
   <g id="text_21">
    <!-- 0.46 -->
    <g transform="translate(91.591562 226.957252) scale(0.1 -0.1)">
     <use xlink:href="#DejaVuSans-30"/>
     <use xlink:href="#DejaVuSans-2e" transform="translate(63.623047 0)"/>
     <use xlink:href="#DejaVuSans-34" transform="translate(95.410156 0)"/>
     <use xlink:href="#DejaVuSans-36" transform="translate(159.033203 0)"/>
    </g>
   </g>
   <g id="text_22">
    <!-- 0.60 -->
    <g transform="translate(391.092873 254.491901) scale(0.1 -0.1)">
     <use xlink:href="#DejaVuSans-30"/>
     <use xlink:href="#DejaVuSans-2e" transform="translate(63.623047 0)"/>
     <use xlink:href="#DejaVuSans-36" transform="translate(95.410156 0)"/>
     <use xlink:href="#DejaVuSans-30" transform="translate(159.033203 0)"/>
    </g>
   </g>
   <g id="text_23">
    <!-- CRE-10-2025-03-12-ITM-010_EN -->
    <g transform="translate(272.342813 63.12) scale(0.12 -0.12)">
     <defs>
      <path id="DejaVuSans-43" d="M 4122 4306 
L 4122 3641 
Q 3803 3938 3442 4084 
Q 3081 4231 2675 4231 
Q 1875 4231 1450 3742 
Q 1025 3253 1025 2328 
Q 1025 1406 1450 917 
Q 1875 428 2675 428 
Q 3081 428 3442 575 
Q 3803 722 4122 1019 
L 4122 359 
Q 3791 134 3420 21 
Q 3050 -91 2638 -91 
Q 1578 -91 968 557 
Q 359 1206 359 2328 
Q 359 3453 968 4101 
Q 1578 4750 2638 4750 
Q 3056 4750 3426 4639 
Q 3797 4528 4122 4306 
z
" transform="scale(0.015625)"/>
      <path id="DejaVuSans-52" d="M 2841 2188 
Q 3044 2119 3236 1894 
Q 3428 1669 3622 1275 
L 4263 0 
L 3584 0 
L 2988 1197 
Q 2756 1666 2539 1819 
Q 2322 1972 1947 1972 
L 1259 1972 
L 1259 0 
L 628 0 
L 628 4666 
L 2053 4666 
Q 2853 4666 3247 4331 
Q 3641 3997 3641 3322 
Q 3641 2881 3436 2590 
Q 3231 2300 2841 2188 
z
M 1259 4147 
L 1259 2491 
L 2053 2491 
Q 2509 2491 2742 2702 
Q 2975 2913 2975 3322 
Q 2975 3731 2742 3939 
Q 2509 4147 2053 4147 
L 1259 4147 
z
" transform="scale(0.015625)"/>
      <path id="DejaVuSans-45" d="M 628 4666 
L 3578 4666 
L 3578 4134 
L 1259 4134 
L 1259 2753 
L 3481 2753 
L 3481 2222 
L 1259 2222 
L 1259 531 
L 3634 531 
L 3634 0 
L 628 0 
L 628 4666 
z
" transform="scale(0.015625)"/>
      <path id="DejaVuSans-49" d="M 628 4666 
L 1259 4666 
L 1259 0 
L 628 0 
L 628 4666 
z
" transform="scale(0.015625)"/>
      <path id="DejaVuSans-54" d="M -19 4666 
L 3928 4666 
L 3928 4134 
L 2272 4134 
L 2272 0 
L 1638 0 
L 1638 4134 
L -19 4134 
L -19 4666 
z
" transform="scale(0.015625)"/>
      <path id="DejaVuSans-4d" d="M 628 4666 
L 1569 4666 
L 2759 1491 
L 3956 4666 
L 4897 4666 
L 4897 0 
L 4281 0 
L 4281 4097 
L 3078 897 
L 2444 897 
L 1241 4097 
L 1241 0 
L 628 0 
L 628 4666 
z
" transform="scale(0.015625)"/>
      <path id="DejaVuSans-5f" d="M 3263 -1063 
L 3263 -1509 
L -63 -1509 
L -63 -1063 
L 3263 -1063 
z
" transform="scale(0.015625)"/>
      <path id="DejaVuSans-4e" d="M 628 4666 
L 1478 4666 
L 3547 763 
L 3547 4666 
L 4159 4666 
L 4159 0 
L 3309 0 
L 1241 3903 
L 1241 0 
L 628 0 
L 628 4666 
z
" transform="scale(0.015625)"/>
     </defs>
     <use xlink:href="#DejaVuSans-43"/>
     <use xlink:href="#DejaVuSans-52" transform="translate(69.824219 0)"/>
     <use xlink:href="#DejaVuSans-45" transform="translate(139.306641 0)"/>
     <use xlink:href="#DejaVuSans-2d" transform="translate(202.490234 0)"/>
     <use xlink:href="#DejaVuSans-31" transform="translate(238.574219 0)"/>
     <use xlink:href="#DejaVuSans-30" transform="translate(302.197266 0)"/>
     <use xlink:href="#DejaVuSans-2d" transform="translate(365.820312 0)"/>
     <use xlink:href="#DejaVuSans-32" transform="translate(401.904297 0)"/>
     <use xlink:href="#DejaVuSans-30" transform="translate(465.527344 0)"/>
     <use xlink:href="#DejaVuSans-32" transform="translate(529.150391 0)"/>
     <use xlink:href="#DejaVuSans-35" transform="translate(592.773438 0)"/>
     <use xlink:href="#DejaVuSans-2d" transform="translate(656.396484 0)"/>
     <use xlink:href="#DejaVuSans-30" transform="translate(692.480469 0)"/>
     <use xlink:href="#DejaVuSans-33" transform="translate(756.103516 0)"/>
     <use xlink:href="#DejaVuSans-2d" transform="translate(819.726562 0)"/>
     <use xlink:href="#DejaVuSans-31" transform="translate(855.810547 0)"/>
     <use xlink:href="#DejaVuSans-32" transform="translate(919.433594 0)"/>
     <use xlink:href="#DejaVuSans-2d" transform="translate(983.056641 0)"/>
     <use xlink:href="#DejaVuSans-49" transform="translate(1019.140625 0)"/>
     <use xlink:href="#DejaVuSans-54" transform="translate(1048.632812 0)"/>
     <use xlink:href="#DejaVuSans-4d" transform="translate(1109.716797 0)"/>
     <use xlink:href="#DejaVuSans-2d" transform="translate(1195.996094 0)"/>
     <use xlink:href="#DejaVuSans-30" transform="translate(1232.080078 0)"/>
     <use xlink:href="#DejaVuSans-31" transform="translate(1295.703125 0)"/>
     <use xlink:href="#DejaVuSans-30" transform="translate(1359.326172 0)"/>
     <use xlink:href="#DejaVuSans-5f" transform="translate(1422.949219 0)"/>
     <use xlink:href="#DejaVuSans-45" transform="translate(1472.949219 0)"/>
     <use xlink:href="#DejaVuSans-4e" transform="translate(1536.132812 0)"/>
    </g>
   </g>
  </g>
 </g>
 <defs>
  <clipPath id="p3a92131374">
   <rect x="90" y="69.12" width="558" height="443.52"/>
  </clipPath>
 </defs>
</svg>
