<?xml version="1.0" encoding="utf-8" standalone="no"?>
<!DOCTYPE svg PUBLIC "-//W3C//DTD SVG 1.1//EN"
  "http://www.w3.org/Graphics/SVG/1.1/DTD/svg11.dtd">
<svg xmlns:xlink="http://www.w3.org/1999/xlink" width="720pt" height="576pt" viewBox="0 0 720 576" xmlns="http://www.w3.org/2000/svg" version="1.1">
 <metadata>
  <rdf:RDF xmlns:dc="http://purl.org/dc/elements/1.1/" xmlns:cc="http://creativecommons.org/ns#" xmlns:rdf="http://www.w3.org/1999/02/22-rdf-syntax-ns#">
   <cc:Work>
    <dc:type rdf:resource="http://purl.org/dc/dcmitype/StillImage"/>
    <dc:date>2025-11-03T14:28:38.644565</dc:date>
    <dc:format>image/svg+xml</dc:format>
    <dc:creator>
     <cc:Agent>
      <dc:title>Matplotlib v3.10.0, https://matplotlib.org/</dc:title>
     </cc:Agent>
    </dc:creator>
   </cc:Work>
  </rdf:RDF>
 </metadata>
 <defs>
  <style type="text/css">*{stroke-linejoin: round; stroke-linecap: butt}</style>
 </defs>
 <g id="figure_1">
  <g id="patch_1">
   <path d="M 0 576 
L 720 576 
L 720 0 
L 0 0 
z
" style="fill: #ffffff"/>
  </g>
  <g id="axes_1">
   <g id="patch_2">
    <path d="M 90 512.64 
L 648 512.64 
L 648 69.12 
L 90 69.12 
z
" style="fill: #ffffff"/>
   </g>
   <g id="patch_3">
    <path d="M 338.427649 375.082003 
C 317.5416 372.917573 297.101693 374.121319 281.609579 378.428131 
C 266.117465 382.734942 256.838007 389.793186 255.814898 398.048367 
C 254.791789 406.303548 262.108562 415.081667 276.153782 422.449444 
C 290.199001 429.817222 309.825938 435.173112 330.711987 437.337541 
C 351.598036 439.501971 372.037944 438.298225 387.530058 433.991413 
C 403.022172 429.684602 412.30163 422.626358 413.324738 414.371177 
C 414.347847 406.115996 407.031075 397.337877 392.985855 389.9701 
C 378.940635 382.602322 359.313698 377.246432 338.427649 375.082003 
L 338.427649 375.082003 
z
" clip-path="url(#pae3adc1852)" style="fill: none; stroke: #000000; stroke-linejoin: miter"/>
   </g>
   <g id="patch_4">
    <path d="M 401.228616 183.949597 
C 378.146108 165.596715 353.619676 150.502508 333.050985 141.9913 
C 312.482293 133.480092 297.550684 132.246786 291.54467 138.563004 
C 285.538656 144.879221 288.948602 158.22927 301.023508 175.672958 
C 313.098413 193.116645 332.852415 213.229772 355.934924 231.582654 
C 379.017432 249.935537 403.543864 265.029744 424.112555 273.540952 
C 444.681247 282.052159 459.612856 283.285465 465.61887 276.969248 
C 471.624884 270.653031 468.214938 257.302982 456.140033 239.859294 
C 444.065127 222.415606 424.311125 202.30248 401.228616 183.949597 
L 401.228616 183.949597 
z
" clip-path="url(#pae3adc1852)" style="fill: none; stroke: #000000; stroke-linejoin: miter"/>
   </g>
   <g id="patch_5">
    <path d="M 311.370142 244.03495 
C 291.242521 227.18859 266.300154 216.660888 242.036308 214.770447 
C 217.772461 212.880007 196.168171 219.781175 181.981531 233.954048 
C 167.794891 248.126922 162.184177 268.414349 166.385085 290.34826 
C 170.585993 312.28217 184.255536 334.071757 204.383157 350.918117 
C 224.510778 367.764477 249.453145 378.292179 273.716992 380.182619 
C 297.980838 382.07306 319.585129 375.171892 333.771769 360.999018 
C 347.958409 346.826145 353.569122 326.538717 349.368214 304.604807 
C 345.167306 282.670897 331.497763 260.88131 311.370142 244.03495 
L 311.370142 244.03495 
z
" clip-path="url(#pae3adc1852)" style="fill: none; stroke: #000000; stroke-linejoin: miter"/>
   </g>
   <g id="patch_6">
    <path d="M 452.920197 276.69315 
C 430.429068 289.356773 412.456554 306.850351 402.960891 325.321127 
C 393.465228 343.791903 393.221695 361.731819 402.283927 375.189818 
C 411.34616 388.647816 428.974267 396.525111 451.285863 397.086819 
C 473.597459 397.648528 498.7709 390.848789 521.262028 378.185165 
C 543.753156 365.521542 561.725671 348.027964 571.221334 329.557188 
C 580.716997 311.086412 580.96053 293.146496 571.898297 279.688497 
C 562.836064 266.230499 545.207957 258.353204 522.896362 257.791496 
C 500.584766 257.229787 475.411325 264.029527 452.920197 276.69315 
L 452.920197 276.69315 
z
" clip-path="url(#pae3adc1852)" style="fill: none; stroke: #000000; stroke-linejoin: miter"/>
   </g>
   <g id="patch_7">
    <path d="M 210.089553 394.87668 
C 221.914697 374.781699 229.356467 353.587735 230.775901 335.962513 
C 232.195335 318.337291 227.476541 305.719832 217.65878 300.888985 
C 207.841019 296.058137 193.725866 299.408319 178.422021 310.201691 
C 163.118176 320.995063 147.875129 338.350395 136.049985 358.445375 
C 124.224841 378.540356 116.78307 399.734319 115.363636 417.359541 
C 113.944203 434.984763 118.662996 447.602222 128.480758 452.43307 
C 138.298519 457.263917 152.413672 453.913736 167.717517 443.120364 
C 183.021362 432.326992 198.264409 414.97166 210.089553 394.87668 
L 210.089553 394.87668 
z
" clip-path="url(#pae3adc1852)" style="fill: none; stroke: #000000; stroke-linejoin: miter"/>
   </g>
   <g id="patch_8">
    <path d="M 554.088621 157.873895 
C 532.581124 136.837186 510.629226 117.789742 493.067579 104.926541 
C 475.505931 92.063339 463.768364 86.434605 460.439941 89.28 
C 457.111518 92.125395 462.46399 103.212606 475.318536 120.099804 
C 488.173083 136.987002 507.480187 158.295421 528.987684 179.33213 
C 550.495181 200.368838 572.447079 219.416283 590.008726 232.279484 
C 607.570374 245.142685 619.307941 250.77142 622.636364 247.926024 
C 625.964787 245.080629 620.612315 233.993418 607.757769 217.10622 
C 594.903222 200.219023 575.596118 178.910603 554.088621 157.873895 
L 554.088621 157.873895 
z
" clip-path="url(#pae3adc1852)" style="fill: none; stroke: #000000; stroke-linejoin: miter"/>
   </g>
   <g id="patch_9">
    <path d="M 245.592671 151.701909 
C 217.315695 145.033494 190.096319 138.980328 169.929297 134.875548 
C 149.762275 130.770768 138.294153 128.949512 138.050653 129.812891 
C 137.807153 130.67627 148.808155 134.153793 168.630816 139.479575 
C 188.453478 144.805357 215.479366 151.544572 243.756342 158.212986 
C 272.033319 164.881401 299.252694 170.934568 319.419716 175.039347 
C 339.586738 179.144127 351.05486 180.965383 351.29836 180.102004 
C 351.54186 179.238625 340.540858 175.761102 320.718197 170.43532 
C 300.895535 165.109538 273.869647 158.370323 245.592671 151.701909 
L 245.592671 151.701909 
z
" clip-path="url(#pae3adc1852)" style="fill: none; stroke: #000000; stroke-linejoin: miter"/>
   </g>
   <g id="patch_10">
    <path d="M 422.121014 333.988353 
C 419.979947 317.520103 413.545863 302.200334 404.235795 291.403048 
C 394.925727 280.605762 383.4998 275.212509 372.474442 276.411091 
C 361.449084 277.609672 351.724467 285.302229 345.442325 297.794565 
C 339.160183 310.286901 336.833425 326.559073 338.974492 343.027322 
C 341.11556 359.495572 347.549643 374.815341 356.859712 385.612627 
C 366.16978 396.409913 377.595707 401.803166 388.621065 400.604584 
C 399.646422 399.406003 409.371039 391.713446 415.653181 379.22111 
C 421.935323 366.728774 424.262081 350.456602 422.121014 333.988353 
L 422.121014 333.988353 
z
" clip-path="url(#pae3adc1852)" style="fill: none; stroke: #000000; stroke-linejoin: miter"/>
   </g>
   <g id="patch_11">
    <path d="M 416.786332 438.757838 
C 390.290846 438.186622 364.804007 440.468978 345.938994 445.102242 
C 327.073982 449.735507 316.371042 456.341395 316.187372 463.465037 
C 316.003701 470.588679 326.354297 477.648461 344.959561 483.089547 
C 363.564824 488.530633 388.905718 491.908784 415.401204 492.48 
C 441.896689 493.051216 467.383529 490.768861 486.248541 486.135596 
C 505.113553 481.502331 515.816494 474.896443 516.000164 467.772801 
C 516.183834 460.649159 505.833238 453.589378 487.227975 448.148291 
C 468.622712 442.707205 443.281818 439.329055 416.786332 438.757838 
L 416.786332 438.757838 
z
" clip-path="url(#pae3adc1852)" style="fill: none; stroke: #000000; stroke-linejoin: miter"/>
   </g>
   <g id="PathCollection_1">
    <defs>
     <path id="C0_0_eecb4d5af6" d="M 0 3.162278 
C 0.838646 3.162278 1.643056 2.82908 2.236068 2.236068 
C 2.82908 1.643056 3.162278 0.838646 3.162278 -0 
C 3.162278 -0.838646 2.82908 -1.643056 2.236068 -2.236068 
C 1.643056 -2.82908 0.838646 -3.162278 0 -3.162278 
C -0.838646 -3.162278 -1.643056 -2.82908 -2.236068 -2.236068 
C -2.82908 -1.643056 -3.162278 -0.838646 -3.162278 0 
C -3.162278 0.838646 -2.82908 1.643056 -2.236068 2.236068 
C -1.643056 2.82908 -0.838646 3.162278 0 3.162278 
z
"/>
    </defs>
    <g clip-path="url(#pae3adc1852)">
     <use xlink:href="#C0_0_eecb4d5af6" x="354.193242" y="449.950336" style="fill: #0047ab; stroke: #0047ab"/>
    </g>
    <g clip-path="url(#pae3adc1852)">
     <use xlink:href="#C0_0_eecb4d5af6" x="271.630096" y="364.475944" style="fill: #dd0000; stroke: #dd0000"/>
    </g>
    <g clip-path="url(#pae3adc1852)">
     <use xlink:href="#C0_0_eecb4d5af6" x="403.060932" y="473.705829" style="fill: #002e5d; stroke: #002e5d"/>
    </g>
    <g clip-path="url(#pae3adc1852)">
     <use xlink:href="#C0_0_eecb4d5af6" x="309.377114" y="284.27907" style="fill: #001a70; stroke: #001a70"/>
    </g>
    <g clip-path="url(#pae3adc1852)">
     <use xlink:href="#C0_0_eecb4d5af6" x="318.619396" y="261.375661" style="fill: #ff9000; stroke: #ff9000"/>
    </g>
    <g clip-path="url(#pae3adc1852)">
     <use xlink:href="#C0_0_eecb4d5af6" x="378.23496" y="359.373616" style="fill: #00a651; stroke: #00a651"/>
    </g>
    <g clip-path="url(#pae3adc1852)">
     <use xlink:href="#C0_0_eecb4d5af6" x="362.999669" y="179.691082" style="fill: #8b1c62; stroke: #8b1c62"/>
    </g>
    <g clip-path="url(#pae3adc1852)">
     <use xlink:href="#C0_0_eecb4d5af6" x="143.121303" y="271.502589" style="fill: #4c4c4c; stroke: #4c4c4c"/>
    </g>
    <g clip-path="url(#pae3adc1852)">
     <use xlink:href="#C0_0_eecb4d5af6" x="232.635847" y="288.408626" style="fill: #0047ab; stroke: #0047ab"/>
    </g>
    <g clip-path="url(#pae3adc1852)">
     <use xlink:href="#C0_0_eecb4d5af6" x="265.757113" y="341.480547" style="fill: #dd0000; stroke: #dd0000"/>
    </g>
    <g clip-path="url(#pae3adc1852)">
     <use xlink:href="#C0_0_eecb4d5af6" x="246.605154" y="314.128496" style="fill: #8b1c62; stroke: #8b1c62"/>
    </g>
    <g clip-path="url(#pae3adc1852)">
     <use xlink:href="#C0_0_eecb4d5af6" x="264.017638" y="367.807713" style="fill: #dd0000; stroke: #dd0000"/>
    </g>
    <g clip-path="url(#pae3adc1852)">
     <use xlink:href="#C0_0_eecb4d5af6" x="480.487392" y="354.711084" style="fill: #002e5d; stroke: #002e5d"/>
    </g>
    <g clip-path="url(#pae3adc1852)">
     <use xlink:href="#C0_0_eecb4d5af6" x="356.421995" y="330.953493" style="fill: #001a70; stroke: #001a70"/>
    </g>
    <g clip-path="url(#pae3adc1852)">
     <use xlink:href="#C0_0_eecb4d5af6" x="178.849451" y="322.073863" style="fill: #ff9000; stroke: #ff9000"/>
    </g>
    <g clip-path="url(#pae3adc1852)">
     <use xlink:href="#C0_0_eecb4d5af6" x="274.476266" y="395.24728" style="fill: #00a651; stroke: #00a651"/>
    </g>
    <g clip-path="url(#pae3adc1852)">
     <use xlink:href="#C0_0_eecb4d5af6" x="297.787232" y="166.454328" style="fill: #8b1c62; stroke: #8b1c62"/>
    </g>
    <g clip-path="url(#pae3adc1852)">
     <use xlink:href="#C0_0_eecb4d5af6" x="274.275503" y="315.365379" style="fill: #4c4c4c; stroke: #4c4c4c"/>
    </g>
    <g clip-path="url(#pae3adc1852)">
     <use xlink:href="#C0_0_eecb4d5af6" x="283.950984" y="336.337138" style="fill: #a0a0a0; stroke: #a0a0a0"/>
    </g>
    <g clip-path="url(#pae3adc1852)">
     <use xlink:href="#C0_0_eecb4d5af6" x="154.449673" y="423.85367" style="fill: #0047ab; stroke: #0047ab"/>
    </g>
    <g clip-path="url(#pae3adc1852)">
     <use xlink:href="#C0_0_eecb4d5af6" x="310.821737" y="265.289857" style="fill: #002e5d; stroke: #002e5d"/>
    </g>
    <g clip-path="url(#pae3adc1852)">
     <use xlink:href="#C0_0_eecb4d5af6" x="263.272995" y="347.628599" style="fill: #0047ab; stroke: #0047ab"/>
    </g>
    <g clip-path="url(#pae3adc1852)">
     <use xlink:href="#C0_0_eecb4d5af6" x="245.074637" y="157.056172" style="fill: #dd0000; stroke: #dd0000"/>
    </g>
    <g clip-path="url(#pae3adc1852)">
     <use xlink:href="#C0_0_eecb4d5af6" x="403.655037" y="374.914533" style="fill: #002e5d; stroke: #002e5d"/>
    </g>
    <g clip-path="url(#pae3adc1852)">
     <use xlink:href="#C0_0_eecb4d5af6" x="351.224138" y="346.629229" style="fill: #001a70; stroke: #001a70"/>
    </g>
    <g clip-path="url(#pae3adc1852)">
     <use xlink:href="#C0_0_eecb4d5af6" x="334.498842" y="409.624272" style="fill: #ff9000; stroke: #ff9000"/>
    </g>
    <g clip-path="url(#pae3adc1852)">
     <use xlink:href="#C0_0_eecb4d5af6" x="137.941897" y="402.087716" style="fill: #00a651; stroke: #00a651"/>
    </g>
    <g clip-path="url(#pae3adc1852)">
     <use xlink:href="#C0_0_eecb4d5af6" x="377.125761" y="399.20885" style="fill: #8b1c62; stroke: #8b1c62"/>
    </g>
    <g clip-path="url(#pae3adc1852)">
     <use xlink:href="#C0_0_eecb4d5af6" x="214.288835" y="362.296467" style="fill: #a0a0a0; stroke: #a0a0a0"/>
    </g>
    <g clip-path="url(#pae3adc1852)">
     <use xlink:href="#C0_0_eecb4d5af6" x="398.109746" y="374.278982" style="fill: #0047ab; stroke: #0047ab"/>
    </g>
    <g clip-path="url(#pae3adc1852)">
     <use xlink:href="#C0_0_eecb4d5af6" x="388.57962" y="325.027921" style="fill: #dd0000; stroke: #dd0000"/>
    </g>
    <g clip-path="url(#pae3adc1852)">
     <use xlink:href="#C0_0_eecb4d5af6" x="199.244004" y="246.533435" style="fill: #002e5d; stroke: #002e5d"/>
    </g>
    <g clip-path="url(#pae3adc1852)">
     <use xlink:href="#C0_0_eecb4d5af6" x="469.061053" y="320.900249" style="fill: #dd0000; stroke: #dd0000"/>
    </g>
    <g clip-path="url(#pae3adc1852)">
     <use xlink:href="#C0_0_eecb4d5af6" x="357.769257" y="285.291482" style="fill: #002e5d; stroke: #002e5d"/>
    </g>
    <g clip-path="url(#pae3adc1852)">
     <use xlink:href="#C0_0_eecb4d5af6" x="298.255529" y="413.438602" style="fill: #001a70; stroke: #001a70"/>
    </g>
    <g clip-path="url(#pae3adc1852)">
     <use xlink:href="#C0_0_eecb4d5af6" x="587.737402" y="208.898968" style="fill: #ff9000; stroke: #ff9000"/>
    </g>
    <g clip-path="url(#pae3adc1852)">
     <use xlink:href="#C0_0_eecb4d5af6" x="509.337406" y="128.859358" style="fill: #001a70; stroke: #001a70"/>
    </g>
    <g clip-path="url(#pae3adc1852)">
     <use xlink:href="#C0_0_eecb4d5af6" x="527.539639" y="168.05072" style="fill: #ff9000; stroke: #ff9000"/>
    </g>
    <g clip-path="url(#pae3adc1852)">
     <use xlink:href="#C0_0_eecb4d5af6" x="388.737237" y="197.200126" style="fill: #00a651; stroke: #00a651"/>
    </g>
    <g clip-path="url(#pae3adc1852)">
     <use xlink:href="#C0_0_eecb4d5af6" x="372.646026" y="449.285148" style="fill: #0047ab; stroke: #0047ab"/>
    </g>
    <g clip-path="url(#pae3adc1852)">
     <use xlink:href="#C0_0_eecb4d5af6" x="434.706661" y="261.516359" style="fill: #002e5d; stroke: #002e5d"/>
    </g>
    <g clip-path="url(#pae3adc1852)">
     <use xlink:href="#C0_0_eecb4d5af6" x="473.337999" y="259.944529" style="fill: #ff9000; stroke: #ff9000"/>
    </g>
    <g clip-path="url(#pae3adc1852)">
     <use xlink:href="#C0_0_eecb4d5af6" x="360.684876" y="407.299367" style="fill: #0047ab; stroke: #0047ab"/>
    </g>
    <g clip-path="url(#pae3adc1852)">
     <use xlink:href="#C0_0_eecb4d5af6" x="327.88351" y="192.656912" style="fill: #002e5d; stroke: #002e5d"/>
    </g>
    <g clip-path="url(#pae3adc1852)">
     <use xlink:href="#C0_0_eecb4d5af6" x="394.082629" y="459.983695" style="fill: #0047ab; stroke: #0047ab"/>
    </g>
    <g clip-path="url(#pae3adc1852)">
     <use xlink:href="#C0_0_eecb4d5af6" x="191.161677" y="141.361833" style="fill: #002e5d; stroke: #002e5d"/>
    </g>
    <g clip-path="url(#pae3adc1852)">
     <use xlink:href="#C0_0_eecb4d5af6" x="198.617751" y="246.949611" style="fill: #0047ab; stroke: #0047ab"/>
    </g>
    <g clip-path="url(#pae3adc1852)">
     <use xlink:href="#C0_0_eecb4d5af6" x="250.997211" y="276.606679" style="fill: #002e5d; stroke: #002e5d"/>
    </g>
    <g clip-path="url(#pae3adc1852)">
     <use xlink:href="#C0_0_eecb4d5af6" x="413.650358" y="282.679409" style="fill: #0047ab; stroke: #0047ab"/>
    </g>
    <g clip-path="url(#pae3adc1852)">
     <use xlink:href="#C0_0_eecb4d5af6" x="311.011632" y="280.845425" style="fill: #0047ab; stroke: #0047ab"/>
    </g>
    <g clip-path="url(#pae3adc1852)">
     <use xlink:href="#C0_0_eecb4d5af6" x="466.079076" y="357.609709" style="fill: #0047ab; stroke: #0047ab"/>
    </g>
    <g clip-path="url(#pae3adc1852)">
     <use xlink:href="#C0_0_eecb4d5af6" x="306.941181" y="406.066821" style="fill: #0047ab; stroke: #0047ab"/>
    </g>
    <g clip-path="url(#pae3adc1852)">
     <use xlink:href="#C0_0_eecb4d5af6" x="456.39101" y="340.798835" style="fill: #0047ab; stroke: #0047ab"/>
    </g>
    <g clip-path="url(#pae3adc1852)">
     <use xlink:href="#C0_0_eecb4d5af6" x="363.614663" y="392.435597" style="fill: #dd0000; stroke: #dd0000"/>
    </g>
    <g clip-path="url(#pae3adc1852)">
     <use xlink:href="#C0_0_eecb4d5af6" x="384.583284" y="355.349282" style="fill: #002e5d; stroke: #002e5d"/>
    </g>
    <g clip-path="url(#pae3adc1852)">
     <use xlink:href="#C0_0_eecb4d5af6" x="357.568768" y="389.18251" style="fill: #001a70; stroke: #001a70"/>
    </g>
    <g clip-path="url(#pae3adc1852)">
     <use xlink:href="#C0_0_eecb4d5af6" x="502.026037" y="461.030485" style="fill: #ff9000; stroke: #ff9000"/>
    </g>
    <g clip-path="url(#pae3adc1852)">
     <use xlink:href="#C0_0_eecb4d5af6" x="392.261822" y="349.051968" style="fill: #8b1c62; stroke: #8b1c62"/>
    </g>
    <g clip-path="url(#pae3adc1852)">
     <use xlink:href="#C0_0_eecb4d5af6" x="239.947517" y="248.086281" style="fill: #a0a0a0; stroke: #a0a0a0"/>
    </g>
    <g clip-path="url(#pae3adc1852)">
     <use xlink:href="#C0_0_eecb4d5af6" x="541.32577" y="336.016572" style="fill: #0047ab; stroke: #0047ab"/>
    </g>
    <g clip-path="url(#pae3adc1852)">
     <use xlink:href="#C0_0_eecb4d5af6" x="179.819052" y="372.993423" style="fill: #dd0000; stroke: #dd0000"/>
    </g>
    <g clip-path="url(#pae3adc1852)">
     <use xlink:href="#C0_0_eecb4d5af6" x="437.556792" y="356.215305" style="fill: #002e5d; stroke: #002e5d"/>
    </g>
    <g clip-path="url(#pae3adc1852)">
     <use xlink:href="#C0_0_eecb4d5af6" x="572.489903" y="293.31698" style="fill: #001a70; stroke: #001a70"/>
    </g>
    <g clip-path="url(#pae3adc1852)">
     <use xlink:href="#C0_0_eecb4d5af6" x="361.535073" y="340.036312" style="fill: #002e5d; stroke: #002e5d"/>
    </g>
    <g clip-path="url(#pae3adc1852)">
     <use xlink:href="#C0_0_eecb4d5af6" x="377.463256" y="411.740257" style="fill: #0047ab; stroke: #0047ab"/>
    </g>
    <g clip-path="url(#pae3adc1852)">
     <use xlink:href="#C0_0_eecb4d5af6" x="347.231678" y="407.803804" style="fill: #002e5d; stroke: #002e5d"/>
    </g>
    <g clip-path="url(#pae3adc1852)">
     <use xlink:href="#C0_0_eecb4d5af6" x="262.783756" y="392.519567" style="fill: #001a70; stroke: #001a70"/>
    </g>
    <g clip-path="url(#pae3adc1852)">
     <use xlink:href="#C0_0_eecb4d5af6" x="408.653248" y="484.089361" style="fill: #002e5d; stroke: #002e5d"/>
    </g>
   </g>
   <g id="matplotlib.axis_1">
    <g id="xtick_1">
     <g id="line2d_1">
      <defs>
       <path id="md612fbf026" d="M 0 0 
L 0 3.5 
" style="stroke: #000000; stroke-width: 0.8"/>
      </defs>
      <g>
       <use xlink:href="#md612fbf026" x="126.547457" y="512.64" style="stroke: #000000; stroke-width: 0.8"/>
      </g>
     </g>
     <g id="text_1">
      <!-- −0.3 -->
      <g transform="translate(114.40605 527.238438) scale(0.1 -0.1)">
       <defs>
        <path id="DejaVuSans-2212" d="M 678 2272 
L 4684 2272 
L 4684 1741 
L 678 1741 
L 678 2272 
z
" transform="scale(0.015625)"/>
        <path id="DejaVuSans-30" d="M 2034 4250 
Q 1547 4250 1301 3770 
Q 1056 3291 1056 2328 
Q 1056 1369 1301 889 
Q 1547 409 2034 409 
Q 2525 409 2770 889 
Q 3016 1369 3016 2328 
Q 3016 3291 2770 3770 
Q 2525 4250 2034 4250 
z
M 2034 4750 
Q 2819 4750 3233 4129 
Q 3647 3509 3647 2328 
Q 3647 1150 3233 529 
Q 2819 -91 2034 -91 
Q 1250 -91 836 529 
Q 422 1150 422 2328 
Q 422 3509 836 4129 
Q 1250 4750 2034 4750 
z
" transform="scale(0.015625)"/>
        <path id="DejaVuSans-2e" d="M 684 794 
L 1344 794 
L 1344 0 
L 684 0 
L 684 794 
z
" transform="scale(0.015625)"/>
        <path id="DejaVuSans-33" d="M 2597 2516 
Q 3050 2419 3304 2112 
Q 3559 1806 3559 1356 
Q 3559 666 3084 287 
Q 2609 -91 1734 -91 
Q 1441 -91 1130 -33 
Q 819 25 488 141 
L 488 750 
Q 750 597 1062 519 
Q 1375 441 1716 441 
Q 2309 441 2620 675 
Q 2931 909 2931 1356 
Q 2931 1769 2642 2001 
Q 2353 2234 1838 2234 
L 1294 2234 
L 1294 2753 
L 1863 2753 
Q 2328 2753 2575 2939 
Q 2822 3125 2822 3475 
Q 2822 3834 2567 4026 
Q 2313 4219 1838 4219 
Q 1578 4219 1281 4162 
Q 984 4106 628 3988 
L 628 4550 
Q 988 4650 1302 4700 
Q 1616 4750 1894 4750 
Q 2613 4750 3031 4423 
Q 3450 4097 3450 3541 
Q 3450 3153 3228 2886 
Q 3006 2619 2597 2516 
z
" transform="scale(0.015625)"/>
       </defs>
       <use xlink:href="#DejaVuSans-2212"/>
       <use xlink:href="#DejaVuSans-30" transform="translate(83.789062 0)"/>
       <use xlink:href="#DejaVuSans-2e" transform="translate(147.412109 0)"/>
       <use xlink:href="#DejaVuSans-33" transform="translate(179.199219 0)"/>
      </g>
     </g>
    </g>
    <g id="xtick_2">
     <g id="line2d_2">
      <g>
       <use xlink:href="#md612fbf026" x="198.58202" y="512.64" style="stroke: #000000; stroke-width: 0.8"/>
      </g>
     </g>
     <g id="text_2">
      <!-- −0.2 -->
      <g transform="translate(186.440614 527.238438) scale(0.1 -0.1)">
       <defs>
        <path id="DejaVuSans-32" d="M 1228 531 
L 3431 531 
L 3431 0 
L 469 0 
L 469 531 
Q 828 903 1448 1529 
Q 2069 2156 2228 2338 
Q 2531 2678 2651 2914 
Q 2772 3150 2772 3378 
Q 2772 3750 2511 3984 
Q 2250 4219 1831 4219 
Q 1534 4219 1204 4116 
Q 875 4013 500 3803 
L 500 4441 
Q 881 4594 1212 4672 
Q 1544 4750 1819 4750 
Q 2544 4750 2975 4387 
Q 3406 4025 3406 3419 
Q 3406 3131 3298 2873 
Q 3191 2616 2906 2266 
Q 2828 2175 2409 1742 
Q 1991 1309 1228 531 
z
" transform="scale(0.015625)"/>
       </defs>
       <use xlink:href="#DejaVuSans-2212"/>
       <use xlink:href="#DejaVuSans-30" transform="translate(83.789062 0)"/>
       <use xlink:href="#DejaVuSans-2e" transform="translate(147.412109 0)"/>
       <use xlink:href="#DejaVuSans-32" transform="translate(179.199219 0)"/>
      </g>
     </g>
    </g>
    <g id="xtick_3">
     <g id="line2d_3">
      <g>
       <use xlink:href="#md612fbf026" x="270.616583" y="512.64" style="stroke: #000000; stroke-width: 0.8"/>
      </g>
     </g>
     <g id="text_3">
      <!-- −0.1 -->
      <g transform="translate(258.475177 527.238438) scale(0.1 -0.1)">
       <defs>
        <path id="DejaVuSans-31" d="M 794 531 
L 1825 531 
L 1825 4091 
L 703 3866 
L 703 4441 
L 1819 4666 
L 2450 4666 
L 2450 531 
L 3481 531 
L 3481 0 
L 794 0 
L 794 531 
z
" transform="scale(0.015625)"/>
       </defs>
       <use xlink:href="#DejaVuSans-2212"/>
       <use xlink:href="#DejaVuSans-30" transform="translate(83.789062 0)"/>
       <use xlink:href="#DejaVuSans-2e" transform="translate(147.412109 0)"/>
       <use xlink:href="#DejaVuSans-31" transform="translate(179.199219 0)"/>
      </g>
     </g>
    </g>
    <g id="xtick_4">
     <g id="line2d_4">
      <g>
       <use xlink:href="#md612fbf026" x="342.651146" y="512.64" style="stroke: #000000; stroke-width: 0.8"/>
      </g>
     </g>
     <g id="text_4">
      <!-- 0.0 -->
      <g transform="translate(334.699584 527.238438) scale(0.1 -0.1)">
       <use xlink:href="#DejaVuSans-30"/>
       <use xlink:href="#DejaVuSans-2e" transform="translate(63.623047 0)"/>
       <use xlink:href="#DejaVuSans-30" transform="translate(95.410156 0)"/>
      </g>
     </g>
    </g>
    <g id="xtick_5">
     <g id="line2d_5">
      <g>
       <use xlink:href="#md612fbf026" x="414.685709" y="512.64" style="stroke: #000000; stroke-width: 0.8"/>
      </g>
     </g>
     <g id="text_5">
      <!-- 0.1 -->
      <g transform="translate(406.734147 527.238438) scale(0.1 -0.1)">
       <use xlink:href="#DejaVuSans-30"/>
       <use xlink:href="#DejaVuSans-2e" transform="translate(63.623047 0)"/>
       <use xlink:href="#DejaVuSans-31" transform="translate(95.410156 0)"/>
      </g>
     </g>
    </g>
    <g id="xtick_6">
     <g id="line2d_6">
      <g>
       <use xlink:href="#md612fbf026" x="486.720272" y="512.64" style="stroke: #000000; stroke-width: 0.8"/>
      </g>
     </g>
     <g id="text_6">
      <!-- 0.2 -->
      <g transform="translate(478.76871 527.238438) scale(0.1 -0.1)">
       <use xlink:href="#DejaVuSans-30"/>
       <use xlink:href="#DejaVuSans-2e" transform="translate(63.623047 0)"/>
       <use xlink:href="#DejaVuSans-32" transform="translate(95.410156 0)"/>
      </g>
     </g>
    </g>
    <g id="xtick_7">
     <g id="line2d_7">
      <g>
       <use xlink:href="#md612fbf026" x="558.754835" y="512.64" style="stroke: #000000; stroke-width: 0.8"/>
      </g>
     </g>
     <g id="text_7">
      <!-- 0.3 -->
      <g transform="translate(550.803273 527.238438) scale(0.1 -0.1)">
       <use xlink:href="#DejaVuSans-30"/>
       <use xlink:href="#DejaVuSans-2e" transform="translate(63.623047 0)"/>
       <use xlink:href="#DejaVuSans-33" transform="translate(95.410156 0)"/>
      </g>
     </g>
    </g>
    <g id="xtick_8">
     <g id="line2d_8">
      <g>
       <use xlink:href="#md612fbf026" x="630.789399" y="512.64" style="stroke: #000000; stroke-width: 0.8"/>
      </g>
     </g>
     <g id="text_8">
      <!-- 0.4 -->
      <g transform="translate(622.837836 527.238438) scale(0.1 -0.1)">
       <defs>
        <path id="DejaVuSans-34" d="M 2419 4116 
L 825 1625 
L 2419 1625 
L 2419 4116 
z
M 2253 4666 
L 3047 4666 
L 3047 1625 
L 3713 1625 
L 3713 1100 
L 3047 1100 
L 3047 0 
L 2419 0 
L 2419 1100 
L 313 1100 
L 313 1709 
L 2253 4666 
z
" transform="scale(0.015625)"/>
       </defs>
       <use xlink:href="#DejaVuSans-30"/>
       <use xlink:href="#DejaVuSans-2e" transform="translate(63.623047 0)"/>
       <use xlink:href="#DejaVuSans-34" transform="translate(95.410156 0)"/>
      </g>
     </g>
    </g>
   </g>
   <g id="matplotlib.axis_2">
    <g id="ytick_1">
     <g id="line2d_9">
      <defs>
       <path id="m003bb5c1c3" d="M 0 0 
L -3.5 0 
" style="stroke: #000000; stroke-width: 0.8"/>
      </defs>
      <g>
       <use xlink:href="#m003bb5c1c3" x="90" y="459.502474" style="stroke: #000000; stroke-width: 0.8"/>
      </g>
     </g>
     <g id="text_9">
      <!-- −0.2 -->
      <g transform="translate(58.717187 463.301693) scale(0.1 -0.1)">
       <use xlink:href="#DejaVuSans-2212"/>
       <use xlink:href="#DejaVuSans-30" transform="translate(83.789062 0)"/>
       <use xlink:href="#DejaVuSans-2e" transform="translate(147.412109 0)"/>
       <use xlink:href="#DejaVuSans-32" transform="translate(179.199219 0)"/>
      </g>
     </g>
    </g>
    <g id="ytick_2">
     <g id="line2d_10">
      <g>
       <use xlink:href="#m003bb5c1c3" x="90" y="393.632586" style="stroke: #000000; stroke-width: 0.8"/>
      </g>
     </g>
     <g id="text_10">
      <!-- −0.1 -->
      <g transform="translate(58.717187 397.431805) scale(0.1 -0.1)">
       <use xlink:href="#DejaVuSans-2212"/>
       <use xlink:href="#DejaVuSans-30" transform="translate(83.789062 0)"/>
       <use xlink:href="#DejaVuSans-2e" transform="translate(147.412109 0)"/>
       <use xlink:href="#DejaVuSans-31" transform="translate(179.199219 0)"/>
      </g>
     </g>
    </g>
    <g id="ytick_3">
     <g id="line2d_11">
      <g>
       <use xlink:href="#m003bb5c1c3" x="90" y="327.762698" style="stroke: #000000; stroke-width: 0.8"/>
      </g>
     </g>
     <g id="text_11">
      <!-- 0.0 -->
      <g transform="translate(67.096875 331.561916) scale(0.1 -0.1)">
       <use xlink:href="#DejaVuSans-30"/>
       <use xlink:href="#DejaVuSans-2e" transform="translate(63.623047 0)"/>
       <use xlink:href="#DejaVuSans-30" transform="translate(95.410156 0)"/>
      </g>
     </g>
    </g>
    <g id="ytick_4">
     <g id="line2d_12">
      <g>
       <use xlink:href="#m003bb5c1c3" x="90" y="261.892809" style="stroke: #000000; stroke-width: 0.8"/>
      </g>
     </g>
     <g id="text_12">
      <!-- 0.1 -->
      <g transform="translate(67.096875 265.692028) scale(0.1 -0.1)">
       <use xlink:href="#DejaVuSans-30"/>
       <use xlink:href="#DejaVuSans-2e" transform="translate(63.623047 0)"/>
       <use xlink:href="#DejaVuSans-31" transform="translate(95.410156 0)"/>
      </g>
     </g>
    </g>
    <g id="ytick_5">
     <g id="line2d_13">
      <g>
       <use xlink:href="#m003bb5c1c3" x="90" y="196.022921" style="stroke: #000000; stroke-width: 0.8"/>
      </g>
     </g>
     <g id="text_13">
      <!-- 0.2 -->
      <g transform="translate(67.096875 199.82214) scale(0.1 -0.1)">
       <use xlink:href="#DejaVuSans-30"/>
       <use xlink:href="#DejaVuSans-2e" transform="translate(63.623047 0)"/>
       <use xlink:href="#DejaVuSans-32" transform="translate(95.410156 0)"/>
      </g>
     </g>
    </g>
    <g id="ytick_6">
     <g id="line2d_14">
      <g>
       <use xlink:href="#m003bb5c1c3" x="90" y="130.153033" style="stroke: #000000; stroke-width: 0.8"/>
      </g>
     </g>
     <g id="text_14">
      <!-- 0.3 -->
      <g transform="translate(67.096875 133.952251) scale(0.1 -0.1)">
       <use xlink:href="#DejaVuSans-30"/>
       <use xlink:href="#DejaVuSans-2e" transform="translate(63.623047 0)"/>
       <use xlink:href="#DejaVuSans-33" transform="translate(95.410156 0)"/>
      </g>
     </g>
    </g>
   </g>
   <g id="patch_12">
    <path d="M 90 512.64 
L 90 69.12 
" style="fill: none; stroke: #000000; stroke-width: 0.8; stroke-linejoin: miter; stroke-linecap: square"/>
   </g>
   <g id="patch_13">
    <path d="M 648 512.64 
L 648 69.12 
" style="fill: none; stroke: #000000; stroke-width: 0.8; stroke-linejoin: miter; stroke-linecap: square"/>
   </g>
   <g id="patch_14">
    <path d="M 90 512.64 
L 648 512.64 
" style="fill: none; stroke: #000000; stroke-width: 0.8; stroke-linejoin: miter; stroke-linecap: square"/>
   </g>
   <g id="patch_15">
    <path d="M 90 69.12 
L 648 69.12 
" style="fill: none; stroke: #000000; stroke-width: 0.8; stroke-linejoin: miter; stroke-linecap: square"/>
   </g>
   <g id="text_15">
    <!-- 0.58 -->
    <g transform="translate(271.162578 379.068464) scale(0.1 -0.1)">
     <defs>
      <path id="DejaVuSans-35" d="M 691 4666 
L 3169 4666 
L 3169 4134 
L 1269 4134 
L 1269 2991 
Q 1406 3038 1543 3061 
Q 1681 3084 1819 3084 
Q 2600 3084 3056 2656 
Q 3513 2228 3513 1497 
Q 3513 744 3044 326 
Q 2575 -91 1722 -91 
Q 1428 -91 1123 -41 
Q 819 9 494 109 
L 494 744 
Q 775 591 1075 516 
Q 1375 441 1709 441 
Q 2250 441 2565 725 
Q 2881 1009 2881 1497 
Q 2881 1984 2565 2268 
Q 2250 2553 1709 2553 
Q 1456 2553 1204 2497 
Q 953 2441 691 2322 
L 691 4666 
z
" transform="scale(0.015625)"/>
      <path id="DejaVuSans-38" d="M 2034 2216 
Q 1584 2216 1326 1975 
Q 1069 1734 1069 1313 
Q 1069 891 1326 650 
Q 1584 409 2034 409 
Q 2484 409 2743 651 
Q 3003 894 3003 1313 
Q 3003 1734 2745 1975 
Q 2488 2216 2034 2216 
z
M 1403 2484 
Q 997 2584 770 2862 
Q 544 3141 544 3541 
Q 544 4100 942 4425 
Q 1341 4750 2034 4750 
Q 2731 4750 3128 4425 
Q 3525 4100 3525 3541 
Q 3525 3141 3298 2862 
Q 3072 2584 2669 2484 
Q 3125 2378 3379 2068 
Q 3634 1759 3634 1313 
Q 3634 634 3220 271 
Q 2806 -91 2034 -91 
Q 1263 -91 848 271 
Q 434 634 434 1313 
Q 434 1759 690 2068 
Q 947 2378 1403 2484 
z
M 1172 3481 
Q 1172 3119 1398 2916 
Q 1625 2713 2034 2713 
Q 2441 2713 2670 2916 
Q 2900 3119 2900 3481 
Q 2900 3844 2670 4047 
Q 2441 4250 2034 4250 
Q 1625 4250 1398 4047 
Q 1172 3844 1172 3481 
z
" transform="scale(0.015625)"/>
     </defs>
     <use xlink:href="#DejaVuSans-30"/>
     <use xlink:href="#DejaVuSans-2e" transform="translate(63.623047 0)"/>
     <use xlink:href="#DejaVuSans-35" transform="translate(95.410156 0)"/>
     <use xlink:href="#DejaVuSans-38" transform="translate(159.033203 0)"/>
    </g>
   </g>
   <g id="text_16">
    <!-- 0.63 -->
    <g transform="translate(286.311276 180.437862) scale(0.1 -0.1)">
     <defs>
      <path id="DejaVuSans-36" d="M 2113 2584 
Q 1688 2584 1439 2293 
Q 1191 2003 1191 1497 
Q 1191 994 1439 701 
Q 1688 409 2113 409 
Q 2538 409 2786 701 
Q 3034 994 3034 1497 
Q 3034 2003 2786 2293 
Q 2538 2584 2113 2584 
z
M 3366 4563 
L 3366 3988 
Q 3128 4100 2886 4159 
Q 2644 4219 2406 4219 
Q 1781 4219 1451 3797 
Q 1122 3375 1075 2522 
Q 1259 2794 1537 2939 
Q 1816 3084 2150 3084 
Q 2853 3084 3261 2657 
Q 3669 2231 3669 1497 
Q 3669 778 3244 343 
Q 2819 -91 2113 -91 
Q 1303 -91 875 529 
Q 447 1150 447 2328 
Q 447 3434 972 4092 
Q 1497 4750 2381 4750 
Q 2619 4750 2861 4703 
Q 3103 4656 3366 4563 
z
" transform="scale(0.015625)"/>
     </defs>
     <use xlink:href="#DejaVuSans-30"/>
     <use xlink:href="#DejaVuSans-2e" transform="translate(63.623047 0)"/>
     <use xlink:href="#DejaVuSans-36" transform="translate(95.410156 0)"/>
     <use xlink:href="#DejaVuSans-33" transform="translate(159.033203 0)"/>
    </g>
   </g>
   <g id="text_17">
    <!-- 0.84 -->
    <g transform="translate(175.566802 237.438328) scale(0.1 -0.1)">
     <use xlink:href="#DejaVuSans-30"/>
     <use xlink:href="#DejaVuSans-2e" transform="translate(63.623047 0)"/>
     <use xlink:href="#DejaVuSans-38" transform="translate(95.410156 0)"/>
     <use xlink:href="#DejaVuSans-34" transform="translate(159.033203 0)"/>
    </g>
   </g>
   <g id="text_18">
    <!-- 0.51 -->
    <g transform="translate(407.415196 277.683855) scale(0.1 -0.1)">
     <use xlink:href="#DejaVuSans-30"/>
     <use xlink:href="#DejaVuSans-2e" transform="translate(63.623047 0)"/>
     <use xlink:href="#DejaVuSans-35" transform="translate(95.410156 0)"/>
     <use xlink:href="#DejaVuSans-31" transform="translate(159.033203 0)"/>
    </g>
   </g>
   <g id="text_19">
    <!-- 0.86 -->
    <g transform="translate(97.790956 343.828187) scale(0.1 -0.1)">
     <use xlink:href="#DejaVuSans-30"/>
     <use xlink:href="#DejaVuSans-2e" transform="translate(63.623047 0)"/>
     <use xlink:href="#DejaVuSans-38" transform="translate(95.410156 0)"/>
     <use xlink:href="#DejaVuSans-36" transform="translate(159.033203 0)"/>
    </g>
   </g>
   <g id="text_20">
    <!-- 0.58 -->
    <g transform="translate(446.536955 153.954872) scale(0.1 -0.1)">
     <use xlink:href="#DejaVuSans-30"/>
     <use xlink:href="#DejaVuSans-2e" transform="translate(63.623047 0)"/>
     <use xlink:href="#DejaVuSans-35" transform="translate(95.410156 0)"/>
     <use xlink:href="#DejaVuSans-38" transform="translate(159.033203 0)"/>
    </g>
   </g>
   <g id="text_21">
    <!-- 0.58 -->
    <g transform="translate(156.584461 150.188113) scale(0.1 -0.1)">
     <use xlink:href="#DejaVuSans-30"/>
     <use xlink:href="#DejaVuSans-2e" transform="translate(63.623047 0)"/>
     <use xlink:href="#DejaVuSans-35" transform="translate(95.410156 0)"/>
     <use xlink:href="#DejaVuSans-38" transform="translate(159.033203 0)"/>
    </g>
   </g>
   <g id="text_22">
    <!-- 0.53 -->
    <g transform="translate(325.838542 305.801627) scale(0.1 -0.1)">
     <use xlink:href="#DejaVuSans-30"/>
     <use xlink:href="#DejaVuSans-2e" transform="translate(63.623047 0)"/>
     <use xlink:href="#DejaVuSans-35" transform="translate(95.410156 0)"/>
     <use xlink:href="#DejaVuSans-33" transform="translate(159.033203 0)"/>
    </g>
   </g>
   <g id="text_23">
    <!-- 0.46 -->
    <g transform="translate(336.14644 442.044396) scale(0.1 -0.1)">
     <use xlink:href="#DejaVuSans-30"/>
     <use xlink:href="#DejaVuSans-2e" transform="translate(63.623047 0)"/>
     <use xlink:href="#DejaVuSans-34" transform="translate(95.410156 0)"/>
     <use xlink:href="#DejaVuSans-36" transform="translate(159.033203 0)"/>
    </g>
   </g>
   <g id="text_24">
    <!-- CRE-10-2024-10-23-ITM-002_EN -->
    <g transform="translate(272.342813 63.12) scale(0.12 -0.12)">
     <defs>
      <path id="DejaVuSans-43" d="M 4122 4306 
L 4122 3641 
Q 3803 3938 3442 4084 
Q 3081 4231 2675 4231 
Q 1875 4231 1450 3742 
Q 1025 3253 1025 2328 
Q 1025 1406 1450 917 
Q 1875 428 2675 428 
Q 3081 428 3442 575 
Q 3803 722 4122 1019 
L 4122 359 
Q 3791 134 3420 21 
Q 3050 -91 2638 -91 
Q 1578 -91 968 557 
Q 359 1206 359 2328 
Q 359 3453 968 4101 
Q 1578 4750 2638 4750 
Q 3056 4750 3426 4639 
Q 3797 4528 4122 4306 
z
" transform="scale(0.015625)"/>
      <path id="DejaVuSans-52" d="M 2841 2188 
Q 3044 2119 3236 1894 
Q 3428 1669 3622 1275 
L 4263 0 
L 3584 0 
L 2988 1197 
Q 2756 1666 2539 1819 
Q 2322 1972 1947 1972 
L 1259 1972 
L 1259 0 
L 628 0 
L 628 4666 
L 2053 4666 
Q 2853 4666 3247 4331 
Q 3641 3997 3641 3322 
Q 3641 2881 3436 2590 
Q 3231 2300 2841 2188 
z
M 1259 4147 
L 1259 2491 
L 2053 2491 
Q 2509 2491 2742 2702 
Q 2975 2913 2975 3322 
Q 2975 3731 2742 3939 
Q 2509 4147 2053 4147 
L 1259 4147 
z
" transform="scale(0.015625)"/>
      <path id="DejaVuSans-45" d="M 628 4666 
L 3578 4666 
L 3578 4134 
L 1259 4134 
L 1259 2753 
L 3481 2753 
L 3481 2222 
L 1259 2222 
L 1259 531 
L 3634 531 
L 3634 0 
L 628 0 
L 628 4666 
z
" transform="scale(0.015625)"/>
      <path id="DejaVuSans-2d" d="M 313 2009 
L 1997 2009 
L 1997 1497 
L 313 1497 
L 313 2009 
z
" transform="scale(0.015625)"/>
      <path id="DejaVuSans-49" d="M 628 4666 
L 1259 4666 
L 1259 0 
L 628 0 
L 628 4666 
z
" transform="scale(0.015625)"/>
      <path id="DejaVuSans-54" d="M -19 4666 
L 3928 4666 
L 3928 4134 
L 2272 4134 
L 2272 0 
L 1638 0 
L 1638 4134 
L -19 4134 
L -19 4666 
z
" transform="scale(0.015625)"/>
      <path id="DejaVuSans-4d" d="M 628 4666 
L 1569 4666 
L 2759 1491 
L 3956 4666 
L 4897 4666 
L 4897 0 
L 4281 0 
L 4281 4097 
L 3078 897 
L 2444 897 
L 1241 4097 
L 1241 0 
L 628 0 
L 628 4666 
z
" transform="scale(0.015625)"/>
      <path id="DejaVuSans-5f" d="M 3263 -1063 
L 3263 -1509 
L -63 -1509 
L -63 -1063 
L 3263 -1063 
z
" transform="scale(0.015625)"/>
      <path id="DejaVuSans-4e" d="M 628 4666 
L 1478 4666 
L 3547 763 
L 3547 4666 
L 4159 4666 
L 4159 0 
L 3309 0 
L 1241 3903 
L 1241 0 
L 628 0 
L 628 4666 
z
" transform="scale(0.015625)"/>
     </defs>
     <use xlink:href="#DejaVuSans-43"/>
     <use xlink:href="#DejaVuSans-52" transform="translate(69.824219 0)"/>
     <use xlink:href="#DejaVuSans-45" transform="translate(139.306641 0)"/>
     <use xlink:href="#DejaVuSans-2d" transform="translate(202.490234 0)"/>
     <use xlink:href="#DejaVuSans-31" transform="translate(238.574219 0)"/>
     <use xlink:href="#DejaVuSans-30" transform="translate(302.197266 0)"/>
     <use xlink:href="#DejaVuSans-2d" transform="translate(365.820312 0)"/>
     <use xlink:href="#DejaVuSans-32" transform="translate(401.904297 0)"/>
     <use xlink:href="#DejaVuSans-30" transform="translate(465.527344 0)"/>
     <use xlink:href="#DejaVuSans-32" transform="translate(529.150391 0)"/>
     <use xlink:href="#DejaVuSans-34" transform="translate(592.773438 0)"/>
     <use xlink:href="#DejaVuSans-2d" transform="translate(656.396484 0)"/>
     <use xlink:href="#DejaVuSans-31" transform="translate(692.480469 0)"/>
     <use xlink:href="#DejaVuSans-30" transform="translate(756.103516 0)"/>
     <use xlink:href="#DejaVuSans-2d" transform="translate(819.726562 0)"/>
     <use xlink:href="#DejaVuSans-32" transform="translate(855.810547 0)"/>
     <use xlink:href="#DejaVuSans-33" transform="translate(919.433594 0)"/>
     <use xlink:href="#DejaVuSans-2d" transform="translate(983.056641 0)"/>
     <use xlink:href="#DejaVuSans-49" transform="translate(1019.140625 0)"/>
     <use xlink:href="#DejaVuSans-54" transform="translate(1048.632812 0)"/>
     <use xlink:href="#DejaVuSans-4d" transform="translate(1109.716797 0)"/>
     <use xlink:href="#DejaVuSans-2d" transform="translate(1195.996094 0)"/>
     <use xlink:href="#DejaVuSans-30" transform="translate(1232.080078 0)"/>
     <use xlink:href="#DejaVuSans-30" transform="translate(1295.703125 0)"/>
     <use xlink:href="#DejaVuSans-32" transform="translate(1359.326172 0)"/>
     <use xlink:href="#DejaVuSans-5f" transform="translate(1422.949219 0)"/>
     <use xlink:href="#DejaVuSans-45" transform="translate(1472.949219 0)"/>
     <use xlink:href="#DejaVuSans-4e" transform="translate(1536.132812 0)"/>
    </g>
   </g>
  </g>
 </g>
 <defs>
  <clipPath id="pae3adc1852">
   <rect x="90" y="69.12" width="558" height="443.52"/>
  </clipPath>
 </defs>
</svg>
