<?xml version="1.0" encoding="utf-8" standalone="no"?>
<!DOCTYPE svg PUBLIC "-//W3C//DTD SVG 1.1//EN"
  "http://www.w3.org/Graphics/SVG/1.1/DTD/svg11.dtd">
<svg xmlns:xlink="http://www.w3.org/1999/xlink" width="720pt" height="576pt" viewBox="0 0 720 576" xmlns="http://www.w3.org/2000/svg" version="1.1">
 <metadata>
  <rdf:RDF xmlns:dc="http://purl.org/dc/elements/1.1/" xmlns:cc="http://creativecommons.org/ns#" xmlns:rdf="http://www.w3.org/1999/02/22-rdf-syntax-ns#">
   <cc:Work>
    <dc:type rdf:resource="http://purl.org/dc/dcmitype/StillImage"/>
    <dc:date>2025-11-03T14:28:38.433097</dc:date>
    <dc:format>image/svg+xml</dc:format>
    <dc:creator>
     <cc:Agent>
      <dc:title>Matplotlib v3.10.0, https://matplotlib.org/</dc:title>
     </cc:Agent>
    </dc:creator>
   </cc:Work>
  </rdf:RDF>
 </metadata>
 <defs>
  <style type="text/css">*{stroke-linejoin: round; stroke-linecap: butt}</style>
 </defs>
 <g id="figure_1">
  <g id="patch_1">
   <path d="M 0 576 
L 720 576 
L 720 0 
L 0 0 
z
" style="fill: #ffffff"/>
  </g>
  <g id="axes_1">
   <g id="patch_2">
    <path d="M 90 512.64 
L 648 512.64 
L 648 69.12 
L 90 69.12 
z
" style="fill: #ffffff"/>
   </g>
   <g id="patch_3">
    <path d="M 469.080612 234.337186 
C 447.613468 239.85895 428.340376 248.592069 415.506011 258.613175 
C 402.671646 268.634281 397.323876 279.125195 400.640487 287.775415 
C 403.957097 296.425636 415.667301 302.52891 433.192062 304.741063 
C 450.716823 306.953215 472.625322 305.093634 494.092466 299.571871 
C 515.55961 294.050107 534.832702 285.316988 547.667068 275.295882 
C 560.501433 265.274776 565.849203 254.783862 562.532592 246.133641 
C 559.215981 237.483421 547.505777 231.380147 529.981016 229.167994 
C 512.456255 226.955841 490.547757 228.815422 469.080612 234.337186 
L 469.080612 234.337186 
z
" clip-path="url(#pbd43dc92c1)" style="fill: none; stroke: #000000; stroke-linejoin: miter"/>
   </g>
   <g id="patch_4">
    <path d="M 347.727029 388.224478 
C 313.434185 391.615932 280.541269 394.868936 256.292566 397.267056 
C 232.043863 399.665175 218.419171 401.012614 218.419171 401.012614 
C 218.419171 401.012614 232.043863 399.665175 256.292566 397.267056 
C 280.541269 394.868936 313.434185 391.615932 347.727029 388.224478 
C 382.019874 384.833025 414.91279 381.580021 439.161493 379.181901 
C 463.410196 376.783781 477.034888 375.436343 477.034888 375.436343 
C 477.034888 375.436343 463.410196 376.783781 439.161493 379.181901 
C 414.91279 381.580021 382.019874 384.833025 347.727029 388.224478 
L 347.727029 388.224478 
z
" clip-path="url(#pbd43dc92c1)" style="fill: none; stroke: #000000; stroke-linejoin: miter"/>
   </g>
   <g id="patch_5">
    <path d="M 319.40612 90.397405 
C 304.48531 85.917562 288.430439 85.515583 274.777406 89.28 
C 261.124372 93.044417 250.987886 100.667881 246.60039 110.471413 
C 242.212894 120.274945 243.932608 131.45813 251.380785 141.558001 
C 258.828963 151.657872 271.397492 159.84982 286.318302 164.329663 
C 301.239111 168.809506 317.293982 169.211484 330.947016 165.447068 
C 344.600049 161.682651 354.736536 154.059187 359.124032 144.255655 
C 363.511528 134.452123 361.791814 123.268938 354.343636 113.169067 
C 346.895459 103.069195 334.326929 94.877248 319.40612 90.397405 
L 319.40612 90.397405 
z
" clip-path="url(#pbd43dc92c1)" style="fill: none; stroke: #000000; stroke-linejoin: miter"/>
   </g>
   <g id="patch_6">
    <path d="M 415.925203 301.151741 
C 425.746869 284.438425 430.471872 266.556163 429.059584 251.443314 
C 427.647296 236.330466 420.213025 225.220928 408.394082 220.561448 
C 396.575139 215.901968 381.336489 218.072972 366.034267 226.596321 
C 350.732046 235.119669 336.615611 249.29947 326.793945 266.012785 
C 316.972278 282.726101 312.247275 300.608363 313.659563 315.721212 
C 315.071851 330.83406 322.506122 341.943598 334.325065 346.603078 
C 346.144008 351.262558 361.382658 349.091554 376.68488 340.568205 
C 391.987102 332.044856 406.103536 317.865056 415.925203 301.151741 
L 415.925203 301.151741 
z
" clip-path="url(#pbd43dc92c1)" style="fill: none; stroke: #000000; stroke-linejoin: miter"/>
   </g>
   <g id="patch_7">
    <path d="M 247.498248 327.992866 
C 226.354513 311.555869 201.397891 299.825152 178.124787 295.384268 
C 154.851682 290.943384 135.162243 294.154912 123.392838 304.31155 
C 111.623434 314.468188 108.734984 330.740691 115.363636 349.545231 
C 121.992289 368.34977 137.596844 388.151038 158.740579 404.588034 
C 179.884314 421.02503 204.840936 432.755748 228.114041 437.196632 
C 251.387145 441.637516 271.076584 438.425988 282.845989 428.26935 
C 294.615393 418.112712 297.503843 401.840208 290.875191 383.035669 
C 284.246538 364.23113 268.641983 344.429862 247.498248 327.992866 
L 247.498248 327.992866 
z
" clip-path="url(#pbd43dc92c1)" style="fill: none; stroke: #000000; stroke-linejoin: miter"/>
   </g>
   <g id="patch_8">
    <path d="M 597.395301 256.466733 
C 585.642195 243.312122 571.762234 232.256924 558.812317 225.735918 
C 545.862399 219.214912 534.89983 217.760509 528.338987 221.693025 
C 521.778143 225.625541 520.15469 234.623904 523.826174 246.706327 
C 527.497658 258.788751 536.164318 272.968759 547.917424 286.123371 
C 559.670529 299.277982 573.550491 310.33318 586.500408 316.854186 
C 599.450325 323.375192 610.412895 324.829594 616.973738 320.897078 
C 623.534581 316.964562 625.158034 307.9662 621.486551 295.883776 
C 617.815067 283.801353 609.148406 269.621344 597.395301 256.466733 
L 597.395301 256.466733 
z
" clip-path="url(#pbd43dc92c1)" style="fill: none; stroke: #000000; stroke-linejoin: miter"/>
   </g>
   <g id="patch_9">
    <path d="M 566.013945 337.579909 
C 568.118534 325.656713 564.950289 313.606041 557.206978 304.081912 
C 549.463667 294.557784 537.777498 288.337802 524.722213 286.791845 
C 511.666928 285.245888 498.308434 288.500177 487.588784 295.837993 
C 476.869134 303.175809 469.66354 313.998051 467.558951 325.921246 
C 465.454361 337.844441 468.622607 349.895114 476.365918 359.419242 
C 484.109229 368.943371 495.795398 375.163353 508.850683 376.70931 
C 521.905968 378.255266 535.264462 375.000977 545.984111 367.663162 
C 556.703761 360.325346 563.909355 349.503104 566.013945 337.579909 
L 566.013945 337.579909 
z
" clip-path="url(#pbd43dc92c1)" style="fill: none; stroke: #000000; stroke-linejoin: miter"/>
   </g>
   <g id="patch_10">
    <path d="M 382.037354 439.452746 
C 370.776937 429.047677 357.974442 420.52068 346.44947 415.749727 
C 334.924497 410.978775 325.61801 410.353393 320.579654 414.011317 
C 315.541298 417.66924 315.182432 425.311814 319.582094 435.255851 
C 323.981755 445.199888 332.78073 456.633502 344.041146 467.038571 
C 355.301562 477.44364 368.104057 485.970637 379.62903 490.741589 
C 391.154003 495.512542 400.46049 496.137923 405.498846 492.48 
C 410.537202 488.822077 410.896067 481.179503 406.496406 471.235465 
C 402.096745 461.291428 393.29777 449.857815 382.037354 439.452746 
L 382.037354 439.452746 
z
" clip-path="url(#pbd43dc92c1)" style="fill: none; stroke: #000000; stroke-linejoin: miter"/>
   </g>
   <g id="patch_11">
    <path d="M 310.459988 278.415389 
C 321.977121 264.292718 330.373698 249.296552 333.80047 236.729624 
C 337.227243 224.162696 335.40443 215.051038 328.733485 211.401389 
C 322.062539 207.751739 311.088115 209.862076 298.227202 217.26762 
C 285.366288 224.673165 271.668922 236.769288 260.151789 250.891959 
C 248.634656 265.01463 240.238079 280.010796 236.811306 292.577724 
C 233.384534 305.144653 235.207347 314.25631 241.878292 317.905959 
C 248.549237 321.555609 259.523661 319.445273 272.384575 312.039728 
C 285.245488 304.634183 298.942854 292.53806 310.459988 278.415389 
L 310.459988 278.415389 
z
" clip-path="url(#pbd43dc92c1)" style="fill: none; stroke: #000000; stroke-linejoin: miter"/>
   </g>
   <g id="PathCollection_1">
    <defs>
     <path id="C0_0_67952b1deb" d="M 0 3.162278 
C 0.838646 3.162278 1.643056 2.82908 2.236068 2.236068 
C 2.82908 1.643056 3.162278 0.838646 3.162278 -0 
C 3.162278 -0.838646 2.82908 -1.643056 2.236068 -2.236068 
C 1.643056 -2.82908 0.838646 -3.162278 0 -3.162278 
C -0.838646 -3.162278 -1.643056 -2.82908 -2.236068 -2.236068 
C -2.82908 -1.643056 -3.162278 -0.838646 -3.162278 0 
C -3.162278 0.838646 -2.82908 1.643056 -2.236068 2.236068 
C -1.643056 2.82908 -0.838646 3.162278 0 3.162278 
z
"/>
    </defs>
    <g clip-path="url(#pbd43dc92c1)">
     <use xlink:href="#C0_0_67952b1deb" x="334.209952" y="276.177171" style="fill: #001a70; stroke: #001a70"/>
    </g>
    <g clip-path="url(#pbd43dc92c1)">
     <use xlink:href="#C0_0_67952b1deb" x="398.139563" y="299.363275" style="fill: #001a70; stroke: #001a70"/>
    </g>
    <g clip-path="url(#pbd43dc92c1)">
     <use xlink:href="#C0_0_67952b1deb" x="622.636364" y="287.290752" style="fill: #0047ab; stroke: #0047ab"/>
    </g>
    <g clip-path="url(#pbd43dc92c1)">
     <use xlink:href="#C0_0_67952b1deb" x="373.211799" y="465.840729" style="fill: #dd0000; stroke: #dd0000"/>
    </g>
    <g clip-path="url(#pbd43dc92c1)">
     <use xlink:href="#C0_0_67952b1deb" x="522.242257" y="309.955405" style="fill: #002e5d; stroke: #002e5d"/>
    </g>
    <g clip-path="url(#pbd43dc92c1)">
     <use xlink:href="#C0_0_67952b1deb" x="263.99854" y="129.891594" style="fill: #001a70; stroke: #001a70"/>
    </g>
    <g clip-path="url(#pbd43dc92c1)">
     <use xlink:href="#C0_0_67952b1deb" x="393.44426" y="383.703186" style="fill: #ff9000; stroke: #ff9000"/>
    </g>
    <g clip-path="url(#pbd43dc92c1)">
     <use xlink:href="#C0_0_67952b1deb" x="272.033282" y="280.636314" style="fill: #00a651; stroke: #00a651"/>
    </g>
    <g clip-path="url(#pbd43dc92c1)">
     <use xlink:href="#C0_0_67952b1deb" x="151.168923" y="352.15653" style="fill: #8b1c62; stroke: #8b1c62"/>
    </g>
    <g clip-path="url(#pbd43dc92c1)">
     <use xlink:href="#C0_0_67952b1deb" x="323.178788" y="155.042106" style="fill: #4c4c4c; stroke: #4c4c4c"/>
    </g>
    <g clip-path="url(#pbd43dc92c1)">
     <use xlink:href="#C0_0_67952b1deb" x="279.626187" y="235.679161" style="fill: #0047ab; stroke: #0047ab"/>
    </g>
    <g clip-path="url(#pbd43dc92c1)">
     <use xlink:href="#C0_0_67952b1deb" x="221.52428" y="339.047117" style="fill: #dd0000; stroke: #dd0000"/>
    </g>
    <g clip-path="url(#pbd43dc92c1)">
     <use xlink:href="#C0_0_67952b1deb" x="540.216727" y="234.381914" style="fill: #002e5d; stroke: #002e5d"/>
    </g>
    <g clip-path="url(#pbd43dc92c1)">
     <use xlink:href="#C0_0_67952b1deb" x="558.536427" y="327.612816" style="fill: #001a70; stroke: #001a70"/>
    </g>
    <g clip-path="url(#pbd43dc92c1)">
     <use xlink:href="#C0_0_67952b1deb" x="338.790235" y="326.877059" style="fill: #ff9000; stroke: #ff9000"/>
    </g>
    <g clip-path="url(#pbd43dc92c1)">
     <use xlink:href="#C0_0_67952b1deb" x="253.580589" y="304.260348" style="fill: #00a651; stroke: #00a651"/>
    </g>
    <g clip-path="url(#pbd43dc92c1)">
     <use xlink:href="#C0_0_67952b1deb" x="236.665074" y="407.66771" style="fill: #8b1c62; stroke: #8b1c62"/>
    </g>
    <g clip-path="url(#pbd43dc92c1)">
     <use xlink:href="#C0_0_67952b1deb" x="466.017613" y="267.01792" style="fill: #4c4c4c; stroke: #4c4c4c"/>
    </g>
    <g clip-path="url(#pbd43dc92c1)">
     <use xlink:href="#C0_0_67952b1deb" x="570.746443" y="279.797114" style="fill: #0047ab; stroke: #0047ab"/>
    </g>
    <g clip-path="url(#pbd43dc92c1)">
     <use xlink:href="#C0_0_67952b1deb" x="296.576596" y="110.005878" style="fill: #002e5d; stroke: #002e5d"/>
    </g>
    <g clip-path="url(#pbd43dc92c1)">
     <use xlink:href="#C0_0_67952b1deb" x="519.05966" y="320.794204" style="fill: #001a70; stroke: #001a70"/>
    </g>
    <g clip-path="url(#pbd43dc92c1)">
     <use xlink:href="#C0_0_67952b1deb" x="302.009797" y="392.745763" style="fill: #ff9000; stroke: #ff9000"/>
    </g>
    <g clip-path="url(#pbd43dc92c1)">
     <use xlink:href="#C0_0_67952b1deb" x="431.823695" y="273.25375" style="fill: #4c4c4c; stroke: #4c4c4c"/>
    </g>
    <g clip-path="url(#pbd43dc92c1)">
     <use xlink:href="#C0_0_67952b1deb" x="368.854652" y="284.928263" style="fill: #0047ab; stroke: #0047ab"/>
    </g>
    <g clip-path="url(#pbd43dc92c1)">
     <use xlink:href="#C0_0_67952b1deb" x="313.779912" y="253.264797" style="fill: #002e5d; stroke: #002e5d"/>
    </g>
    <g clip-path="url(#pbd43dc92c1)">
     <use xlink:href="#C0_0_67952b1deb" x="482.433405" y="319.27788" style="fill: #001a70; stroke: #001a70"/>
    </g>
    <g clip-path="url(#pbd43dc92c1)">
     <use xlink:href="#C0_0_67952b1deb" x="379.80488" y="446.162477" style="fill: #0047ab; stroke: #0047ab"/>
    </g>
    <g clip-path="url(#pbd43dc92c1)">
     <use xlink:href="#C0_0_67952b1deb" x="504.801377" y="286.828861" style="fill: #002e5d; stroke: #002e5d"/>
    </g>
    <g clip-path="url(#pbd43dc92c1)">
     <use xlink:href="#C0_0_67952b1deb" x="508.633456" y="384.954751" style="fill: #001a70; stroke: #001a70"/>
    </g>
    <g clip-path="url(#pbd43dc92c1)">
     <use xlink:href="#C0_0_67952b1deb" x="573.911354" y="261.20383" style="fill: #4c4c4c; stroke: #4c4c4c"/>
    </g>
    <g clip-path="url(#pbd43dc92c1)">
     <use xlink:href="#C0_0_67952b1deb" x="328.648772" y="427.325232" style="fill: #a0a0a0; stroke: #a0a0a0"/>
    </g>
    <g clip-path="url(#pbd43dc92c1)">
     <use xlink:href="#C0_0_67952b1deb" x="591.202565" y="279.807509" style="fill: #0047ab; stroke: #0047ab"/>
    </g>
    <g clip-path="url(#pbd43dc92c1)">
     <use xlink:href="#C0_0_67952b1deb" x="583.346257" y="322.486936" style="fill: #002e5d; stroke: #002e5d"/>
    </g>
    <g clip-path="url(#pbd43dc92c1)">
     <use xlink:href="#C0_0_67952b1deb" x="480.365333" y="328.043803" style="fill: #001a70; stroke: #001a70"/>
    </g>
    <g clip-path="url(#pbd43dc92c1)">
     <use xlink:href="#C0_0_67952b1deb" x="546.218762" y="249.75668" style="fill: #002e5d; stroke: #002e5d"/>
    </g>
    <g clip-path="url(#pbd43dc92c1)">
     <use xlink:href="#C0_0_67952b1deb" x="327.69491" y="114.514558" style="fill: #001a70; stroke: #001a70"/>
    </g>
    <g clip-path="url(#pbd43dc92c1)">
     <use xlink:href="#C0_0_67952b1deb" x="551.732296" y="251.45829" style="fill: #002e5d; stroke: #002e5d"/>
    </g>
    <g clip-path="url(#pbd43dc92c1)">
     <use xlink:href="#C0_0_67952b1deb" x="511.717557" y="329.909229" style="fill: #001a70; stroke: #001a70"/>
    </g>
    <g clip-path="url(#pbd43dc92c1)">
     <use xlink:href="#C0_0_67952b1deb" x="573.896414" y="275.472452" style="fill: #002e5d; stroke: #002e5d"/>
    </g>
    <g clip-path="url(#pbd43dc92c1)">
     <use xlink:href="#C0_0_67952b1deb" x="534.313871" y="348.311939" style="fill: #001a70; stroke: #001a70"/>
    </g>
    <g clip-path="url(#pbd43dc92c1)">
     <use xlink:href="#C0_0_67952b1deb" x="394.389572" y="227.368063" style="fill: #002e5d; stroke: #002e5d"/>
    </g>
    <g clip-path="url(#pbd43dc92c1)">
     <use xlink:href="#C0_0_67952b1deb" x="523.703465" y="240.71759" style="fill: #001a70; stroke: #001a70"/>
    </g>
    <g clip-path="url(#pbd43dc92c1)">
     <use xlink:href="#C0_0_67952b1deb" x="307.509471" y="249.427765" style="fill: #002e5d; stroke: #002e5d"/>
    </g>
    <g clip-path="url(#pbd43dc92c1)">
     <use xlink:href="#C0_0_67952b1deb" x="393.773479" y="286.779749" style="fill: #002e5d; stroke: #002e5d"/>
    </g>
    <g clip-path="url(#pbd43dc92c1)">
     <use xlink:href="#C0_0_67952b1deb" x="533.77606" y="316.895174" style="fill: #002e5d; stroke: #002e5d"/>
    </g>
    <g clip-path="url(#pbd43dc92c1)">
     <use xlink:href="#C0_0_67952b1deb" x="370.491554" y="473.65418" style="fill: #dd0000; stroke: #dd0000"/>
    </g>
   </g>
   <g id="matplotlib.axis_1">
    <g id="xtick_1">
     <g id="line2d_1">
      <defs>
       <path id="m30895741ed" d="M 0 0 
L 0 3.5 
" style="stroke: #000000; stroke-width: 0.8"/>
      </defs>
      <g>
       <use xlink:href="#m30895741ed" x="179.157519" y="512.64" style="stroke: #000000; stroke-width: 0.8"/>
      </g>
     </g>
     <g id="text_1">
      <!-- −0.4 -->
      <g transform="translate(167.016113 527.238438) scale(0.1 -0.1)">
       <defs>
        <path id="DejaVuSans-2212" d="M 678 2272 
L 4684 2272 
L 4684 1741 
L 678 1741 
L 678 2272 
z
" transform="scale(0.015625)"/>
        <path id="DejaVuSans-30" d="M 2034 4250 
Q 1547 4250 1301 3770 
Q 1056 3291 1056 2328 
Q 1056 1369 1301 889 
Q 1547 409 2034 409 
Q 2525 409 2770 889 
Q 3016 1369 3016 2328 
Q 3016 3291 2770 3770 
Q 2525 4250 2034 4250 
z
M 2034 4750 
Q 2819 4750 3233 4129 
Q 3647 3509 3647 2328 
Q 3647 1150 3233 529 
Q 2819 -91 2034 -91 
Q 1250 -91 836 529 
Q 422 1150 422 2328 
Q 422 3509 836 4129 
Q 1250 4750 2034 4750 
z
" transform="scale(0.015625)"/>
        <path id="DejaVuSans-2e" d="M 684 794 
L 1344 794 
L 1344 0 
L 684 0 
L 684 794 
z
" transform="scale(0.015625)"/>
        <path id="DejaVuSans-34" d="M 2419 4116 
L 825 1625 
L 2419 1625 
L 2419 4116 
z
M 2253 4666 
L 3047 4666 
L 3047 1625 
L 3713 1625 
L 3713 1100 
L 3047 1100 
L 3047 0 
L 2419 0 
L 2419 1100 
L 313 1100 
L 313 1709 
L 2253 4666 
z
" transform="scale(0.015625)"/>
       </defs>
       <use xlink:href="#DejaVuSans-2212"/>
       <use xlink:href="#DejaVuSans-30" transform="translate(83.789062 0)"/>
       <use xlink:href="#DejaVuSans-2e" transform="translate(147.412109 0)"/>
       <use xlink:href="#DejaVuSans-34" transform="translate(179.199219 0)"/>
      </g>
     </g>
    </g>
    <g id="xtick_2">
     <g id="line2d_2">
      <g>
       <use xlink:href="#m30895741ed" x="299.953071" y="512.64" style="stroke: #000000; stroke-width: 0.8"/>
      </g>
     </g>
     <g id="text_2">
      <!-- −0.2 -->
      <g transform="translate(287.811665 527.238438) scale(0.1 -0.1)">
       <defs>
        <path id="DejaVuSans-32" d="M 1228 531 
L 3431 531 
L 3431 0 
L 469 0 
L 469 531 
Q 828 903 1448 1529 
Q 2069 2156 2228 2338 
Q 2531 2678 2651 2914 
Q 2772 3150 2772 3378 
Q 2772 3750 2511 3984 
Q 2250 4219 1831 4219 
Q 1534 4219 1204 4116 
Q 875 4013 500 3803 
L 500 4441 
Q 881 4594 1212 4672 
Q 1544 4750 1819 4750 
Q 2544 4750 2975 4387 
Q 3406 4025 3406 3419 
Q 3406 3131 3298 2873 
Q 3191 2616 2906 2266 
Q 2828 2175 2409 1742 
Q 1991 1309 1228 531 
z
" transform="scale(0.015625)"/>
       </defs>
       <use xlink:href="#DejaVuSans-2212"/>
       <use xlink:href="#DejaVuSans-30" transform="translate(83.789062 0)"/>
       <use xlink:href="#DejaVuSans-2e" transform="translate(147.412109 0)"/>
       <use xlink:href="#DejaVuSans-32" transform="translate(179.199219 0)"/>
      </g>
     </g>
    </g>
    <g id="xtick_3">
     <g id="line2d_3">
      <g>
       <use xlink:href="#m30895741ed" x="420.748623" y="512.64" style="stroke: #000000; stroke-width: 0.8"/>
      </g>
     </g>
     <g id="text_3">
      <!-- 0.0 -->
      <g transform="translate(412.797061 527.238438) scale(0.1 -0.1)">
       <use xlink:href="#DejaVuSans-30"/>
       <use xlink:href="#DejaVuSans-2e" transform="translate(63.623047 0)"/>
       <use xlink:href="#DejaVuSans-30" transform="translate(95.410156 0)"/>
      </g>
     </g>
    </g>
    <g id="xtick_4">
     <g id="line2d_4">
      <g>
       <use xlink:href="#m30895741ed" x="541.544175" y="512.64" style="stroke: #000000; stroke-width: 0.8"/>
      </g>
     </g>
     <g id="text_4">
      <!-- 0.2 -->
      <g transform="translate(533.592613 527.238438) scale(0.1 -0.1)">
       <use xlink:href="#DejaVuSans-30"/>
       <use xlink:href="#DejaVuSans-2e" transform="translate(63.623047 0)"/>
       <use xlink:href="#DejaVuSans-32" transform="translate(95.410156 0)"/>
      </g>
     </g>
    </g>
   </g>
   <g id="matplotlib.axis_2">
    <g id="ytick_1">
     <g id="line2d_5">
      <defs>
       <path id="mf57295ecf4" d="M 0 0 
L -3.5 0 
" style="stroke: #000000; stroke-width: 0.8"/>
      </defs>
      <g>
       <use xlink:href="#mf57295ecf4" x="90" y="496.090614" style="stroke: #000000; stroke-width: 0.8"/>
      </g>
     </g>
     <g id="text_5">
      <!-- −0.4 -->
      <g transform="translate(58.717187 499.889833) scale(0.1 -0.1)">
       <use xlink:href="#DejaVuSans-2212"/>
       <use xlink:href="#DejaVuSans-30" transform="translate(83.789062 0)"/>
       <use xlink:href="#DejaVuSans-2e" transform="translate(147.412109 0)"/>
       <use xlink:href="#DejaVuSans-34" transform="translate(179.199219 0)"/>
      </g>
     </g>
    </g>
    <g id="ytick_2">
     <g id="line2d_6">
      <g>
       <use xlink:href="#mf57295ecf4" x="90" y="446.620938" style="stroke: #000000; stroke-width: 0.8"/>
      </g>
     </g>
     <g id="text_6">
      <!-- −0.3 -->
      <g transform="translate(58.717187 450.420157) scale(0.1 -0.1)">
       <defs>
        <path id="DejaVuSans-33" d="M 2597 2516 
Q 3050 2419 3304 2112 
Q 3559 1806 3559 1356 
Q 3559 666 3084 287 
Q 2609 -91 1734 -91 
Q 1441 -91 1130 -33 
Q 819 25 488 141 
L 488 750 
Q 750 597 1062 519 
Q 1375 441 1716 441 
Q 2309 441 2620 675 
Q 2931 909 2931 1356 
Q 2931 1769 2642 2001 
Q 2353 2234 1838 2234 
L 1294 2234 
L 1294 2753 
L 1863 2753 
Q 2328 2753 2575 2939 
Q 2822 3125 2822 3475 
Q 2822 3834 2567 4026 
Q 2313 4219 1838 4219 
Q 1578 4219 1281 4162 
Q 984 4106 628 3988 
L 628 4550 
Q 988 4650 1302 4700 
Q 1616 4750 1894 4750 
Q 2613 4750 3031 4423 
Q 3450 4097 3450 3541 
Q 3450 3153 3228 2886 
Q 3006 2619 2597 2516 
z
" transform="scale(0.015625)"/>
       </defs>
       <use xlink:href="#DejaVuSans-2212"/>
       <use xlink:href="#DejaVuSans-30" transform="translate(83.789062 0)"/>
       <use xlink:href="#DejaVuSans-2e" transform="translate(147.412109 0)"/>
       <use xlink:href="#DejaVuSans-33" transform="translate(179.199219 0)"/>
      </g>
     </g>
    </g>
    <g id="ytick_3">
     <g id="line2d_7">
      <g>
       <use xlink:href="#mf57295ecf4" x="90" y="397.151262" style="stroke: #000000; stroke-width: 0.8"/>
      </g>
     </g>
     <g id="text_7">
      <!-- −0.2 -->
      <g transform="translate(58.717187 400.950481) scale(0.1 -0.1)">
       <use xlink:href="#DejaVuSans-2212"/>
       <use xlink:href="#DejaVuSans-30" transform="translate(83.789062 0)"/>
       <use xlink:href="#DejaVuSans-2e" transform="translate(147.412109 0)"/>
       <use xlink:href="#DejaVuSans-32" transform="translate(179.199219 0)"/>
      </g>
     </g>
    </g>
    <g id="ytick_4">
     <g id="line2d_8">
      <g>
       <use xlink:href="#mf57295ecf4" x="90" y="347.681586" style="stroke: #000000; stroke-width: 0.8"/>
      </g>
     </g>
     <g id="text_8">
      <!-- −0.1 -->
      <g transform="translate(58.717187 351.480804) scale(0.1 -0.1)">
       <defs>
        <path id="DejaVuSans-31" d="M 794 531 
L 1825 531 
L 1825 4091 
L 703 3866 
L 703 4441 
L 1819 4666 
L 2450 4666 
L 2450 531 
L 3481 531 
L 3481 0 
L 794 0 
L 794 531 
z
" transform="scale(0.015625)"/>
       </defs>
       <use xlink:href="#DejaVuSans-2212"/>
       <use xlink:href="#DejaVuSans-30" transform="translate(83.789062 0)"/>
       <use xlink:href="#DejaVuSans-2e" transform="translate(147.412109 0)"/>
       <use xlink:href="#DejaVuSans-31" transform="translate(179.199219 0)"/>
      </g>
     </g>
    </g>
    <g id="ytick_5">
     <g id="line2d_9">
      <g>
       <use xlink:href="#mf57295ecf4" x="90" y="298.21191" style="stroke: #000000; stroke-width: 0.8"/>
      </g>
     </g>
     <g id="text_9">
      <!-- 0.0 -->
      <g transform="translate(67.096875 302.011128) scale(0.1 -0.1)">
       <use xlink:href="#DejaVuSans-30"/>
       <use xlink:href="#DejaVuSans-2e" transform="translate(63.623047 0)"/>
       <use xlink:href="#DejaVuSans-30" transform="translate(95.410156 0)"/>
      </g>
     </g>
    </g>
    <g id="ytick_6">
     <g id="line2d_10">
      <g>
       <use xlink:href="#mf57295ecf4" x="90" y="248.742233" style="stroke: #000000; stroke-width: 0.8"/>
      </g>
     </g>
     <g id="text_10">
      <!-- 0.1 -->
      <g transform="translate(67.096875 252.541452) scale(0.1 -0.1)">
       <use xlink:href="#DejaVuSans-30"/>
       <use xlink:href="#DejaVuSans-2e" transform="translate(63.623047 0)"/>
       <use xlink:href="#DejaVuSans-31" transform="translate(95.410156 0)"/>
      </g>
     </g>
    </g>
    <g id="ytick_7">
     <g id="line2d_11">
      <g>
       <use xlink:href="#mf57295ecf4" x="90" y="199.272557" style="stroke: #000000; stroke-width: 0.8"/>
      </g>
     </g>
     <g id="text_11">
      <!-- 0.2 -->
      <g transform="translate(67.096875 203.071776) scale(0.1 -0.1)">
       <use xlink:href="#DejaVuSans-30"/>
       <use xlink:href="#DejaVuSans-2e" transform="translate(63.623047 0)"/>
       <use xlink:href="#DejaVuSans-32" transform="translate(95.410156 0)"/>
      </g>
     </g>
    </g>
    <g id="ytick_8">
     <g id="line2d_12">
      <g>
       <use xlink:href="#mf57295ecf4" x="90" y="149.802881" style="stroke: #000000; stroke-width: 0.8"/>
      </g>
     </g>
     <g id="text_12">
      <!-- 0.3 -->
      <g transform="translate(67.096875 153.6021) scale(0.1 -0.1)">
       <use xlink:href="#DejaVuSans-30"/>
       <use xlink:href="#DejaVuSans-2e" transform="translate(63.623047 0)"/>
       <use xlink:href="#DejaVuSans-33" transform="translate(95.410156 0)"/>
      </g>
     </g>
    </g>
    <g id="ytick_9">
     <g id="line2d_13">
      <g>
       <use xlink:href="#mf57295ecf4" x="90" y="100.333205" style="stroke: #000000; stroke-width: 0.8"/>
      </g>
     </g>
     <g id="text_13">
      <!-- 0.4 -->
      <g transform="translate(67.096875 104.132424) scale(0.1 -0.1)">
       <use xlink:href="#DejaVuSans-30"/>
       <use xlink:href="#DejaVuSans-2e" transform="translate(63.623047 0)"/>
       <use xlink:href="#DejaVuSans-34" transform="translate(95.410156 0)"/>
      </g>
     </g>
    </g>
   </g>
   <g id="patch_12">
    <path d="M 90 512.64 
L 90 69.12 
" style="fill: none; stroke: #000000; stroke-width: 0.8; stroke-linejoin: miter; stroke-linecap: square"/>
   </g>
   <g id="patch_13">
    <path d="M 648 512.64 
L 648 69.12 
" style="fill: none; stroke: #000000; stroke-width: 0.8; stroke-linejoin: miter; stroke-linecap: square"/>
   </g>
   <g id="patch_14">
    <path d="M 90 512.64 
L 648 512.64 
" style="fill: none; stroke: #000000; stroke-width: 0.8; stroke-linejoin: miter; stroke-linecap: square"/>
   </g>
   <g id="patch_15">
    <path d="M 90 69.12 
L 648 69.12 
" style="fill: none; stroke: #000000; stroke-width: 0.8; stroke-linejoin: miter; stroke-linecap: square"/>
   </g>
   <g id="text_14">
    <!-- -0.00 -->
    <g transform="translate(413.711565 237.524511) scale(0.1 -0.1)">
     <defs>
      <path id="DejaVuSans-2d" d="M 313 2009 
L 1997 2009 
L 1997 1497 
L 313 1497 
L 313 2009 
z
" transform="scale(0.015625)"/>
     </defs>
     <use xlink:href="#DejaVuSans-2d"/>
     <use xlink:href="#DejaVuSans-30" transform="translate(36.083984 0)"/>
     <use xlink:href="#DejaVuSans-2e" transform="translate(99.707031 0)"/>
     <use xlink:href="#DejaVuSans-30" transform="translate(131.494141 0)"/>
     <use xlink:href="#DejaVuSans-30" transform="translate(195.117188 0)"/>
    </g>
   </g>
   <g id="text_15">
    <!-- -0.00 -->
    <g transform="translate(243.529398 386.144791) scale(0.1 -0.1)">
     <use xlink:href="#DejaVuSans-2d"/>
     <use xlink:href="#DejaVuSans-30" transform="translate(36.083984 0)"/>
     <use xlink:href="#DejaVuSans-2e" transform="translate(99.707031 0)"/>
     <use xlink:href="#DejaVuSans-30" transform="translate(131.494141 0)"/>
     <use xlink:href="#DejaVuSans-30" transform="translate(195.117188 0)"/>
    </g>
   </g>
   <g id="text_16">
    <!-- -0.00 -->
    <g transform="translate(254.924061 93.786682) scale(0.1 -0.1)">
     <use xlink:href="#DejaVuSans-2d"/>
     <use xlink:href="#DejaVuSans-30" transform="translate(36.083984 0)"/>
     <use xlink:href="#DejaVuSans-2e" transform="translate(99.707031 0)"/>
     <use xlink:href="#DejaVuSans-30" transform="translate(131.494141 0)"/>
     <use xlink:href="#DejaVuSans-30" transform="translate(195.117188 0)"/>
    </g>
   </g>
   <g id="text_17">
    <!-- 0.41 -->
    <g transform="translate(303.046449 249.094263) scale(0.1 -0.1)">
     <use xlink:href="#DejaVuSans-30"/>
     <use xlink:href="#DejaVuSans-2e" transform="translate(63.623047 0)"/>
     <use xlink:href="#DejaVuSans-34" transform="translate(95.410156 0)"/>
     <use xlink:href="#DejaVuSans-31" transform="translate(159.033203 0)"/>
    </g>
   </g>
   <g id="text_18">
    <!-- -0.00 -->
    <g transform="translate(115.183696 321.969822) scale(0.1 -0.1)">
     <use xlink:href="#DejaVuSans-2d"/>
     <use xlink:href="#DejaVuSans-30" transform="translate(36.083984 0)"/>
     <use xlink:href="#DejaVuSans-2e" transform="translate(99.707031 0)"/>
     <use xlink:href="#DejaVuSans-30" transform="translate(131.494141 0)"/>
     <use xlink:href="#DejaVuSans-30" transform="translate(195.117188 0)"/>
    </g>
   </g>
   <g id="text_19">
    <!-- -0.00 -->
    <g transform="translate(512.621886 249.128201) scale(0.1 -0.1)">
     <use xlink:href="#DejaVuSans-2d"/>
     <use xlink:href="#DejaVuSans-30" transform="translate(36.083984 0)"/>
     <use xlink:href="#DejaVuSans-2e" transform="translate(99.707031 0)"/>
     <use xlink:href="#DejaVuSans-30" transform="translate(131.494141 0)"/>
     <use xlink:href="#DejaVuSans-30" transform="translate(195.117188 0)"/>
    </g>
   </g>
   <g id="text_20">
    <!-- -0.00 -->
    <g transform="translate(472.417623 297.079126) scale(0.1 -0.1)">
     <use xlink:href="#DejaVuSans-2d"/>
     <use xlink:href="#DejaVuSans-30" transform="translate(36.083984 0)"/>
     <use xlink:href="#DejaVuSans-2e" transform="translate(99.707031 0)"/>
     <use xlink:href="#DejaVuSans-30" transform="translate(131.494141 0)"/>
     <use xlink:href="#DejaVuSans-30" transform="translate(195.117188 0)"/>
    </g>
   </g>
   <g id="text_21">
    <!-- 0.95 -->
    <g transform="translate(311.830739 434.530991) scale(0.1 -0.1)">
     <defs>
      <path id="DejaVuSans-39" d="M 703 97 
L 703 672 
Q 941 559 1184 500 
Q 1428 441 1663 441 
Q 2288 441 2617 861 
Q 2947 1281 2994 2138 
Q 2813 1869 2534 1725 
Q 2256 1581 1919 1581 
Q 1219 1581 811 2004 
Q 403 2428 403 3163 
Q 403 3881 828 4315 
Q 1253 4750 1959 4750 
Q 2769 4750 3195 4129 
Q 3622 3509 3622 2328 
Q 3622 1225 3098 567 
Q 2575 -91 1691 -91 
Q 1453 -91 1209 -44 
Q 966 3 703 97 
z
M 1959 2075 
Q 2384 2075 2632 2365 
Q 2881 2656 2881 3163 
Q 2881 3666 2632 3958 
Q 2384 4250 1959 4250 
Q 1534 4250 1286 3958 
Q 1038 3666 1038 3163 
Q 1038 2656 1286 2365 
Q 1534 2075 1959 2075 
z
" transform="scale(0.015625)"/>
      <path id="DejaVuSans-35" d="M 691 4666 
L 3169 4666 
L 3169 4134 
L 1269 4134 
L 1269 2991 
Q 1406 3038 1543 3061 
Q 1681 3084 1819 3084 
Q 2600 3084 3056 2656 
Q 3513 2228 3513 1497 
Q 3513 744 3044 326 
Q 2575 -91 1722 -91 
Q 1428 -91 1123 -41 
Q 819 9 494 109 
L 494 744 
Q 775 591 1075 516 
Q 1375 441 1709 441 
Q 2250 441 2565 725 
Q 2881 1009 2881 1497 
Q 2881 1984 2565 2268 
Q 2250 2553 1709 2553 
Q 1456 2553 1204 2497 
Q 953 2441 691 2322 
L 691 4666 
z
" transform="scale(0.015625)"/>
     </defs>
     <use xlink:href="#DejaVuSans-30"/>
     <use xlink:href="#DejaVuSans-2e" transform="translate(63.623047 0)"/>
     <use xlink:href="#DejaVuSans-39" transform="translate(95.410156 0)"/>
     <use xlink:href="#DejaVuSans-35" transform="translate(159.033203 0)"/>
    </g>
   </g>
   <g id="text_22">
    <!-- 0.61 -->
    <g transform="translate(222.757173 242.753005) scale(0.1 -0.1)">
     <defs>
      <path id="DejaVuSans-36" d="M 2113 2584 
Q 1688 2584 1439 2293 
Q 1191 2003 1191 1497 
Q 1191 994 1439 701 
Q 1688 409 2113 409 
Q 2538 409 2786 701 
Q 3034 994 3034 1497 
Q 3034 2003 2786 2293 
Q 2538 2584 2113 2584 
z
M 3366 4563 
L 3366 3988 
Q 3128 4100 2886 4159 
Q 2644 4219 2406 4219 
Q 1781 4219 1451 3797 
Q 1122 3375 1075 2522 
Q 1259 2794 1537 2939 
Q 1816 3084 2150 3084 
Q 2853 3084 3261 2657 
Q 3669 2231 3669 1497 
Q 3669 778 3244 343 
Q 2819 -91 2113 -91 
Q 1303 -91 875 529 
Q 447 1150 447 2328 
Q 447 3434 972 4092 
Q 1497 4750 2381 4750 
Q 2619 4750 2861 4703 
Q 3103 4656 3366 4563 
z
" transform="scale(0.015625)"/>
     </defs>
     <use xlink:href="#DejaVuSans-30"/>
     <use xlink:href="#DejaVuSans-2e" transform="translate(63.623047 0)"/>
     <use xlink:href="#DejaVuSans-36" transform="translate(95.410156 0)"/>
     <use xlink:href="#DejaVuSans-31" transform="translate(159.033203 0)"/>
    </g>
   </g>
   <g id="text_23">
    <!-- CRE-10-2025-09-10-ITM-008_EN -->
    <g transform="translate(272.342813 63.12) scale(0.12 -0.12)">
     <defs>
      <path id="DejaVuSans-43" d="M 4122 4306 
L 4122 3641 
Q 3803 3938 3442 4084 
Q 3081 4231 2675 4231 
Q 1875 4231 1450 3742 
Q 1025 3253 1025 2328 
Q 1025 1406 1450 917 
Q 1875 428 2675 428 
Q 3081 428 3442 575 
Q 3803 722 4122 1019 
L 4122 359 
Q 3791 134 3420 21 
Q 3050 -91 2638 -91 
Q 1578 -91 968 557 
Q 359 1206 359 2328 
Q 359 3453 968 4101 
Q 1578 4750 2638 4750 
Q 3056 4750 3426 4639 
Q 3797 4528 4122 4306 
z
" transform="scale(0.015625)"/>
      <path id="DejaVuSans-52" d="M 2841 2188 
Q 3044 2119 3236 1894 
Q 3428 1669 3622 1275 
L 4263 0 
L 3584 0 
L 2988 1197 
Q 2756 1666 2539 1819 
Q 2322 1972 1947 1972 
L 1259 1972 
L 1259 0 
L 628 0 
L 628 4666 
L 2053 4666 
Q 2853 4666 3247 4331 
Q 3641 3997 3641 3322 
Q 3641 2881 3436 2590 
Q 3231 2300 2841 2188 
z
M 1259 4147 
L 1259 2491 
L 2053 2491 
Q 2509 2491 2742 2702 
Q 2975 2913 2975 3322 
Q 2975 3731 2742 3939 
Q 2509 4147 2053 4147 
L 1259 4147 
z
" transform="scale(0.015625)"/>
      <path id="DejaVuSans-45" d="M 628 4666 
L 3578 4666 
L 3578 4134 
L 1259 4134 
L 1259 2753 
L 3481 2753 
L 3481 2222 
L 1259 2222 
L 1259 531 
L 3634 531 
L 3634 0 
L 628 0 
L 628 4666 
z
" transform="scale(0.015625)"/>
      <path id="DejaVuSans-49" d="M 628 4666 
L 1259 4666 
L 1259 0 
L 628 0 
L 628 4666 
z
" transform="scale(0.015625)"/>
      <path id="DejaVuSans-54" d="M -19 4666 
L 3928 4666 
L 3928 4134 
L 2272 4134 
L 2272 0 
L 1638 0 
L 1638 4134 
L -19 4134 
L -19 4666 
z
" transform="scale(0.015625)"/>
      <path id="DejaVuSans-4d" d="M 628 4666 
L 1569 4666 
L 2759 1491 
L 3956 4666 
L 4897 4666 
L 4897 0 
L 4281 0 
L 4281 4097 
L 3078 897 
L 2444 897 
L 1241 4097 
L 1241 0 
L 628 0 
L 628 4666 
z
" transform="scale(0.015625)"/>
      <path id="DejaVuSans-38" d="M 2034 2216 
Q 1584 2216 1326 1975 
Q 1069 1734 1069 1313 
Q 1069 891 1326 650 
Q 1584 409 2034 409 
Q 2484 409 2743 651 
Q 3003 894 3003 1313 
Q 3003 1734 2745 1975 
Q 2488 2216 2034 2216 
z
M 1403 2484 
Q 997 2584 770 2862 
Q 544 3141 544 3541 
Q 544 4100 942 4425 
Q 1341 4750 2034 4750 
Q 2731 4750 3128 4425 
Q 3525 4100 3525 3541 
Q 3525 3141 3298 2862 
Q 3072 2584 2669 2484 
Q 3125 2378 3379 2068 
Q 3634 1759 3634 1313 
Q 3634 634 3220 271 
Q 2806 -91 2034 -91 
Q 1263 -91 848 271 
Q 434 634 434 1313 
Q 434 1759 690 2068 
Q 947 2378 1403 2484 
z
M 1172 3481 
Q 1172 3119 1398 2916 
Q 1625 2713 2034 2713 
Q 2441 2713 2670 2916 
Q 2900 3119 2900 3481 
Q 2900 3844 2670 4047 
Q 2441 4250 2034 4250 
Q 1625 4250 1398 4047 
Q 1172 3844 1172 3481 
z
" transform="scale(0.015625)"/>
      <path id="DejaVuSans-5f" d="M 3263 -1063 
L 3263 -1509 
L -63 -1509 
L -63 -1063 
L 3263 -1063 
z
" transform="scale(0.015625)"/>
      <path id="DejaVuSans-4e" d="M 628 4666 
L 1478 4666 
L 3547 763 
L 3547 4666 
L 4159 4666 
L 4159 0 
L 3309 0 
L 1241 3903 
L 1241 0 
L 628 0 
L 628 4666 
z
" transform="scale(0.015625)"/>
     </defs>
     <use xlink:href="#DejaVuSans-43"/>
     <use xlink:href="#DejaVuSans-52" transform="translate(69.824219 0)"/>
     <use xlink:href="#DejaVuSans-45" transform="translate(139.306641 0)"/>
     <use xlink:href="#DejaVuSans-2d" transform="translate(202.490234 0)"/>
     <use xlink:href="#DejaVuSans-31" transform="translate(238.574219 0)"/>
     <use xlink:href="#DejaVuSans-30" transform="translate(302.197266 0)"/>
     <use xlink:href="#DejaVuSans-2d" transform="translate(365.820312 0)"/>
     <use xlink:href="#DejaVuSans-32" transform="translate(401.904297 0)"/>
     <use xlink:href="#DejaVuSans-30" transform="translate(465.527344 0)"/>
     <use xlink:href="#DejaVuSans-32" transform="translate(529.150391 0)"/>
     <use xlink:href="#DejaVuSans-35" transform="translate(592.773438 0)"/>
     <use xlink:href="#DejaVuSans-2d" transform="translate(656.396484 0)"/>
     <use xlink:href="#DejaVuSans-30" transform="translate(692.480469 0)"/>
     <use xlink:href="#DejaVuSans-39" transform="translate(756.103516 0)"/>
     <use xlink:href="#DejaVuSans-2d" transform="translate(819.726562 0)"/>
     <use xlink:href="#DejaVuSans-31" transform="translate(855.810547 0)"/>
     <use xlink:href="#DejaVuSans-30" transform="translate(919.433594 0)"/>
     <use xlink:href="#DejaVuSans-2d" transform="translate(983.056641 0)"/>
     <use xlink:href="#DejaVuSans-49" transform="translate(1019.140625 0)"/>
     <use xlink:href="#DejaVuSans-54" transform="translate(1048.632812 0)"/>
     <use xlink:href="#DejaVuSans-4d" transform="translate(1109.716797 0)"/>
     <use xlink:href="#DejaVuSans-2d" transform="translate(1195.996094 0)"/>
     <use xlink:href="#DejaVuSans-30" transform="translate(1232.080078 0)"/>
     <use xlink:href="#DejaVuSans-30" transform="translate(1295.703125 0)"/>
     <use xlink:href="#DejaVuSans-38" transform="translate(1359.326172 0)"/>
     <use xlink:href="#DejaVuSans-5f" transform="translate(1422.949219 0)"/>
     <use xlink:href="#DejaVuSans-45" transform="translate(1472.949219 0)"/>
     <use xlink:href="#DejaVuSans-4e" transform="translate(1536.132812 0)"/>
    </g>
   </g>
  </g>
 </g>
 <defs>
  <clipPath id="pbd43dc92c1">
   <rect x="90" y="69.12" width="558" height="443.52"/>
  </clipPath>
 </defs>
</svg>
