<?xml version="1.0" encoding="utf-8" standalone="no"?>
<!DOCTYPE svg PUBLIC "-//W3C//DTD SVG 1.1//EN"
  "http://www.w3.org/Graphics/SVG/1.1/DTD/svg11.dtd">
<svg xmlns:xlink="http://www.w3.org/1999/xlink" width="720pt" height="576pt" viewBox="0 0 720 576" xmlns="http://www.w3.org/2000/svg" version="1.1">
 <metadata>
  <rdf:RDF xmlns:dc="http://purl.org/dc/elements/1.1/" xmlns:cc="http://creativecommons.org/ns#" xmlns:rdf="http://www.w3.org/1999/02/22-rdf-syntax-ns#">
   <cc:Work>
    <dc:type rdf:resource="http://purl.org/dc/dcmitype/StillImage"/>
    <dc:date>2025-11-03T11:42:44.721236</dc:date>
    <dc:format>image/svg+xml</dc:format>
    <dc:creator>
     <cc:Agent>
      <dc:title>Matplotlib v3.10.0, https://matplotlib.org/</dc:title>
     </cc:Agent>
    </dc:creator>
   </cc:Work>
  </rdf:RDF>
 </metadata>
 <defs>
  <style type="text/css">*{stroke-linejoin: round; stroke-linecap: butt}</style>
 </defs>
 <g id="figure_1">
  <g id="patch_1">
   <path d="M 0 576 
L 720 576 
L 720 0 
L 0 0 
z
" style="fill: #ffffff"/>
  </g>
  <g id="axes_1">
   <g id="patch_2">
    <path d="M 90 512.64 
L 648 512.64 
L 648 69.12 
L 90 69.12 
z
" style="fill: #ffffff"/>
   </g>
   <g id="patch_3">
    <path d="M 471.630041 125.860808 
C 465.220332 113.061959 455.685392 102.016247 445.12518 95.156361 
C 434.564969 88.296475 423.84168 86.182495 415.316995 89.28 
C 406.792309 92.377505 401.16223 100.433599 399.666716 111.674019 
C 398.171202 122.914439 400.932355 136.421455 407.342064 149.220304 
C 413.751773 162.019153 423.286713 173.064866 433.846925 179.924752 
C 444.407137 186.784638 455.130425 188.898618 463.65511 185.801112 
C 472.179796 182.703607 477.809875 174.647514 479.305389 163.407094 
C 480.800904 152.166674 478.03975 138.659657 471.630041 125.860808 
L 471.630041 125.860808 
z
" clip-path="url(#pddbd5e153b)" style="fill: none; stroke: #000000; stroke-linejoin: miter"/>
   </g>
   <g id="patch_4">
    <path d="M 294.402832 268.428457 
C 276.331237 254.564982 254.523882 245.498399 233.783582 243.225518 
C 213.043282 240.952637 195.063391 245.659028 183.803772 256.308164 
C 172.544153 266.9573 168.924104 282.679726 173.740898 300.012759 
C 178.557692 317.345793 191.41806 334.874269 209.489654 348.737744 
C 227.561249 362.601219 249.368605 371.667802 270.108905 373.940683 
C 290.849204 376.213564 308.829095 371.507172 320.088714 360.858036 
C 331.348333 350.2089 334.968382 334.486475 330.151588 317.153441 
C 325.334794 299.820408 312.474426 282.291932 294.402832 268.428457 
L 294.402832 268.428457 
z
" clip-path="url(#pddbd5e153b)" style="fill: none; stroke: #000000; stroke-linejoin: miter"/>
   </g>
   <g id="patch_5">
    <path d="M 497.891803 343.19501 
C 476.880785 352.746417 459.576406 366.454907 449.789753 381.301343 
C 440.0031 396.147779 438.533211 410.920016 445.703811 422.36464 
C 452.874411 433.809264 468.100053 440.991872 488.027466 442.330578 
C 507.954879 443.669285 530.957078 439.054789 551.968095 429.503382 
C 572.979113 419.951974 590.283492 406.243485 600.070145 391.397049 
C 609.856798 376.550612 611.326687 361.778375 604.156087 350.333751 
C 596.985486 338.889128 581.759844 331.706519 561.832432 330.367813 
C 541.905019 329.029107 518.90282 333.643602 497.891803 343.19501 
L 497.891803 343.19501 
z
" clip-path="url(#pddbd5e153b)" style="fill: none; stroke: #000000; stroke-linejoin: miter"/>
   </g>
   <g id="patch_6">
    <path d="M 389.846087 204.90837 
C 372.620719 195.821611 353.26438 191.003869 336.040081 191.516196 
C 318.815782 192.028524 305.129809 197.829092 297.99634 207.640393 
C 290.862871 217.451693 290.864321 230.472677 298.000372 243.835623 
C 305.136422 257.19857 318.824446 269.812454 336.049814 278.899213 
C 353.275183 287.985973 372.631521 292.803715 389.85582 292.291387 
C 407.08012 291.77906 420.766092 285.978492 427.899561 276.167191 
C 435.033031 266.355891 435.03158 253.334907 427.89553 239.971961 
C 420.759479 226.609014 407.071456 213.99513 389.846087 204.90837 
L 389.846087 204.90837 
z
" clip-path="url(#pddbd5e153b)" style="fill: none; stroke: #000000; stroke-linejoin: miter"/>
   </g>
   <g id="patch_7">
    <path d="M 249.174554 390.432138 
C 227.973205 389.017367 207.522993 388.90379 192.327839 390.116422 
C 177.132685 391.329054 168.433206 393.768889 168.145361 396.898581 
C 167.857516 400.028273 176.004808 403.592296 190.792888 406.805717 
C 205.580969 410.019138 225.802458 412.619594 247.003806 414.034365 
C 268.205155 415.449136 288.655367 415.562713 303.850521 414.350081 
C 319.045676 413.137449 327.745155 410.697614 328.032999 407.567922 
C 328.320844 404.438231 320.173553 400.874207 305.385472 397.660786 
C 290.597392 394.447366 270.375903 391.84691 249.174554 390.432138 
L 249.174554 390.432138 
z
" clip-path="url(#pddbd5e153b)" style="fill: none; stroke: #000000; stroke-linejoin: miter"/>
   </g>
   <g id="patch_8">
    <path d="M 480.667753 226.182639 
C 467.129742 236.2842 458.098937 249.81868 455.564268 263.805267 
C 453.0296 277.791854 457.198012 291.088605 467.15146 300.767065 
C 477.104909 310.445525 492.030739 315.715491 508.641709 315.416313 
C 525.252679 315.117136 542.192578 309.273242 555.730589 299.171681 
C 569.2686 289.07012 578.299405 275.53564 580.834073 261.549053 
C 583.368742 247.562466 579.20033 234.265715 569.246881 224.587255 
C 559.293433 214.908795 544.367603 209.638829 527.756633 209.938007 
C 511.145662 210.237184 494.205764 216.081078 480.667753 226.182639 
L 480.667753 226.182639 
z
" clip-path="url(#pddbd5e153b)" style="fill: none; stroke: #000000; stroke-linejoin: miter"/>
   </g>
   <g id="patch_9">
    <path d="M 396.954194 140.127034 
C 384.187287 137.391434 370.960353 138.089973 360.186471 142.068807 
C 349.412588 146.047642 341.971397 152.981916 339.501733 161.344438 
C 337.032069 169.706959 339.735569 178.814965 347.016819 186.662522 
C 354.298069 194.510079 365.562587 200.456469 378.329494 203.19207 
C 391.096401 205.92767 404.323335 205.22913 415.097217 201.250296 
C 425.8711 197.271462 433.312291 190.337188 435.781955 181.974666 
C 438.251619 173.612145 435.548119 164.504139 428.266869 156.656582 
C 420.985619 148.809025 409.721101 142.862634 396.954194 140.127034 
L 396.954194 140.127034 
z
" clip-path="url(#pddbd5e153b)" style="fill: none; stroke: #000000; stroke-linejoin: miter"/>
   </g>
   <g id="patch_10">
    <path d="M 220.259556 379.986746 
C 223.19459 364.326552 220.492089 348.555339 212.747248 336.146534 
C 205.002407 323.737728 192.847558 315.704454 178.959665 313.815947 
C 165.071772 311.92744 150.584721 316.337887 138.689115 326.07594 
C 126.793509 335.813994 118.460573 350.084583 115.52554 365.744777 
C 112.590506 381.404971 115.293006 397.176184 123.037847 409.584989 
C 130.782688 421.993795 142.937537 430.027069 156.82543 431.915576 
C 170.713323 433.804083 185.200375 429.393636 197.095981 419.655582 
C 208.991586 409.917529 217.324522 395.64694 220.259556 379.986746 
L 220.259556 379.986746 
z
" clip-path="url(#pddbd5e153b)" style="fill: none; stroke: #000000; stroke-linejoin: miter"/>
   </g>
   <g id="patch_11">
    <path d="M 594.974055 464.425511 
C 608.478413 451.526418 618.429737 436.873795 622.636364 423.694711 
C 626.84299 410.515627 624.961468 399.886097 617.406178 394.147151 
C 609.850889 388.408204 597.23869 388.028401 582.347271 393.091389 
C 567.455852 398.154377 551.501031 408.246785 537.996673 421.145878 
C 524.492315 434.044971 514.540991 448.697594 510.334364 461.876678 
C 506.127738 475.055762 508.009261 485.685292 515.56455 491.424239 
C 523.119839 497.163185 535.732038 497.542988 550.623457 492.48 
C 565.514876 487.417012 581.469697 477.324604 594.974055 464.425511 
L 594.974055 464.425511 
z
" clip-path="url(#pddbd5e153b)" style="fill: none; stroke: #000000; stroke-linejoin: miter"/>
   </g>
   <g id="PathCollection_1">
    <defs>
     <path id="C0_0_b7b0bf55a1" d="M 0 3.162278 
C 0.838646 3.162278 1.643056 2.82908 2.236068 2.236068 
C 2.82908 1.643056 3.162278 0.838646 3.162278 -0 
C 3.162278 -0.838646 2.82908 -1.643056 2.236068 -2.236068 
C 1.643056 -2.82908 0.838646 -3.162278 0 -3.162278 
C -0.838646 -3.162278 -1.643056 -2.82908 -2.236068 -2.236068 
C -2.82908 -1.643056 -3.162278 -0.838646 -3.162278 0 
C -3.162278 0.838646 -2.82908 1.643056 -2.236068 2.236068 
C -1.643056 2.82908 -0.838646 3.162278 0 3.162278 
z
"/>
    </defs>
    <g clip-path="url(#pddbd5e153b)">
     <use xlink:href="#C0_0_b7b0bf55a1" x="218.823717" y="392.056433" style="fill: #0047ab; stroke: #0047ab"/>
    </g>
    <g clip-path="url(#pddbd5e153b)">
     <use xlink:href="#C0_0_b7b0bf55a1" x="156.96616" y="336.946587" style="fill: #dd0000; stroke: #dd0000"/>
    </g>
    <g clip-path="url(#pddbd5e153b)">
     <use xlink:href="#C0_0_b7b0bf55a1" x="162.974735" y="386.747334" style="fill: #002e5d; stroke: #002e5d"/>
    </g>
    <g clip-path="url(#pddbd5e153b)">
     <use xlink:href="#C0_0_b7b0bf55a1" x="175.284452" y="389.79359" style="fill: #001a70; stroke: #001a70"/>
    </g>
    <g clip-path="url(#pddbd5e153b)">
     <use xlink:href="#C0_0_b7b0bf55a1" x="142.267785" y="334.022232" style="fill: #ff9000; stroke: #ff9000"/>
    </g>
    <g clip-path="url(#pddbd5e153b)">
     <use xlink:href="#C0_0_b7b0bf55a1" x="163.932709" y="345.317253" style="fill: #00a651; stroke: #00a651"/>
    </g>
    <g clip-path="url(#pddbd5e153b)">
     <use xlink:href="#C0_0_b7b0bf55a1" x="241.758328" y="318.833562" style="fill: #8b1c62; stroke: #8b1c62"/>
    </g>
    <g clip-path="url(#pddbd5e153b)">
     <use xlink:href="#C0_0_b7b0bf55a1" x="261.636876" y="274.000714" style="fill: #4c4c4c; stroke: #4c4c4c"/>
    </g>
    <g clip-path="url(#pddbd5e153b)">
     <use xlink:href="#C0_0_b7b0bf55a1" x="163.650848" y="388.74435" style="fill: #0047ab; stroke: #0047ab"/>
    </g>
    <g clip-path="url(#pddbd5e153b)">
     <use xlink:href="#C0_0_b7b0bf55a1" x="185.63" y="262.339277" style="fill: #dd0000; stroke: #dd0000"/>
    </g>
    <g clip-path="url(#pddbd5e153b)">
     <use xlink:href="#C0_0_b7b0bf55a1" x="216.959327" y="321.030769" style="fill: #002e5d; stroke: #002e5d"/>
    </g>
    <g clip-path="url(#pddbd5e153b)">
     <use xlink:href="#C0_0_b7b0bf55a1" x="209.47049" y="303.368986" style="fill: #ff9000; stroke: #ff9000"/>
    </g>
    <g clip-path="url(#pddbd5e153b)">
     <use xlink:href="#C0_0_b7b0bf55a1" x="212.330991" y="406.001953" style="fill: #00a651; stroke: #00a651"/>
    </g>
    <g clip-path="url(#pddbd5e153b)">
     <use xlink:href="#C0_0_b7b0bf55a1" x="115.363636" y="371.765933" style="fill: #8b1c62; stroke: #8b1c62"/>
    </g>
    <g clip-path="url(#pddbd5e153b)">
     <use xlink:href="#C0_0_b7b0bf55a1" x="201.752462" y="378.198778" style="fill: #4c4c4c; stroke: #4c4c4c"/>
    </g>
    <g clip-path="url(#pddbd5e153b)">
     <use xlink:href="#C0_0_b7b0bf55a1" x="180.855003" y="368.61917" style="fill: #ff9000; stroke: #ff9000"/>
    </g>
    <g clip-path="url(#pddbd5e153b)">
     <use xlink:href="#C0_0_b7b0bf55a1" x="188.462469" y="369.633591" style="fill: #4c4c4c; stroke: #4c4c4c"/>
    </g>
    <g clip-path="url(#pddbd5e153b)">
     <use xlink:href="#C0_0_b7b0bf55a1" x="207.921459" y="350.400653" style="fill: #dd0000; stroke: #dd0000"/>
    </g>
    <g clip-path="url(#pddbd5e153b)">
     <use xlink:href="#C0_0_b7b0bf55a1" x="318.432164" y="319.223225" style="fill: #4c4c4c; stroke: #4c4c4c"/>
    </g>
    <g clip-path="url(#pddbd5e153b)">
     <use xlink:href="#C0_0_b7b0bf55a1" x="202.659538" y="372.529054" style="fill: #0047ab; stroke: #0047ab"/>
    </g>
    <g clip-path="url(#pddbd5e153b)">
     <use xlink:href="#C0_0_b7b0bf55a1" x="282.267263" y="322.110911" style="fill: #dd0000; stroke: #dd0000"/>
    </g>
    <g clip-path="url(#pddbd5e153b)">
     <use xlink:href="#C0_0_b7b0bf55a1" x="120.309538" y="420.393333" style="fill: #002e5d; stroke: #002e5d"/>
    </g>
    <g clip-path="url(#pddbd5e153b)">
     <use xlink:href="#C0_0_b7b0bf55a1" x="230.619762" y="322.20213" style="fill: #ff9000; stroke: #ff9000"/>
    </g>
    <g clip-path="url(#pddbd5e153b)">
     <use xlink:href="#C0_0_b7b0bf55a1" x="226.192265" y="402.668152" style="fill: #8b1c62; stroke: #8b1c62"/>
    </g>
    <g clip-path="url(#pddbd5e153b)">
     <use xlink:href="#C0_0_b7b0bf55a1" x="185.069595" y="413.081582" style="fill: #4c4c4c; stroke: #4c4c4c"/>
    </g>
    <g clip-path="url(#pddbd5e153b)">
     <use xlink:href="#C0_0_b7b0bf55a1" x="168.30303" y="314.656812" style="fill: #ff9000; stroke: #ff9000"/>
    </g>
    <g clip-path="url(#pddbd5e153b)">
     <use xlink:href="#C0_0_b7b0bf55a1" x="313.560329" y="205.600706" style="fill: #4c4c4c; stroke: #4c4c4c"/>
    </g>
    <g clip-path="url(#pddbd5e153b)">
     <use xlink:href="#C0_0_b7b0bf55a1" x="207.936559" y="318.326343" style="fill: #0047ab; stroke: #0047ab"/>
    </g>
    <g clip-path="url(#pddbd5e153b)">
     <use xlink:href="#C0_0_b7b0bf55a1" x="186.468666" y="370.060094" style="fill: #dd0000; stroke: #dd0000"/>
    </g>
    <g clip-path="url(#pddbd5e153b)">
     <use xlink:href="#C0_0_b7b0bf55a1" x="294.580289" y="346.963705" style="fill: #ff9000; stroke: #ff9000"/>
    </g>
    <g clip-path="url(#pddbd5e153b)">
     <use xlink:href="#C0_0_b7b0bf55a1" x="138.751398" y="351.90619" style="fill: #0047ab; stroke: #0047ab"/>
    </g>
    <g clip-path="url(#pddbd5e153b)">
     <use xlink:href="#C0_0_b7b0bf55a1" x="277.224938" y="343.182838" style="fill: #dd0000; stroke: #dd0000"/>
    </g>
    <g clip-path="url(#pddbd5e153b)">
     <use xlink:href="#C0_0_b7b0bf55a1" x="291.483942" y="401.224515" style="fill: #0047ab; stroke: #0047ab"/>
    </g>
    <g clip-path="url(#pddbd5e153b)">
     <use xlink:href="#C0_0_b7b0bf55a1" x="290.490603" y="327.604661" style="fill: #0047ab; stroke: #0047ab"/>
    </g>
    <g clip-path="url(#pddbd5e153b)">
     <use xlink:href="#C0_0_b7b0bf55a1" x="143.056552" y="426.223769" style="fill: #0047ab; stroke: #0047ab"/>
    </g>
    <g clip-path="url(#pddbd5e153b)">
     <use xlink:href="#C0_0_b7b0bf55a1" x="185.90828" y="395.409109" style="fill: #8b1c62; stroke: #8b1c62"/>
    </g>
    <g clip-path="url(#pddbd5e153b)">
     <use xlink:href="#C0_0_b7b0bf55a1" x="258.294448" y="232.393194" style="fill: #0047ab; stroke: #0047ab"/>
    </g>
    <g clip-path="url(#pddbd5e153b)">
     <use xlink:href="#C0_0_b7b0bf55a1" x="452.519048" y="115.72586" style="fill: #0047ab; stroke: #0047ab"/>
    </g>
    <g clip-path="url(#pddbd5e153b)">
     <use xlink:href="#C0_0_b7b0bf55a1" x="434.407791" y="123.634424" style="fill: #dd0000; stroke: #dd0000"/>
    </g>
    <g clip-path="url(#pddbd5e153b)">
     <use xlink:href="#C0_0_b7b0bf55a1" x="390.149812" y="206.754824" style="fill: #002e5d; stroke: #002e5d"/>
    </g>
    <g clip-path="url(#pddbd5e153b)">
     <use xlink:href="#C0_0_b7b0bf55a1" x="402.051261" y="137.532849" style="fill: #001a70; stroke: #001a70"/>
    </g>
    <g clip-path="url(#pddbd5e153b)">
     <use xlink:href="#C0_0_b7b0bf55a1" x="421.347833" y="140.854566" style="fill: #ff9000; stroke: #ff9000"/>
    </g>
    <g clip-path="url(#pddbd5e153b)">
     <use xlink:href="#C0_0_b7b0bf55a1" x="439.212604" y="125.222335" style="fill: #00a651; stroke: #00a651"/>
    </g>
    <g clip-path="url(#pddbd5e153b)">
     <use xlink:href="#C0_0_b7b0bf55a1" x="417.331317" y="170.736778" style="fill: #8b1c62; stroke: #8b1c62"/>
    </g>
    <g clip-path="url(#pddbd5e153b)">
     <use xlink:href="#C0_0_b7b0bf55a1" x="460.453793" y="156.02268" style="fill: #4c4c4c; stroke: #4c4c4c"/>
    </g>
    <g clip-path="url(#pddbd5e153b)">
     <use xlink:href="#C0_0_b7b0bf55a1" x="457.890574" y="124.001797" style="fill: #0047ab; stroke: #0047ab"/>
    </g>
    <g clip-path="url(#pddbd5e153b)">
     <use xlink:href="#C0_0_b7b0bf55a1" x="364.045029" y="170.152698" style="fill: #002e5d; stroke: #002e5d"/>
    </g>
    <g clip-path="url(#pddbd5e153b)">
     <use xlink:href="#C0_0_b7b0bf55a1" x="396.948905" y="157.15521" style="fill: #001a70; stroke: #001a70"/>
    </g>
    <g clip-path="url(#pddbd5e153b)">
     <use xlink:href="#C0_0_b7b0bf55a1" x="434.506497" y="160.290166" style="fill: #a0a0a0; stroke: #a0a0a0"/>
    </g>
    <g clip-path="url(#pddbd5e153b)">
     <use xlink:href="#C0_0_b7b0bf55a1" x="435.03749" y="170.691352" style="fill: #0047ab; stroke: #0047ab"/>
    </g>
    <g clip-path="url(#pddbd5e153b)">
     <use xlink:href="#C0_0_b7b0bf55a1" x="416.966493" y="174.358443" style="fill: #001a70; stroke: #001a70"/>
    </g>
    <g clip-path="url(#pddbd5e153b)">
     <use xlink:href="#C0_0_b7b0bf55a1" x="383.1107" y="179.748664" style="fill: #a0a0a0; stroke: #a0a0a0"/>
    </g>
    <g clip-path="url(#pddbd5e153b)">
     <use xlink:href="#C0_0_b7b0bf55a1" x="427.415873" y="97.609566" style="fill: #001a70; stroke: #001a70"/>
    </g>
    <g clip-path="url(#pddbd5e153b)">
     <use xlink:href="#C0_0_b7b0bf55a1" x="432.703992" y="117.193583" style="fill: #4c4c4c; stroke: #4c4c4c"/>
    </g>
    <g clip-path="url(#pddbd5e153b)">
     <use xlink:href="#C0_0_b7b0bf55a1" x="342.830316" y="171.705845" style="fill: #dd0000; stroke: #dd0000"/>
    </g>
    <g clip-path="url(#pddbd5e153b)">
     <use xlink:href="#C0_0_b7b0bf55a1" x="546.863218" y="380.624103" style="fill: #0047ab; stroke: #0047ab"/>
    </g>
    <g clip-path="url(#pddbd5e153b)">
     <use xlink:href="#C0_0_b7b0bf55a1" x="490.89717" y="365.188099" style="fill: #dd0000; stroke: #dd0000"/>
    </g>
    <g clip-path="url(#pddbd5e153b)">
     <use xlink:href="#C0_0_b7b0bf55a1" x="521.129797" y="434.192235" style="fill: #002e5d; stroke: #002e5d"/>
    </g>
    <g clip-path="url(#pddbd5e153b)">
     <use xlink:href="#C0_0_b7b0bf55a1" x="558.265256" y="476.253483" style="fill: #001a70; stroke: #001a70"/>
    </g>
    <g clip-path="url(#pddbd5e153b)">
     <use xlink:href="#C0_0_b7b0bf55a1" x="501.027449" y="389.404396" style="fill: #ff9000; stroke: #ff9000"/>
    </g>
    <g clip-path="url(#pddbd5e153b)">
     <use xlink:href="#C0_0_b7b0bf55a1" x="565.314278" y="380.404561" style="fill: #00a651; stroke: #00a651"/>
    </g>
    <g clip-path="url(#pddbd5e153b)">
     <use xlink:href="#C0_0_b7b0bf55a1" x="487.699801" y="444.536755" style="fill: #8b1c62; stroke: #8b1c62"/>
    </g>
    <g clip-path="url(#pddbd5e153b)">
     <use xlink:href="#C0_0_b7b0bf55a1" x="574.673538" y="419.891185" style="fill: #0047ab; stroke: #0047ab"/>
    </g>
    <g clip-path="url(#pddbd5e153b)">
     <use xlink:href="#C0_0_b7b0bf55a1" x="501.284059" y="335.91142" style="fill: #dd0000; stroke: #dd0000"/>
    </g>
    <g clip-path="url(#pddbd5e153b)">
     <use xlink:href="#C0_0_b7b0bf55a1" x="596.60102" y="393.927456" style="fill: #002e5d; stroke: #002e5d"/>
    </g>
    <g clip-path="url(#pddbd5e153b)">
     <use xlink:href="#C0_0_b7b0bf55a1" x="543.918133" y="387.038009" style="fill: #001a70; stroke: #001a70"/>
    </g>
    <g clip-path="url(#pddbd5e153b)">
     <use xlink:href="#C0_0_b7b0bf55a1" x="514.965909" y="402.972011" style="fill: #ff9000; stroke: #ff9000"/>
    </g>
    <g clip-path="url(#pddbd5e153b)">
     <use xlink:href="#C0_0_b7b0bf55a1" x="591.797463" y="374.539743" style="fill: #00a651; stroke: #00a651"/>
    </g>
    <g clip-path="url(#pddbd5e153b)">
     <use xlink:href="#C0_0_b7b0bf55a1" x="399.946329" y="407.663494" style="fill: #8b1c62; stroke: #8b1c62"/>
    </g>
    <g clip-path="url(#pddbd5e153b)">
     <use xlink:href="#C0_0_b7b0bf55a1" x="531.198008" y="365.486253" style="fill: #0047ab; stroke: #0047ab"/>
    </g>
    <g clip-path="url(#pddbd5e153b)">
     <use xlink:href="#C0_0_b7b0bf55a1" x="491.475644" y="440.300508" style="fill: #dd0000; stroke: #dd0000"/>
    </g>
    <g clip-path="url(#pddbd5e153b)">
     <use xlink:href="#C0_0_b7b0bf55a1" x="578.452048" y="405.531245" style="fill: #002e5d; stroke: #002e5d"/>
    </g>
    <g clip-path="url(#pddbd5e153b)">
     <use xlink:href="#C0_0_b7b0bf55a1" x="491.212719" y="409.387088" style="fill: #001a70; stroke: #001a70"/>
    </g>
    <g clip-path="url(#pddbd5e153b)">
     <use xlink:href="#C0_0_b7b0bf55a1" x="457.246616" y="303.848422" style="fill: #ff9000; stroke: #ff9000"/>
    </g>
    <g clip-path="url(#pddbd5e153b)">
     <use xlink:href="#C0_0_b7b0bf55a1" x="546.072613" y="374.910503" style="fill: #0047ab; stroke: #0047ab"/>
    </g>
    <g clip-path="url(#pddbd5e153b)">
     <use xlink:href="#C0_0_b7b0bf55a1" x="547.528049" y="334.558904" style="fill: #dd0000; stroke: #dd0000"/>
    </g>
    <g clip-path="url(#pddbd5e153b)">
     <use xlink:href="#C0_0_b7b0bf55a1" x="536.39953" y="463.679455" style="fill: #002e5d; stroke: #002e5d"/>
    </g>
    <g clip-path="url(#pddbd5e153b)">
     <use xlink:href="#C0_0_b7b0bf55a1" x="563.344472" y="449.296168" style="fill: #0047ab; stroke: #0047ab"/>
    </g>
    <g clip-path="url(#pddbd5e153b)">
     <use xlink:href="#C0_0_b7b0bf55a1" x="593.676256" y="434.069478" style="fill: #dd0000; stroke: #dd0000"/>
    </g>
    <g clip-path="url(#pddbd5e153b)">
     <use xlink:href="#C0_0_b7b0bf55a1" x="540.245858" y="392.299868" style="fill: #dd0000; stroke: #dd0000"/>
    </g>
    <g clip-path="url(#pddbd5e153b)">
     <use xlink:href="#C0_0_b7b0bf55a1" x="557.969634" y="399.426584" style="fill: #0047ab; stroke: #0047ab"/>
    </g>
    <g clip-path="url(#pddbd5e153b)">
     <use xlink:href="#C0_0_b7b0bf55a1" x="519.653211" y="300.072286" style="fill: #dd0000; stroke: #dd0000"/>
    </g>
    <g clip-path="url(#pddbd5e153b)">
     <use xlink:href="#C0_0_b7b0bf55a1" x="533.721461" y="472.838313" style="fill: #ff9000; stroke: #ff9000"/>
    </g>
    <g clip-path="url(#pddbd5e153b)">
     <use xlink:href="#C0_0_b7b0bf55a1" x="486.836638" y="296.621148" style="fill: #a0a0a0; stroke: #a0a0a0"/>
    </g>
    <g clip-path="url(#pddbd5e153b)">
     <use xlink:href="#C0_0_b7b0bf55a1" x="568.411002" y="390.795422" style="fill: #0047ab; stroke: #0047ab"/>
    </g>
    <g clip-path="url(#pddbd5e153b)">
     <use xlink:href="#C0_0_b7b0bf55a1" x="539.705378" y="359.311687" style="fill: #0047ab; stroke: #0047ab"/>
    </g>
    <g clip-path="url(#pddbd5e153b)">
     <use xlink:href="#C0_0_b7b0bf55a1" x="536.685671" y="486.833482" style="fill: #dd0000; stroke: #dd0000"/>
    </g>
    <g clip-path="url(#pddbd5e153b)">
     <use xlink:href="#C0_0_b7b0bf55a1" x="541.748317" y="452.528078" style="fill: #0047ab; stroke: #0047ab"/>
    </g>
    <g clip-path="url(#pddbd5e153b)">
     <use xlink:href="#C0_0_b7b0bf55a1" x="601.772286" y="428.038118" style="fill: #0047ab; stroke: #0047ab"/>
    </g>
    <g clip-path="url(#pddbd5e153b)">
     <use xlink:href="#C0_0_b7b0bf55a1" x="581.870673" y="440.928175" style="fill: #dd0000; stroke: #dd0000"/>
    </g>
    <g clip-path="url(#pddbd5e153b)">
     <use xlink:href="#C0_0_b7b0bf55a1" x="541.06636" y="392.22456" style="fill: #002e5d; stroke: #002e5d"/>
    </g>
    <g clip-path="url(#pddbd5e153b)">
     <use xlink:href="#C0_0_b7b0bf55a1" x="612.454722" y="440.992637" style="fill: #0047ab; stroke: #0047ab"/>
    </g>
    <g clip-path="url(#pddbd5e153b)">
     <use xlink:href="#C0_0_b7b0bf55a1" x="433.043496" y="132.798051" style="fill: #dd0000; stroke: #dd0000"/>
    </g>
    <g clip-path="url(#pddbd5e153b)">
     <use xlink:href="#C0_0_b7b0bf55a1" x="337.994373" y="278.003253" style="fill: #001a70; stroke: #001a70"/>
    </g>
    <g clip-path="url(#pddbd5e153b)">
     <use xlink:href="#C0_0_b7b0bf55a1" x="346.789057" y="243.734472" style="fill: #dd0000; stroke: #dd0000"/>
    </g>
    <g clip-path="url(#pddbd5e153b)">
     <use xlink:href="#C0_0_b7b0bf55a1" x="365.074581" y="215.896059" style="fill: #00a651; stroke: #00a651"/>
    </g>
    <g clip-path="url(#pddbd5e153b)">
     <use xlink:href="#C0_0_b7b0bf55a1" x="362.468063" y="247.475535" style="fill: #00a651; stroke: #00a651"/>
    </g>
    <g clip-path="url(#pddbd5e153b)">
     <use xlink:href="#C0_0_b7b0bf55a1" x="399.062218" y="238.9553" style="fill: #00a651; stroke: #00a651"/>
    </g>
    <g clip-path="url(#pddbd5e153b)">
     <use xlink:href="#C0_0_b7b0bf55a1" x="376.390036" y="171.565906" style="fill: #ff9000; stroke: #ff9000"/>
    </g>
    <g clip-path="url(#pddbd5e153b)">
     <use xlink:href="#C0_0_b7b0bf55a1" x="413.993022" y="173.65562" style="fill: #001a70; stroke: #001a70"/>
    </g>
    <g clip-path="url(#pddbd5e153b)">
     <use xlink:href="#C0_0_b7b0bf55a1" x="374.65281" y="140.761515" style="fill: #ff9000; stroke: #ff9000"/>
    </g>
    <g clip-path="url(#pddbd5e153b)">
     <use xlink:href="#C0_0_b7b0bf55a1" x="520.313593" y="239.792361" style="fill: #0047ab; stroke: #0047ab"/>
    </g>
    <g clip-path="url(#pddbd5e153b)">
     <use xlink:href="#C0_0_b7b0bf55a1" x="527.130454" y="235.895322" style="fill: #dd0000; stroke: #dd0000"/>
    </g>
    <g clip-path="url(#pddbd5e153b)">
     <use xlink:href="#C0_0_b7b0bf55a1" x="529.534259" y="242.000496" style="fill: #002e5d; stroke: #002e5d"/>
    </g>
    <g clip-path="url(#pddbd5e153b)">
     <use xlink:href="#C0_0_b7b0bf55a1" x="500.891278" y="269.774813" style="fill: #001a70; stroke: #001a70"/>
    </g>
    <g clip-path="url(#pddbd5e153b)">
     <use xlink:href="#C0_0_b7b0bf55a1" x="546.523625" y="222.135616" style="fill: #4c4c4c; stroke: #4c4c4c"/>
    </g>
    <g clip-path="url(#pddbd5e153b)">
     <use xlink:href="#C0_0_b7b0bf55a1" x="523.827095" y="289.815923" style="fill: #dd0000; stroke: #dd0000"/>
    </g>
    <g clip-path="url(#pddbd5e153b)">
     <use xlink:href="#C0_0_b7b0bf55a1" x="520.902736" y="227.319405" style="fill: #002e5d; stroke: #002e5d"/>
    </g>
    <g clip-path="url(#pddbd5e153b)">
     <use xlink:href="#C0_0_b7b0bf55a1" x="415.687035" y="263.661228" style="fill: #4c4c4c; stroke: #4c4c4c"/>
    </g>
    <g clip-path="url(#pddbd5e153b)">
     <use xlink:href="#C0_0_b7b0bf55a1" x="585.506914" y="285.672619" style="fill: #0047ab; stroke: #0047ab"/>
    </g>
    <g clip-path="url(#pddbd5e153b)">
     <use xlink:href="#C0_0_b7b0bf55a1" x="535.520014" y="267.677475" style="fill: #dd0000; stroke: #dd0000"/>
    </g>
    <g clip-path="url(#pddbd5e153b)">
     <use xlink:href="#C0_0_b7b0bf55a1" x="493.992782" y="248.838765" style="fill: #002e5d; stroke: #002e5d"/>
    </g>
    <g clip-path="url(#pddbd5e153b)">
     <use xlink:href="#C0_0_b7b0bf55a1" x="529.097894" y="278.790697" style="fill: #0047ab; stroke: #0047ab"/>
    </g>
    <g clip-path="url(#pddbd5e153b)">
     <use xlink:href="#C0_0_b7b0bf55a1" x="537.904101" y="247.884599" style="fill: #002e5d; stroke: #002e5d"/>
    </g>
    <g clip-path="url(#pddbd5e153b)">
     <use xlink:href="#C0_0_b7b0bf55a1" x="482.72847" y="186.449953" style="fill: #001a70; stroke: #001a70"/>
    </g>
    <g clip-path="url(#pddbd5e153b)">
     <use xlink:href="#C0_0_b7b0bf55a1" x="537.26816" y="264.288904" style="fill: #a0a0a0; stroke: #a0a0a0"/>
    </g>
    <g clip-path="url(#pddbd5e153b)">
     <use xlink:href="#C0_0_b7b0bf55a1" x="291.614995" y="409.215196" style="fill: #0047ab; stroke: #0047ab"/>
    </g>
    <g clip-path="url(#pddbd5e153b)">
     <use xlink:href="#C0_0_b7b0bf55a1" x="457.236574" y="245.082849" style="fill: #0047ab; stroke: #0047ab"/>
    </g>
   </g>
   <g id="matplotlib.axis_1">
    <g id="xtick_1">
     <g id="line2d_1">
      <defs>
       <path id="m967127eb8a" d="M 0 0 
L 0 3.5 
" style="stroke: #000000; stroke-width: 0.8"/>
      </defs>
      <g>
       <use xlink:href="#m967127eb8a" x="145.924559" y="512.64" style="stroke: #000000; stroke-width: 0.8"/>
      </g>
     </g>
     <g id="text_1">
      <!-- −0.4 -->
      <g transform="translate(133.783152 527.238438) scale(0.1 -0.1)">
       <defs>
        <path id="DejaVuSans-2212" d="M 678 2272 
L 4684 2272 
L 4684 1741 
L 678 1741 
L 678 2272 
z
" transform="scale(0.015625)"/>
        <path id="DejaVuSans-30" d="M 2034 4250 
Q 1547 4250 1301 3770 
Q 1056 3291 1056 2328 
Q 1056 1369 1301 889 
Q 1547 409 2034 409 
Q 2525 409 2770 889 
Q 3016 1369 3016 2328 
Q 3016 3291 2770 3770 
Q 2525 4250 2034 4250 
z
M 2034 4750 
Q 2819 4750 3233 4129 
Q 3647 3509 3647 2328 
Q 3647 1150 3233 529 
Q 2819 -91 2034 -91 
Q 1250 -91 836 529 
Q 422 1150 422 2328 
Q 422 3509 836 4129 
Q 1250 4750 2034 4750 
z
" transform="scale(0.015625)"/>
        <path id="DejaVuSans-2e" d="M 684 794 
L 1344 794 
L 1344 0 
L 684 0 
L 684 794 
z
" transform="scale(0.015625)"/>
        <path id="DejaVuSans-34" d="M 2419 4116 
L 825 1625 
L 2419 1625 
L 2419 4116 
z
M 2253 4666 
L 3047 4666 
L 3047 1625 
L 3713 1625 
L 3713 1100 
L 3047 1100 
L 3047 0 
L 2419 0 
L 2419 1100 
L 313 1100 
L 313 1709 
L 2253 4666 
z
" transform="scale(0.015625)"/>
       </defs>
       <use xlink:href="#DejaVuSans-2212"/>
       <use xlink:href="#DejaVuSans-30" transform="translate(83.789062 0)"/>
       <use xlink:href="#DejaVuSans-2e" transform="translate(147.412109 0)"/>
       <use xlink:href="#DejaVuSans-34" transform="translate(179.199219 0)"/>
      </g>
     </g>
    </g>
    <g id="xtick_2">
     <g id="line2d_2">
      <g>
       <use xlink:href="#m967127eb8a" x="209.178287" y="512.64" style="stroke: #000000; stroke-width: 0.8"/>
      </g>
     </g>
     <g id="text_2">
      <!-- −0.3 -->
      <g transform="translate(197.036881 527.238438) scale(0.1 -0.1)">
       <defs>
        <path id="DejaVuSans-33" d="M 2597 2516 
Q 3050 2419 3304 2112 
Q 3559 1806 3559 1356 
Q 3559 666 3084 287 
Q 2609 -91 1734 -91 
Q 1441 -91 1130 -33 
Q 819 25 488 141 
L 488 750 
Q 750 597 1062 519 
Q 1375 441 1716 441 
Q 2309 441 2620 675 
Q 2931 909 2931 1356 
Q 2931 1769 2642 2001 
Q 2353 2234 1838 2234 
L 1294 2234 
L 1294 2753 
L 1863 2753 
Q 2328 2753 2575 2939 
Q 2822 3125 2822 3475 
Q 2822 3834 2567 4026 
Q 2313 4219 1838 4219 
Q 1578 4219 1281 4162 
Q 984 4106 628 3988 
L 628 4550 
Q 988 4650 1302 4700 
Q 1616 4750 1894 4750 
Q 2613 4750 3031 4423 
Q 3450 4097 3450 3541 
Q 3450 3153 3228 2886 
Q 3006 2619 2597 2516 
z
" transform="scale(0.015625)"/>
       </defs>
       <use xlink:href="#DejaVuSans-2212"/>
       <use xlink:href="#DejaVuSans-30" transform="translate(83.789062 0)"/>
       <use xlink:href="#DejaVuSans-2e" transform="translate(147.412109 0)"/>
       <use xlink:href="#DejaVuSans-33" transform="translate(179.199219 0)"/>
      </g>
     </g>
    </g>
    <g id="xtick_3">
     <g id="line2d_3">
      <g>
       <use xlink:href="#m967127eb8a" x="272.432015" y="512.64" style="stroke: #000000; stroke-width: 0.8"/>
      </g>
     </g>
     <g id="text_3">
      <!-- −0.2 -->
      <g transform="translate(260.290609 527.238438) scale(0.1 -0.1)">
       <defs>
        <path id="DejaVuSans-32" d="M 1228 531 
L 3431 531 
L 3431 0 
L 469 0 
L 469 531 
Q 828 903 1448 1529 
Q 2069 2156 2228 2338 
Q 2531 2678 2651 2914 
Q 2772 3150 2772 3378 
Q 2772 3750 2511 3984 
Q 2250 4219 1831 4219 
Q 1534 4219 1204 4116 
Q 875 4013 500 3803 
L 500 4441 
Q 881 4594 1212 4672 
Q 1544 4750 1819 4750 
Q 2544 4750 2975 4387 
Q 3406 4025 3406 3419 
Q 3406 3131 3298 2873 
Q 3191 2616 2906 2266 
Q 2828 2175 2409 1742 
Q 1991 1309 1228 531 
z
" transform="scale(0.015625)"/>
       </defs>
       <use xlink:href="#DejaVuSans-2212"/>
       <use xlink:href="#DejaVuSans-30" transform="translate(83.789062 0)"/>
       <use xlink:href="#DejaVuSans-2e" transform="translate(147.412109 0)"/>
       <use xlink:href="#DejaVuSans-32" transform="translate(179.199219 0)"/>
      </g>
     </g>
    </g>
    <g id="xtick_4">
     <g id="line2d_4">
      <g>
       <use xlink:href="#m967127eb8a" x="335.685744" y="512.64" style="stroke: #000000; stroke-width: 0.8"/>
      </g>
     </g>
     <g id="text_4">
      <!-- −0.1 -->
      <g transform="translate(323.544337 527.238438) scale(0.1 -0.1)">
       <defs>
        <path id="DejaVuSans-31" d="M 794 531 
L 1825 531 
L 1825 4091 
L 703 3866 
L 703 4441 
L 1819 4666 
L 2450 4666 
L 2450 531 
L 3481 531 
L 3481 0 
L 794 0 
L 794 531 
z
" transform="scale(0.015625)"/>
       </defs>
       <use xlink:href="#DejaVuSans-2212"/>
       <use xlink:href="#DejaVuSans-30" transform="translate(83.789062 0)"/>
       <use xlink:href="#DejaVuSans-2e" transform="translate(147.412109 0)"/>
       <use xlink:href="#DejaVuSans-31" transform="translate(179.199219 0)"/>
      </g>
     </g>
    </g>
    <g id="xtick_5">
     <g id="line2d_5">
      <g>
       <use xlink:href="#m967127eb8a" x="398.939472" y="512.64" style="stroke: #000000; stroke-width: 0.8"/>
      </g>
     </g>
     <g id="text_5">
      <!-- 0.0 -->
      <g transform="translate(390.987909 527.238438) scale(0.1 -0.1)">
       <use xlink:href="#DejaVuSans-30"/>
       <use xlink:href="#DejaVuSans-2e" transform="translate(63.623047 0)"/>
       <use xlink:href="#DejaVuSans-30" transform="translate(95.410156 0)"/>
      </g>
     </g>
    </g>
    <g id="xtick_6">
     <g id="line2d_6">
      <g>
       <use xlink:href="#m967127eb8a" x="462.1932" y="512.64" style="stroke: #000000; stroke-width: 0.8"/>
      </g>
     </g>
     <g id="text_6">
      <!-- 0.1 -->
      <g transform="translate(454.241638 527.238438) scale(0.1 -0.1)">
       <use xlink:href="#DejaVuSans-30"/>
       <use xlink:href="#DejaVuSans-2e" transform="translate(63.623047 0)"/>
       <use xlink:href="#DejaVuSans-31" transform="translate(95.410156 0)"/>
      </g>
     </g>
    </g>
    <g id="xtick_7">
     <g id="line2d_7">
      <g>
       <use xlink:href="#m967127eb8a" x="525.446929" y="512.64" style="stroke: #000000; stroke-width: 0.8"/>
      </g>
     </g>
     <g id="text_7">
      <!-- 0.2 -->
      <g transform="translate(517.495366 527.238438) scale(0.1 -0.1)">
       <use xlink:href="#DejaVuSans-30"/>
       <use xlink:href="#DejaVuSans-2e" transform="translate(63.623047 0)"/>
       <use xlink:href="#DejaVuSans-32" transform="translate(95.410156 0)"/>
      </g>
     </g>
    </g>
    <g id="xtick_8">
     <g id="line2d_8">
      <g>
       <use xlink:href="#m967127eb8a" x="588.700657" y="512.64" style="stroke: #000000; stroke-width: 0.8"/>
      </g>
     </g>
     <g id="text_8">
      <!-- 0.3 -->
      <g transform="translate(580.749094 527.238438) scale(0.1 -0.1)">
       <use xlink:href="#DejaVuSans-30"/>
       <use xlink:href="#DejaVuSans-2e" transform="translate(63.623047 0)"/>
       <use xlink:href="#DejaVuSans-33" transform="translate(95.410156 0)"/>
      </g>
     </g>
    </g>
   </g>
   <g id="matplotlib.axis_2">
    <g id="ytick_1">
     <g id="line2d_9">
      <defs>
       <path id="m0865a38f39" d="M 0 0 
L -3.5 0 
" style="stroke: #000000; stroke-width: 0.8"/>
      </defs>
      <g>
       <use xlink:href="#m0865a38f39" x="90" y="472.625388" style="stroke: #000000; stroke-width: 0.8"/>
      </g>
     </g>
     <g id="text_9">
      <!-- −0.3 -->
      <g transform="translate(58.717187 476.424607) scale(0.1 -0.1)">
       <use xlink:href="#DejaVuSans-2212"/>
       <use xlink:href="#DejaVuSans-30" transform="translate(83.789062 0)"/>
       <use xlink:href="#DejaVuSans-2e" transform="translate(147.412109 0)"/>
       <use xlink:href="#DejaVuSans-33" transform="translate(179.199219 0)"/>
      </g>
     </g>
    </g>
    <g id="ytick_2">
     <g id="line2d_10">
      <g>
       <use xlink:href="#m0865a38f39" x="90" y="418.746418" style="stroke: #000000; stroke-width: 0.8"/>
      </g>
     </g>
     <g id="text_10">
      <!-- −0.2 -->
      <g transform="translate(58.717187 422.545637) scale(0.1 -0.1)">
       <use xlink:href="#DejaVuSans-2212"/>
       <use xlink:href="#DejaVuSans-30" transform="translate(83.789062 0)"/>
       <use xlink:href="#DejaVuSans-2e" transform="translate(147.412109 0)"/>
       <use xlink:href="#DejaVuSans-32" transform="translate(179.199219 0)"/>
      </g>
     </g>
    </g>
    <g id="ytick_3">
     <g id="line2d_11">
      <g>
       <use xlink:href="#m0865a38f39" x="90" y="364.867448" style="stroke: #000000; stroke-width: 0.8"/>
      </g>
     </g>
     <g id="text_11">
      <!-- −0.1 -->
      <g transform="translate(58.717187 368.666667) scale(0.1 -0.1)">
       <use xlink:href="#DejaVuSans-2212"/>
       <use xlink:href="#DejaVuSans-30" transform="translate(83.789062 0)"/>
       <use xlink:href="#DejaVuSans-2e" transform="translate(147.412109 0)"/>
       <use xlink:href="#DejaVuSans-31" transform="translate(179.199219 0)"/>
      </g>
     </g>
    </g>
    <g id="ytick_4">
     <g id="line2d_12">
      <g>
       <use xlink:href="#m0865a38f39" x="90" y="310.988479" style="stroke: #000000; stroke-width: 0.8"/>
      </g>
     </g>
     <g id="text_12">
      <!-- 0.0 -->
      <g transform="translate(67.096875 314.787697) scale(0.1 -0.1)">
       <use xlink:href="#DejaVuSans-30"/>
       <use xlink:href="#DejaVuSans-2e" transform="translate(63.623047 0)"/>
       <use xlink:href="#DejaVuSans-30" transform="translate(95.410156 0)"/>
      </g>
     </g>
    </g>
    <g id="ytick_5">
     <g id="line2d_13">
      <g>
       <use xlink:href="#m0865a38f39" x="90" y="257.109509" style="stroke: #000000; stroke-width: 0.8"/>
      </g>
     </g>
     <g id="text_13">
      <!-- 0.1 -->
      <g transform="translate(67.096875 260.908727) scale(0.1 -0.1)">
       <use xlink:href="#DejaVuSans-30"/>
       <use xlink:href="#DejaVuSans-2e" transform="translate(63.623047 0)"/>
       <use xlink:href="#DejaVuSans-31" transform="translate(95.410156 0)"/>
      </g>
     </g>
    </g>
    <g id="ytick_6">
     <g id="line2d_14">
      <g>
       <use xlink:href="#m0865a38f39" x="90" y="203.230539" style="stroke: #000000; stroke-width: 0.8"/>
      </g>
     </g>
     <g id="text_14">
      <!-- 0.2 -->
      <g transform="translate(67.096875 207.029758) scale(0.1 -0.1)">
       <use xlink:href="#DejaVuSans-30"/>
       <use xlink:href="#DejaVuSans-2e" transform="translate(63.623047 0)"/>
       <use xlink:href="#DejaVuSans-32" transform="translate(95.410156 0)"/>
      </g>
     </g>
    </g>
    <g id="ytick_7">
     <g id="line2d_15">
      <g>
       <use xlink:href="#m0865a38f39" x="90" y="149.351569" style="stroke: #000000; stroke-width: 0.8"/>
      </g>
     </g>
     <g id="text_15">
      <!-- 0.3 -->
      <g transform="translate(67.096875 153.150788) scale(0.1 -0.1)">
       <use xlink:href="#DejaVuSans-30"/>
       <use xlink:href="#DejaVuSans-2e" transform="translate(63.623047 0)"/>
       <use xlink:href="#DejaVuSans-33" transform="translate(95.410156 0)"/>
      </g>
     </g>
    </g>
    <g id="ytick_8">
     <g id="line2d_16">
      <g>
       <use xlink:href="#m0865a38f39" x="90" y="95.472599" style="stroke: #000000; stroke-width: 0.8"/>
      </g>
     </g>
     <g id="text_16">
      <!-- 0.4 -->
      <g transform="translate(67.096875 99.271818) scale(0.1 -0.1)">
       <use xlink:href="#DejaVuSans-30"/>
       <use xlink:href="#DejaVuSans-2e" transform="translate(63.623047 0)"/>
       <use xlink:href="#DejaVuSans-34" transform="translate(95.410156 0)"/>
      </g>
     </g>
    </g>
   </g>
   <g id="patch_12">
    <path d="M 90 512.64 
L 90 69.12 
" style="fill: none; stroke: #000000; stroke-width: 0.8; stroke-linejoin: miter; stroke-linecap: square"/>
   </g>
   <g id="patch_13">
    <path d="M 648 512.64 
L 648 69.12 
" style="fill: none; stroke: #000000; stroke-width: 0.8; stroke-linejoin: miter; stroke-linecap: square"/>
   </g>
   <g id="patch_14">
    <path d="M 90 512.64 
L 648 512.64 
" style="fill: none; stroke: #000000; stroke-width: 0.8; stroke-linejoin: miter; stroke-linecap: square"/>
   </g>
   <g id="patch_15">
    <path d="M 90 69.12 
L 648 69.12 
" style="fill: none; stroke: #000000; stroke-width: 0.8; stroke-linejoin: miter; stroke-linecap: square"/>
   </g>
   <g id="text_17">
    <!-- 0.82 -->
    <g transform="translate(390.20812 111.647204) scale(0.1 -0.1)">
     <defs>
      <path id="DejaVuSans-38" d="M 2034 2216 
Q 1584 2216 1326 1975 
Q 1069 1734 1069 1313 
Q 1069 891 1326 650 
Q 1584 409 2034 409 
Q 2484 409 2743 651 
Q 3003 894 3003 1313 
Q 3003 1734 2745 1975 
Q 2488 2216 2034 2216 
z
M 1403 2484 
Q 997 2584 770 2862 
Q 544 3141 544 3541 
Q 544 4100 942 4425 
Q 1341 4750 2034 4750 
Q 2731 4750 3128 4425 
Q 3525 4100 3525 3541 
Q 3525 3141 3298 2862 
Q 3072 2584 2669 2484 
Q 3125 2378 3379 2068 
Q 3634 1759 3634 1313 
Q 3634 634 3220 271 
Q 2806 -91 2034 -91 
Q 1263 -91 848 271 
Q 434 634 434 1313 
Q 434 1759 690 2068 
Q 947 2378 1403 2484 
z
M 1172 3481 
Q 1172 3119 1398 2916 
Q 1625 2713 2034 2713 
Q 2441 2713 2670 2916 
Q 2900 3119 2900 3481 
Q 2900 3844 2670 4047 
Q 2441 4250 2034 4250 
Q 1625 4250 1398 4047 
Q 1172 3844 1172 3481 
z
" transform="scale(0.015625)"/>
     </defs>
     <use xlink:href="#DejaVuSans-30"/>
     <use xlink:href="#DejaVuSans-2e" transform="translate(63.623047 0)"/>
     <use xlink:href="#DejaVuSans-38" transform="translate(95.410156 0)"/>
     <use xlink:href="#DejaVuSans-32" transform="translate(159.033203 0)"/>
    </g>
   </g>
   <g id="text_18">
    <!-- 0.82 -->
    <g transform="translate(178.582507 263.272009) scale(0.1 -0.1)">
     <use xlink:href="#DejaVuSans-30"/>
     <use xlink:href="#DejaVuSans-2e" transform="translate(63.623047 0)"/>
     <use xlink:href="#DejaVuSans-38" transform="translate(95.410156 0)"/>
     <use xlink:href="#DejaVuSans-32" transform="translate(159.033203 0)"/>
    </g>
   </g>
   <g id="text_19">
    <!-- 0.78 -->
    <g transform="translate(453.087681 345.137289) scale(0.1 -0.1)">
     <defs>
      <path id="DejaVuSans-37" d="M 525 4666 
L 3525 4666 
L 3525 4397 
L 1831 0 
L 1172 0 
L 2766 4134 
L 525 4134 
L 525 4666 
z
" transform="scale(0.015625)"/>
     </defs>
     <use xlink:href="#DejaVuSans-30"/>
     <use xlink:href="#DejaVuSans-2e" transform="translate(63.623047 0)"/>
     <use xlink:href="#DejaVuSans-37" transform="translate(95.410156 0)"/>
     <use xlink:href="#DejaVuSans-38" transform="translate(159.033203 0)"/>
    </g>
   </g>
   <g id="text_20">
    <!-- 0.49 -->
    <g transform="translate(301.828937 205.01167) scale(0.1 -0.1)">
     <defs>
      <path id="DejaVuSans-39" d="M 703 97 
L 703 672 
Q 941 559 1184 500 
Q 1428 441 1663 441 
Q 2288 441 2617 861 
Q 2947 1281 2994 2138 
Q 2813 1869 2534 1725 
Q 2256 1581 1919 1581 
Q 1219 1581 811 2004 
Q 403 2428 403 3163 
Q 403 3881 828 4315 
Q 1253 4750 1959 4750 
Q 2769 4750 3195 4129 
Q 3622 3509 3622 2328 
Q 3622 1225 3098 567 
Q 2575 -91 1691 -91 
Q 1453 -91 1209 -44 
Q 966 3 703 97 
z
M 1959 2075 
Q 2384 2075 2632 2365 
Q 2881 2656 2881 3163 
Q 2881 3666 2632 3958 
Q 2384 4250 1959 4250 
Q 1534 4250 1286 3958 
Q 1038 3666 1038 3163 
Q 1038 2656 1286 2365 
Q 1534 2075 1959 2075 
z
" transform="scale(0.015625)"/>
     </defs>
     <use xlink:href="#DejaVuSans-30"/>
     <use xlink:href="#DejaVuSans-2e" transform="translate(63.623047 0)"/>
     <use xlink:href="#DejaVuSans-34" transform="translate(95.410156 0)"/>
     <use xlink:href="#DejaVuSans-39" transform="translate(159.033203 0)"/>
    </g>
   </g>
   <g id="text_21">
    <!-- 0.46 -->
    <g transform="translate(183.938169 390.683747) scale(0.1 -0.1)">
     <defs>
      <path id="DejaVuSans-36" d="M 2113 2584 
Q 1688 2584 1439 2293 
Q 1191 2003 1191 1497 
Q 1191 994 1439 701 
Q 1688 409 2113 409 
Q 2538 409 2786 701 
Q 3034 994 3034 1497 
Q 3034 2003 2786 2293 
Q 2538 2584 2113 2584 
z
M 3366 4563 
L 3366 3988 
Q 3128 4100 2886 4159 
Q 2644 4219 2406 4219 
Q 1781 4219 1451 3797 
Q 1122 3375 1075 2522 
Q 1259 2794 1537 2939 
Q 1816 3084 2150 3084 
Q 2853 3084 3261 2657 
Q 3669 2231 3669 1497 
Q 3669 778 3244 343 
Q 2819 -91 2113 -91 
Q 1303 -91 875 529 
Q 447 1150 447 2328 
Q 447 3434 972 4092 
Q 1497 4750 2381 4750 
Q 2619 4750 2861 4703 
Q 3103 4656 3366 4563 
z
" transform="scale(0.015625)"/>
     </defs>
     <use xlink:href="#DejaVuSans-30"/>
     <use xlink:href="#DejaVuSans-2e" transform="translate(63.623047 0)"/>
     <use xlink:href="#DejaVuSans-34" transform="translate(95.410156 0)"/>
     <use xlink:href="#DejaVuSans-36" transform="translate(159.033203 0)"/>
    </g>
   </g>
   <g id="text_22">
    <!-- 0.79 -->
    <g transform="translate(463.908007 221.784174) scale(0.1 -0.1)">
     <use xlink:href="#DejaVuSans-30"/>
     <use xlink:href="#DejaVuSans-2e" transform="translate(63.623047 0)"/>
     <use xlink:href="#DejaVuSans-37" transform="translate(95.410156 0)"/>
     <use xlink:href="#DejaVuSans-39" transform="translate(159.033203 0)"/>
    </g>
   </g>
   <g id="text_23">
    <!-- 0.75 -->
    <g transform="translate(347.92992 143.567939) scale(0.1 -0.1)">
     <defs>
      <path id="DejaVuSans-35" d="M 691 4666 
L 3169 4666 
L 3169 4134 
L 1269 4134 
L 1269 2991 
Q 1406 3038 1543 3061 
Q 1681 3084 1819 3084 
Q 2600 3084 3056 2656 
Q 3513 2228 3513 1497 
Q 3513 744 3044 326 
Q 2575 -91 1722 -91 
Q 1428 -91 1123 -41 
Q 819 9 494 109 
L 494 744 
Q 775 591 1075 516 
Q 1375 441 1709 441 
Q 2250 441 2565 725 
Q 2881 1009 2881 1497 
Q 2881 1984 2565 2268 
Q 2250 2553 1709 2553 
Q 1456 2553 1204 2497 
Q 953 2441 691 2322 
L 691 4666 
z
" transform="scale(0.015625)"/>
     </defs>
     <use xlink:href="#DejaVuSans-30"/>
     <use xlink:href="#DejaVuSans-2e" transform="translate(63.623047 0)"/>
     <use xlink:href="#DejaVuSans-37" transform="translate(95.410156 0)"/>
     <use xlink:href="#DejaVuSans-35" transform="translate(159.033203 0)"/>
    </g>
   </g>
   <g id="text_24">
    <!-- 0.90 -->
    <g transform="translate(111.730854 334.649604) scale(0.1 -0.1)">
     <use xlink:href="#DejaVuSans-30"/>
     <use xlink:href="#DejaVuSans-2e" transform="translate(63.623047 0)"/>
     <use xlink:href="#DejaVuSans-39" transform="translate(95.410156 0)"/>
     <use xlink:href="#DejaVuSans-30" transform="translate(159.033203 0)"/>
    </g>
   </g>
   <g id="text_25">
    <!-- 0.61 -->
    <g transform="translate(505.278781 414.695048) scale(0.1 -0.1)">
     <use xlink:href="#DejaVuSans-30"/>
     <use xlink:href="#DejaVuSans-2e" transform="translate(63.623047 0)"/>
     <use xlink:href="#DejaVuSans-36" transform="translate(95.410156 0)"/>
     <use xlink:href="#DejaVuSans-31" transform="translate(159.033203 0)"/>
    </g>
   </g>
   <g id="text_26">
    <!-- CRE-10-2025-10-09_EN -->
    <g transform="translate(298.73625 63.12) scale(0.12 -0.12)">
     <defs>
      <path id="DejaVuSans-43" d="M 4122 4306 
L 4122 3641 
Q 3803 3938 3442 4084 
Q 3081 4231 2675 4231 
Q 1875 4231 1450 3742 
Q 1025 3253 1025 2328 
Q 1025 1406 1450 917 
Q 1875 428 2675 428 
Q 3081 428 3442 575 
Q 3803 722 4122 1019 
L 4122 359 
Q 3791 134 3420 21 
Q 3050 -91 2638 -91 
Q 1578 -91 968 557 
Q 359 1206 359 2328 
Q 359 3453 968 4101 
Q 1578 4750 2638 4750 
Q 3056 4750 3426 4639 
Q 3797 4528 4122 4306 
z
" transform="scale(0.015625)"/>
      <path id="DejaVuSans-52" d="M 2841 2188 
Q 3044 2119 3236 1894 
Q 3428 1669 3622 1275 
L 4263 0 
L 3584 0 
L 2988 1197 
Q 2756 1666 2539 1819 
Q 2322 1972 1947 1972 
L 1259 1972 
L 1259 0 
L 628 0 
L 628 4666 
L 2053 4666 
Q 2853 4666 3247 4331 
Q 3641 3997 3641 3322 
Q 3641 2881 3436 2590 
Q 3231 2300 2841 2188 
z
M 1259 4147 
L 1259 2491 
L 2053 2491 
Q 2509 2491 2742 2702 
Q 2975 2913 2975 3322 
Q 2975 3731 2742 3939 
Q 2509 4147 2053 4147 
L 1259 4147 
z
" transform="scale(0.015625)"/>
      <path id="DejaVuSans-45" d="M 628 4666 
L 3578 4666 
L 3578 4134 
L 1259 4134 
L 1259 2753 
L 3481 2753 
L 3481 2222 
L 1259 2222 
L 1259 531 
L 3634 531 
L 3634 0 
L 628 0 
L 628 4666 
z
" transform="scale(0.015625)"/>
      <path id="DejaVuSans-2d" d="M 313 2009 
L 1997 2009 
L 1997 1497 
L 313 1497 
L 313 2009 
z
" transform="scale(0.015625)"/>
      <path id="DejaVuSans-5f" d="M 3263 -1063 
L 3263 -1509 
L -63 -1509 
L -63 -1063 
L 3263 -1063 
z
" transform="scale(0.015625)"/>
      <path id="DejaVuSans-4e" d="M 628 4666 
L 1478 4666 
L 3547 763 
L 3547 4666 
L 4159 4666 
L 4159 0 
L 3309 0 
L 1241 3903 
L 1241 0 
L 628 0 
L 628 4666 
z
" transform="scale(0.015625)"/>
     </defs>
     <use xlink:href="#DejaVuSans-43"/>
     <use xlink:href="#DejaVuSans-52" transform="translate(69.824219 0)"/>
     <use xlink:href="#DejaVuSans-45" transform="translate(139.306641 0)"/>
     <use xlink:href="#DejaVuSans-2d" transform="translate(202.490234 0)"/>
     <use xlink:href="#DejaVuSans-31" transform="translate(238.574219 0)"/>
     <use xlink:href="#DejaVuSans-30" transform="translate(302.197266 0)"/>
     <use xlink:href="#DejaVuSans-2d" transform="translate(365.820312 0)"/>
     <use xlink:href="#DejaVuSans-32" transform="translate(401.904297 0)"/>
     <use xlink:href="#DejaVuSans-30" transform="translate(465.527344 0)"/>
     <use xlink:href="#DejaVuSans-32" transform="translate(529.150391 0)"/>
     <use xlink:href="#DejaVuSans-35" transform="translate(592.773438 0)"/>
     <use xlink:href="#DejaVuSans-2d" transform="translate(656.396484 0)"/>
     <use xlink:href="#DejaVuSans-31" transform="translate(692.480469 0)"/>
     <use xlink:href="#DejaVuSans-30" transform="translate(756.103516 0)"/>
     <use xlink:href="#DejaVuSans-2d" transform="translate(819.726562 0)"/>
     <use xlink:href="#DejaVuSans-30" transform="translate(855.810547 0)"/>
     <use xlink:href="#DejaVuSans-39" transform="translate(919.433594 0)"/>
     <use xlink:href="#DejaVuSans-5f" transform="translate(983.056641 0)"/>
     <use xlink:href="#DejaVuSans-45" transform="translate(1033.056641 0)"/>
     <use xlink:href="#DejaVuSans-4e" transform="translate(1096.240234 0)"/>
    </g>
   </g>
  </g>
 </g>
 <defs>
  <clipPath id="pddbd5e153b">
   <rect x="90" y="69.12" width="558" height="443.52"/>
  </clipPath>
 </defs>
</svg>
