<?xml version="1.0" encoding="utf-8" standalone="no"?>
<!DOCTYPE svg PUBLIC "-//W3C//DTD SVG 1.1//EN"
  "http://www.w3.org/Graphics/SVG/1.1/DTD/svg11.dtd">
<svg xmlns:xlink="http://www.w3.org/1999/xlink" width="720pt" height="576pt" viewBox="0 0 720 576" xmlns="http://www.w3.org/2000/svg" version="1.1">
 <metadata>
  <rdf:RDF xmlns:dc="http://purl.org/dc/elements/1.1/" xmlns:cc="http://creativecommons.org/ns#" xmlns:rdf="http://www.w3.org/1999/02/22-rdf-syntax-ns#">
   <cc:Work>
    <dc:type rdf:resource="http://purl.org/dc/dcmitype/StillImage"/>
    <dc:date>2025-11-03T13:02:11.640485</dc:date>
    <dc:format>image/svg+xml</dc:format>
    <dc:creator>
     <cc:Agent>
      <dc:title>Matplotlib v3.10.0, https://matplotlib.org/</dc:title>
     </cc:Agent>
    </dc:creator>
   </cc:Work>
  </rdf:RDF>
 </metadata>
 <defs>
  <style type="text/css">*{stroke-linejoin: round; stroke-linecap: butt}</style>
 </defs>
 <g id="figure_1">
  <g id="patch_1">
   <path d="M 0 576 
L 720 576 
L 720 0 
L 0 0 
z
" style="fill: #ffffff"/>
  </g>
  <g id="axes_1">
   <g id="patch_2">
    <path d="M 90 512.64 
L 648 512.64 
L 648 69.12 
L 90 69.12 
z
" style="fill: #ffffff"/>
   </g>
   <g id="patch_3">
    <path d="M 471.629557 125.859301 
C 465.219795 113.060765 455.684826 102.015387 445.124618 95.155783 
C 434.564409 88.29618 423.841155 86.182408 415.316527 89.28 
C 406.791899 92.377592 401.161896 100.433645 399.666459 111.673905 
C 398.171023 122.914166 400.932251 136.420917 407.342013 149.219453 
C 413.751775 162.017989 423.286743 173.063367 433.846952 179.922971 
C 444.40716 186.782574 455.130415 188.896347 463.655043 185.798754 
C 472.179671 182.701162 477.809674 174.64511 479.30511 163.404849 
C 480.800546 152.164589 478.039319 138.657838 471.629557 125.859301 
L 471.629557 125.859301 
z
" clip-path="url(#p869c20ca08)" style="fill: none; stroke: #000000; stroke-linejoin: miter"/>
   </g>
   <g id="patch_4">
    <path d="M 294.404693 268.426587 
C 276.33344 254.562543 254.526204 245.495366 233.785776 243.221997 
C 213.045349 240.948627 195.065093 245.654676 183.804952 256.30369 
C 172.54481 266.952704 168.924124 282.675239 173.740308 300.008588 
C 178.556491 317.341938 191.416324 334.870911 209.487577 348.734955 
C 227.55883 362.598999 249.366065 371.666176 270.106493 373.939545 
C 290.846921 376.212915 308.827177 371.506866 320.087318 360.857852 
C 331.347459 350.208838 334.968145 334.486303 330.151962 317.152954 
C 325.335778 299.819604 312.475946 282.290631 294.404693 268.426587 
L 294.404693 268.426587 
z
" clip-path="url(#p869c20ca08)" style="fill: none; stroke: #000000; stroke-linejoin: miter"/>
   </g>
   <g id="patch_5">
    <path d="M 497.889411 343.192105 
C 476.878605 352.744121 459.574643 366.453212 449.788522 381.300109 
C 440.002401 396.147005 438.533114 410.919525 445.704255 422.364191 
C 452.875396 433.808857 468.101472 440.991264 488.029118 442.32957 
C 507.956764 443.667876 530.958974 439.052814 551.96978 429.500797 
C 572.980586 419.948781 590.284548 406.239691 600.070669 391.392794 
C 609.85679 376.545898 611.326077 361.773378 604.154936 350.328712 
C 596.983795 338.884045 581.757719 331.701638 561.830073 330.363333 
C 541.902428 329.025027 518.900217 333.640089 497.889411 343.192105 
L 497.889411 343.192105 
z
" clip-path="url(#p869c20ca08)" style="fill: none; stroke: #000000; stroke-linejoin: miter"/>
   </g>
   <g id="patch_6">
    <path d="M 389.845251 204.904175 
C 372.619842 195.817904 353.263527 191.00077 336.039311 191.513693 
C 318.815095 192.026615 305.129258 197.827715 297.995948 207.639369 
C 290.862637 217.451022 290.864256 230.47215 298.000447 243.835001 
C 305.136638 257.197852 318.824764 269.811408 336.050174 278.89768 
C 353.275583 287.983951 372.631898 292.801085 389.856114 292.288162 
C 407.08033 291.77524 420.766166 285.97414 427.899477 276.162486 
C 435.032788 266.350833 435.031169 253.329705 427.894978 239.966854 
C 420.758786 226.604003 407.07066 213.990447 389.845251 204.904175 
L 389.845251 204.904175 
z
" clip-path="url(#p869c20ca08)" style="fill: none; stroke: #000000; stroke-linejoin: miter"/>
   </g>
   <g id="patch_7">
    <path d="M 249.174722 390.429425 
C 227.973379 389.014487 207.523147 388.900886 192.327951 390.113641 
C 177.132755 391.326396 168.433216 393.766491 168.145307 396.896523 
C 167.857398 400.026555 176.004625 403.590971 190.792656 406.804749 
C 205.580687 410.018528 225.802144 412.619278 247.003488 414.034216 
C 268.204831 415.449153 288.655063 415.562754 303.850259 414.349999 
C 319.045455 413.137244 327.744994 410.69715 328.032903 407.567118 
C 328.320812 404.437086 320.173585 400.87267 305.385554 397.658891 
C 290.597523 394.445113 270.376065 391.844362 249.174722 390.429425 
L 249.174722 390.429425 
z
" clip-path="url(#p869c20ca08)" style="fill: none; stroke: #000000; stroke-linejoin: miter"/>
   </g>
   <g id="patch_8">
    <path d="M 480.668811 226.180285 
C 467.130546 236.281475 458.099348 249.815674 455.564234 263.802133 
C 453.029119 277.788592 457.197069 291.085379 467.15014 300.76403 
C 477.103211 310.442682 492.02878 315.712978 508.639663 315.414199 
C 525.250546 315.11542 542.190539 309.271958 555.728803 299.170769 
C 569.267068 289.06958 578.298266 275.53538 580.833381 261.548921 
C 583.368495 247.562462 579.200546 234.265675 569.247474 224.587024 
C 559.294403 214.908373 544.368834 209.638076 527.757951 209.936855 
C 511.147068 210.235635 494.207076 216.079096 480.668811 226.180285 
L 480.668811 226.180285 
z
" clip-path="url(#p869c20ca08)" style="fill: none; stroke: #000000; stroke-linejoin: miter"/>
   </g>
   <g id="patch_9">
    <path d="M 396.957038 140.122857 
C 384.1903 137.386447 370.9632 138.0843 360.188853 142.062722 
C 349.414506 146.041144 341.97259 152.975315 339.502101 161.338063 
C 337.031612 169.700811 339.734253 178.809356 347.014801 186.657646 
C 354.295348 194.505935 365.559377 200.453192 378.326115 203.189602 
C 391.092853 205.926012 404.319953 205.228159 415.0943 201.249737 
C 425.868647 197.271315 433.310563 190.337144 435.781052 181.974396 
C 438.251541 173.611648 435.5489 164.503103 428.268352 156.654813 
C 420.987805 148.806523 409.723776 142.859267 396.957038 140.122857 
L 396.957038 140.122857 
z
" clip-path="url(#p869c20ca08)" style="fill: none; stroke: #000000; stroke-linejoin: miter"/>
   </g>
   <g id="patch_10">
    <path d="M 220.259642 379.98439 
C 223.19446 364.324428 220.491737 348.553479 212.746714 336.144909 
C 205.001692 323.73634 192.846718 315.703256 178.958785 313.81485 
C 165.070851 311.926444 150.583846 316.336896 138.688364 326.074856 
C 126.792883 335.812816 118.460137 350.083223 115.525319 365.743184 
C 112.590501 381.403145 115.293225 397.174095 123.038247 409.582664 
C 130.783269 421.991233 142.938243 430.024318 156.826177 431.912724 
C 170.71411 433.80113 185.201115 429.390677 197.096597 419.652717 
C 208.992079 409.914757 217.324824 395.644351 220.259642 379.98439 
L 220.259642 379.98439 
z
" clip-path="url(#p869c20ca08)" style="fill: none; stroke: #000000; stroke-linejoin: miter"/>
   </g>
   <g id="patch_11">
    <path d="M 594.975104 464.423258 
C 608.479226 451.523381 618.430173 436.870064 622.636364 423.69053 
C 626.842554 410.510996 624.960572 399.881295 617.404902 394.142496 
C 609.849232 388.403697 597.23676 388.024348 582.345239 393.087994 
C 567.453717 398.151641 551.498971 408.24486 537.994849 421.144737 
C 524.490727 434.044614 514.53978 448.69793 510.333589 461.877464 
C 506.127399 475.056998 508.009381 485.686699 515.565051 491.425498 
C 523.120721 497.164297 535.733192 497.543647 550.624714 492.48 
C 565.516236 487.416353 581.470982 477.323134 594.975104 464.423258 
L 594.975104 464.423258 
z
" clip-path="url(#p869c20ca08)" style="fill: none; stroke: #000000; stroke-linejoin: miter"/>
   </g>
   <g id="PathCollection_1">
    <defs>
     <path id="C0_0_bdcbf90ee0" d="M 0 3.162278 
C 0.838646 3.162278 1.643056 2.82908 2.236068 2.236068 
C 2.82908 1.643056 3.162278 0.838646 3.162278 -0 
C 3.162278 -0.838646 2.82908 -1.643056 2.236068 -2.236068 
C 1.643056 -2.82908 0.838646 -3.162278 0 -3.162278 
C -0.838646 -3.162278 -1.643056 -2.82908 -2.236068 -2.236068 
C -2.82908 -1.643056 -3.162278 -0.838646 -3.162278 0 
C -3.162278 0.838646 -2.82908 1.643056 -2.236068 2.236068 
C -1.643056 2.82908 -0.838646 3.162278 0 3.162278 
z
"/>
    </defs>
    <g clip-path="url(#p869c20ca08)">
     <use xlink:href="#C0_0_bdcbf90ee0" x="218.823547" y="392.054835" style="fill: #0047ab; stroke: #0047ab"/>
    </g>
    <g clip-path="url(#p869c20ca08)">
     <use xlink:href="#C0_0_bdcbf90ee0" x="156.966088" y="336.944086" style="fill: #dd0000; stroke: #dd0000"/>
    </g>
    <g clip-path="url(#p869c20ca08)">
     <use xlink:href="#C0_0_bdcbf90ee0" x="162.974693" y="386.745103" style="fill: #002e5d; stroke: #002e5d"/>
    </g>
    <g clip-path="url(#p869c20ca08)">
     <use xlink:href="#C0_0_bdcbf90ee0" x="175.284395" y="389.78944" style="fill: #001a70; stroke: #001a70"/>
    </g>
    <g clip-path="url(#p869c20ca08)">
     <use xlink:href="#C0_0_bdcbf90ee0" x="142.267713" y="334.020198" style="fill: #ff9000; stroke: #ff9000"/>
    </g>
    <g clip-path="url(#p869c20ca08)">
     <use xlink:href="#C0_0_bdcbf90ee0" x="163.932741" y="345.319191" style="fill: #00a651; stroke: #00a651"/>
    </g>
    <g clip-path="url(#p869c20ca08)">
     <use xlink:href="#C0_0_bdcbf90ee0" x="241.758345" y="318.834372" style="fill: #8b1c62; stroke: #8b1c62"/>
    </g>
    <g clip-path="url(#p869c20ca08)">
     <use xlink:href="#C0_0_bdcbf90ee0" x="261.636718" y="273.997754" style="fill: #4c4c4c; stroke: #4c4c4c"/>
    </g>
    <g clip-path="url(#p869c20ca08)">
     <use xlink:href="#C0_0_bdcbf90ee0" x="163.650786" y="388.742785" style="fill: #0047ab; stroke: #0047ab"/>
    </g>
    <g clip-path="url(#p869c20ca08)">
     <use xlink:href="#C0_0_bdcbf90ee0" x="185.629911" y="262.336335" style="fill: #dd0000; stroke: #dd0000"/>
    </g>
    <g clip-path="url(#p869c20ca08)">
     <use xlink:href="#C0_0_bdcbf90ee0" x="216.959253" y="321.029259" style="fill: #002e5d; stroke: #002e5d"/>
    </g>
    <g clip-path="url(#p869c20ca08)">
     <use xlink:href="#C0_0_bdcbf90ee0" x="209.470445" y="303.366894" style="fill: #ff9000; stroke: #ff9000"/>
    </g>
    <g clip-path="url(#p869c20ca08)">
     <use xlink:href="#C0_0_bdcbf90ee0" x="212.330961" y="406.000593" style="fill: #00a651; stroke: #00a651"/>
    </g>
    <g clip-path="url(#p869c20ca08)">
     <use xlink:href="#C0_0_bdcbf90ee0" x="115.363636" y="371.763316" style="fill: #8b1c62; stroke: #8b1c62"/>
    </g>
    <g clip-path="url(#p869c20ca08)">
     <use xlink:href="#C0_0_bdcbf90ee0" x="201.752427" y="378.197452" style="fill: #4c4c4c; stroke: #4c4c4c"/>
    </g>
    <g clip-path="url(#p869c20ca08)">
     <use xlink:href="#C0_0_bdcbf90ee0" x="180.855014" y="368.617112" style="fill: #ff9000; stroke: #ff9000"/>
    </g>
    <g clip-path="url(#p869c20ca08)">
     <use xlink:href="#C0_0_bdcbf90ee0" x="188.462489" y="369.632367" style="fill: #4c4c4c; stroke: #4c4c4c"/>
    </g>
    <g clip-path="url(#p869c20ca08)">
     <use xlink:href="#C0_0_bdcbf90ee0" x="207.921379" y="350.40014" style="fill: #dd0000; stroke: #dd0000"/>
    </g>
    <g clip-path="url(#p869c20ca08)">
     <use xlink:href="#C0_0_bdcbf90ee0" x="318.432056" y="319.222168" style="fill: #4c4c4c; stroke: #4c4c4c"/>
    </g>
    <g clip-path="url(#p869c20ca08)">
     <use xlink:href="#C0_0_bdcbf90ee0" x="202.659446" y="372.525839" style="fill: #0047ab; stroke: #0047ab"/>
    </g>
    <g clip-path="url(#p869c20ca08)">
     <use xlink:href="#C0_0_bdcbf90ee0" x="282.267106" y="322.106571" style="fill: #dd0000; stroke: #dd0000"/>
    </g>
    <g clip-path="url(#p869c20ca08)">
     <use xlink:href="#C0_0_bdcbf90ee0" x="120.309531" y="420.391014" style="fill: #002e5d; stroke: #002e5d"/>
    </g>
    <g clip-path="url(#p869c20ca08)">
     <use xlink:href="#C0_0_bdcbf90ee0" x="230.61969" y="322.199405" style="fill: #ff9000; stroke: #ff9000"/>
    </g>
    <g clip-path="url(#p869c20ca08)">
     <use xlink:href="#C0_0_bdcbf90ee0" x="226.192218" y="402.666151" style="fill: #8b1c62; stroke: #8b1c62"/>
    </g>
    <g clip-path="url(#p869c20ca08)">
     <use xlink:href="#C0_0_bdcbf90ee0" x="185.06945" y="413.078783" style="fill: #4c4c4c; stroke: #4c4c4c"/>
    </g>
    <g clip-path="url(#p869c20ca08)">
     <use xlink:href="#C0_0_bdcbf90ee0" x="168.302944" y="314.65417" style="fill: #ff9000; stroke: #ff9000"/>
    </g>
    <g clip-path="url(#p869c20ca08)">
     <use xlink:href="#C0_0_bdcbf90ee0" x="313.560114" y="205.597729" style="fill: #4c4c4c; stroke: #4c4c4c"/>
    </g>
    <g clip-path="url(#p869c20ca08)">
     <use xlink:href="#C0_0_bdcbf90ee0" x="207.936441" y="318.323305" style="fill: #0047ab; stroke: #0047ab"/>
    </g>
    <g clip-path="url(#p869c20ca08)">
     <use xlink:href="#C0_0_bdcbf90ee0" x="186.468632" y="370.06111" style="fill: #dd0000; stroke: #dd0000"/>
    </g>
    <g clip-path="url(#p869c20ca08)">
     <use xlink:href="#C0_0_bdcbf90ee0" x="294.580164" y="346.962663" style="fill: #ff9000; stroke: #ff9000"/>
    </g>
    <g clip-path="url(#p869c20ca08)">
     <use xlink:href="#C0_0_bdcbf90ee0" x="138.751293" y="351.903165" style="fill: #0047ab; stroke: #0047ab"/>
    </g>
    <g clip-path="url(#p869c20ca08)">
     <use xlink:href="#C0_0_bdcbf90ee0" x="277.224854" y="343.181055" style="fill: #dd0000; stroke: #dd0000"/>
    </g>
    <g clip-path="url(#p869c20ca08)">
     <use xlink:href="#C0_0_bdcbf90ee0" x="291.483793" y="401.221575" style="fill: #0047ab; stroke: #0047ab"/>
    </g>
    <g clip-path="url(#p869c20ca08)">
     <use xlink:href="#C0_0_bdcbf90ee0" x="290.490418" y="327.601516" style="fill: #0047ab; stroke: #0047ab"/>
    </g>
    <g clip-path="url(#p869c20ca08)">
     <use xlink:href="#C0_0_bdcbf90ee0" x="143.056516" y="426.220277" style="fill: #0047ab; stroke: #0047ab"/>
    </g>
    <g clip-path="url(#p869c20ca08)">
     <use xlink:href="#C0_0_bdcbf90ee0" x="185.908228" y="395.406394" style="fill: #8b1c62; stroke: #8b1c62"/>
    </g>
    <g clip-path="url(#p869c20ca08)">
     <use xlink:href="#C0_0_bdcbf90ee0" x="258.294256" y="232.388726" style="fill: #0047ab; stroke: #0047ab"/>
    </g>
    <g clip-path="url(#p869c20ca08)">
     <use xlink:href="#C0_0_bdcbf90ee0" x="452.518745" y="115.72467" style="fill: #0047ab; stroke: #0047ab"/>
    </g>
    <g clip-path="url(#p869c20ca08)">
     <use xlink:href="#C0_0_bdcbf90ee0" x="434.40761" y="123.637584" style="fill: #dd0000; stroke: #dd0000"/>
    </g>
    <g clip-path="url(#p869c20ca08)">
     <use xlink:href="#C0_0_bdcbf90ee0" x="390.149563" y="206.752963" style="fill: #002e5d; stroke: #002e5d"/>
    </g>
    <g clip-path="url(#p869c20ca08)">
     <use xlink:href="#C0_0_bdcbf90ee0" x="402.051027" y="137.532023" style="fill: #001a70; stroke: #001a70"/>
    </g>
    <g clip-path="url(#p869c20ca08)">
     <use xlink:href="#C0_0_bdcbf90ee0" x="421.347591" y="140.854222" style="fill: #ff9000; stroke: #ff9000"/>
    </g>
    <g clip-path="url(#p869c20ca08)">
     <use xlink:href="#C0_0_bdcbf90ee0" x="439.212364" y="125.22254" style="fill: #00a651; stroke: #00a651"/>
    </g>
    <g clip-path="url(#p869c20ca08)">
     <use xlink:href="#C0_0_bdcbf90ee0" x="417.331049" y="170.734852" style="fill: #8b1c62; stroke: #8b1c62"/>
    </g>
    <g clip-path="url(#p869c20ca08)">
     <use xlink:href="#C0_0_bdcbf90ee0" x="460.453527" y="156.021304" style="fill: #4c4c4c; stroke: #4c4c4c"/>
    </g>
    <g clip-path="url(#p869c20ca08)">
     <use xlink:href="#C0_0_bdcbf90ee0" x="457.890335" y="124.002275" style="fill: #0047ab; stroke: #0047ab"/>
    </g>
    <g clip-path="url(#p869c20ca08)">
     <use xlink:href="#C0_0_bdcbf90ee0" x="364.044775" y="170.149745" style="fill: #002e5d; stroke: #002e5d"/>
    </g>
    <g clip-path="url(#p869c20ca08)">
     <use xlink:href="#C0_0_bdcbf90ee0" x="396.948621" y="157.152035" style="fill: #001a70; stroke: #001a70"/>
    </g>
    <g clip-path="url(#p869c20ca08)">
     <use xlink:href="#C0_0_bdcbf90ee0" x="434.506191" y="160.287392" style="fill: #a0a0a0; stroke: #a0a0a0"/>
    </g>
    <g clip-path="url(#p869c20ca08)">
     <use xlink:href="#C0_0_bdcbf90ee0" x="435.037225" y="170.691321" style="fill: #0047ab; stroke: #0047ab"/>
    </g>
    <g clip-path="url(#p869c20ca08)">
     <use xlink:href="#C0_0_bdcbf90ee0" x="416.966298" y="174.359472" style="fill: #001a70; stroke: #001a70"/>
    </g>
    <g clip-path="url(#p869c20ca08)">
     <use xlink:href="#C0_0_bdcbf90ee0" x="383.110435" y="179.744938" style="fill: #a0a0a0; stroke: #a0a0a0"/>
    </g>
    <g clip-path="url(#p869c20ca08)">
     <use xlink:href="#C0_0_bdcbf90ee0" x="427.415609" y="97.608493" style="fill: #001a70; stroke: #001a70"/>
    </g>
    <g clip-path="url(#p869c20ca08)">
     <use xlink:href="#C0_0_bdcbf90ee0" x="432.703724" y="117.191381" style="fill: #4c4c4c; stroke: #4c4c4c"/>
    </g>
    <g clip-path="url(#p869c20ca08)">
     <use xlink:href="#C0_0_bdcbf90ee0" x="342.830125" y="171.703807" style="fill: #dd0000; stroke: #dd0000"/>
    </g>
    <g clip-path="url(#p869c20ca08)">
     <use xlink:href="#C0_0_bdcbf90ee0" x="546.862799" y="380.621272" style="fill: #0047ab; stroke: #0047ab"/>
    </g>
    <g clip-path="url(#p869c20ca08)">
     <use xlink:href="#C0_0_bdcbf90ee0" x="490.896804" y="365.183766" style="fill: #dd0000; stroke: #dd0000"/>
    </g>
    <g clip-path="url(#p869c20ca08)">
     <use xlink:href="#C0_0_bdcbf90ee0" x="521.129421" y="434.18919" style="fill: #002e5d; stroke: #002e5d"/>
    </g>
    <g clip-path="url(#p869c20ca08)">
     <use xlink:href="#C0_0_bdcbf90ee0" x="558.264936" y="476.253512" style="fill: #001a70; stroke: #001a70"/>
    </g>
    <g clip-path="url(#p869c20ca08)">
     <use xlink:href="#C0_0_bdcbf90ee0" x="501.027135" y="389.403931" style="fill: #ff9000; stroke: #ff9000"/>
    </g>
    <g clip-path="url(#p869c20ca08)">
     <use xlink:href="#C0_0_bdcbf90ee0" x="565.313855" y="380.400574" style="fill: #00a651; stroke: #00a651"/>
    </g>
    <g clip-path="url(#p869c20ca08)">
     <use xlink:href="#C0_0_bdcbf90ee0" x="487.699458" y="444.534985" style="fill: #8b1c62; stroke: #8b1c62"/>
    </g>
    <g clip-path="url(#p869c20ca08)">
     <use xlink:href="#C0_0_bdcbf90ee0" x="574.67314" y="419.889372" style="fill: #0047ab; stroke: #0047ab"/>
    </g>
    <g clip-path="url(#p869c20ca08)">
     <use xlink:href="#C0_0_bdcbf90ee0" x="501.28367" y="335.908057" style="fill: #dd0000; stroke: #dd0000"/>
    </g>
    <g clip-path="url(#p869c20ca08)">
     <use xlink:href="#C0_0_bdcbf90ee0" x="596.600537" y="393.924349" style="fill: #002e5d; stroke: #002e5d"/>
    </g>
    <g clip-path="url(#p869c20ca08)">
     <use xlink:href="#C0_0_bdcbf90ee0" x="543.917727" y="387.033233" style="fill: #001a70; stroke: #001a70"/>
    </g>
    <g clip-path="url(#p869c20ca08)">
     <use xlink:href="#C0_0_bdcbf90ee0" x="514.965568" y="402.970121" style="fill: #ff9000; stroke: #ff9000"/>
    </g>
    <g clip-path="url(#p869c20ca08)">
     <use xlink:href="#C0_0_bdcbf90ee0" x="591.797024" y="374.53735" style="fill: #00a651; stroke: #00a651"/>
    </g>
    <g clip-path="url(#p869c20ca08)">
     <use xlink:href="#C0_0_bdcbf90ee0" x="399.946087" y="407.661411" style="fill: #8b1c62; stroke: #8b1c62"/>
    </g>
    <g clip-path="url(#p869c20ca08)">
     <use xlink:href="#C0_0_bdcbf90ee0" x="531.197628" y="365.481032" style="fill: #0047ab; stroke: #0047ab"/>
    </g>
    <g clip-path="url(#p869c20ca08)">
     <use xlink:href="#C0_0_bdcbf90ee0" x="491.475371" y="440.300457" style="fill: #dd0000; stroke: #dd0000"/>
    </g>
    <g clip-path="url(#p869c20ca08)">
     <use xlink:href="#C0_0_bdcbf90ee0" x="578.451608" y="405.527396" style="fill: #002e5d; stroke: #002e5d"/>
    </g>
    <g clip-path="url(#p869c20ca08)">
     <use xlink:href="#C0_0_bdcbf90ee0" x="491.212352" y="409.384507" style="fill: #001a70; stroke: #001a70"/>
    </g>
    <g clip-path="url(#p869c20ca08)">
     <use xlink:href="#C0_0_bdcbf90ee0" x="457.246345" y="303.848185" style="fill: #ff9000; stroke: #ff9000"/>
    </g>
    <g clip-path="url(#p869c20ca08)">
     <use xlink:href="#C0_0_bdcbf90ee0" x="546.072148" y="374.906393" style="fill: #0047ab; stroke: #0047ab"/>
    </g>
    <g clip-path="url(#p869c20ca08)">
     <use xlink:href="#C0_0_bdcbf90ee0" x="547.527619" y="334.555278" style="fill: #dd0000; stroke: #dd0000"/>
    </g>
    <g clip-path="url(#p869c20ca08)">
     <use xlink:href="#C0_0_bdcbf90ee0" x="536.399219" y="463.679086" style="fill: #002e5d; stroke: #002e5d"/>
    </g>
    <g clip-path="url(#p869c20ca08)">
     <use xlink:href="#C0_0_bdcbf90ee0" x="563.34407" y="449.293602" style="fill: #0047ab; stroke: #0047ab"/>
    </g>
    <g clip-path="url(#p869c20ca08)">
     <use xlink:href="#C0_0_bdcbf90ee0" x="593.675853" y="434.067814" style="fill: #dd0000; stroke: #dd0000"/>
    </g>
    <g clip-path="url(#p869c20ca08)">
     <use xlink:href="#C0_0_bdcbf90ee0" x="540.245475" y="392.29778" style="fill: #dd0000; stroke: #dd0000"/>
    </g>
    <g clip-path="url(#p869c20ca08)">
     <use xlink:href="#C0_0_bdcbf90ee0" x="557.969144" y="399.422223" style="fill: #0047ab; stroke: #0047ab"/>
    </g>
    <g clip-path="url(#p869c20ca08)">
     <use xlink:href="#C0_0_bdcbf90ee0" x="519.652742" y="300.067582" style="fill: #dd0000; stroke: #dd0000"/>
    </g>
    <g clip-path="url(#p869c20ca08)">
     <use xlink:href="#C0_0_bdcbf90ee0" x="533.721172" y="472.838584" style="fill: #ff9000; stroke: #ff9000"/>
    </g>
    <g clip-path="url(#p869c20ca08)">
     <use xlink:href="#C0_0_bdcbf90ee0" x="486.836305" y="296.61842" style="fill: #a0a0a0; stroke: #a0a0a0"/>
    </g>
    <g clip-path="url(#p869c20ca08)">
     <use xlink:href="#C0_0_bdcbf90ee0" x="568.410631" y="390.793696" style="fill: #0047ab; stroke: #0047ab"/>
    </g>
    <g clip-path="url(#p869c20ca08)">
     <use xlink:href="#C0_0_bdcbf90ee0" x="539.704997" y="359.308813" style="fill: #0047ab; stroke: #0047ab"/>
    </g>
    <g clip-path="url(#p869c20ca08)">
     <use xlink:href="#C0_0_bdcbf90ee0" x="536.685331" y="486.833733" style="fill: #dd0000; stroke: #dd0000"/>
    </g>
    <g clip-path="url(#p869c20ca08)">
     <use xlink:href="#C0_0_bdcbf90ee0" x="541.747895" y="452.527936" style="fill: #0047ab; stroke: #0047ab"/>
    </g>
    <g clip-path="url(#p869c20ca08)">
     <use xlink:href="#C0_0_bdcbf90ee0" x="601.771891" y="428.034826" style="fill: #0047ab; stroke: #0047ab"/>
    </g>
    <g clip-path="url(#p869c20ca08)">
     <use xlink:href="#C0_0_bdcbf90ee0" x="581.870341" y="440.926278" style="fill: #dd0000; stroke: #dd0000"/>
    </g>
    <g clip-path="url(#p869c20ca08)">
     <use xlink:href="#C0_0_bdcbf90ee0" x="541.065977" y="392.224102" style="fill: #002e5d; stroke: #002e5d"/>
    </g>
    <g clip-path="url(#p869c20ca08)">
     <use xlink:href="#C0_0_bdcbf90ee0" x="612.454257" y="440.990161" style="fill: #0047ab; stroke: #0047ab"/>
    </g>
    <g clip-path="url(#p869c20ca08)">
     <use xlink:href="#C0_0_bdcbf90ee0" x="433.043137" y="132.792007" style="fill: #dd0000; stroke: #dd0000"/>
    </g>
    <g clip-path="url(#p869c20ca08)">
     <use xlink:href="#C0_0_bdcbf90ee0" x="337.994193" y="278.001968" style="fill: #001a70; stroke: #001a70"/>
    </g>
    <g clip-path="url(#p869c20ca08)">
     <use xlink:href="#C0_0_bdcbf90ee0" x="346.788828" y="243.732048" style="fill: #dd0000; stroke: #dd0000"/>
    </g>
    <g clip-path="url(#p869c20ca08)">
     <use xlink:href="#C0_0_bdcbf90ee0" x="365.074382" y="215.893947" style="fill: #00a651; stroke: #00a651"/>
    </g>
    <g clip-path="url(#p869c20ca08)">
     <use xlink:href="#C0_0_bdcbf90ee0" x="362.467837" y="247.472833" style="fill: #00a651; stroke: #00a651"/>
    </g>
    <g clip-path="url(#p869c20ca08)">
     <use xlink:href="#C0_0_bdcbf90ee0" x="399.06195" y="238.95254" style="fill: #00a651; stroke: #00a651"/>
    </g>
    <g clip-path="url(#p869c20ca08)">
     <use xlink:href="#C0_0_bdcbf90ee0" x="376.389745" y="171.560288" style="fill: #ff9000; stroke: #ff9000"/>
    </g>
    <g clip-path="url(#p869c20ca08)">
     <use xlink:href="#C0_0_bdcbf90ee0" x="413.992652" y="173.648685" style="fill: #001a70; stroke: #001a70"/>
    </g>
    <g clip-path="url(#p869c20ca08)">
     <use xlink:href="#C0_0_bdcbf90ee0" x="374.652503" y="140.755518" style="fill: #ff9000; stroke: #ff9000"/>
    </g>
    <g clip-path="url(#p869c20ca08)">
     <use xlink:href="#C0_0_bdcbf90ee0" x="520.313255" y="239.791423" style="fill: #0047ab; stroke: #0047ab"/>
    </g>
    <g clip-path="url(#p869c20ca08)">
     <use xlink:href="#C0_0_bdcbf90ee0" x="527.130042" y="235.893206" style="fill: #dd0000; stroke: #dd0000"/>
    </g>
    <g clip-path="url(#p869c20ca08)">
     <use xlink:href="#C0_0_bdcbf90ee0" x="529.533891" y="241.999816" style="fill: #002e5d; stroke: #002e5d"/>
    </g>
    <g clip-path="url(#p869c20ca08)">
     <use xlink:href="#C0_0_bdcbf90ee0" x="500.891002" y="269.773708" style="fill: #001a70; stroke: #001a70"/>
    </g>
    <g clip-path="url(#p869c20ca08)">
     <use xlink:href="#C0_0_bdcbf90ee0" x="546.523197" y="222.133583" style="fill: #4c4c4c; stroke: #4c4c4c"/>
    </g>
    <g clip-path="url(#p869c20ca08)">
     <use xlink:href="#C0_0_bdcbf90ee0" x="523.826705" y="289.813692" style="fill: #dd0000; stroke: #dd0000"/>
    </g>
    <g clip-path="url(#p869c20ca08)">
     <use xlink:href="#C0_0_bdcbf90ee0" x="520.902426" y="227.317539" style="fill: #002e5d; stroke: #002e5d"/>
    </g>
    <g clip-path="url(#p869c20ca08)">
     <use xlink:href="#C0_0_bdcbf90ee0" x="415.686694" y="263.655437" style="fill: #4c4c4c; stroke: #4c4c4c"/>
    </g>
    <g clip-path="url(#p869c20ca08)">
     <use xlink:href="#C0_0_bdcbf90ee0" x="585.506503" y="285.672107" style="fill: #0047ab; stroke: #0047ab"/>
    </g>
    <g clip-path="url(#p869c20ca08)">
     <use xlink:href="#C0_0_bdcbf90ee0" x="535.519657" y="267.674822" style="fill: #dd0000; stroke: #dd0000"/>
    </g>
    <g clip-path="url(#p869c20ca08)">
     <use xlink:href="#C0_0_bdcbf90ee0" x="493.992468" y="248.836718" style="fill: #002e5d; stroke: #002e5d"/>
    </g>
    <g clip-path="url(#p869c20ca08)">
     <use xlink:href="#C0_0_bdcbf90ee0" x="529.097508" y="278.788595" style="fill: #0047ab; stroke: #0047ab"/>
    </g>
    <g clip-path="url(#p869c20ca08)">
     <use xlink:href="#C0_0_bdcbf90ee0" x="537.903759" y="247.884475" style="fill: #002e5d; stroke: #002e5d"/>
    </g>
    <g clip-path="url(#p869c20ca08)">
     <use xlink:href="#C0_0_bdcbf90ee0" x="482.728085" y="186.446723" style="fill: #001a70; stroke: #001a70"/>
    </g>
    <g clip-path="url(#p869c20ca08)">
     <use xlink:href="#C0_0_bdcbf90ee0" x="537.267791" y="264.288756" style="fill: #a0a0a0; stroke: #a0a0a0"/>
    </g>
    <g clip-path="url(#p869c20ca08)">
     <use xlink:href="#C0_0_bdcbf90ee0" x="291.614949" y="409.215947" style="fill: #0047ab; stroke: #0047ab"/>
    </g>
    <g clip-path="url(#p869c20ca08)">
     <use xlink:href="#C0_0_bdcbf90ee0" x="457.236264" y="245.081329" style="fill: #0047ab; stroke: #0047ab"/>
    </g>
   </g>
   <g id="matplotlib.axis_1">
    <g id="xtick_1">
     <g id="line2d_1">
      <defs>
       <path id="m25a32da915" d="M 0 0 
L 0 3.5 
" style="stroke: #000000; stroke-width: 0.8"/>
      </defs>
      <g>
       <use xlink:href="#m25a32da915" x="145.924633" y="512.64" style="stroke: #000000; stroke-width: 0.8"/>
      </g>
     </g>
     <g id="text_1">
      <!-- −0.4 -->
      <g transform="translate(133.783226 527.238438) scale(0.1 -0.1)">
       <defs>
        <path id="DejaVuSans-2212" d="M 678 2272 
L 4684 2272 
L 4684 1741 
L 678 1741 
L 678 2272 
z
" transform="scale(0.015625)"/>
        <path id="DejaVuSans-30" d="M 2034 4250 
Q 1547 4250 1301 3770 
Q 1056 3291 1056 2328 
Q 1056 1369 1301 889 
Q 1547 409 2034 409 
Q 2525 409 2770 889 
Q 3016 1369 3016 2328 
Q 3016 3291 2770 3770 
Q 2525 4250 2034 4250 
z
M 2034 4750 
Q 2819 4750 3233 4129 
Q 3647 3509 3647 2328 
Q 3647 1150 3233 529 
Q 2819 -91 2034 -91 
Q 1250 -91 836 529 
Q 422 1150 422 2328 
Q 422 3509 836 4129 
Q 1250 4750 2034 4750 
z
" transform="scale(0.015625)"/>
        <path id="DejaVuSans-2e" d="M 684 794 
L 1344 794 
L 1344 0 
L 684 0 
L 684 794 
z
" transform="scale(0.015625)"/>
        <path id="DejaVuSans-34" d="M 2419 4116 
L 825 1625 
L 2419 1625 
L 2419 4116 
z
M 2253 4666 
L 3047 4666 
L 3047 1625 
L 3713 1625 
L 3713 1100 
L 3047 1100 
L 3047 0 
L 2419 0 
L 2419 1100 
L 313 1100 
L 313 1709 
L 2253 4666 
z
" transform="scale(0.015625)"/>
       </defs>
       <use xlink:href="#DejaVuSans-2212"/>
       <use xlink:href="#DejaVuSans-30" transform="translate(83.789062 0)"/>
       <use xlink:href="#DejaVuSans-2e" transform="translate(147.412109 0)"/>
       <use xlink:href="#DejaVuSans-34" transform="translate(179.199219 0)"/>
      </g>
     </g>
    </g>
    <g id="xtick_2">
     <g id="line2d_2">
      <g>
       <use xlink:href="#m25a32da915" x="209.17828" y="512.64" style="stroke: #000000; stroke-width: 0.8"/>
      </g>
     </g>
     <g id="text_2">
      <!-- −0.3 -->
      <g transform="translate(197.036874 527.238438) scale(0.1 -0.1)">
       <defs>
        <path id="DejaVuSans-33" d="M 2597 2516 
Q 3050 2419 3304 2112 
Q 3559 1806 3559 1356 
Q 3559 666 3084 287 
Q 2609 -91 1734 -91 
Q 1441 -91 1130 -33 
Q 819 25 488 141 
L 488 750 
Q 750 597 1062 519 
Q 1375 441 1716 441 
Q 2309 441 2620 675 
Q 2931 909 2931 1356 
Q 2931 1769 2642 2001 
Q 2353 2234 1838 2234 
L 1294 2234 
L 1294 2753 
L 1863 2753 
Q 2328 2753 2575 2939 
Q 2822 3125 2822 3475 
Q 2822 3834 2567 4026 
Q 2313 4219 1838 4219 
Q 1578 4219 1281 4162 
Q 984 4106 628 3988 
L 628 4550 
Q 988 4650 1302 4700 
Q 1616 4750 1894 4750 
Q 2613 4750 3031 4423 
Q 3450 4097 3450 3541 
Q 3450 3153 3228 2886 
Q 3006 2619 2597 2516 
z
" transform="scale(0.015625)"/>
       </defs>
       <use xlink:href="#DejaVuSans-2212"/>
       <use xlink:href="#DejaVuSans-30" transform="translate(83.789062 0)"/>
       <use xlink:href="#DejaVuSans-2e" transform="translate(147.412109 0)"/>
       <use xlink:href="#DejaVuSans-33" transform="translate(179.199219 0)"/>
      </g>
     </g>
    </g>
    <g id="xtick_3">
     <g id="line2d_3">
      <g>
       <use xlink:href="#m25a32da915" x="272.431928" y="512.64" style="stroke: #000000; stroke-width: 0.8"/>
      </g>
     </g>
     <g id="text_3">
      <!-- −0.2 -->
      <g transform="translate(260.290522 527.238438) scale(0.1 -0.1)">
       <defs>
        <path id="DejaVuSans-32" d="M 1228 531 
L 3431 531 
L 3431 0 
L 469 0 
L 469 531 
Q 828 903 1448 1529 
Q 2069 2156 2228 2338 
Q 2531 2678 2651 2914 
Q 2772 3150 2772 3378 
Q 2772 3750 2511 3984 
Q 2250 4219 1831 4219 
Q 1534 4219 1204 4116 
Q 875 4013 500 3803 
L 500 4441 
Q 881 4594 1212 4672 
Q 1544 4750 1819 4750 
Q 2544 4750 2975 4387 
Q 3406 4025 3406 3419 
Q 3406 3131 3298 2873 
Q 3191 2616 2906 2266 
Q 2828 2175 2409 1742 
Q 1991 1309 1228 531 
z
" transform="scale(0.015625)"/>
       </defs>
       <use xlink:href="#DejaVuSans-2212"/>
       <use xlink:href="#DejaVuSans-30" transform="translate(83.789062 0)"/>
       <use xlink:href="#DejaVuSans-2e" transform="translate(147.412109 0)"/>
       <use xlink:href="#DejaVuSans-32" transform="translate(179.199219 0)"/>
      </g>
     </g>
    </g>
    <g id="xtick_4">
     <g id="line2d_4">
      <g>
       <use xlink:href="#m25a32da915" x="335.685575" y="512.64" style="stroke: #000000; stroke-width: 0.8"/>
      </g>
     </g>
     <g id="text_4">
      <!-- −0.1 -->
      <g transform="translate(323.544169 527.238438) scale(0.1 -0.1)">
       <defs>
        <path id="DejaVuSans-31" d="M 794 531 
L 1825 531 
L 1825 4091 
L 703 3866 
L 703 4441 
L 1819 4666 
L 2450 4666 
L 2450 531 
L 3481 531 
L 3481 0 
L 794 0 
L 794 531 
z
" transform="scale(0.015625)"/>
       </defs>
       <use xlink:href="#DejaVuSans-2212"/>
       <use xlink:href="#DejaVuSans-30" transform="translate(83.789062 0)"/>
       <use xlink:href="#DejaVuSans-2e" transform="translate(147.412109 0)"/>
       <use xlink:href="#DejaVuSans-31" transform="translate(179.199219 0)"/>
      </g>
     </g>
    </g>
    <g id="xtick_5">
     <g id="line2d_5">
      <g>
       <use xlink:href="#m25a32da915" x="398.939223" y="512.64" style="stroke: #000000; stroke-width: 0.8"/>
      </g>
     </g>
     <g id="text_5">
      <!-- 0.0 -->
      <g transform="translate(390.98766 527.238438) scale(0.1 -0.1)">
       <use xlink:href="#DejaVuSans-30"/>
       <use xlink:href="#DejaVuSans-2e" transform="translate(63.623047 0)"/>
       <use xlink:href="#DejaVuSans-30" transform="translate(95.410156 0)"/>
      </g>
     </g>
    </g>
    <g id="xtick_6">
     <g id="line2d_6">
      <g>
       <use xlink:href="#m25a32da915" x="462.19287" y="512.64" style="stroke: #000000; stroke-width: 0.8"/>
      </g>
     </g>
     <g id="text_6">
      <!-- 0.1 -->
      <g transform="translate(454.241308 527.238438) scale(0.1 -0.1)">
       <use xlink:href="#DejaVuSans-30"/>
       <use xlink:href="#DejaVuSans-2e" transform="translate(63.623047 0)"/>
       <use xlink:href="#DejaVuSans-31" transform="translate(95.410156 0)"/>
      </g>
     </g>
    </g>
    <g id="xtick_7">
     <g id="line2d_7">
      <g>
       <use xlink:href="#m25a32da915" x="525.446518" y="512.64" style="stroke: #000000; stroke-width: 0.8"/>
      </g>
     </g>
     <g id="text_7">
      <!-- 0.2 -->
      <g transform="translate(517.494955 527.238438) scale(0.1 -0.1)">
       <use xlink:href="#DejaVuSans-30"/>
       <use xlink:href="#DejaVuSans-2e" transform="translate(63.623047 0)"/>
       <use xlink:href="#DejaVuSans-32" transform="translate(95.410156 0)"/>
      </g>
     </g>
    </g>
    <g id="xtick_8">
     <g id="line2d_8">
      <g>
       <use xlink:href="#m25a32da915" x="588.700165" y="512.64" style="stroke: #000000; stroke-width: 0.8"/>
      </g>
     </g>
     <g id="text_8">
      <!-- 0.3 -->
      <g transform="translate(580.748603 527.238438) scale(0.1 -0.1)">
       <use xlink:href="#DejaVuSans-30"/>
       <use xlink:href="#DejaVuSans-2e" transform="translate(63.623047 0)"/>
       <use xlink:href="#DejaVuSans-33" transform="translate(95.410156 0)"/>
      </g>
     </g>
    </g>
   </g>
   <g id="matplotlib.axis_2">
    <g id="ytick_1">
     <g id="line2d_9">
      <defs>
       <path id="m636dce3033" d="M 0 0 
L -3.5 0 
" style="stroke: #000000; stroke-width: 0.8"/>
      </defs>
      <g>
       <use xlink:href="#m636dce3033" x="90" y="472.623234" style="stroke: #000000; stroke-width: 0.8"/>
      </g>
     </g>
     <g id="text_9">
      <!-- −0.3 -->
      <g transform="translate(58.717187 476.422453) scale(0.1 -0.1)">
       <use xlink:href="#DejaVuSans-2212"/>
       <use xlink:href="#DejaVuSans-30" transform="translate(83.789062 0)"/>
       <use xlink:href="#DejaVuSans-2e" transform="translate(147.412109 0)"/>
       <use xlink:href="#DejaVuSans-33" transform="translate(179.199219 0)"/>
      </g>
     </g>
    </g>
    <g id="ytick_2">
     <g id="line2d_10">
      <g>
       <use xlink:href="#m636dce3033" x="90" y="418.744277" style="stroke: #000000; stroke-width: 0.8"/>
      </g>
     </g>
     <g id="text_10">
      <!-- −0.2 -->
      <g transform="translate(58.717187 422.543495) scale(0.1 -0.1)">
       <use xlink:href="#DejaVuSans-2212"/>
       <use xlink:href="#DejaVuSans-30" transform="translate(83.789062 0)"/>
       <use xlink:href="#DejaVuSans-2e" transform="translate(147.412109 0)"/>
       <use xlink:href="#DejaVuSans-32" transform="translate(179.199219 0)"/>
      </g>
     </g>
    </g>
    <g id="ytick_3">
     <g id="line2d_11">
      <g>
       <use xlink:href="#m636dce3033" x="90" y="364.865319" style="stroke: #000000; stroke-width: 0.8"/>
      </g>
     </g>
     <g id="text_11">
      <!-- −0.1 -->
      <g transform="translate(58.717187 368.664538) scale(0.1 -0.1)">
       <use xlink:href="#DejaVuSans-2212"/>
       <use xlink:href="#DejaVuSans-30" transform="translate(83.789062 0)"/>
       <use xlink:href="#DejaVuSans-2e" transform="translate(147.412109 0)"/>
       <use xlink:href="#DejaVuSans-31" transform="translate(179.199219 0)"/>
      </g>
     </g>
    </g>
    <g id="ytick_4">
     <g id="line2d_12">
      <g>
       <use xlink:href="#m636dce3033" x="90" y="310.986361" style="stroke: #000000; stroke-width: 0.8"/>
      </g>
     </g>
     <g id="text_12">
      <!-- 0.0 -->
      <g transform="translate(67.096875 314.78558) scale(0.1 -0.1)">
       <use xlink:href="#DejaVuSans-30"/>
       <use xlink:href="#DejaVuSans-2e" transform="translate(63.623047 0)"/>
       <use xlink:href="#DejaVuSans-30" transform="translate(95.410156 0)"/>
      </g>
     </g>
    </g>
    <g id="ytick_5">
     <g id="line2d_13">
      <g>
       <use xlink:href="#m636dce3033" x="90" y="257.107403" style="stroke: #000000; stroke-width: 0.8"/>
      </g>
     </g>
     <g id="text_13">
      <!-- 0.1 -->
      <g transform="translate(67.096875 260.906622) scale(0.1 -0.1)">
       <use xlink:href="#DejaVuSans-30"/>
       <use xlink:href="#DejaVuSans-2e" transform="translate(63.623047 0)"/>
       <use xlink:href="#DejaVuSans-31" transform="translate(95.410156 0)"/>
      </g>
     </g>
    </g>
    <g id="ytick_6">
     <g id="line2d_14">
      <g>
       <use xlink:href="#m636dce3033" x="90" y="203.228446" style="stroke: #000000; stroke-width: 0.8"/>
      </g>
     </g>
     <g id="text_14">
      <!-- 0.2 -->
      <g transform="translate(67.096875 207.027665) scale(0.1 -0.1)">
       <use xlink:href="#DejaVuSans-30"/>
       <use xlink:href="#DejaVuSans-2e" transform="translate(63.623047 0)"/>
       <use xlink:href="#DejaVuSans-32" transform="translate(95.410156 0)"/>
      </g>
     </g>
    </g>
    <g id="ytick_7">
     <g id="line2d_15">
      <g>
       <use xlink:href="#m636dce3033" x="90" y="149.349488" style="stroke: #000000; stroke-width: 0.8"/>
      </g>
     </g>
     <g id="text_15">
      <!-- 0.3 -->
      <g transform="translate(67.096875 153.148707) scale(0.1 -0.1)">
       <use xlink:href="#DejaVuSans-30"/>
       <use xlink:href="#DejaVuSans-2e" transform="translate(63.623047 0)"/>
       <use xlink:href="#DejaVuSans-33" transform="translate(95.410156 0)"/>
      </g>
     </g>
    </g>
    <g id="ytick_8">
     <g id="line2d_16">
      <g>
       <use xlink:href="#m636dce3033" x="90" y="95.47053" style="stroke: #000000; stroke-width: 0.8"/>
      </g>
     </g>
     <g id="text_16">
      <!-- 0.4 -->
      <g transform="translate(67.096875 99.269749) scale(0.1 -0.1)">
       <use xlink:href="#DejaVuSans-30"/>
       <use xlink:href="#DejaVuSans-2e" transform="translate(63.623047 0)"/>
       <use xlink:href="#DejaVuSans-34" transform="translate(95.410156 0)"/>
      </g>
     </g>
    </g>
   </g>
   <g id="patch_12">
    <path d="M 90 512.64 
L 90 69.12 
" style="fill: none; stroke: #000000; stroke-width: 0.8; stroke-linejoin: miter; stroke-linecap: square"/>
   </g>
   <g id="patch_13">
    <path d="M 648 512.64 
L 648 69.12 
" style="fill: none; stroke: #000000; stroke-width: 0.8; stroke-linejoin: miter; stroke-linecap: square"/>
   </g>
   <g id="patch_14">
    <path d="M 90 512.64 
L 648 512.64 
" style="fill: none; stroke: #000000; stroke-width: 0.8; stroke-linejoin: miter; stroke-linecap: square"/>
   </g>
   <g id="patch_15">
    <path d="M 90 69.12 
L 648 69.12 
" style="fill: none; stroke: #000000; stroke-width: 0.8; stroke-linejoin: miter; stroke-linecap: square"/>
   </g>
   <g id="text_17">
    <!-- 0.82 -->
    <g transform="translate(390.208851 111.646037) scale(0.1 -0.1)">
     <defs>
      <path id="DejaVuSans-38" d="M 2034 2216 
Q 1584 2216 1326 1975 
Q 1069 1734 1069 1313 
Q 1069 891 1326 650 
Q 1584 409 2034 409 
Q 2484 409 2743 651 
Q 3003 894 3003 1313 
Q 3003 1734 2745 1975 
Q 2488 2216 2034 2216 
z
M 1403 2484 
Q 997 2584 770 2862 
Q 544 3141 544 3541 
Q 544 4100 942 4425 
Q 1341 4750 2034 4750 
Q 2731 4750 3128 4425 
Q 3525 4100 3525 3541 
Q 3525 3141 3298 2862 
Q 3072 2584 2669 2484 
Q 3125 2378 3379 2068 
Q 3634 1759 3634 1313 
Q 3634 634 3220 271 
Q 2806 -91 2034 -91 
Q 1263 -91 848 271 
Q 434 634 434 1313 
Q 434 1759 690 2068 
Q 947 2378 1403 2484 
z
M 1172 3481 
Q 1172 3119 1398 2916 
Q 1625 2713 2034 2713 
Q 2441 2713 2670 2916 
Q 2900 3119 2900 3481 
Q 2900 3844 2670 4047 
Q 2441 4250 2034 4250 
Q 1625 4250 1398 4047 
Q 1172 3844 1172 3481 
z
" transform="scale(0.015625)"/>
     </defs>
     <use xlink:href="#DejaVuSans-30"/>
     <use xlink:href="#DejaVuSans-2e" transform="translate(63.623047 0)"/>
     <use xlink:href="#DejaVuSans-38" transform="translate(95.410156 0)"/>
     <use xlink:href="#DejaVuSans-32" transform="translate(159.033203 0)"/>
    </g>
   </g>
   <g id="text_18">
    <!-- 0.82 -->
    <g transform="translate(178.58185 263.269034) scale(0.1 -0.1)">
     <use xlink:href="#DejaVuSans-30"/>
     <use xlink:href="#DejaVuSans-2e" transform="translate(63.623047 0)"/>
     <use xlink:href="#DejaVuSans-38" transform="translate(95.410156 0)"/>
     <use xlink:href="#DejaVuSans-32" transform="translate(159.033203 0)"/>
    </g>
   </g>
   <g id="text_19">
    <!-- 0.78 -->
    <g transform="translate(453.086891 345.133768) scale(0.1 -0.1)">
     <defs>
      <path id="DejaVuSans-37" d="M 525 4666 
L 3525 4666 
L 3525 4397 
L 1831 0 
L 1172 0 
L 2766 4134 
L 525 4134 
L 525 4666 
z
" transform="scale(0.015625)"/>
     </defs>
     <use xlink:href="#DejaVuSans-30"/>
     <use xlink:href="#DejaVuSans-2e" transform="translate(63.623047 0)"/>
     <use xlink:href="#DejaVuSans-37" transform="translate(95.410156 0)"/>
     <use xlink:href="#DejaVuSans-38" transform="translate(159.033203 0)"/>
    </g>
   </g>
   <g id="text_20">
    <!-- 0.49 -->
    <g transform="translate(301.829522 205.008105) scale(0.1 -0.1)">
     <defs>
      <path id="DejaVuSans-39" d="M 703 97 
L 703 672 
Q 941 559 1184 500 
Q 1428 441 1663 441 
Q 2288 441 2617 861 
Q 2947 1281 2994 2138 
Q 2813 1869 2534 1725 
Q 2256 1581 1919 1581 
Q 1219 1581 811 2004 
Q 403 2428 403 3163 
Q 403 3881 828 4315 
Q 1253 4750 1959 4750 
Q 2769 4750 3195 4129 
Q 3622 3509 3622 2328 
Q 3622 1225 3098 567 
Q 2575 -91 1691 -91 
Q 1453 -91 1209 -44 
Q 966 3 703 97 
z
M 1959 2075 
Q 2384 2075 2632 2365 
Q 2881 2656 2881 3163 
Q 2881 3666 2632 3958 
Q 2384 4250 1959 4250 
Q 1534 4250 1286 3958 
Q 1038 3666 1038 3163 
Q 1038 2656 1286 2365 
Q 1534 2075 1959 2075 
z
" transform="scale(0.015625)"/>
     </defs>
     <use xlink:href="#DejaVuSans-30"/>
     <use xlink:href="#DejaVuSans-2e" transform="translate(63.623047 0)"/>
     <use xlink:href="#DejaVuSans-34" transform="translate(95.410156 0)"/>
     <use xlink:href="#DejaVuSans-39" transform="translate(159.033203 0)"/>
    </g>
   </g>
   <g id="text_21">
    <!-- 0.46 -->
    <g transform="translate(183.938065 390.68128) scale(0.1 -0.1)">
     <defs>
      <path id="DejaVuSans-36" d="M 2113 2584 
Q 1688 2584 1439 2293 
Q 1191 2003 1191 1497 
Q 1191 994 1439 701 
Q 1688 409 2113 409 
Q 2538 409 2786 701 
Q 3034 994 3034 1497 
Q 3034 2003 2786 2293 
Q 2538 2584 2113 2584 
z
M 3366 4563 
L 3366 3988 
Q 3128 4100 2886 4159 
Q 2644 4219 2406 4219 
Q 1781 4219 1451 3797 
Q 1122 3375 1075 2522 
Q 1259 2794 1537 2939 
Q 1816 3084 2150 3084 
Q 2853 3084 3261 2657 
Q 3669 2231 3669 1497 
Q 3669 778 3244 343 
Q 2819 -91 2113 -91 
Q 1303 -91 875 529 
Q 447 1150 447 2328 
Q 447 3434 972 4092 
Q 1497 4750 2381 4750 
Q 2619 4750 2861 4703 
Q 3103 4656 3366 4563 
z
" transform="scale(0.015625)"/>
     </defs>
     <use xlink:href="#DejaVuSans-30"/>
     <use xlink:href="#DejaVuSans-2e" transform="translate(63.623047 0)"/>
     <use xlink:href="#DejaVuSans-34" transform="translate(95.410156 0)"/>
     <use xlink:href="#DejaVuSans-36" transform="translate(159.033203 0)"/>
    </g>
   </g>
   <g id="text_22">
    <!-- 0.79 -->
    <g transform="translate(463.90796 221.782728) scale(0.1 -0.1)">
     <use xlink:href="#DejaVuSans-30"/>
     <use xlink:href="#DejaVuSans-2e" transform="translate(63.623047 0)"/>
     <use xlink:href="#DejaVuSans-37" transform="translate(95.410156 0)"/>
     <use xlink:href="#DejaVuSans-39" transform="translate(159.033203 0)"/>
    </g>
   </g>
   <g id="text_23">
    <!-- 0.75 -->
    <g transform="translate(347.929448 143.563435) scale(0.1 -0.1)">
     <defs>
      <path id="DejaVuSans-35" d="M 691 4666 
L 3169 4666 
L 3169 4134 
L 1269 4134 
L 1269 2991 
Q 1406 3038 1543 3061 
Q 1681 3084 1819 3084 
Q 2600 3084 3056 2656 
Q 3513 2228 3513 1497 
Q 3513 744 3044 326 
Q 2575 -91 1722 -91 
Q 1428 -91 1123 -41 
Q 819 9 494 109 
L 494 744 
Q 775 591 1075 516 
Q 1375 441 1709 441 
Q 2250 441 2565 725 
Q 2881 1009 2881 1497 
Q 2881 1984 2565 2268 
Q 2250 2553 1709 2553 
Q 1456 2553 1204 2497 
Q 953 2441 691 2322 
L 691 4666 
z
" transform="scale(0.015625)"/>
     </defs>
     <use xlink:href="#DejaVuSans-30"/>
     <use xlink:href="#DejaVuSans-2e" transform="translate(63.623047 0)"/>
     <use xlink:href="#DejaVuSans-37" transform="translate(95.410156 0)"/>
     <use xlink:href="#DejaVuSans-35" transform="translate(159.033203 0)"/>
    </g>
   </g>
   <g id="text_24">
    <!-- 0.90 -->
    <g transform="translate(111.731761 334.647537) scale(0.1 -0.1)">
     <use xlink:href="#DejaVuSans-30"/>
     <use xlink:href="#DejaVuSans-2e" transform="translate(63.623047 0)"/>
     <use xlink:href="#DejaVuSans-39" transform="translate(95.410156 0)"/>
     <use xlink:href="#DejaVuSans-30" transform="translate(159.033203 0)"/>
    </g>
   </g>
   <g id="text_25">
    <!-- 0.61 -->
    <g transform="translate(505.27683 414.6929) scale(0.1 -0.1)">
     <use xlink:href="#DejaVuSans-30"/>
     <use xlink:href="#DejaVuSans-2e" transform="translate(63.623047 0)"/>
     <use xlink:href="#DejaVuSans-36" transform="translate(95.410156 0)"/>
     <use xlink:href="#DejaVuSans-31" transform="translate(159.033203 0)"/>
    </g>
   </g>
   <g id="text_26">
    <!-- CRE-10-2025-10-09_EN -->
    <g transform="translate(298.73625 63.12) scale(0.12 -0.12)">
     <defs>
      <path id="DejaVuSans-43" d="M 4122 4306 
L 4122 3641 
Q 3803 3938 3442 4084 
Q 3081 4231 2675 4231 
Q 1875 4231 1450 3742 
Q 1025 3253 1025 2328 
Q 1025 1406 1450 917 
Q 1875 428 2675 428 
Q 3081 428 3442 575 
Q 3803 722 4122 1019 
L 4122 359 
Q 3791 134 3420 21 
Q 3050 -91 2638 -91 
Q 1578 -91 968 557 
Q 359 1206 359 2328 
Q 359 3453 968 4101 
Q 1578 4750 2638 4750 
Q 3056 4750 3426 4639 
Q 3797 4528 4122 4306 
z
" transform="scale(0.015625)"/>
      <path id="DejaVuSans-52" d="M 2841 2188 
Q 3044 2119 3236 1894 
Q 3428 1669 3622 1275 
L 4263 0 
L 3584 0 
L 2988 1197 
Q 2756 1666 2539 1819 
Q 2322 1972 1947 1972 
L 1259 1972 
L 1259 0 
L 628 0 
L 628 4666 
L 2053 4666 
Q 2853 4666 3247 4331 
Q 3641 3997 3641 3322 
Q 3641 2881 3436 2590 
Q 3231 2300 2841 2188 
z
M 1259 4147 
L 1259 2491 
L 2053 2491 
Q 2509 2491 2742 2702 
Q 2975 2913 2975 3322 
Q 2975 3731 2742 3939 
Q 2509 4147 2053 4147 
L 1259 4147 
z
" transform="scale(0.015625)"/>
      <path id="DejaVuSans-45" d="M 628 4666 
L 3578 4666 
L 3578 4134 
L 1259 4134 
L 1259 2753 
L 3481 2753 
L 3481 2222 
L 1259 2222 
L 1259 531 
L 3634 531 
L 3634 0 
L 628 0 
L 628 4666 
z
" transform="scale(0.015625)"/>
      <path id="DejaVuSans-2d" d="M 313 2009 
L 1997 2009 
L 1997 1497 
L 313 1497 
L 313 2009 
z
" transform="scale(0.015625)"/>
      <path id="DejaVuSans-5f" d="M 3263 -1063 
L 3263 -1509 
L -63 -1509 
L -63 -1063 
L 3263 -1063 
z
" transform="scale(0.015625)"/>
      <path id="DejaVuSans-4e" d="M 628 4666 
L 1478 4666 
L 3547 763 
L 3547 4666 
L 4159 4666 
L 4159 0 
L 3309 0 
L 1241 3903 
L 1241 0 
L 628 0 
L 628 4666 
z
" transform="scale(0.015625)"/>
     </defs>
     <use xlink:href="#DejaVuSans-43"/>
     <use xlink:href="#DejaVuSans-52" transform="translate(69.824219 0)"/>
     <use xlink:href="#DejaVuSans-45" transform="translate(139.306641 0)"/>
     <use xlink:href="#DejaVuSans-2d" transform="translate(202.490234 0)"/>
     <use xlink:href="#DejaVuSans-31" transform="translate(238.574219 0)"/>
     <use xlink:href="#DejaVuSans-30" transform="translate(302.197266 0)"/>
     <use xlink:href="#DejaVuSans-2d" transform="translate(365.820312 0)"/>
     <use xlink:href="#DejaVuSans-32" transform="translate(401.904297 0)"/>
     <use xlink:href="#DejaVuSans-30" transform="translate(465.527344 0)"/>
     <use xlink:href="#DejaVuSans-32" transform="translate(529.150391 0)"/>
     <use xlink:href="#DejaVuSans-35" transform="translate(592.773438 0)"/>
     <use xlink:href="#DejaVuSans-2d" transform="translate(656.396484 0)"/>
     <use xlink:href="#DejaVuSans-31" transform="translate(692.480469 0)"/>
     <use xlink:href="#DejaVuSans-30" transform="translate(756.103516 0)"/>
     <use xlink:href="#DejaVuSans-2d" transform="translate(819.726562 0)"/>
     <use xlink:href="#DejaVuSans-30" transform="translate(855.810547 0)"/>
     <use xlink:href="#DejaVuSans-39" transform="translate(919.433594 0)"/>
     <use xlink:href="#DejaVuSans-5f" transform="translate(983.056641 0)"/>
     <use xlink:href="#DejaVuSans-45" transform="translate(1033.056641 0)"/>
     <use xlink:href="#DejaVuSans-4e" transform="translate(1096.240234 0)"/>
    </g>
   </g>
  </g>
 </g>
 <defs>
  <clipPath id="p869c20ca08">
   <rect x="90" y="69.12" width="558" height="443.52"/>
  </clipPath>
 </defs>
</svg>
