<?xml version="1.0" encoding="utf-8" standalone="no"?>
<!DOCTYPE svg PUBLIC "-//W3C//DTD SVG 1.1//EN"
  "http://www.w3.org/Graphics/SVG/1.1/DTD/svg11.dtd">
<svg xmlns:xlink="http://www.w3.org/1999/xlink" width="720pt" height="576pt" viewBox="0 0 720 576" xmlns="http://www.w3.org/2000/svg" version="1.1">
 <metadata>
  <rdf:RDF xmlns:dc="http://purl.org/dc/elements/1.1/" xmlns:cc="http://creativecommons.org/ns#" xmlns:rdf="http://www.w3.org/1999/02/22-rdf-syntax-ns#">
   <cc:Work>
    <dc:type rdf:resource="http://purl.org/dc/dcmitype/StillImage"/>
    <dc:date>2025-11-03T13:02:13.148794</dc:date>
    <dc:format>image/svg+xml</dc:format>
    <dc:creator>
     <cc:Agent>
      <dc:title>Matplotlib v3.10.0, https://matplotlib.org/</dc:title>
     </cc:Agent>
    </dc:creator>
   </cc:Work>
  </rdf:RDF>
 </metadata>
 <defs>
  <style type="text/css">*{stroke-linejoin: round; stroke-linecap: butt}</style>
 </defs>
 <g id="figure_1">
  <g id="patch_1">
   <path d="M 0 576 
L 720 576 
L 720 0 
L 0 0 
z
" style="fill: #ffffff"/>
  </g>
  <g id="axes_1">
   <g id="patch_2">
    <path d="M 90 512.64 
L 648 512.64 
L 648 69.12 
L 90 69.12 
z
" style="fill: #ffffff"/>
   </g>
   <g id="patch_3">
    <path d="M 277.286062 260.637125 
C 272.186143 252.368934 262.905947 245.601205 251.489327 241.824453 
C 240.072708 238.0477 227.451783 237.57028 216.406163 240.497337 
C 205.360544 243.424394 196.792057 249.516948 192.587812 257.433184 
C 188.383567 265.34942 188.886822 274.443013 193.98674 282.711205 
C 199.086659 290.979396 208.366856 297.747125 219.783475 301.523877 
C 231.200094 305.30063 243.82102 305.77805 254.866639 302.850993 
C 265.912258 299.923936 274.480745 293.831382 278.68499 285.915146 
C 282.889236 277.99891 282.385981 268.905317 277.286062 260.637125 
L 277.286062 260.637125 
z
" clip-path="url(#p8f3ac0bc3a)" style="fill: none; stroke: #000000; stroke-linejoin: miter"/>
   </g>
   <g id="patch_4">
    <path d="M 554.847895 323.680934 
C 539.9186 310.14059 523.220946 298.279358 508.432398 290.709535 
C 493.643851 283.139712 481.971828 280.479342 475.986958 283.31434 
C 470.002088 286.149338 470.193009 294.248239 476.517672 305.827354 
C 482.842336 317.406469 494.784361 331.520415 509.713656 345.060758 
C 524.642951 358.601102 541.340605 370.462334 556.129153 378.032157 
C 570.9177 385.601979 582.589723 388.262349 588.574593 385.427352 
C 594.559463 382.592354 594.368542 374.493453 588.043879 362.914338 
C 581.719215 351.335223 569.77719 337.221277 554.847895 323.680934 
L 554.847895 323.680934 
z
" clip-path="url(#p8f3ac0bc3a)" style="fill: none; stroke: #000000; stroke-linejoin: miter"/>
   </g>
   <g id="patch_5">
    <path d="M 527.905068 129.815642 
C 508.638305 123.187241 487.798143 119.77647 469.974387 120.33451 
C 452.15063 120.89255 438.79851 125.373841 432.858676 132.79143 
C 426.918841 140.209019 428.876254 149.957293 438.299816 159.889307 
C 447.723378 169.821322 463.843697 179.126172 483.110461 185.754573 
C 502.377225 192.382973 523.217386 195.793745 541.041143 195.235705 
C 558.864899 194.677664 572.217019 190.196374 578.156854 182.778785 
C 584.096688 175.361196 582.139276 165.612922 572.715714 155.680908 
C 563.292151 145.748893 547.171832 136.444043 527.905068 129.815642 
L 527.905068 129.815642 
z
" clip-path="url(#p8f3ac0bc3a)" style="fill: none; stroke: #000000; stroke-linejoin: miter"/>
   </g>
   <g id="patch_6">
    <path d="M 480.556906 422.53134 
C 462.257189 428.427561 447.214686 437.430129 438.742334 447.556334 
C 430.269981 457.682539 429.05951 468.105622 435.377511 476.530018 
C 441.695513 484.954414 455.02615 490.69231 472.433506 492.48 
C 489.840861 494.26769 509.903701 491.959218 528.203418 486.062998 
C 546.503135 480.166777 561.545637 471.164209 570.01799 461.038004 
C 578.490342 450.911799 579.700814 440.488717 573.382812 432.06432 
C 567.064811 423.639924 553.734173 417.902028 536.326818 416.114338 
C 518.919462 414.326648 498.856622 416.63512 480.556906 422.53134 
L 480.556906 422.53134 
z
" clip-path="url(#p8f3ac0bc3a)" style="fill: none; stroke: #000000; stroke-linejoin: miter"/>
   </g>
   <g id="patch_7">
    <path d="M 272.841437 287.770233 
C 247.837535 290.994882 224.786892 297.194429 208.766145 305.003496 
C 192.745398 312.812564 185.062569 321.593575 187.409712 329.412616 
C 189.756856 337.231656 201.942338 343.450334 221.282448 346.699059 
C 240.622558 349.947785 265.538261 349.961313 290.542163 346.736664 
C 315.546065 343.512015 338.596708 337.312468 354.617455 329.5034 
C 370.638202 321.694333 378.321031 312.913321 375.973888 305.094281 
C 373.626744 297.275241 361.441262 291.056563 342.101152 287.807837 
C 322.761042 284.559112 297.845339 284.545584 272.841437 287.770233 
L 272.841437 287.770233 
z
" clip-path="url(#p8f3ac0bc3a)" style="fill: none; stroke: #000000; stroke-linejoin: miter"/>
   </g>
   <g id="patch_8">
    <path d="M 506.290514 211.985029 
C 487.928807 192.51395 462.413987 177.039476 435.365395 168.969682 
C 408.316804 160.899887 381.94284 160.893634 362.052062 168.952301 
C 342.161285 177.010967 330.377687 192.476599 329.296471 211.943069 
C 328.215254 231.409539 337.924695 253.287497 356.286402 272.758577 
C 374.648109 292.229657 400.162929 307.70413 427.211521 315.773925 
C 454.260112 323.84372 480.634076 323.849972 500.524854 315.791306 
C 520.415631 307.732639 532.199229 292.267008 533.280445 272.800537 
C 534.361662 253.334067 524.652221 231.456109 506.290514 211.985029 
L 506.290514 211.985029 
z
" clip-path="url(#p8f3ac0bc3a)" style="fill: none; stroke: #000000; stroke-linejoin: miter"/>
   </g>
   <g id="patch_9">
    <path d="M 205.431421 280.632376 
C 210.396844 271.869908 210.898203 262.427699 206.825078 254.385287 
C 202.751954 246.342875 194.436899 240.356887 183.711208 237.745667 
C 172.985517 235.134446 160.724896 236.111189 149.629603 240.460778 
C 138.53431 244.810367 129.510227 252.177678 124.544804 260.940146 
C 119.579381 269.702614 119.078022 279.144822 123.151147 287.187235 
C 127.224271 295.229647 135.539326 301.215635 146.265017 303.826855 
C 156.990708 306.438075 169.25133 305.461333 180.346623 301.111744 
C 191.441916 296.762155 200.465998 289.394844 205.431421 280.632376 
L 205.431421 280.632376 
z
" clip-path="url(#p8f3ac0bc3a)" style="fill: none; stroke: #000000; stroke-linejoin: miter"/>
   </g>
   <g id="patch_10">
    <path d="M 476.71354 337.76804 
C 454.406217 334.502144 431.509726 335.770776 413.066752 341.294534 
C 394.623778 346.818291 382.140108 356.146184 378.365127 367.223853 
C 374.590146 378.301521 379.832063 390.224522 392.936408 400.366953 
C 406.040752 410.509385 425.937612 418.043162 448.244935 421.309057 
C 470.552258 424.574953 493.448749 423.306321 511.891723 417.782564 
C 530.334698 412.258806 542.818367 402.930913 546.593348 391.853245 
C 550.368329 380.775576 545.126412 368.852575 532.022067 358.710144 
C 518.917723 348.567712 499.020863 341.033936 476.71354 337.76804 
L 476.71354 337.76804 
z
" clip-path="url(#p8f3ac0bc3a)" style="fill: none; stroke: #000000; stroke-linejoin: miter"/>
   </g>
   <g id="patch_11">
    <path d="M 603.031658 147.310543 
C 592.169366 129.678237 578.384298 113.656656 564.712455 102.774367 
C 551.040612 91.892079 538.59824 87.037574 530.125626 89.28 
C 521.653011 91.522426 517.841907 100.6787 519.531664 114.732258 
C 521.221421 128.785816 528.274078 146.589248 539.13637 164.221554 
C 549.998662 181.853861 563.783729 197.875441 577.455572 208.75773 
C 591.127415 219.640018 603.569788 224.494524 612.042402 222.252097 
C 620.515016 220.009671 624.326121 210.853397 622.636364 196.799839 
C 620.946607 182.746281 613.893949 164.942849 603.031658 147.310543 
L 603.031658 147.310543 
z
" clip-path="url(#p8f3ac0bc3a)" style="fill: none; stroke: #000000; stroke-linejoin: miter"/>
   </g>
   <g id="PathCollection_1">
    <defs>
     <path id="C0_0_651b556941" d="M 0 3.162278 
C 0.838646 3.162278 1.643056 2.82908 2.236068 2.236068 
C 2.82908 1.643056 3.162278 0.838646 3.162278 -0 
C 3.162278 -0.838646 2.82908 -1.643056 2.236068 -2.236068 
C 1.643056 -2.82908 0.838646 -3.162278 0 -3.162278 
C -0.838646 -3.162278 -1.643056 -2.82908 -2.236068 -2.236068 
C -2.82908 -1.643056 -3.162278 -0.838646 -3.162278 0 
C -3.162278 0.838646 -2.82908 1.643056 -2.236068 2.236068 
C -1.643056 2.82908 -0.838646 3.162278 0 3.162278 
z
"/>
    </defs>
    <g clip-path="url(#p8f3ac0bc3a)">
     <use xlink:href="#C0_0_651b556941" x="501.907145" y="453.848988" style="fill: #0047ab; stroke: #0047ab"/>
    </g>
    <g clip-path="url(#p8f3ac0bc3a)">
     <use xlink:href="#C0_0_651b556941" x="515.609596" y="468.243607" style="fill: #dd0000; stroke: #dd0000"/>
    </g>
    <g clip-path="url(#p8f3ac0bc3a)">
     <use xlink:href="#C0_0_651b556941" x="539.751878" y="440.443707" style="fill: #002e5d; stroke: #002e5d"/>
    </g>
    <g clip-path="url(#p8f3ac0bc3a)">
     <use xlink:href="#C0_0_651b556941" x="570.828732" y="456.683969" style="fill: #001a70; stroke: #001a70"/>
    </g>
    <g clip-path="url(#p8f3ac0bc3a)">
     <use xlink:href="#C0_0_651b556941" x="424.871899" y="455.610321" style="fill: #ff9000; stroke: #ff9000"/>
    </g>
    <g clip-path="url(#p8f3ac0bc3a)">
     <use xlink:href="#C0_0_651b556941" x="547.286669" y="431.825338" style="fill: #00a651; stroke: #00a651"/>
    </g>
    <g clip-path="url(#p8f3ac0bc3a)">
     <use xlink:href="#C0_0_651b556941" x="518.074961" y="464.000023" style="fill: #4c4c4c; stroke: #4c4c4c"/>
    </g>
    <g clip-path="url(#p8f3ac0bc3a)">
     <use xlink:href="#C0_0_651b556941" x="506.668667" y="427.023658" style="fill: #0047ab; stroke: #0047ab"/>
    </g>
    <g clip-path="url(#p8f3ac0bc3a)">
     <use xlink:href="#C0_0_651b556941" x="467.456057" y="483.426874" style="fill: #dd0000; stroke: #dd0000"/>
    </g>
    <g clip-path="url(#p8f3ac0bc3a)">
     <use xlink:href="#C0_0_651b556941" x="433.600922" y="411.798394" style="fill: #001a70; stroke: #001a70"/>
    </g>
    <g clip-path="url(#p8f3ac0bc3a)">
     <use xlink:href="#C0_0_651b556941" x="483.262737" y="472.452533" style="fill: #0047ab; stroke: #0047ab"/>
    </g>
    <g clip-path="url(#p8f3ac0bc3a)">
     <use xlink:href="#C0_0_651b556941" x="483.433295" y="479.214507" style="fill: #dd0000; stroke: #dd0000"/>
    </g>
    <g clip-path="url(#p8f3ac0bc3a)">
     <use xlink:href="#C0_0_651b556941" x="475.632649" y="423.781933" style="fill: #0047ab; stroke: #0047ab"/>
    </g>
    <g clip-path="url(#p8f3ac0bc3a)">
     <use xlink:href="#C0_0_651b556941" x="471.304581" y="446.194424" style="fill: #dd0000; stroke: #dd0000"/>
    </g>
    <g clip-path="url(#p8f3ac0bc3a)">
     <use xlink:href="#C0_0_651b556941" x="497.408019" y="478.988747" style="fill: #dd0000; stroke: #dd0000"/>
    </g>
    <g clip-path="url(#p8f3ac0bc3a)">
     <use xlink:href="#C0_0_651b556941" x="440.599507" y="377.140983" style="fill: #ff9000; stroke: #ff9000"/>
    </g>
    <g clip-path="url(#p8f3ac0bc3a)">
     <use xlink:href="#C0_0_651b556941" x="452.727711" y="414.634282" style="fill: #a0a0a0; stroke: #a0a0a0"/>
    </g>
    <g clip-path="url(#p8f3ac0bc3a)">
     <use xlink:href="#C0_0_651b556941" x="488.737149" y="457.347893" style="fill: #dd0000; stroke: #dd0000"/>
    </g>
    <g clip-path="url(#p8f3ac0bc3a)">
     <use xlink:href="#C0_0_651b556941" x="541.792775" y="458.69078" style="fill: #dd0000; stroke: #dd0000"/>
    </g>
    <g clip-path="url(#p8f3ac0bc3a)">
     <use xlink:href="#C0_0_651b556941" x="201.902995" y="283.155892" style="fill: #0047ab; stroke: #0047ab"/>
    </g>
    <g clip-path="url(#p8f3ac0bc3a)">
     <use xlink:href="#C0_0_651b556941" x="147.607024" y="275.131043" style="fill: #dd0000; stroke: #dd0000"/>
    </g>
    <g clip-path="url(#p8f3ac0bc3a)">
     <use xlink:href="#C0_0_651b556941" x="232.795458" y="329.705189" style="fill: #002e5d; stroke: #002e5d"/>
    </g>
    <g clip-path="url(#p8f3ac0bc3a)">
     <use xlink:href="#C0_0_651b556941" x="334.125984" y="346.127599" style="fill: #001a70; stroke: #001a70"/>
    </g>
    <g clip-path="url(#p8f3ac0bc3a)">
     <use xlink:href="#C0_0_651b556941" x="230.231579" y="264.468656" style="fill: #ff9000; stroke: #ff9000"/>
    </g>
    <g clip-path="url(#p8f3ac0bc3a)">
     <use xlink:href="#C0_0_651b556941" x="143.486453" y="257.817984" style="fill: #00a651; stroke: #00a651"/>
    </g>
    <g clip-path="url(#p8f3ac0bc3a)">
     <use xlink:href="#C0_0_651b556941" x="215.816836" y="302.907556" style="fill: #8b1c62; stroke: #8b1c62"/>
    </g>
    <g clip-path="url(#p8f3ac0bc3a)">
     <use xlink:href="#C0_0_651b556941" x="373.609632" y="303.288652" style="fill: #4c4c4c; stroke: #4c4c4c"/>
    </g>
    <g clip-path="url(#p8f3ac0bc3a)">
     <use xlink:href="#C0_0_651b556941" x="193.655506" y="255.612745" style="fill: #0047ab; stroke: #0047ab"/>
    </g>
    <g clip-path="url(#p8f3ac0bc3a)">
     <use xlink:href="#C0_0_651b556941" x="175.828388" y="254.645979" style="fill: #dd0000; stroke: #dd0000"/>
    </g>
    <g clip-path="url(#p8f3ac0bc3a)">
     <use xlink:href="#C0_0_651b556941" x="174.169843" y="308.454393" style="fill: #001a70; stroke: #001a70"/>
    </g>
    <g clip-path="url(#p8f3ac0bc3a)">
     <use xlink:href="#C0_0_651b556941" x="249.86201" y="279.809111" style="fill: #dd0000; stroke: #dd0000"/>
    </g>
    <g clip-path="url(#p8f3ac0bc3a)">
     <use xlink:href="#C0_0_651b556941" x="326.000493" y="307.995702" style="fill: #002e5d; stroke: #002e5d"/>
    </g>
    <g clip-path="url(#p8f3ac0bc3a)">
     <use xlink:href="#C0_0_651b556941" x="221.065889" y="324.230555" style="fill: #001a70; stroke: #001a70"/>
    </g>
    <g clip-path="url(#p8f3ac0bc3a)">
     <use xlink:href="#C0_0_651b556941" x="169.761997" y="271.088414" style="fill: #ff9000; stroke: #ff9000"/>
    </g>
    <g clip-path="url(#p8f3ac0bc3a)">
     <use xlink:href="#C0_0_651b556941" x="286.440213" y="315.993307" style="fill: #00a651; stroke: #00a651"/>
    </g>
    <g clip-path="url(#p8f3ac0bc3a)">
     <use xlink:href="#C0_0_651b556941" x="170.499408" y="272.76494" style="fill: #001a70; stroke: #001a70"/>
    </g>
    <g clip-path="url(#p8f3ac0bc3a)">
     <use xlink:href="#C0_0_651b556941" x="139.430921" y="269.06987" style="fill: #00a651; stroke: #00a651"/>
    </g>
    <g clip-path="url(#p8f3ac0bc3a)">
     <use xlink:href="#C0_0_651b556941" x="373.885191" y="370.774427" style="fill: #0047ab; stroke: #0047ab"/>
    </g>
    <g clip-path="url(#p8f3ac0bc3a)">
     <use xlink:href="#C0_0_651b556941" x="284.854349" y="323.034924" style="fill: #00a651; stroke: #00a651"/>
    </g>
    <g clip-path="url(#p8f3ac0bc3a)">
     <use xlink:href="#C0_0_651b556941" x="122.907814" y="252.90033" style="fill: #8b1c62; stroke: #8b1c62"/>
    </g>
    <g clip-path="url(#p8f3ac0bc3a)">
     <use xlink:href="#C0_0_651b556941" x="153.745811" y="280.969269" style="fill: #4c4c4c; stroke: #4c4c4c"/>
    </g>
    <g clip-path="url(#p8f3ac0bc3a)">
     <use xlink:href="#C0_0_651b556941" x="133.912247" y="304.633195" style="fill: #001a70; stroke: #001a70"/>
    </g>
    <g clip-path="url(#p8f3ac0bc3a)">
     <use xlink:href="#C0_0_651b556941" x="174.595738" y="275.244965" style="fill: #4c4c4c; stroke: #4c4c4c"/>
    </g>
    <g clip-path="url(#p8f3ac0bc3a)">
     <use xlink:href="#C0_0_651b556941" x="191.958272" y="244.226809" style="fill: #a0a0a0; stroke: #a0a0a0"/>
    </g>
    <g clip-path="url(#p8f3ac0bc3a)">
     <use xlink:href="#C0_0_651b556941" x="225.458266" y="316.472903" style="fill: #0047ab; stroke: #0047ab"/>
    </g>
    <g clip-path="url(#p8f3ac0bc3a)">
     <use xlink:href="#C0_0_651b556941" x="233.621524" y="334.520603" style="fill: #dd0000; stroke: #dd0000"/>
    </g>
    <g clip-path="url(#p8f3ac0bc3a)">
     <use xlink:href="#C0_0_651b556941" x="242.482275" y="254.078679" style="fill: #002e5d; stroke: #002e5d"/>
    </g>
    <g clip-path="url(#p8f3ac0bc3a)">
     <use xlink:href="#C0_0_651b556941" x="115.363636" y="265.548834" style="fill: #ff9000; stroke: #ff9000"/>
    </g>
    <g clip-path="url(#p8f3ac0bc3a)">
     <use xlink:href="#C0_0_651b556941" x="166.689782" y="273.544533" style="fill: #002e5d; stroke: #002e5d"/>
    </g>
    <g clip-path="url(#p8f3ac0bc3a)">
     <use xlink:href="#C0_0_651b556941" x="175.261897" y="299.700342" style="fill: #001a70; stroke: #001a70"/>
    </g>
    <g clip-path="url(#p8f3ac0bc3a)">
     <use xlink:href="#C0_0_651b556941" x="188.490991" y="281.759456" style="fill: #ff9000; stroke: #ff9000"/>
    </g>
    <g clip-path="url(#p8f3ac0bc3a)">
     <use xlink:href="#C0_0_651b556941" x="174.335735" y="259.149242" style="fill: #00a651; stroke: #00a651"/>
    </g>
    <g clip-path="url(#p8f3ac0bc3a)">
     <use xlink:href="#C0_0_651b556941" x="228.650908" y="243.493878" style="fill: #0047ab; stroke: #0047ab"/>
    </g>
    <g clip-path="url(#p8f3ac0bc3a)">
     <use xlink:href="#C0_0_651b556941" x="178.893664" y="278.578469" style="fill: #002e5d; stroke: #002e5d"/>
    </g>
    <g clip-path="url(#p8f3ac0bc3a)">
     <use xlink:href="#C0_0_651b556941" x="210.63381" y="250.420926" style="fill: #0047ab; stroke: #0047ab"/>
    </g>
    <g clip-path="url(#p8f3ac0bc3a)">
     <use xlink:href="#C0_0_651b556941" x="178.321705" y="256.428739" style="fill: #0047ab; stroke: #0047ab"/>
    </g>
    <g clip-path="url(#p8f3ac0bc3a)">
     <use xlink:href="#C0_0_651b556941" x="268.4834" y="302.529458" style="fill: #dd0000; stroke: #dd0000"/>
    </g>
    <g clip-path="url(#p8f3ac0bc3a)">
     <use xlink:href="#C0_0_651b556941" x="268.93144" y="298.727879" style="fill: #001a70; stroke: #001a70"/>
    </g>
    <g clip-path="url(#p8f3ac0bc3a)">
     <use xlink:href="#C0_0_651b556941" x="264.325204" y="277.111025" style="fill: #ff9000; stroke: #ff9000"/>
    </g>
    <g clip-path="url(#p8f3ac0bc3a)">
     <use xlink:href="#C0_0_651b556941" x="282.119078" y="330.288634" style="fill: #0047ab; stroke: #0047ab"/>
    </g>
    <g clip-path="url(#p8f3ac0bc3a)">
     <use xlink:href="#C0_0_651b556941" x="271.946542" y="283.216052" style="fill: #dd0000; stroke: #dd0000"/>
    </g>
    <g clip-path="url(#p8f3ac0bc3a)">
     <use xlink:href="#C0_0_651b556941" x="234.034069" y="279.368465" style="fill: #ff9000; stroke: #ff9000"/>
    </g>
    <g clip-path="url(#p8f3ac0bc3a)">
     <use xlink:href="#C0_0_651b556941" x="200.462668" y="253.917171" style="fill: #dd0000; stroke: #dd0000"/>
    </g>
    <g clip-path="url(#p8f3ac0bc3a)">
     <use xlink:href="#C0_0_651b556941" x="159.570511" y="251.284915" style="fill: #a0a0a0; stroke: #a0a0a0"/>
    </g>
    <g clip-path="url(#p8f3ac0bc3a)">
     <use xlink:href="#C0_0_651b556941" x="179.052441" y="266.624804" style="fill: #0047ab; stroke: #0047ab"/>
    </g>
    <g clip-path="url(#p8f3ac0bc3a)">
     <use xlink:href="#C0_0_651b556941" x="151.712094" y="289.773863" style="fill: #4c4c4c; stroke: #4c4c4c"/>
    </g>
    <g clip-path="url(#p8f3ac0bc3a)">
     <use xlink:href="#C0_0_651b556941" x="215.008852" y="269.565042" style="fill: #0047ab; stroke: #0047ab"/>
    </g>
    <g clip-path="url(#p8f3ac0bc3a)">
     <use xlink:href="#C0_0_651b556941" x="262.741701" y="272.494696" style="fill: #ff9000; stroke: #ff9000"/>
    </g>
    <g clip-path="url(#p8f3ac0bc3a)">
     <use xlink:href="#C0_0_651b556941" x="586.095671" y="159.077189" style="fill: #0047ab; stroke: #0047ab"/>
    </g>
    <g clip-path="url(#p8f3ac0bc3a)">
     <use xlink:href="#C0_0_651b556941" x="543.164286" y="121.559193" style="fill: #dd0000; stroke: #dd0000"/>
    </g>
    <g clip-path="url(#p8f3ac0bc3a)">
     <use xlink:href="#C0_0_651b556941" x="462.75028" y="212.558062" style="fill: #002e5d; stroke: #002e5d"/>
    </g>
    <g clip-path="url(#p8f3ac0bc3a)">
     <use xlink:href="#C0_0_651b556941" x="524.196719" y="187.281301" style="fill: #001a70; stroke: #001a70"/>
    </g>
    <g clip-path="url(#p8f3ac0bc3a)">
     <use xlink:href="#C0_0_651b556941" x="529.493903" y="181.83117" style="fill: #ff9000; stroke: #ff9000"/>
    </g>
    <g clip-path="url(#p8f3ac0bc3a)">
     <use xlink:href="#C0_0_651b556941" x="523.331106" y="142.375793" style="fill: #00a651; stroke: #00a651"/>
    </g>
    <g clip-path="url(#p8f3ac0bc3a)">
     <use xlink:href="#C0_0_651b556941" x="529.643195" y="133.023495" style="fill: #8b1c62; stroke: #8b1c62"/>
    </g>
    <g clip-path="url(#p8f3ac0bc3a)">
     <use xlink:href="#C0_0_651b556941" x="422.264442" y="259.934677" style="fill: #0047ab; stroke: #0047ab"/>
    </g>
    <g clip-path="url(#p8f3ac0bc3a)">
     <use xlink:href="#C0_0_651b556941" x="571.843383" y="189.945659" style="fill: #dd0000; stroke: #dd0000"/>
    </g>
    <g clip-path="url(#p8f3ac0bc3a)">
     <use xlink:href="#C0_0_651b556941" x="554.081106" y="135.309663" style="fill: #002e5d; stroke: #002e5d"/>
    </g>
    <g clip-path="url(#p8f3ac0bc3a)">
     <use xlink:href="#C0_0_651b556941" x="488.996604" y="230.924311" style="fill: #001a70; stroke: #001a70"/>
    </g>
    <g clip-path="url(#p8f3ac0bc3a)">
     <use xlink:href="#C0_0_651b556941" x="420.964599" y="139.320996" style="fill: #ff9000; stroke: #ff9000"/>
    </g>
    <g clip-path="url(#p8f3ac0bc3a)">
     <use xlink:href="#C0_0_651b556941" x="389.774417" y="233.89982" style="fill: #8b1c62; stroke: #8b1c62"/>
    </g>
    <g clip-path="url(#p8f3ac0bc3a)">
     <use xlink:href="#C0_0_651b556941" x="426.920138" y="334.131946" style="fill: #dd0000; stroke: #dd0000"/>
    </g>
    <g clip-path="url(#p8f3ac0bc3a)">
     <use xlink:href="#C0_0_651b556941" x="487.337181" y="245.696811" style="fill: #8b1c62; stroke: #8b1c62"/>
    </g>
    <g clip-path="url(#p8f3ac0bc3a)">
     <use xlink:href="#C0_0_651b556941" x="529.407982" y="166.354527" style="fill: #0047ab; stroke: #0047ab"/>
    </g>
    <g clip-path="url(#p8f3ac0bc3a)">
     <use xlink:href="#C0_0_651b556941" x="552.347323" y="131.377014" style="fill: #dd0000; stroke: #dd0000"/>
    </g>
    <g clip-path="url(#p8f3ac0bc3a)">
     <use xlink:href="#C0_0_651b556941" x="552.126098" y="186.222363" style="fill: #0047ab; stroke: #0047ab"/>
    </g>
    <g clip-path="url(#p8f3ac0bc3a)">
     <use xlink:href="#C0_0_651b556941" x="336.595664" y="177.562421" style="fill: #0047ab; stroke: #0047ab"/>
    </g>
    <g clip-path="url(#p8f3ac0bc3a)">
     <use xlink:href="#C0_0_651b556941" x="477.179884" y="157.005555" style="fill: #dd0000; stroke: #dd0000"/>
    </g>
    <g clip-path="url(#p8f3ac0bc3a)">
     <use xlink:href="#C0_0_651b556941" x="483.144489" y="149.489446" style="fill: #dd0000; stroke: #dd0000"/>
    </g>
    <g clip-path="url(#p8f3ac0bc3a)">
     <use xlink:href="#C0_0_651b556941" x="324.487777" y="291.379403" style="fill: #0047ab; stroke: #0047ab"/>
    </g>
    <g clip-path="url(#p8f3ac0bc3a)">
     <use xlink:href="#C0_0_651b556941" x="431.536972" y="266.263741" style="fill: #ff9000; stroke: #ff9000"/>
    </g>
    <g clip-path="url(#p8f3ac0bc3a)">
     <use xlink:href="#C0_0_651b556941" x="431.052125" y="312.134574" style="fill: #0047ab; stroke: #0047ab"/>
    </g>
    <g clip-path="url(#p8f3ac0bc3a)">
     <use xlink:href="#C0_0_651b556941" x="541.951014" y="146.443429" style="fill: #dd0000; stroke: #dd0000"/>
    </g>
    <g clip-path="url(#p8f3ac0bc3a)">
     <use xlink:href="#C0_0_651b556941" x="564.089639" y="152.289338" style="fill: #0047ab; stroke: #0047ab"/>
    </g>
    <g clip-path="url(#p8f3ac0bc3a)">
     <use xlink:href="#C0_0_651b556941" x="532.208029" y="163.383567" style="fill: #a0a0a0; stroke: #a0a0a0"/>
    </g>
    <g clip-path="url(#p8f3ac0bc3a)">
     <use xlink:href="#C0_0_651b556941" x="592.807448" y="151.761581" style="fill: #002e5d; stroke: #002e5d"/>
    </g>
    <g clip-path="url(#p8f3ac0bc3a)">
     <use xlink:href="#C0_0_651b556941" x="610.175647" y="197.249156" style="fill: #dd0000; stroke: #dd0000"/>
    </g>
    <g clip-path="url(#p8f3ac0bc3a)">
     <use xlink:href="#C0_0_651b556941" x="603.145371" y="153.672121" style="fill: #0047ab; stroke: #0047ab"/>
    </g>
    <g clip-path="url(#p8f3ac0bc3a)">
     <use xlink:href="#C0_0_651b556941" x="553.865238" y="150.208996" style="fill: #dd0000; stroke: #dd0000"/>
    </g>
    <g clip-path="url(#p8f3ac0bc3a)">
     <use xlink:href="#C0_0_651b556941" x="553.865238" y="150.208996" style="fill: #dd0000; stroke: #dd0000"/>
    </g>
    <g clip-path="url(#p8f3ac0bc3a)">
     <use xlink:href="#C0_0_651b556941" x="561.308729" y="137.559418" style="fill: #0047ab; stroke: #0047ab"/>
    </g>
    <g clip-path="url(#p8f3ac0bc3a)">
     <use xlink:href="#C0_0_651b556941" x="562.436859" y="109.884761" style="fill: #8b1c62; stroke: #8b1c62"/>
    </g>
    <g clip-path="url(#p8f3ac0bc3a)">
     <use xlink:href="#C0_0_651b556941" x="609.783348" y="180.566326" style="fill: #0047ab; stroke: #0047ab"/>
    </g>
    <g clip-path="url(#p8f3ac0bc3a)">
     <use xlink:href="#C0_0_651b556941" x="621.824631" y="242.640751" style="fill: #0047ab; stroke: #0047ab"/>
    </g>
    <g clip-path="url(#p8f3ac0bc3a)">
     <use xlink:href="#C0_0_651b556941" x="544.601451" y="107.813271" style="fill: #001a70; stroke: #001a70"/>
    </g>
    <g clip-path="url(#p8f3ac0bc3a)">
     <use xlink:href="#C0_0_651b556941" x="483.751229" y="366.856264" style="fill: #0047ab; stroke: #0047ab"/>
    </g>
    <g clip-path="url(#p8f3ac0bc3a)">
     <use xlink:href="#C0_0_651b556941" x="534.970802" y="321.252317" style="fill: #dd0000; stroke: #dd0000"/>
    </g>
    <g clip-path="url(#p8f3ac0bc3a)">
     <use xlink:href="#C0_0_651b556941" x="509.318719" y="392.714069" style="fill: #002e5d; stroke: #002e5d"/>
    </g>
    <g clip-path="url(#p8f3ac0bc3a)">
     <use xlink:href="#C0_0_651b556941" x="489.890234" y="292.156274" style="fill: #001a70; stroke: #001a70"/>
    </g>
    <g clip-path="url(#p8f3ac0bc3a)">
     <use xlink:href="#C0_0_651b556941" x="536.161282" y="340.204518" style="fill: #ff9000; stroke: #ff9000"/>
    </g>
    <g clip-path="url(#p8f3ac0bc3a)">
     <use xlink:href="#C0_0_651b556941" x="468.260149" y="380.167887" style="fill: #00a651; stroke: #00a651"/>
    </g>
    <g clip-path="url(#p8f3ac0bc3a)">
     <use xlink:href="#C0_0_651b556941" x="525.907885" y="385.459183" style="fill: #4c4c4c; stroke: #4c4c4c"/>
    </g>
    <g clip-path="url(#p8f3ac0bc3a)">
     <use xlink:href="#C0_0_651b556941" x="492.38185" y="333.736999" style="fill: #0047ab; stroke: #0047ab"/>
    </g>
    <g clip-path="url(#p8f3ac0bc3a)">
     <use xlink:href="#C0_0_651b556941" x="517.130158" y="314.080945" style="fill: #dd0000; stroke: #dd0000"/>
    </g>
    <g clip-path="url(#p8f3ac0bc3a)">
     <use xlink:href="#C0_0_651b556941" x="508.742347" y="376.680094" style="fill: #4c4c4c; stroke: #4c4c4c"/>
    </g>
    <g clip-path="url(#p8f3ac0bc3a)">
     <use xlink:href="#C0_0_651b556941" x="544.829099" y="331.123194" style="fill: #dd0000; stroke: #dd0000"/>
    </g>
    <g clip-path="url(#p8f3ac0bc3a)">
     <use xlink:href="#C0_0_651b556941" x="507.604391" y="381.743795" style="fill: #001a70; stroke: #001a70"/>
    </g>
    <g clip-path="url(#p8f3ac0bc3a)">
     <use xlink:href="#C0_0_651b556941" x="540.435833" y="425.274703" style="fill: #8b1c62; stroke: #8b1c62"/>
    </g>
    <g clip-path="url(#p8f3ac0bc3a)">
     <use xlink:href="#C0_0_651b556941" x="507.717628" y="311.149278" style="fill: #4c4c4c; stroke: #4c4c4c"/>
    </g>
    <g clip-path="url(#p8f3ac0bc3a)">
     <use xlink:href="#C0_0_651b556941" x="432.926126" y="402.847063" style="fill: #a0a0a0; stroke: #a0a0a0"/>
    </g>
    <g clip-path="url(#p8f3ac0bc3a)">
     <use xlink:href="#C0_0_651b556941" x="581.730269" y="364.650924" style="fill: #0047ab; stroke: #0047ab"/>
    </g>
    <g clip-path="url(#p8f3ac0bc3a)">
     <use xlink:href="#C0_0_651b556941" x="558.083402" y="363.387951" style="fill: #0047ab; stroke: #0047ab"/>
    </g>
    <g clip-path="url(#p8f3ac0bc3a)">
     <use xlink:href="#C0_0_651b556941" x="559.913185" y="371.966043" style="fill: #001a70; stroke: #001a70"/>
    </g>
    <g clip-path="url(#p8f3ac0bc3a)">
     <use xlink:href="#C0_0_651b556941" x="480.468427" y="358.623555" style="fill: #dd0000; stroke: #dd0000"/>
    </g>
    <g clip-path="url(#p8f3ac0bc3a)">
     <use xlink:href="#C0_0_651b556941" x="429.996613" y="359.967651" style="fill: #dd0000; stroke: #dd0000"/>
    </g>
   </g>
   <g id="matplotlib.axis_1">
    <g id="xtick_1">
     <g id="line2d_1">
      <defs>
       <path id="m9be393a9f9" d="M 0 0 
L 0 3.5 
" style="stroke: #000000; stroke-width: 0.8"/>
      </defs>
      <g>
       <use xlink:href="#m9be393a9f9" x="98.092057" y="512.64" style="stroke: #000000; stroke-width: 0.8"/>
      </g>
     </g>
     <g id="text_1">
      <!-- −0.4 -->
      <g transform="translate(85.95065 527.238438) scale(0.1 -0.1)">
       <defs>
        <path id="DejaVuSans-2212" d="M 678 2272 
L 4684 2272 
L 4684 1741 
L 678 1741 
L 678 2272 
z
" transform="scale(0.015625)"/>
        <path id="DejaVuSans-30" d="M 2034 4250 
Q 1547 4250 1301 3770 
Q 1056 3291 1056 2328 
Q 1056 1369 1301 889 
Q 1547 409 2034 409 
Q 2525 409 2770 889 
Q 3016 1369 3016 2328 
Q 3016 3291 2770 3770 
Q 2525 4250 2034 4250 
z
M 2034 4750 
Q 2819 4750 3233 4129 
Q 3647 3509 3647 2328 
Q 3647 1150 3233 529 
Q 2819 -91 2034 -91 
Q 1250 -91 836 529 
Q 422 1150 422 2328 
Q 422 3509 836 4129 
Q 1250 4750 2034 4750 
z
" transform="scale(0.015625)"/>
        <path id="DejaVuSans-2e" d="M 684 794 
L 1344 794 
L 1344 0 
L 684 0 
L 684 794 
z
" transform="scale(0.015625)"/>
        <path id="DejaVuSans-34" d="M 2419 4116 
L 825 1625 
L 2419 1625 
L 2419 4116 
z
M 2253 4666 
L 3047 4666 
L 3047 1625 
L 3713 1625 
L 3713 1100 
L 3047 1100 
L 3047 0 
L 2419 0 
L 2419 1100 
L 313 1100 
L 313 1709 
L 2253 4666 
z
" transform="scale(0.015625)"/>
       </defs>
       <use xlink:href="#DejaVuSans-2212"/>
       <use xlink:href="#DejaVuSans-30" transform="translate(83.789062 0)"/>
       <use xlink:href="#DejaVuSans-2e" transform="translate(147.412109 0)"/>
       <use xlink:href="#DejaVuSans-34" transform="translate(179.199219 0)"/>
      </g>
     </g>
    </g>
    <g id="xtick_2">
     <g id="line2d_2">
      <g>
       <use xlink:href="#m9be393a9f9" x="171.770471" y="512.64" style="stroke: #000000; stroke-width: 0.8"/>
      </g>
     </g>
     <g id="text_2">
      <!-- −0.3 -->
      <g transform="translate(159.629065 527.238438) scale(0.1 -0.1)">
       <defs>
        <path id="DejaVuSans-33" d="M 2597 2516 
Q 3050 2419 3304 2112 
Q 3559 1806 3559 1356 
Q 3559 666 3084 287 
Q 2609 -91 1734 -91 
Q 1441 -91 1130 -33 
Q 819 25 488 141 
L 488 750 
Q 750 597 1062 519 
Q 1375 441 1716 441 
Q 2309 441 2620 675 
Q 2931 909 2931 1356 
Q 2931 1769 2642 2001 
Q 2353 2234 1838 2234 
L 1294 2234 
L 1294 2753 
L 1863 2753 
Q 2328 2753 2575 2939 
Q 2822 3125 2822 3475 
Q 2822 3834 2567 4026 
Q 2313 4219 1838 4219 
Q 1578 4219 1281 4162 
Q 984 4106 628 3988 
L 628 4550 
Q 988 4650 1302 4700 
Q 1616 4750 1894 4750 
Q 2613 4750 3031 4423 
Q 3450 4097 3450 3541 
Q 3450 3153 3228 2886 
Q 3006 2619 2597 2516 
z
" transform="scale(0.015625)"/>
       </defs>
       <use xlink:href="#DejaVuSans-2212"/>
       <use xlink:href="#DejaVuSans-30" transform="translate(83.789062 0)"/>
       <use xlink:href="#DejaVuSans-2e" transform="translate(147.412109 0)"/>
       <use xlink:href="#DejaVuSans-33" transform="translate(179.199219 0)"/>
      </g>
     </g>
    </g>
    <g id="xtick_3">
     <g id="line2d_3">
      <g>
       <use xlink:href="#m9be393a9f9" x="245.448885" y="512.64" style="stroke: #000000; stroke-width: 0.8"/>
      </g>
     </g>
     <g id="text_3">
      <!-- −0.2 -->
      <g transform="translate(233.307479 527.238438) scale(0.1 -0.1)">
       <defs>
        <path id="DejaVuSans-32" d="M 1228 531 
L 3431 531 
L 3431 0 
L 469 0 
L 469 531 
Q 828 903 1448 1529 
Q 2069 2156 2228 2338 
Q 2531 2678 2651 2914 
Q 2772 3150 2772 3378 
Q 2772 3750 2511 3984 
Q 2250 4219 1831 4219 
Q 1534 4219 1204 4116 
Q 875 4013 500 3803 
L 500 4441 
Q 881 4594 1212 4672 
Q 1544 4750 1819 4750 
Q 2544 4750 2975 4387 
Q 3406 4025 3406 3419 
Q 3406 3131 3298 2873 
Q 3191 2616 2906 2266 
Q 2828 2175 2409 1742 
Q 1991 1309 1228 531 
z
" transform="scale(0.015625)"/>
       </defs>
       <use xlink:href="#DejaVuSans-2212"/>
       <use xlink:href="#DejaVuSans-30" transform="translate(83.789062 0)"/>
       <use xlink:href="#DejaVuSans-2e" transform="translate(147.412109 0)"/>
       <use xlink:href="#DejaVuSans-32" transform="translate(179.199219 0)"/>
      </g>
     </g>
    </g>
    <g id="xtick_4">
     <g id="line2d_4">
      <g>
       <use xlink:href="#m9be393a9f9" x="319.1273" y="512.64" style="stroke: #000000; stroke-width: 0.8"/>
      </g>
     </g>
     <g id="text_4">
      <!-- −0.1 -->
      <g transform="translate(306.985893 527.238438) scale(0.1 -0.1)">
       <defs>
        <path id="DejaVuSans-31" d="M 794 531 
L 1825 531 
L 1825 4091 
L 703 3866 
L 703 4441 
L 1819 4666 
L 2450 4666 
L 2450 531 
L 3481 531 
L 3481 0 
L 794 0 
L 794 531 
z
" transform="scale(0.015625)"/>
       </defs>
       <use xlink:href="#DejaVuSans-2212"/>
       <use xlink:href="#DejaVuSans-30" transform="translate(83.789062 0)"/>
       <use xlink:href="#DejaVuSans-2e" transform="translate(147.412109 0)"/>
       <use xlink:href="#DejaVuSans-31" transform="translate(179.199219 0)"/>
      </g>
     </g>
    </g>
    <g id="xtick_5">
     <g id="line2d_5">
      <g>
       <use xlink:href="#m9be393a9f9" x="392.805714" y="512.64" style="stroke: #000000; stroke-width: 0.8"/>
      </g>
     </g>
     <g id="text_5">
      <!-- 0.0 -->
      <g transform="translate(384.854152 527.238438) scale(0.1 -0.1)">
       <use xlink:href="#DejaVuSans-30"/>
       <use xlink:href="#DejaVuSans-2e" transform="translate(63.623047 0)"/>
       <use xlink:href="#DejaVuSans-30" transform="translate(95.410156 0)"/>
      </g>
     </g>
    </g>
    <g id="xtick_6">
     <g id="line2d_6">
      <g>
       <use xlink:href="#m9be393a9f9" x="466.484128" y="512.64" style="stroke: #000000; stroke-width: 0.8"/>
      </g>
     </g>
     <g id="text_6">
      <!-- 0.1 -->
      <g transform="translate(458.532566 527.238438) scale(0.1 -0.1)">
       <use xlink:href="#DejaVuSans-30"/>
       <use xlink:href="#DejaVuSans-2e" transform="translate(63.623047 0)"/>
       <use xlink:href="#DejaVuSans-31" transform="translate(95.410156 0)"/>
      </g>
     </g>
    </g>
    <g id="xtick_7">
     <g id="line2d_7">
      <g>
       <use xlink:href="#m9be393a9f9" x="540.162543" y="512.64" style="stroke: #000000; stroke-width: 0.8"/>
      </g>
     </g>
     <g id="text_7">
      <!-- 0.2 -->
      <g transform="translate(532.21098 527.238438) scale(0.1 -0.1)">
       <use xlink:href="#DejaVuSans-30"/>
       <use xlink:href="#DejaVuSans-2e" transform="translate(63.623047 0)"/>
       <use xlink:href="#DejaVuSans-32" transform="translate(95.410156 0)"/>
      </g>
     </g>
    </g>
    <g id="xtick_8">
     <g id="line2d_8">
      <g>
       <use xlink:href="#m9be393a9f9" x="613.840957" y="512.64" style="stroke: #000000; stroke-width: 0.8"/>
      </g>
     </g>
     <g id="text_8">
      <!-- 0.3 -->
      <g transform="translate(605.889395 527.238438) scale(0.1 -0.1)">
       <use xlink:href="#DejaVuSans-30"/>
       <use xlink:href="#DejaVuSans-2e" transform="translate(63.623047 0)"/>
       <use xlink:href="#DejaVuSans-33" transform="translate(95.410156 0)"/>
      </g>
     </g>
    </g>
   </g>
   <g id="matplotlib.axis_2">
    <g id="ytick_1">
     <g id="line2d_9">
      <defs>
       <path id="m3d622b795f" d="M 0 0 
L -3.5 0 
" style="stroke: #000000; stroke-width: 0.8"/>
      </defs>
      <g>
       <use xlink:href="#m3d622b795f" x="90" y="484.583203" style="stroke: #000000; stroke-width: 0.8"/>
      </g>
     </g>
     <g id="text_9">
      <!-- −0.4 -->
      <g transform="translate(58.717187 488.382422) scale(0.1 -0.1)">
       <use xlink:href="#DejaVuSans-2212"/>
       <use xlink:href="#DejaVuSans-30" transform="translate(83.789062 0)"/>
       <use xlink:href="#DejaVuSans-2e" transform="translate(147.412109 0)"/>
       <use xlink:href="#DejaVuSans-34" transform="translate(179.199219 0)"/>
      </g>
     </g>
    </g>
    <g id="ytick_2">
     <g id="line2d_10">
      <g>
       <use xlink:href="#m3d622b795f" x="90" y="387.997138" style="stroke: #000000; stroke-width: 0.8"/>
      </g>
     </g>
     <g id="text_10">
      <!-- −0.2 -->
      <g transform="translate(58.717187 391.796357) scale(0.1 -0.1)">
       <use xlink:href="#DejaVuSans-2212"/>
       <use xlink:href="#DejaVuSans-30" transform="translate(83.789062 0)"/>
       <use xlink:href="#DejaVuSans-2e" transform="translate(147.412109 0)"/>
       <use xlink:href="#DejaVuSans-32" transform="translate(179.199219 0)"/>
      </g>
     </g>
    </g>
    <g id="ytick_3">
     <g id="line2d_11">
      <g>
       <use xlink:href="#m3d622b795f" x="90" y="291.411074" style="stroke: #000000; stroke-width: 0.8"/>
      </g>
     </g>
     <g id="text_11">
      <!-- 0.0 -->
      <g transform="translate(67.096875 295.210292) scale(0.1 -0.1)">
       <use xlink:href="#DejaVuSans-30"/>
       <use xlink:href="#DejaVuSans-2e" transform="translate(63.623047 0)"/>
       <use xlink:href="#DejaVuSans-30" transform="translate(95.410156 0)"/>
      </g>
     </g>
    </g>
    <g id="ytick_4">
     <g id="line2d_12">
      <g>
       <use xlink:href="#m3d622b795f" x="90" y="194.825009" style="stroke: #000000; stroke-width: 0.8"/>
      </g>
     </g>
     <g id="text_12">
      <!-- 0.2 -->
      <g transform="translate(67.096875 198.624228) scale(0.1 -0.1)">
       <use xlink:href="#DejaVuSans-30"/>
       <use xlink:href="#DejaVuSans-2e" transform="translate(63.623047 0)"/>
       <use xlink:href="#DejaVuSans-32" transform="translate(95.410156 0)"/>
      </g>
     </g>
    </g>
    <g id="ytick_5">
     <g id="line2d_13">
      <g>
       <use xlink:href="#m3d622b795f" x="90" y="98.238944" style="stroke: #000000; stroke-width: 0.8"/>
      </g>
     </g>
     <g id="text_13">
      <!-- 0.4 -->
      <g transform="translate(67.096875 102.038163) scale(0.1 -0.1)">
       <use xlink:href="#DejaVuSans-30"/>
       <use xlink:href="#DejaVuSans-2e" transform="translate(63.623047 0)"/>
       <use xlink:href="#DejaVuSans-34" transform="translate(95.410156 0)"/>
      </g>
     </g>
    </g>
   </g>
   <g id="patch_12">
    <path d="M 90 512.64 
L 90 69.12 
" style="fill: none; stroke: #000000; stroke-width: 0.8; stroke-linejoin: miter; stroke-linecap: square"/>
   </g>
   <g id="patch_13">
    <path d="M 648 512.64 
L 648 69.12 
" style="fill: none; stroke: #000000; stroke-width: 0.8; stroke-linejoin: miter; stroke-linecap: square"/>
   </g>
   <g id="patch_14">
    <path d="M 90 512.64 
L 648 512.64 
" style="fill: none; stroke: #000000; stroke-width: 0.8; stroke-linejoin: miter; stroke-linecap: square"/>
   </g>
   <g id="patch_15">
    <path d="M 90 69.12 
L 648 69.12 
" style="fill: none; stroke: #000000; stroke-width: 0.8; stroke-linejoin: miter; stroke-linecap: square"/>
   </g>
   <g id="text_14">
    <!-- 0.69 -->
    <g transform="translate(194.592163 246.037468) scale(0.1 -0.1)">
     <defs>
      <path id="DejaVuSans-36" d="M 2113 2584 
Q 1688 2584 1439 2293 
Q 1191 2003 1191 1497 
Q 1191 994 1439 701 
Q 1688 409 2113 409 
Q 2538 409 2786 701 
Q 3034 994 3034 1497 
Q 3034 2003 2786 2293 
Q 2538 2584 2113 2584 
z
M 3366 4563 
L 3366 3988 
Q 3128 4100 2886 4159 
Q 2644 4219 2406 4219 
Q 1781 4219 1451 3797 
Q 1122 3375 1075 2522 
Q 1259 2794 1537 2939 
Q 1816 3084 2150 3084 
Q 2853 3084 3261 2657 
Q 3669 2231 3669 1497 
Q 3669 778 3244 343 
Q 2819 -91 2113 -91 
Q 1303 -91 875 529 
Q 447 1150 447 2328 
Q 447 3434 972 4092 
Q 1497 4750 2381 4750 
Q 2619 4750 2861 4703 
Q 3103 4656 3366 4563 
z
" transform="scale(0.015625)"/>
      <path id="DejaVuSans-39" d="M 703 97 
L 703 672 
Q 941 559 1184 500 
Q 1428 441 1663 441 
Q 2288 441 2617 861 
Q 2947 1281 2994 2138 
Q 2813 1869 2534 1725 
Q 2256 1581 1919 1581 
Q 1219 1581 811 2004 
Q 403 2428 403 3163 
Q 403 3881 828 4315 
Q 1253 4750 1959 4750 
Q 2769 4750 3195 4129 
Q 3622 3509 3622 2328 
Q 3622 1225 3098 567 
Q 2575 -91 1691 -91 
Q 1453 -91 1209 -44 
Q 966 3 703 97 
z
M 1959 2075 
Q 2384 2075 2632 2365 
Q 2881 2656 2881 3163 
Q 2881 3666 2632 3958 
Q 2384 4250 1959 4250 
Q 1534 4250 1286 3958 
Q 1038 3666 1038 3163 
Q 1038 2656 1286 2365 
Q 1534 2075 1959 2075 
z
" transform="scale(0.015625)"/>
     </defs>
     <use xlink:href="#DejaVuSans-30"/>
     <use xlink:href="#DejaVuSans-2e" transform="translate(63.623047 0)"/>
     <use xlink:href="#DejaVuSans-36" transform="translate(95.410156 0)"/>
     <use xlink:href="#DejaVuSans-39" transform="translate(159.033203 0)"/>
    </g>
   </g>
   <g id="text_15">
    <!-- 0.60 -->
    <g transform="translate(455.3952 317.690975) scale(0.1 -0.1)">
     <use xlink:href="#DejaVuSans-30"/>
     <use xlink:href="#DejaVuSans-2e" transform="translate(63.623047 0)"/>
     <use xlink:href="#DejaVuSans-36" transform="translate(95.410156 0)"/>
     <use xlink:href="#DejaVuSans-30" transform="translate(159.033203 0)"/>
    </g>
   </g>
   <g id="text_16">
    <!-- 0.83 -->
    <g transform="translate(439.869165 130.434951) scale(0.1 -0.1)">
     <defs>
      <path id="DejaVuSans-38" d="M 2034 2216 
Q 1584 2216 1326 1975 
Q 1069 1734 1069 1313 
Q 1069 891 1326 650 
Q 1584 409 2034 409 
Q 2484 409 2743 651 
Q 3003 894 3003 1313 
Q 3003 1734 2745 1975 
Q 2488 2216 2034 2216 
z
M 1403 2484 
Q 997 2584 770 2862 
Q 544 3141 544 3541 
Q 544 4100 942 4425 
Q 1341 4750 2034 4750 
Q 2731 4750 3128 4425 
Q 3525 4100 3525 3541 
Q 3525 3141 3298 2862 
Q 3072 2584 2669 2484 
Q 3125 2378 3379 2068 
Q 3634 1759 3634 1313 
Q 3634 634 3220 271 
Q 2806 -91 2034 -91 
Q 1263 -91 848 271 
Q 434 634 434 1313 
Q 434 1759 690 2068 
Q 947 2378 1403 2484 
z
M 1172 3481 
Q 1172 3119 1398 2916 
Q 1625 2713 2034 2713 
Q 2441 2713 2670 2916 
Q 2900 3119 2900 3481 
Q 2900 3844 2670 4047 
Q 2441 4250 2034 4250 
Q 1625 4250 1398 4047 
Q 1172 3844 1172 3481 
z
" transform="scale(0.015625)"/>
     </defs>
     <use xlink:href="#DejaVuSans-30"/>
     <use xlink:href="#DejaVuSans-2e" transform="translate(63.623047 0)"/>
     <use xlink:href="#DejaVuSans-38" transform="translate(95.410156 0)"/>
     <use xlink:href="#DejaVuSans-33" transform="translate(159.033203 0)"/>
    </g>
   </g>
   <g id="text_17">
    <!-- 0.76 -->
    <g transform="translate(442.869026 423.900421) scale(0.1 -0.1)">
     <defs>
      <path id="DejaVuSans-37" d="M 525 4666 
L 3525 4666 
L 3525 4397 
L 1831 0 
L 1172 0 
L 2766 4134 
L 525 4134 
L 525 4666 
z
" transform="scale(0.015625)"/>
     </defs>
     <use xlink:href="#DejaVuSans-30"/>
     <use xlink:href="#DejaVuSans-2e" transform="translate(63.623047 0)"/>
     <use xlink:href="#DejaVuSans-37" transform="translate(95.410156 0)"/>
     <use xlink:href="#DejaVuSans-36" transform="translate(159.033203 0)"/>
    </g>
   </g>
   <g id="text_18">
    <!-- 0.75 -->
    <g transform="translate(204.820003 291.134966) scale(0.1 -0.1)">
     <defs>
      <path id="DejaVuSans-35" d="M 691 4666 
L 3169 4666 
L 3169 4134 
L 1269 4134 
L 1269 2991 
Q 1406 3038 1543 3061 
Q 1681 3084 1819 3084 
Q 2600 3084 3056 2656 
Q 3513 2228 3513 1497 
Q 3513 744 3044 326 
Q 2575 -91 1722 -91 
Q 1428 -91 1123 -41 
Q 819 9 494 109 
L 494 744 
Q 775 591 1075 516 
Q 1375 441 1709 441 
Q 2250 441 2565 725 
Q 2881 1009 2881 1497 
Q 2881 1984 2565 2268 
Q 2250 2553 1709 2553 
Q 1456 2553 1204 2497 
Q 953 2441 691 2322 
L 691 4666 
z
" transform="scale(0.015625)"/>
     </defs>
     <use xlink:href="#DejaVuSans-30"/>
     <use xlink:href="#DejaVuSans-2e" transform="translate(63.623047 0)"/>
     <use xlink:href="#DejaVuSans-37" transform="translate(95.410156 0)"/>
     <use xlink:href="#DejaVuSans-35" transform="translate(159.033203 0)"/>
    </g>
   </g>
   <g id="text_19">
    <!-- 0.61 -->
    <g transform="translate(325.941727 194.057079) scale(0.1 -0.1)">
     <use xlink:href="#DejaVuSans-30"/>
     <use xlink:href="#DejaVuSans-2e" transform="translate(63.623047 0)"/>
     <use xlink:href="#DejaVuSans-36" transform="translate(95.410156 0)"/>
     <use xlink:href="#DejaVuSans-31" transform="translate(159.033203 0)"/>
    </g>
   </g>
   <g id="text_20">
    <!-- 0.98 -->
    <g transform="translate(121.969459 246.083893) scale(0.1 -0.1)">
     <use xlink:href="#DejaVuSans-30"/>
     <use xlink:href="#DejaVuSans-2e" transform="translate(63.623047 0)"/>
     <use xlink:href="#DejaVuSans-39" transform="translate(95.410156 0)"/>
     <use xlink:href="#DejaVuSans-38" transform="translate(159.033203 0)"/>
    </g>
   </g>
   <g id="text_21">
    <!-- 0.90 -->
    <g transform="translate(393.529768 343.219013) scale(0.1 -0.1)">
     <use xlink:href="#DejaVuSans-30"/>
     <use xlink:href="#DejaVuSans-2e" transform="translate(63.623047 0)"/>
     <use xlink:href="#DejaVuSans-39" transform="translate(95.410156 0)"/>
     <use xlink:href="#DejaVuSans-30" transform="translate(159.033203 0)"/>
    </g>
   </g>
   <g id="text_22">
    <!-- 0.55 -->
    <g transform="translate(483.570533 135.619959) scale(0.1 -0.1)">
     <use xlink:href="#DejaVuSans-30"/>
     <use xlink:href="#DejaVuSans-2e" transform="translate(63.623047 0)"/>
     <use xlink:href="#DejaVuSans-35" transform="translate(95.410156 0)"/>
     <use xlink:href="#DejaVuSans-35" transform="translate(159.033203 0)"/>
    </g>
   </g>
   <g id="text_23">
    <!-- CRE-10-2025-10-23_EN -->
    <g transform="translate(298.73625 63.12) scale(0.12 -0.12)">
     <defs>
      <path id="DejaVuSans-43" d="M 4122 4306 
L 4122 3641 
Q 3803 3938 3442 4084 
Q 3081 4231 2675 4231 
Q 1875 4231 1450 3742 
Q 1025 3253 1025 2328 
Q 1025 1406 1450 917 
Q 1875 428 2675 428 
Q 3081 428 3442 575 
Q 3803 722 4122 1019 
L 4122 359 
Q 3791 134 3420 21 
Q 3050 -91 2638 -91 
Q 1578 -91 968 557 
Q 359 1206 359 2328 
Q 359 3453 968 4101 
Q 1578 4750 2638 4750 
Q 3056 4750 3426 4639 
Q 3797 4528 4122 4306 
z
" transform="scale(0.015625)"/>
      <path id="DejaVuSans-52" d="M 2841 2188 
Q 3044 2119 3236 1894 
Q 3428 1669 3622 1275 
L 4263 0 
L 3584 0 
L 2988 1197 
Q 2756 1666 2539 1819 
Q 2322 1972 1947 1972 
L 1259 1972 
L 1259 0 
L 628 0 
L 628 4666 
L 2053 4666 
Q 2853 4666 3247 4331 
Q 3641 3997 3641 3322 
Q 3641 2881 3436 2590 
Q 3231 2300 2841 2188 
z
M 1259 4147 
L 1259 2491 
L 2053 2491 
Q 2509 2491 2742 2702 
Q 2975 2913 2975 3322 
Q 2975 3731 2742 3939 
Q 2509 4147 2053 4147 
L 1259 4147 
z
" transform="scale(0.015625)"/>
      <path id="DejaVuSans-45" d="M 628 4666 
L 3578 4666 
L 3578 4134 
L 1259 4134 
L 1259 2753 
L 3481 2753 
L 3481 2222 
L 1259 2222 
L 1259 531 
L 3634 531 
L 3634 0 
L 628 0 
L 628 4666 
z
" transform="scale(0.015625)"/>
      <path id="DejaVuSans-2d" d="M 313 2009 
L 1997 2009 
L 1997 1497 
L 313 1497 
L 313 2009 
z
" transform="scale(0.015625)"/>
      <path id="DejaVuSans-5f" d="M 3263 -1063 
L 3263 -1509 
L -63 -1509 
L -63 -1063 
L 3263 -1063 
z
" transform="scale(0.015625)"/>
      <path id="DejaVuSans-4e" d="M 628 4666 
L 1478 4666 
L 3547 763 
L 3547 4666 
L 4159 4666 
L 4159 0 
L 3309 0 
L 1241 3903 
L 1241 0 
L 628 0 
L 628 4666 
z
" transform="scale(0.015625)"/>
     </defs>
     <use xlink:href="#DejaVuSans-43"/>
     <use xlink:href="#DejaVuSans-52" transform="translate(69.824219 0)"/>
     <use xlink:href="#DejaVuSans-45" transform="translate(139.306641 0)"/>
     <use xlink:href="#DejaVuSans-2d" transform="translate(202.490234 0)"/>
     <use xlink:href="#DejaVuSans-31" transform="translate(238.574219 0)"/>
     <use xlink:href="#DejaVuSans-30" transform="translate(302.197266 0)"/>
     <use xlink:href="#DejaVuSans-2d" transform="translate(365.820312 0)"/>
     <use xlink:href="#DejaVuSans-32" transform="translate(401.904297 0)"/>
     <use xlink:href="#DejaVuSans-30" transform="translate(465.527344 0)"/>
     <use xlink:href="#DejaVuSans-32" transform="translate(529.150391 0)"/>
     <use xlink:href="#DejaVuSans-35" transform="translate(592.773438 0)"/>
     <use xlink:href="#DejaVuSans-2d" transform="translate(656.396484 0)"/>
     <use xlink:href="#DejaVuSans-31" transform="translate(692.480469 0)"/>
     <use xlink:href="#DejaVuSans-30" transform="translate(756.103516 0)"/>
     <use xlink:href="#DejaVuSans-2d" transform="translate(819.726562 0)"/>
     <use xlink:href="#DejaVuSans-32" transform="translate(855.810547 0)"/>
     <use xlink:href="#DejaVuSans-33" transform="translate(919.433594 0)"/>
     <use xlink:href="#DejaVuSans-5f" transform="translate(983.056641 0)"/>
     <use xlink:href="#DejaVuSans-45" transform="translate(1033.056641 0)"/>
     <use xlink:href="#DejaVuSans-4e" transform="translate(1096.240234 0)"/>
    </g>
   </g>
  </g>
 </g>
 <defs>
  <clipPath id="p8f3ac0bc3a">
   <rect x="90" y="69.12" width="558" height="443.52"/>
  </clipPath>
 </defs>
</svg>
